<svg xmlns="http://www.w3.org/2000/svg" width="1002" height="310.357" viewBox="0 0 1002 310.357">
  <g id="Grupo_144203" data-name="Grupo 144203" transform="translate(-299 -4528.643)">
    <g id="Rectángulo_42511" data-name="Rectángulo 42511" transform="translate(299 4528.643)" fill="#bada95" stroke="#707070" stroke-width="1">
      <rect width="330" height="310" stroke="none"/>
      <rect x="0.5" y="0.5" width="329" height="309" fill="none"/>
    </g>
    <g id="Rectángulo_42512" data-name="Rectángulo 42512" transform="translate(635 4529)" fill="#f5db9a" stroke="#707070" stroke-width="1">
      <rect width="330" height="310" stroke="none"/>
      <rect x="0.5" y="0.5" width="329" height="309" fill="none"/>
    </g>
    <g id="Rectángulo_42513" data-name="Rectángulo 42513" transform="translate(971 4529)" fill="#bada95" stroke="#707070" stroke-width="1">
      <rect width="330" height="310" stroke="none"/>
      <rect x="0.5" y="0.5" width="329" height="309" fill="none"/>
    </g>
    <path id="Unión_1" data-name="Unión 1" d="M1667,11721H1148v12l-29-16.5,29-16.5v11h519v-11l29,16.5-29,16.5Z" transform="translate(-614 -6931.357)" fill="#fff"/>
    <text id="_1._Objetivo" data-name="1. Objetivo" transform="translate(416 4734)" fill="#12263f" font-size="20" font-family="Roboto-Bold, Roboto" font-weight="700"><tspan x="0" y="0">1. Objetivo</tspan></text>
    <text id="_2._Plan_de_Acción" data-name="2. Plan de Acción" transform="translate(722 4734)" fill="#12263f" font-size="20" font-family="Roboto-Bold, Roboto" font-weight="700"><tspan x="0" y="0">2. Plan de Acción</tspan></text>
    <text id="_3._Ejecución" data-name="3. Ejecución" transform="translate(1082 4734)" fill="#12263f" font-size="20" font-family="Roboto-Bold, Roboto" font-weight="700"><tspan x="0" y="0">3. Ejecución</tspan></text>
    <g id="Elipse_4917" data-name="Elipse 4917" transform="translate(403 4574.643)" fill="#e9f3dd" stroke="#707070" stroke-width="1">
      <circle cx="54.5" cy="54.5" r="54.5" stroke="none"/>
      <circle cx="54.5" cy="54.5" r="54" fill="none"/>
    </g>
    <path id="Trazado_186214" data-name="Trazado 186214" d="M36.464,141.4a25.162,25.162,0,0,1,20.431-24.71V95.011H7.5v65.526a.961.961,0,0,0,.961.961H46.5A25.115,25.115,0,0,1,36.464,141.4Z" transform="translate(421.248 4506.467)" fill="#fff"/>
    <path id="Trazado_186215" data-name="Trazado 186215" d="M15.475,161.345V96.011H7.5v65.334a.961.961,0,0,0,.961.961h7.975A.961.961,0,0,1,15.475,161.345Z" transform="translate(421.248 4505.659)" fill="#f3f0f3"/>
    <path id="Trazado_186216" data-name="Trazado 186216" d="M56.895,54.582H7.5V46.648a1.922,1.922,0,0,1,1.922-1.922H54.973a1.922,1.922,0,0,1,1.922,1.922Z" transform="translate(421.248 4547.088)" fill="#ffb500"/>
    <path id="Trazado_186218" data-name="Trazado 186218" d="M450.5,310.865h-6.8a.961.961,0,0,0-.713.317l-4.143,4.586,4.143,4.587a.96.96,0,0,0,.713.317h6.8a.961.961,0,0,0,.84-1.428l-1.933-3.476,1.933-3.476A.961.961,0,0,0,450.5,310.865Z" transform="translate(72.797 4332.095)" fill="#ffb500"/>
    <circle id="Elipse_4913" data-name="Elipse 4913" cx="25.155" cy="25.155" r="25.155" transform="translate(457.712 4622.708)" fill="#eaf6ff"/>
    <circle id="Elipse_4914" data-name="Elipse 4914" cx="18.294" cy="18.294" r="18.294" transform="translate(464.572 4629.569)" fill="#bada95"/>
    <circle id="Elipse_4915" data-name="Elipse 4915" cx="11.434" cy="11.434" r="11.434" transform="translate(471.433 4636.43)" fill="#eaf6ff"/>
    <path id="Trazado_186220" data-name="Trazado 186220" d="M50.167,124.78l-2.525,2.525-1.153-1.153a1.441,1.441,0,0,0-2.038,2.038l2.172,2.172a1.442,1.442,0,0,0,2.039,0l3.545-3.545a1.441,1.441,0,1,0-2.039-2.038Z" transform="translate(391.739 4482.76)"/>
    <path id="Trazado_186221" data-name="Trazado 186221" d="M109.726,136.464H129.85a1.441,1.441,0,1,0,0-2.883H109.726a1.441,1.441,0,0,0,0,2.883Z" transform="translate(339.831 4475.309)"/>
    <path id="Trazado_186222" data-name="Trazado 186222" d="M50.167,171.039l-2.525,2.525-1.153-1.153a1.441,1.441,0,0,0-2.038,2.038l2.172,2.173a1.442,1.442,0,0,0,2.039,0l3.544-3.545a1.441,1.441,0,1,0-2.038-2.038Z" transform="translate(391.739 4445.391)"/>
    <path id="Trazado_186223" data-name="Trazado 186223" d="M109.726,182.722H129.85a1.441,1.441,0,1,0,0-2.883H109.726a1.441,1.441,0,1,0,0,2.883Z" transform="translate(339.831 4437.941)"/>
    <path id="Trazado_186224" data-name="Trazado 186224" d="M50.167,217.3l-2.525,2.525-1.153-1.153a1.441,1.441,0,0,0-2.038,2.038l2.172,2.173a1.442,1.442,0,0,0,2.039,0l3.544-3.545a1.441,1.441,0,0,0-2.038-2.038Z" transform="translate(391.739 4408.021)"/>
    <path id="Trazado_186225" data-name="Trazado 186225" d="M50.167,263.558l-2.525,2.525-1.153-1.153a1.441,1.441,0,0,0-2.038,2.038l2.172,2.172a1.441,1.441,0,0,0,2.039,0l3.545-3.544a1.441,1.441,0,0,0-2.039-2.038Z" transform="translate(391.739 4370.652)"/>
    <path id="Trazado_186226" data-name="Trazado 186226" d="M50.167,309.817l-2.525,2.525-1.153-1.153a1.441,1.441,0,0,0-2.038,2.038l2.172,2.173a1.442,1.442,0,0,0,2.039,0l3.545-3.545a1.442,1.442,0,0,0-2.039-2.039Z" transform="translate(391.739 4333.282)"/>
    <path id="Trazado_186227" data-name="Trazado 186227" d="M50.167,356.076,47.642,358.6l-1.153-1.153a1.441,1.441,0,0,0-2.038,2.038l2.172,2.172a1.441,1.441,0,0,0,2.039,0l3.545-3.544a1.441,1.441,0,1,0-2.039-2.038Z" transform="translate(391.739 4295.914)"/>
    <path id="Trazado_186228" data-name="Trazado 186228" d="M96.545,94.717l1.543-2.775a2.4,2.4,0,0,0-2.1-3.57h-6.8a2.406,2.406,0,0,0-1.782.792L83.7,93.275H82.117A26.6,26.6,0,0,0,52.278,68.323V40.589a3.367,3.367,0,0,0-3.363-3.363H3.363A3.367,3.367,0,0,0,0,40.589v73.268a2.4,2.4,0,0,0,2.4,2.4H13.26a1.441,1.441,0,0,0,0-2.883H2.883V49.965H36.321a1.441,1.441,0,0,0,0-2.883H2.883V40.589a.481.481,0,0,1,.48-.48H48.914a.481.481,0,0,1,.48.48v6.493H43.048a1.441,1.441,0,0,0,0,2.883h6.347V68.843a26.5,26.5,0,0,0-9.883,4.68H22.251a1.441,1.441,0,0,0,0,2.883H36.289a26.728,26.728,0,0,0-4.3,6.007H22.251a1.441,1.441,0,0,0,0,2.883H30.69A26.37,26.37,0,0,0,29.183,91.3H22.251a1.441,1.441,0,1,0,0,2.883h6.72c0,.177-.007.353-.007.531a26.607,26.607,0,0,0,.568,5.476H22.251a1.441,1.441,0,0,0,0,2.883h8.06a26.638,26.638,0,0,0,6.317,10.3H19.986a1.441,1.441,0,0,0,0,2.883h20a26.581,26.581,0,0,0,42.134-20.1H83.7l3.714,4.112a2.406,2.406,0,0,0,1.782.792h6.8a2.4,2.4,0,0,0,2.1-3.57ZM69.279,84.939a16.7,16.7,0,0,1,3.072,8.336h-4a12.875,12.875,0,1,0,0,2.883h4a16.868,16.868,0,1,1-7.539-15.52A1.441,1.441,0,1,0,66.4,78.232a19.731,19.731,0,1,0,8.844,17.926h3.986a23.714,23.714,0,1,1,0-2.883H75.243a19.566,19.566,0,0,0-3.618-10.012,1.441,1.441,0,0,0-2.346,1.676ZM55.56,96.158h2.778a3.132,3.132,0,1,1,0-2.883H55.56a1.441,1.441,0,1,0,0,2.883Zm0-7.456A6.015,6.015,0,1,0,61.4,96.158h4.048a9.993,9.993,0,1,1,0-2.883H61.4A6.025,6.025,0,0,0,55.56,88.7Zm38.076,6.715,1.535,2.762H89.405L87.58,96.158h2.282a1.441,1.441,0,0,0,0-2.883H87.58l1.825-2.021h5.767l-1.535,2.762a1.441,1.441,0,0,0,0,1.4Z" transform="translate(427.307 4553.147)"/>
    <g id="Elipse_4917-2" data-name="Elipse 4917" transform="translate(739 4575)" fill="#fdf2d6" stroke="#707070" stroke-width="1">
      <circle cx="54.5" cy="54.5" r="54.5" stroke="none"/>
      <circle cx="54.5" cy="54.5" r="54" fill="none"/>
    </g>
    <rect id="Rectángulo_42515" data-name="Rectángulo 42515" width="2.576" height="2.576" transform="translate(811.053 4620.227)" fill="#183651"/>
    <rect id="Rectángulo_42516" data-name="Rectángulo 42516" width="2.576" height="2.576" transform="translate(818.91 4620.227)" fill="#183651"/>
    <rect id="Rectángulo_42517" data-name="Rectángulo 42517" width="2.576" height="2.576" transform="translate(826.637 4620.227)" fill="#183651"/>
    <rect id="Rectángulo_42518" data-name="Rectángulo 42518" width="2.576" height="2.576" transform="translate(763.787 4636.197)" fill="#183651"/>
    <rect id="Rectángulo_42519" data-name="Rectángulo 42519" width="2.576" height="2.576" transform="translate(771.514 4636.197)" fill="#183651"/>
    <rect id="Rectángulo_42520" data-name="Rectángulo 42520" width="2.576" height="2.576" transform="translate(779.371 4636.197)" fill="#183651"/>
    <rect id="Rectángulo_42521" data-name="Rectángulo 42521" width="7.985" height="2.576" transform="translate(773.575 4593.438)" fill="#183651"/>
    <rect id="Rectángulo_42522" data-name="Rectángulo 42522" width="17" height="10.432" transform="translate(788 4658.993)" fill="#78b62e"/>
    <path id="Trazado_186230" data-name="Trazado 186230" d="M210.485,437.574h-17a1.217,1.217,0,0,1-1.288-1.288V425.854a1.217,1.217,0,0,1,1.288-1.288h17a1.217,1.217,0,0,1,1.288,1.288v10.432A1.217,1.217,0,0,1,210.485,437.574ZM194.773,435H209.2v-7.856H194.773Z" transform="translate(594.515 4233.139)" fill="#183651"/>
    <rect id="Rectángulo_42523" data-name="Rectángulo 42523" width="17" height="10.432" transform="translate(788 4641.606)" fill="#e0e4e8"/>
    <path id="Trazado_186231" data-name="Trazado 186231" d="M210.485,331.236h-17a1.217,1.217,0,0,1-1.288-1.288V319.516a1.217,1.217,0,0,1,1.288-1.288h17a1.217,1.217,0,0,1,1.288,1.288v10.432A1.217,1.217,0,0,1,210.485,331.236Zm-15.712-2.576H209.2V320.8H194.773Z" transform="translate(594.515 4322.09)" fill="#183651"/>
    <rect id="Rectángulo_42524" data-name="Rectángulo 42524" width="17" height="10.432" transform="translate(788 4624.348)" fill="#bada95"/>
    <path id="Trazado_186232" data-name="Trazado 186232" d="M210.485,224.9h-17a1.217,1.217,0,0,1-1.288-1.288V213.177a1.217,1.217,0,0,1,1.288-1.288h17a1.217,1.217,0,0,1,1.288,1.288v10.432A1.217,1.217,0,0,1,210.485,224.9Zm-15.712-2.576H209.2v-7.856H194.773Z" transform="translate(594.515 4411.042)" fill="#183651"/>
    <rect id="Rectángulo_42525" data-name="Rectángulo 42525" width="17" height="10.432" transform="translate(788 4606.961)" fill="#e0e4e8"/>
    <path id="Trazado_186233" data-name="Trazado 186233" d="M210.485,119.346h-17a1.217,1.217,0,0,1-1.288-1.288V107.626a1.217,1.217,0,0,1,1.288-1.288h17a1.217,1.217,0,0,1,1.288,1.288v10.432A1.291,1.291,0,0,1,210.485,119.346Zm-15.712-2.576H209.2v-7.856H194.773Z" transform="translate(594.515 4499.335)" fill="#183651"/>
    <rect id="Rectángulo_42526" data-name="Rectángulo 42526" width="17" height="10.432" transform="translate(788 4589.575)" fill="#78b62e"/>
    <path id="Trazado_186234" data-name="Trazado 186234" d="M210.485,13.008h-17A1.217,1.217,0,0,1,192.2,11.72V1.288A1.217,1.217,0,0,1,193.485,0h17a1.217,1.217,0,0,1,1.288,1.288V11.72A1.291,1.291,0,0,1,210.485,13.008Zm-15.712-2.576H209.2V2.576H194.773Z" transform="translate(594.515 4588.287)" fill="#183651"/>
    <path id="Trazado_186237" data-name="Trazado 186237" d="M31.787,369.455H15.045a9.467,9.467,0,1,1,.129-18.932H37.325V353.1H15.173a6.955,6.955,0,0,0,0,13.909H31.916v2.447h-.129Z" transform="translate(750.674 4295.076)" fill="#183651"/>
    <path id="Trazado_186239" data-name="Trazado 186239" d="M31.787,156.908H15.045a9.509,9.509,0,0,1-9.531-9.531,9.62,9.62,0,0,1,9.659-9.531H37.325v2.576H15.173a6.955,6.955,0,1,0,0,13.909H31.916v2.576h-.129Z" transform="translate(750.674 4472.978)" fill="#183651"/>
    <path id="Trazado_186241" data-name="Trazado 186241" d="M326.2,263.1H309.458v-2.576H326.2a6.926,6.926,0,0,0,6.955-6.955v-.644a6.926,6.926,0,0,0-6.955-6.955H304.049V243.4H326.2a9.509,9.509,0,0,1,9.53,9.531v.644A9.509,9.509,0,0,1,326.2,263.1Z" transform="translate(500.951 4384.686)" fill="#183651"/>
    <path id="Trazado_186243" data-name="Trazado 186243" d="M326.2,51.213H309.458V48.637H326.2a6.926,6.926,0,0,0,6.955-6.955v-.644a6.926,6.926,0,0,0-6.955-6.955H304.049V31.508H326.2a9.509,9.509,0,0,1,9.53,9.531v.644A9.509,9.509,0,0,1,326.2,51.213Z" transform="translate(500.951 4561.93)" fill="#183651"/>
    <rect id="Rectángulo_42528" data-name="Rectángulo 42528" width="17" height="10.432" transform="translate(819.425 4658.993)" fill="#ffb500"/>
    <path id="Trazado_186244" data-name="Trazado 186244" d="M402.682,437.574h-17a1.217,1.217,0,0,1-1.288-1.288V425.854a1.217,1.217,0,0,1,1.288-1.288h17a1.217,1.217,0,0,1,1.288,1.288v10.432A1.217,1.217,0,0,1,402.682,437.574ZM386.97,435h14.425v-7.856H386.97Z" transform="translate(433.743 4233.139)" fill="#183651"/>
    <rect id="Rectángulo_42529" data-name="Rectángulo 42529" width="17" height="10.432" transform="translate(756.575 4589.575)" fill="#ffb500"/>
    <path id="Trazado_186245" data-name="Trazado 186245" d="M18.288,13.008h-17A1.217,1.217,0,0,1,0,11.72V1.288A1.217,1.217,0,0,1,1.288,0h17a1.217,1.217,0,0,1,1.288,1.288V11.72A1.291,1.291,0,0,1,18.288,13.008ZM2.576,10.432H17V2.576H2.576Z" transform="translate(755.287 4588.287)" fill="#183651"/>
    <g id="Elipse_4917-3" data-name="Elipse 4917" transform="translate(1082 4575)" fill="#e9f3dd" stroke="#707070" stroke-width="1">
      <circle cx="54.5" cy="54.5" r="54.5" stroke="none"/>
      <circle cx="54.5" cy="54.5" r="54" fill="none"/>
    </g>
    <path id="Trazado_186246" data-name="Trazado 186246" d="M86.194,53.363V42.832a1.549,1.549,0,0,0-1.549-1.549H78.851a31.3,31.3,0,0,0-4.187-10.116l4.1-4.1a1.548,1.548,0,0,0,0-2.19l-7.446-7.446a1.548,1.548,0,0,0-2.19,0l-4.1,4.1a31.3,31.3,0,0,0-10.116-4.187V11.549A1.549,1.549,0,0,0,53.363,10H42.832a1.549,1.549,0,0,0-1.549,1.549v5.8a31.3,31.3,0,0,0-10.1,4.194l-4.111-4.111a1.548,1.548,0,0,0-2.19,0l-7.446,7.446a1.548,1.548,0,0,0,0,2.19l4.12,4.12a31.291,31.291,0,0,0-4.172,10.092H11.549A1.549,1.549,0,0,0,10,42.832V53.363a1.549,1.549,0,0,0,1.549,1.549h5.843A31.3,31.3,0,0,0,21.57,64.988l-4.135,4.135a1.548,1.548,0,0,0,0,2.19l7.446,7.446a1.548,1.548,0,0,0,2.19,0l4.135-4.135A31.3,31.3,0,0,0,41.283,78.8v5.843a1.549,1.549,0,0,0,1.549,1.549H53.363a1.549,1.549,0,0,0,1.549-1.549V78.812A31.282,31.282,0,0,0,65,74.639l4.12,4.12a1.548,1.548,0,0,0,2.19,0l7.446-7.446a1.548,1.548,0,0,0,0-2.19l-4.111-4.111a31.292,31.292,0,0,0,4.194-10.1h5.8A1.549,1.549,0,0,0,86.194,53.363Zm0,0" transform="translate(1088.549 4581.549)" fill="#f5db9a"/>
    <path id="Trazado_186247" data-name="Trazado 186247" d="M44.911,79.292H34.38a3.1,3.1,0,0,1-3.1-3.1V71.571a32.717,32.717,0,0,1-8.3-3.44L19.716,71.4a3.1,3.1,0,0,1-4.38,0L7.889,63.956a3.1,3.1,0,0,1,0-4.38L11.161,56.3a32.717,32.717,0,0,1-3.44-8.3H3.1a3.1,3.1,0,0,1-3.1-3.1V34.38a3.1,3.1,0,0,1,3.1-3.1H7.711a32.717,32.717,0,0,1,3.436-8.31L7.889,19.715a3.1,3.1,0,0,1,0-4.38l7.447-7.447a3.1,3.1,0,0,1,4.38,0l3.247,3.247a32.717,32.717,0,0,1,8.32-3.454V3.1A3.1,3.1,0,0,1,34.38,0H44.911a3.1,3.1,0,0,1,3.1,3.1V7.671a32.732,32.732,0,0,1,8.334,3.45l3.233-3.233a3.1,3.1,0,0,1,4.38,0L71.4,15.335a3.1,3.1,0,0,1,0,4.38L68.17,22.949a32.732,32.732,0,0,1,3.45,8.334h4.574a3.1,3.1,0,0,1,3.1,3.1V44.911a3.1,3.1,0,0,1-3.1,3.1H71.61a32.738,32.738,0,0,1-3.454,8.32L71.4,59.576a3.1,3.1,0,0,1,0,4.38L63.956,71.4a3.1,3.1,0,0,1-4.38,0l-3.258-3.258a32.735,32.735,0,0,1-8.31,3.436v4.613A3.1,3.1,0,0,1,44.911,79.292ZM22.756,64.624a1.547,1.547,0,0,1,.833.243,29.653,29.653,0,0,0,9.578,3.972,1.549,1.549,0,0,1,1.214,1.512v5.843H44.911V70.36a1.548,1.548,0,0,1,1.216-1.512,29.676,29.676,0,0,0,9.592-3.966,1.549,1.549,0,0,1,1.927.211l4.12,4.12,7.446-7.446L65.1,57.656a1.549,1.549,0,0,1-.209-1.93,29.673,29.673,0,0,0,3.987-9.6,1.548,1.548,0,0,1,1.512-1.214h5.8V34.38H70.4a1.548,1.548,0,0,1-1.512-1.216,29.656,29.656,0,0,0-3.981-9.615,1.55,1.55,0,0,1,.211-1.929l4.1-4.1-7.446-7.446-4.1,4.1a1.55,1.55,0,0,1-1.929.211A29.669,29.669,0,0,0,46.127,10.4a1.548,1.548,0,0,1-1.216-1.512V3.1H34.38V8.9a1.549,1.549,0,0,1-1.214,1.512,29.669,29.669,0,0,0-9.6,3.986,1.548,1.548,0,0,1-1.929-.209l-4.111-4.111-7.446,7.446,4.12,4.12a1.548,1.548,0,0,1,.211,1.927,29.676,29.676,0,0,0-3.966,9.592A1.548,1.548,0,0,1,8.931,34.38H3.1V44.911H8.94a1.549,1.549,0,0,1,1.512,1.214A29.661,29.661,0,0,0,14.424,55.7a1.549,1.549,0,0,1-.211,1.929l-4.135,4.135,7.446,7.447,4.135-4.135A1.549,1.549,0,0,1,22.756,64.624Zm0,0" transform="translate(1097 4590)"/>
    <path id="Trazado_186248" data-name="Trazado 186248" d="M162.124,141.062A21.062,21.062,0,1,1,141.062,120,21.062,21.062,0,0,1,162.124,141.062Zm0,0" transform="translate(995.584 4488.584)" fill="#fff"/>
    <path id="Trazado_186249" data-name="Trazado 186249" d="M132.667,155.227A22.606,22.606,0,1,1,143.72,112.9a1.548,1.548,0,1,1-1.515,2.7,19.513,19.513,0,1,0,7.925,8.31,1.549,1.549,0,1,1,2.771-1.384,22.6,22.6,0,0,1-20.234,32.7Zm0,0" transform="translate(1003.978 4497.02)"/>
    <path id="Trazado_186250" data-name="Trazado 186250" d="M345.9,155.109a1.55,1.55,0,1,1,1.095-.454A1.558,1.558,0,0,1,345.9,155.109Zm0,0" transform="translate(805.977 4461.53)"/>
    <path id="Trazado_186251" data-name="Trazado 186251" d="M197.052,192.332l-8.61,8.61L184.2,196.7l-5.555,5.555,4.239,4.239,5.555,5.555,14.165-14.165Zm0,0" transform="translate(946.018 4427.454)" fill="#78b62e"/>
    <path id="Trazado_186252" data-name="Trazado 186252" d="M179.991,205.149a1.549,1.549,0,0,1-1.095-.454L169.1,194.9a1.548,1.548,0,0,1,0-2.19l5.555-5.555a1.55,1.55,0,0,1,2.191,0l3.143,3.144,7.515-7.515a1.548,1.548,0,0,1,2.19,0l5.555,5.555a1.549,1.549,0,0,1,0,2.19L181.086,204.7A1.551,1.551,0,0,1,179.991,205.149Zm-7.6-11.343,7.6,7.6,11.975-11.974-3.365-3.365-7.515,7.515a1.549,1.549,0,0,1-2.191,0l-3.144-3.144Zm0,0" transform="translate(954.47 4435.905)"/>
  </g>
</svg>
