<svg xmlns="http://www.w3.org/2000/svg" width="330" height="237" viewBox="0 0 330 237">
  <g id="Grupo_144176" data-name="Grupo 144176" transform="translate(-971 -2642)">
    <rect id="Rectángulo_42405" data-name="Rectángulo 42405" width="330" height="237" transform="translate(971 2642)" fill="#f5db9a"/>
    <text id="Calidad_de_la_vida_animal" data-name="Calidad de la vida animal" transform="translate(1023 2791)" fill="#12263f" font-size="20" font-family="Roboto-Bold, Roboto" font-weight="700"><tspan x="0" y="21">Calidad de la vida animal</tspan></text>
    <g id="vaca" transform="translate(1023 2664.27)">
      <path id="Trazado_146965" data-name="Trazado 146965" d="M235.628,179.141c.056.232.113.452.169.65a1.7,1.7,0,0,1-1.147,2.1l-.005,0a1.686,1.686,0,0,1-2.1-1.132c-.113-.395-.209-.794-.29-1.2-1.1.752-2.213,2.226-1.6,5.034a8.139,8.139,0,0,1,.086,2.434.244.244,0,0,0,.357.258l.742-.4a.245.245,0,0,1,.362.227,5.494,5.494,0,0,0,1.241,3.974,2.86,2.86,0,0,1,.96,2.082.249.249,0,0,0,.414.193c1.165-1.01,3.389-3.276,3.183-5.713a.241.241,0,0,1,.276-.266l.587.1a.245.245,0,0,0,.281-.189c.255-1.191,1.158-6.7-3.521-8.156Z" transform="translate(-141.307 -104.509)" fill="#52565b"/>
      <path id="Trazado_146966" data-name="Trazado 146966" d="M42.716,32.656a4.572,4.572,0,0,1-2.385-.575c-7.089-3.955-21.9,5.525-19,16.644a10.736,10.736,0,0,0,2.4,4.533c0-.011.006-.022.01-.033a6.885,6.885,0,0,1,12.077-1.633,1.579,1.579,0,0,0,2.029.49,6.885,6.885,0,0,1,10,6.961c0,.011,0,.022-.006.033a10.738,10.738,0,0,0,4.2-2.942c7.651-8.573-1.207-23.765-9.319-23.478Z" transform="translate(-12.85 -13.787)" fill="#e3e4e5"/>
      <path id="Trazado_146967" data-name="Trazado 146967" d="M117.022,122.886a4.407,4.407,0,0,1,.309-2.44c5.666-13.061,4.034-21.981,2.8-25.744a9.243,9.243,0,0,0-2.72-4.185c-4.868-4.151-13.034-2.183-29.115-.508a26.686,26.686,0,0,1-15.2-2.461A11.276,11.276,0,0,1,71.1,90.7a10.738,10.738,0,0,1-4.2,2.942,6.85,6.85,0,0,1-9.278,5.56c-1.387,2.021-3.474,3.134-5.466,2.653-.035-.009-.068-.021-.1-.03a95.268,95.268,0,0,0,1.208,11.73c1.578,8.2,8.878,10.688,11.4,11.307a1.48,1.48,0,0,1,1.091,1.11c1.342,5.868.789,14.066.59,16.413a1.124,1.124,0,0,1-.618.9,5.928,5.928,0,0,0-3.143,4.124.818.818,0,0,0,.806.983h9.575a.817.817,0,0,0,.789-.588,5.255,5.255,0,0,0-.414-4.147,1.6,1.6,0,0,1-.215-.594c-.2-1.408-.777-6.741,1.2-10.369a15.235,15.235,0,0,0,1.934-6.769.735.735,0,0,1,.886-.7c11.729,2.334,21.967-1.487,25.81-3.228a1.583,1.583,0,0,1,2.123.846,13.422,13.422,0,0,0,5.147,5.9,1.6,1.6,0,0,1,.705,1.6,44.381,44.381,0,0,1-3.232,10.581,2.406,2.406,0,0,1-1.237,1.249,6.808,6.808,0,0,0-4.011,4.912,1.066,1.066,0,0,0,1.035,1.309h9.929a1.157,1.157,0,0,0,1.079-.734,4.88,4.88,0,0,0-.028-3.594,2.446,2.446,0,0,1-.091-1.53l3.361-12.771a4.415,4.415,0,0,0,.091-1.814Z" transform="translate(-31.914 -48.354)" fill="#e3e4e5"/>
      <path id="Trazado_146968" data-name="Trazado 146968" d="M70.147,203.338a.788.788,0,0,1-.036-.191c0-.01,0-.019,0-.029a.779.779,0,0,1,.018-.188,5.929,5.929,0,0,1,3.143-4.124,1.122,1.122,0,0,0,.618-.9c.2-2.347.751-10.545-.59-16.413a1.482,1.482,0,0,0-1.091-1.11,17.727,17.727,0,0,1-5.282-2.28c.187,2.3,2.276,7.3,1.221,19.8a1.124,1.124,0,0,1-.618.9,5.928,5.928,0,0,0-3.143,4.124.818.818,0,0,0,.806.983H70.93A.824.824,0,0,1,70.147,203.338Z" transform="translate(-39.461 -103.871)" fill="#e3e4e5"/>
      <path id="Trazado_146969" data-name="Trazado 146969" d="M180.926,192.95c-.28-.18-.615-.411-.979-.688h0a8.644,8.644,0,0,1-4.41,4.155,46.328,46.328,0,0,1-2.881,8.71,2.406,2.406,0,0,1-1.237,1.249,6.808,6.808,0,0,0-4.011,4.912,1.066,1.066,0,0,0,1.035,1.309h5.743a1.066,1.066,0,0,1-1.035-1.309,6.807,6.807,0,0,1,4.011-4.912,2.4,2.4,0,0,0,1.237-1.249,44.381,44.381,0,0,0,3.232-10.581,1.6,1.6,0,0,0-.705-1.6Z" transform="translate(-102.62 -112.554)" fill="#e3e4e5"/>
      <g id="Grupo_143365" data-name="Grupo 143365" transform="translate(8.109 22.3)">
        <path id="Trazado_146970" data-name="Trazado 146970" d="M194.3,233.452a4.88,4.88,0,0,0-.028-3.594,2.433,2.433,0,0,1-.137-.534,13.845,13.845,0,0,1-7.152-1.848,2.281,2.281,0,0,1-.716.489,6.808,6.808,0,0,0-4.011,4.912,1.066,1.066,0,0,0,1.035,1.309h9.929A1.159,1.159,0,0,0,194.3,233.452Z" transform="translate(-119.829 -156.444)" fill="#52565b"/>
        <path id="Trazado_146971" data-name="Trazado 146971" d="M90.394,235.214a5.255,5.255,0,0,0-.414-4.147,1.714,1.714,0,0,1-.087-.183,13.759,13.759,0,0,1-6.989-.772,1.135,1.135,0,0,1-.535.582,5.928,5.928,0,0,0-3.143,4.124.818.818,0,0,0,.806.983h9.575A.816.816,0,0,0,90.394,235.214Z" transform="translate(-56.67 -158.059)" fill="#52565b"/>
        <path id="Trazado_146972" data-name="Trazado 146972" d="M173.152,232.877a7,7,0,0,1,2.438-3.981,15.883,15.883,0,0,1-3.453-1.42,2.281,2.281,0,0,1-.716.489,6.808,6.808,0,0,0-4.011,4.912,1.066,1.066,0,0,0,1.035,1.309h5.743A1.066,1.066,0,0,1,173.152,232.877Z" transform="translate(-110.729 -156.443)" fill="#52565b"/>
        <path id="Trazado_146973" data-name="Trazado 146973" d="M70.125,234.819a5.964,5.964,0,0,1,2.531-3.765,15.365,15.365,0,0,1-4.6-.941,1.135,1.135,0,0,1-.535.582,5.928,5.928,0,0,0-3.143,4.124.818.818,0,0,0,.806.983H70.93a.818.818,0,0,1-.806-.983Z" transform="translate(-47.57 -158.059)" fill="#52565b"/>
        <path id="Trazado_146974" data-name="Trazado 146974" d="M66.377,108.124a6.829,6.829,0,0,1-8.757,3.694c-1.387,2.021-3.474,3.134-5.466,2.653-.035-.009-.069-.021-.1-.03a95.362,95.362,0,0,0,1.209,11.73c.069.358.152.7.241,1.036a7.508,7.508,0,0,0,1.271.112,7.858,7.858,0,0,0,7.864-7.505,5.187,5.187,0,0,1,2.52-4.2c2.422-1.467,3.829-4.191,2.675-6.191a3.146,3.146,0,0,0-1.453-1.3Z" transform="translate(-40.021 -83.269)" fill="#52565b"/>
        <path id="Trazado_146975" data-name="Trazado 146975" d="M132.956,101.833a4.693,4.693,0,0,0,9.026-1.805,2.336,2.336,0,0,1,1.593-2.192,6.5,6.5,0,0,0,4.327-6.509,6.374,6.374,0,0,0-.314-1.637c-3.974.378-8.766,1.024-14.607,1.633a30.832,30.832,0,0,1-7.849-.132,7.445,7.445,0,0,0-.178,1.208,7.659,7.659,0,0,0,6.307,8,2.312,2.312,0,0,1,1.7,1.439Z" transform="translate(-84.709 -71.967)" fill="#52565b"/>
        <path id="Trazado_146976" data-name="Trazado 146976" d="M210.192,114.222a4.779,4.779,0,0,0-4.68,2.515,1.876,1.876,0,0,1-1.485.951,7.076,7.076,0,0,0-1.435,13.779,1.854,1.854,0,0,1,1.251,1.481,3.637,3.637,0,0,0,3.1,3.038c4.088-9.819,4.039-17.224,3.245-21.764Z" transform="translate(-129.301 -86.995)" fill="#52565b"/>
        <path id="Trazado_146977" data-name="Trazado 146977" d="M128.934,139.25a4.706,4.706,0,0,1-3.235-2.273,4.212,4.212,0,0,0-7.592,3.51,2.216,2.216,0,0,1-.069,1.707,4.781,4.781,0,0,0,4.54,6.939,2.315,2.315,0,0,1,1.65.526,5.935,5.935,0,1,0,4.706-10.409Z" transform="translate(-80.159 -99.732)" fill="#52565b"/>
        <path id="Trazado_146978" data-name="Trazado 146978" d="M36.074,55.157c1.215-5.036-1.411-9.99-5.866-11.065a7.722,7.722,0,0,0-5.719.895C21.755,48.122,20.2,52.2,21.33,56.523a10.736,10.736,0,0,0,2.4,4.533c0-.011.006-.022.01-.033a6.877,6.877,0,0,1,11.046-2.775A10.452,10.452,0,0,0,36.074,55.157Z" transform="translate(-20.959 -43.885)" fill="#52565b"/>
      </g>
      <path id="Trazado_146979" data-name="Trazado 146979" d="M118.557,53.393a7.755,7.755,0,0,0-9.109-.92,9.814,9.814,0,0,1-4.725,1.182A17.1,17.1,0,0,1,106.3,60c6.753,2.742,11.113-2.881,12.513-5.092a1.153,1.153,0,0,0-.258-1.511Z" transform="translate(-64.205 -26.192)" fill="#f5db9a"/>
      <path id="Trazado_146980" data-name="Trazado 146980" d="M11.338,34.921l.05-.087q.178-.307.37-.606l.038-.058q.186-.287.386-.566l.036-.051q.211-.293.436-.576l.055-.068a18.026,18.026,0,0,1,2.908-2.876,9.814,9.814,0,0,1-3.666-3.206A7.755,7.755,0,0,0,3.423,23.49,1.153,1.153,0,0,0,2.5,24.717c.237,2.606,1.553,9.6,8.813,10.238l.02-.034Z" transform="translate(-1.533 -8.948)" fill="#f5db9a"/>
      <path id="Trazado_146981" data-name="Trazado 146981" d="M100.392,42.62a9.814,9.814,0,0,0,4.725-1.182,7.3,7.3,0,0,1,1.531-.708c.058-.019.117-.033.175-.05a8.222,8.222,0,0,0,1.686-5.964A1.37,1.37,0,0,0,106,34.01c-2,2.9-5.882,3.93-8.342,4.3A18.66,18.66,0,0,1,100.392,42.62Z" transform="translate(-59.874 -15.157)" fill="#f4dbce"/>
      <path id="Trazado_146982" data-name="Trazado 146982" d="M24.749,19.414a9.815,9.815,0,0,0,3.666,3.206,18.655,18.655,0,0,1,4.394-2.59c-2.021-1.449-5.01-4.141-5.469-7.634a1.37,1.37,0,0,0-2.554-.514,8.228,8.228,0,0,0-1.222,6.067,7.287,7.287,0,0,1,1.186,1.464Z" transform="translate(-14.332 -1.536)" fill="#f4dbce"/>
      <path id="Trazado_146983" data-name="Trazado 146983" d="M231.253,120.387c.906-5.434,6.706-20.854-7.536-22.321a9.72,9.72,0,0,1,1.658,3.084c.112.342.228.728.341,1.155,1.977.68,3.814,2.309,3.814,6.021,0,7.465-3.136,15.756-1.132,22.727a1.685,1.685,0,0,0,2.1,1.132l.005,0a1.7,1.7,0,0,0,1.147-2.1,22.337,22.337,0,0,1-.4-9.7Z" transform="translate(-137.159 -54.803)" fill="#e3e4e5"/>
      <path id="Trazado_146984" data-name="Trazado 146984" d="M118.557,53.393a7.755,7.755,0,0,0-9.109-.92,9.814,9.814,0,0,1-4.725,1.182,18.242,18.242,0,0,1,1.1,3.112,8.306,8.306,0,0,0,4.483-1.329,9.973,9.973,0,0,1,8.673-1.021A1.163,1.163,0,0,0,118.557,53.393Z" transform="translate(-64.205 -26.192)" fill="#e3e4e5"/>
      <path id="Trazado_146985" data-name="Trazado 146985" d="M15.743,30.033a9.814,9.814,0,0,1-3.666-3.206A7.755,7.755,0,0,0,3.55,23.491a1.163,1.163,0,0,0-.843.718A9.973,9.973,0,0,1,9.96,29.073,8.312,8.312,0,0,0,13.343,32.3,18.248,18.248,0,0,1,15.743,30.033Z" transform="translate(-1.66 -8.949)" fill="#e3e4e5"/>
      <path id="Trazado_146986" data-name="Trazado 146986" d="M48.921,110.355a1.568,1.568,0,0,0-2.017-.487,6.845,6.845,0,0,1-4.027.721c.316,2.424,1.665,4.36,3.653,4.84s4.087-.636,5.474-2.664A6.853,6.853,0,0,1,48.921,110.355Z" transform="translate(-26.288 -61.927)" fill="#e3e4e5"/>
      <path id="Trazado_146987" data-name="Trazado 146987" d="M52.005,110.343a1.568,1.568,0,0,0-2.017-.487,6.855,6.855,0,0,1-2.051.681,3.633,3.633,0,0,0,2.32,2.216,3.674,3.674,0,0,0,3.136-.965,6.82,6.82,0,0,1-1.389-1.445Z" transform="translate(-29.391 -61.92)" fill="#fd605b"/>
      <path id="Trazado_146988" data-name="Trazado 146988" d="M174.02,182.44a12.844,12.844,0,0,1-4.17-5.211,1.583,1.583,0,0,0-2.123-.846,45.91,45.91,0,0,1-10.016,3.155,8.616,8.616,0,0,0,16.308,2.9Z" transform="translate(-96.692 -102.731)" fill="#fcef91"/>
      <path id="Trazado_146989" data-name="Trazado 146989" d="M51.577,86.826a6.885,6.885,0,0,0-10-6.961,1.578,1.578,0,0,1-2.029-.49A6.892,6.892,0,1,0,37.111,89.49a1.568,1.568,0,0,1,2.017.487,6.886,6.886,0,0,0,12.449-3.151Z" transform="translate(-16.584 -41.571)" fill="#f5db9a"/>
      <path id="Trazado_146990" data-name="Trazado 146990" d="M111.876,147.831h-9.929a2.033,2.033,0,0,1-1.979-2.49,7.8,7.8,0,0,1,4.576-5.587,1.438,1.438,0,0,0,.733-.753,43.781,43.781,0,0,0,3.16-10.337.632.632,0,0,0-.274-.633,14.348,14.348,0,0,1-5.52-6.348.616.616,0,0,0-.827-.329c-3.913,1.773-14.254,5.626-26.14,3.346a16.4,16.4,0,0,1-2.041,6.93c-1.868,3.425-1.239,8.741-1.094,9.771a.631.631,0,0,0,.088.233,6.239,6.239,0,0,1,.515,4.9,1.787,1.787,0,0,1-1.72,1.294H61.849a1.785,1.785,0,0,1-1.4-.668,1.767,1.767,0,0,1-.354-1.487,6.919,6.919,0,0,1,3.65-4.782.158.158,0,0,0,.092-.122c.2-2.335.739-10.4-.569-16.117a.513.513,0,0,0-.38-.387c-2.412-.593-10.413-3.216-12.114-12.063a74.338,74.338,0,0,1-1.074-9.655c-.048-.74-.1-1.468-.149-2.185a.967.967,0,0,1,1.215-1.006l.083.024c1.525.368,3.228-.5,4.438-2.261a.968.968,0,0,1,1.141-.357,5.827,5.827,0,0,0,.71.226,5.925,5.925,0,0,0,7.266-5.009.966.966,0,0,1,.612-.776,9.837,9.837,0,0,0,3.824-2.683,10.337,10.337,0,0,0,1.824-2.884A.967.967,0,0,1,72,85.153a25.888,25.888,0,0,0,14.66,2.361c2.822-.294,5.448-.6,7.764-.875,11.442-1.345,17.746-2.086,22.079,1.609a10.216,10.216,0,0,1,3.012,4.62c1.389,4.232,2.87,13.292-2.829,26.431a3.435,3.435,0,0,0-.241,1.9l.8,5.068a5.35,5.35,0,0,1-.111,2.211l-3.361,12.771a1.469,1.469,0,0,0,.054.926,5.886,5.886,0,0,1,.032,4.3,2.133,2.133,0,0,1-1.981,1.352Zm-9.805-28.469a2.558,2.558,0,0,1,2.364,1.593,12.4,12.4,0,0,0,4.775,5.45,2.569,2.569,0,0,1,1.138,2.559,44.939,44.939,0,0,1-3.3,10.826,3.363,3.363,0,0,1-1.741,1.745,5.82,5.82,0,0,0-3.448,4.236.106.106,0,0,0,.02.093.087.087,0,0,0,.073.034h9.929a.192.192,0,0,0,.178-.116,3.894,3.894,0,0,0-.025-2.886,3.394,3.394,0,0,1-.128-2.135l3.361-12.771a3.441,3.441,0,0,0,.072-1.417l-.8-5.067a5.363,5.363,0,0,1,.377-2.976c5.445-12.551,4.07-21.087,2.766-25.058a8.287,8.287,0,0,0-2.429-3.751c-3.691-3.147-9.7-2.441-20.6-1.16-2.322.273-4.954.582-7.79.878a28.173,28.173,0,0,1-14.842-2.127,12.3,12.3,0,0,1-1.731,2.5A11.823,11.823,0,0,1,66.231,92.8a7.857,7.857,0,0,1-9.542,6.073c-.08-.019-.161-.041-.244-.064a6.416,6.416,0,0,1-4.878,2.595q.034.508.067,1.023a72.777,72.777,0,0,0,1.043,9.415c1.444,7.507,7.947,9.879,10.677,10.55a2.439,2.439,0,0,1,1.8,1.834c1.37,5.993.814,14.306.611,16.71a2.078,2.078,0,0,1-1.144,1.685,4.909,4.909,0,0,0-2.592,3.278h9.28a4.265,4.265,0,0,0-.346-3.273,2.555,2.555,0,0,1-.342-.953c-.225-1.6-.795-7.107,1.311-10.968a14.273,14.273,0,0,0,1.817-6.333,1.692,1.692,0,0,1,.637-1.278,1.71,1.71,0,0,1,1.4-.34c11.443,2.278,21.45-1.451,25.222-3.16a2.547,2.547,0,0,1,1.055-.23Z" transform="translate(-30.38 -46.821)"/>
      <path id="Trazado_146991" data-name="Trazado 146991" d="M164.749,186.7a9.551,9.551,0,0,1-9.532-8.6.967.967,0,0,1,.778-1.048,45.232,45.232,0,0,0,9.8-3.086,2.551,2.551,0,0,1,3.418,1.363,11.9,11.9,0,0,0,3.859,4.806.967.967,0,0,1,.282,1.2A9.523,9.523,0,0,1,164.749,186.7Zm-7.471-7.934a7.651,7.651,0,0,0,13.97,2.385,13.445,13.445,0,0,1-3.827-5.092.616.616,0,0,0-.827-.329A46.344,46.344,0,0,1,157.278,178.765Z" transform="translate(-95.159 -101.195)"/>
      <path id="Trazado_146992" data-name="Trazado 146992" d="M190.779,202.355a.967.967,0,0,1-.866-.535l-.574-1.148a.967.967,0,0,1,1.73-.865l.574,1.148a.967.967,0,0,1-.864,1.4Z" transform="translate(-116.019 -116.851)"/>
      <path id="Trazado_146993" data-name="Trazado 146993" d="M178.355,205.459a.967.967,0,0,1-.967-.947l-.027-1.284a.967.967,0,0,1,1.934-.04l.027,1.284a.967.967,0,0,1-.947.987Z" transform="translate(-108.739 -118.671)"/>
      <path id="Trazado_146994" data-name="Trazado 146994" d="M164.827,202.117a.968.968,0,0,1-.843-1.441l.7-1.251a.967.967,0,0,1,1.687.947l-.7,1.251A.966.966,0,0,1,164.827,202.117Z" transform="translate(-100.462 -116.642)"/>
      <path id="Trazado_146995" data-name="Trazado 146995" d="M155.546,192.835a.967.967,0,0,1-.42-1.839l1.187-.571a.967.967,0,0,1,.838,1.743l-1.187.571A.962.962,0,0,1,155.546,192.835Z" transform="translate(-94.771 -111.368)"/>
      <path id="Trazado_146996" data-name="Trazado 146996" d="M191.683,233.62h-9.929a2.033,2.033,0,0,1-1.979-2.49,7.8,7.8,0,0,1,4.576-5.587,1.314,1.314,0,0,0,.411-.283.968.968,0,0,1,1.16-.159,12.945,12.945,0,0,0,6.613,1.725.971.971,0,0,1,1.02.82,1.455,1.455,0,0,0,.08.322,5.885,5.885,0,0,1,.032,4.3A2.136,2.136,0,0,1,191.683,233.62Zm1.079-1.7h0Zm-7.217-4.824a3.131,3.131,0,0,1-.436.228,5.822,5.822,0,0,0-3.448,4.236.106.106,0,0,0,.02.093.087.087,0,0,0,.073.034h9.929a.192.192,0,0,0,.178-.116,3.884,3.884,0,0,0,.012-2.792,14.814,14.814,0,0,1-6.327-1.684Z" transform="translate(-110.187 -132.61)"/>
      <path id="Trazado_146997" data-name="Trazado 146997" d="M88.072,235.236H78.5a1.785,1.785,0,0,1-1.4-.668,1.767,1.767,0,0,1-.354-1.487A6.919,6.919,0,0,1,80.4,228.3a.171.171,0,0,0,.079-.087.967.967,0,0,1,1.231-.539,12.83,12.83,0,0,0,6.468.73.967.967,0,0,1,1.067.554l.041.094a6.231,6.231,0,0,1,.508,4.893,1.786,1.786,0,0,1-1.719,1.294ZM78.681,233.3h9.28a4.446,4.446,0,0,0-.151-2.886,14.9,14.9,0,0,1-6.094-.694,2.081,2.081,0,0,1-.444.3A4.909,4.909,0,0,0,78.681,233.3Z" transform="translate(-47.028 -134.226)"/>
      <path id="Trazado_146998" data-name="Trazado 146998" d="M69.4,203.348H63.654a1.785,1.785,0,0,1-1.4-.668,1.767,1.767,0,0,1-.354-1.487,6.919,6.919,0,0,1,3.65-4.782.159.159,0,0,0,.092-.123c.811-9.6-.274-14.774-.856-17.554a18.21,18.21,0,0,1-.365-2.089.967.967,0,0,1,1.49-.89,16.8,16.8,0,0,0,4.987,2.152,2.439,2.439,0,0,1,1.8,1.834c1.37,5.993.814,14.306.611,16.71a2.078,2.078,0,0,1-1.144,1.685,4.912,4.912,0,0,0-2.6,3.295.967.967,0,0,1-.18,1.918Zm-5.559-1.935h3.775a1.836,1.836,0,0,1,.034-.222,6.917,6.917,0,0,1,3.65-4.781.158.158,0,0,0,.092-.122c.2-2.335.739-10.4-.569-16.117a.513.513,0,0,0-.38-.387,18.938,18.938,0,0,1-3.74-1.368c.607,2.9,1.7,8.243.874,18.034a2.078,2.078,0,0,1-1.144,1.685,4.909,4.909,0,0,0-2.591,3.278Z" transform="translate(-37.928 -102.337)"/>
      <path id="Trazado_146999" data-name="Trazado 146999" d="M172.653,233.62H166.91a2.033,2.033,0,0,1-1.979-2.49,7.8,7.8,0,0,1,4.576-5.588,1.321,1.321,0,0,0,.411-.284.967.967,0,0,1,1.16-.158,14.918,14.918,0,0,0,3.234,1.33.967.967,0,0,1,.342,1.692,6.021,6.021,0,0,0-2.093,3.435.106.106,0,0,0,.02.093.087.087,0,0,0,.073.034.967.967,0,0,1,0,1.934Zm-1.95-6.527a3.117,3.117,0,0,1-.438.229,5.822,5.822,0,0,0-3.448,4.236.106.106,0,0,0,.02.093.086.086,0,0,0,.072.034h3.715a2.082,2.082,0,0,1,.049-.556,8.242,8.242,0,0,1,1.587-3.345C171.634,227.542,171.1,227.294,170.7,227.093Zm.914,4.251h0Z" transform="translate(-101.086 -132.61)"/>
      <path id="Trazado_147000" data-name="Trazado 147000" d="M69.4,235.235H63.654a1.785,1.785,0,0,1-1.4-.668,1.767,1.767,0,0,1-.354-1.487,6.92,6.92,0,0,1,3.65-4.782.172.172,0,0,0,.079-.088.967.967,0,0,1,1.231-.538,14.327,14.327,0,0,0,4.3.881.967.967,0,0,1,.5,1.774,4.941,4.941,0,0,0-2.078,2.99.968.968,0,0,1-.18,1.918Zm.14-1.747h0S69.537,233.489,69.537,233.489Zm-5.7-.188h3.775a1.812,1.812,0,0,1,.034-.221,7.249,7.249,0,0,1,1.3-2.837,17.028,17.028,0,0,1-2.073-.523,2.092,2.092,0,0,1-.443.3,4.91,4.91,0,0,0-2.591,3.278Zm4.754-.016h0Z" transform="translate(-37.928 -134.225)"/>
      <path id="Trazado_147001" data-name="Trazado 147001" d="M172.653,212.031H166.91a2.033,2.033,0,0,1-1.979-2.49,7.8,7.8,0,0,1,4.576-5.588,1.438,1.438,0,0,0,.733-.753,45.175,45.175,0,0,0,2.819-8.52.968.968,0,0,1,.571-.688,7.658,7.658,0,0,0,3.916-3.69.967.967,0,0,1,1.454-.344c.305.232.621.455.916.644a2.569,2.569,0,0,1,1.138,2.559,44.94,44.94,0,0,1-3.3,10.826,3.363,3.363,0,0,1-1.741,1.745,5.82,5.82,0,0,0-3.448,4.236.105.105,0,0,0,.02.093.087.087,0,0,0,.073.034.967.967,0,0,1,0,1.935Zm2.19-16.464a47.55,47.55,0,0,1-2.837,8.421,3.364,3.364,0,0,1-1.741,1.745,5.82,5.82,0,0,0-3.448,4.236.105.105,0,0,0,.02.093.086.086,0,0,0,.072.034h3.715a2.081,2.081,0,0,1,.049-.556,7.8,7.8,0,0,1,4.576-5.587,1.438,1.438,0,0,0,.733-.753,43.78,43.78,0,0,0,3.16-10.337.633.633,0,0,0-.273-.633l-.142-.093a9.6,9.6,0,0,1-3.884,3.429Z" transform="translate(-101.086 -111.02)"/>
      <path id="Trazado_147002" data-name="Trazado 147002" d="M53.258,126.753h-.021a8.547,8.547,0,0,1-1.434-.127.968.968,0,0,1-.77-.7c-.11-.412-.192-.762-.257-1.1a74.382,74.382,0,0,1-1.075-9.657c-.048-.739-.1-1.467-.149-2.184a.967.967,0,0,1,1.218-1.005l.08.024c1.526.368,3.228-.5,4.438-2.261a.968.968,0,0,1,1.141-.357,5.829,5.829,0,0,0,.71.226,5.906,5.906,0,0,0,6.815-3.4.967.967,0,0,1,1.29-.494,4.093,4.093,0,0,1,1.889,1.692c1.362,2.359.039,5.654-3.011,7.5a4.215,4.215,0,0,0-2.054,3.418A8.793,8.793,0,0,1,53.258,126.753Zm-.51-1.955c.171.014.342.024.51.021a6.863,6.863,0,0,0,6.879-6.58,6.146,6.146,0,0,1,2.985-4.99c2.106-1.275,3.155-3.464,2.338-4.879a2.082,2.082,0,0,0-.267-.366,7.834,7.834,0,0,1-8.505,3.482c-.08-.019-.161-.041-.244-.064a6.417,6.417,0,0,1-4.879,2.595q.034.507.067,1.021a72.875,72.875,0,0,0,1.044,9.417C52.7,124.567,52.722,124.68,52.748,124.8Z" transform="translate(-30.38 -59.436)"/>
      <path id="Trazado_147003" data-name="Trazado 147003" d="M135.755,104.156a5.644,5.644,0,0,1-5.225-3.485,1.351,1.351,0,0,0-.97-.858,8.624,8.624,0,0,1-7.105-9.006,8.33,8.33,0,0,1,.2-1.364.968.968,0,0,1,1.089-.743,30.057,30.057,0,0,0,7.6.127c2.819-.294,5.441-.6,7.754-.874,2.575-.3,4.8-.564,6.861-.76a.968.968,0,0,1,1.01.66,7.368,7.368,0,0,1,.361,1.885,7.516,7.516,0,0,1-4.97,7.476,1.366,1.366,0,0,0-.948,1.28A5.668,5.668,0,0,1,135.755,104.156ZM124.4,90.74c-.006.061-.01.121-.014.18a6.69,6.69,0,0,0,5.509,6.988,3.271,3.271,0,0,1,2.421,2.02,3.726,3.726,0,0,0,7.166-1.434,3.319,3.319,0,0,1,2.239-3.1,5.5,5.5,0,0,0,3.683-5.542,5.28,5.28,0,0,0-.078-.648c-1.813.183-3.774.414-6,.675-2.319.272-4.948.581-7.78.876A32.594,32.594,0,0,1,124.4,90.74Z" transform="translate(-75.068 -48.134)"/>
      <path id="Trazado_147004" data-name="Trazado 147004" d="M205.416,135.422a.981.981,0,0,1-.13-.008,4.62,4.62,0,0,1-3.93-3.849.882.882,0,0,0-.59-.707,8.043,8.043,0,0,1,1.634-15.662.92.92,0,0,0,.727-.443,5.752,5.752,0,0,1,5.623-3.024.967.967,0,0,1,.863.8c.808,4.613.891,12.227-3.3,22.3A.967.967,0,0,1,205.416,135.422Zm2.418-21.766a3.813,3.813,0,0,0-3,2,2.834,2.834,0,0,1-2.242,1.459,6.109,6.109,0,0,0-1.236,11.895,2.831,2.831,0,0,1,1.912,2.256,2.67,2.67,0,0,0,1.574,2.029c3.469-8.694,3.6-15.354,2.992-19.644Z" transform="translate(-119.66 -63.163)"/>
      <path id="Trazado_147005" data-name="Trazado 147005" d="M126.513,150.491a6.849,6.849,0,0,1-4.444-1.627,1.369,1.369,0,0,0-.966-.3,5.751,5.751,0,0,1-6.085-5.742,5.676,5.676,0,0,1,.624-2.6,1.307,1.307,0,0,0,.012-.964,5.186,5.186,0,0,1,.74-4.648,5.176,5.176,0,0,1,8.594.327,3.748,3.748,0,0,0,2.556,1.825,6.9,6.9,0,0,1-.422,13.7c-.2.017-.407.026-.609.026Zm-5.311-3.863a3.259,3.259,0,0,1,2.116.759,4.967,4.967,0,1,0,3.937-8.713,5.673,5.673,0,0,1-3.913-2.722,3.246,3.246,0,0,0-5.85,2.7,3.17,3.17,0,0,1-.126,2.45,3.811,3.811,0,0,0,.789,4.5,3.811,3.811,0,0,0,2.829,1.03c.073-.005.146-.007.218-.007Z" transform="translate(-70.517 -75.899)"/>
      <path id="Trazado_147006" data-name="Trazado 147006" d="M233.119,192.862a1.229,1.229,0,0,1-.547-.129,1.2,1.2,0,0,1-.666-1.159c.014-.207-.059-.658-.706-1.362a5.933,5.933,0,0,1-1.472-3.492,1.212,1.212,0,0,1-1.469-1.406,7.01,7.01,0,0,0-.087-2.074c-.769-3.5.923-5.271,2-6.01a.968.968,0,0,1,1.5.605c.083.406.172.774.272,1.123a.685.685,0,0,0,.332.411.733.733,0,0,0,1.058-.849c-.059-.21-.119-.441-.178-.686a.967.967,0,0,1,1.227-1.151c2.794.868,5.359,3.762,4.18,9.282a1.209,1.209,0,0,1-1.134.957c-.24,2.449-2.243,4.545-3.507,5.641A1.215,1.215,0,0,1,233.119,192.862Zm-2.694-8.5a1.211,1.211,0,0,1,1.211,1.279,4.583,4.583,0,0,0,.987,3.264,5.2,5.2,0,0,1,.925,1.343c.963-1.012,2.083-2.535,1.956-4.046a1.21,1.21,0,0,1,.388-1,1.191,1.191,0,0,1,.895-.314c.216-1.483.293-4.155-1.551-5.617a2.665,2.665,0,0,1-3.9,1.8,2.61,2.61,0,0,1-1.078-1.109,4.321,4.321,0,0,0-.194,2.9,10.95,10.95,0,0,1,.169,1.519,1.2,1.2,0,0,1,.189-.015Zm7.066.638h0Z" transform="translate(-139.772 -102.975)"/>
      <path id="Trazado_147007" data-name="Trazado 147007" d="M228.477,131.691a2.658,2.658,0,0,1-1.283-.331,2.6,2.6,0,0,1-1.259-1.572c-1.3-4.535-.536-9.56.206-14.42a58.569,58.569,0,0,0,.889-8.574c0-2.7-1.034-4.375-3.161-5.106a.967.967,0,0,1-.621-.667c-.1-.381-.21-.752-.325-1.1a8.718,8.718,0,0,0-1.491-2.778.967.967,0,0,1,.851-1.57c3.833.4,6.642,1.806,8.351,4.2,3.351,4.685,1.692,11.885.594,16.65-.235,1.02-.438,1.9-.554,2.6a21.516,21.516,0,0,0,.372,9.275,2.669,2.669,0,0,1-2.569,3.4Zm-3.492-31.646c1.918.811,3.979,2.638,3.979,6.75a59.994,59.994,0,0,1-.911,8.866c-.71,4.654-1.445,9.466-.259,13.593a.683.683,0,0,0,.332.411.733.733,0,0,0,1.058-.849,23.2,23.2,0,0,1-.419-10.12c.126-.755.335-1.662.577-2.713,1.02-4.426,2.561-11.115-.282-15.09a8.044,8.044,0,0,0-4.9-3.049,11.19,11.19,0,0,1,.6,1.473c.078.236.153.479.225.728Z" transform="translate(-135.627 -53.27)"/>
      <path id="Trazado_147008" data-name="Trazado 147008" d="M43.207,92.306A7.834,7.834,0,0,1,36.814,89a.6.6,0,0,0-.781-.188A7.859,7.859,0,1,1,38.809,77.28a.61.61,0,0,0,.8.192,7.852,7.852,0,0,1,11.408,7.942,7.86,7.86,0,0,1-7.8,6.892Zm-6.881-5.5a2.524,2.524,0,0,1,2.066,1.079,5.924,5.924,0,1,0,2.1-8.694,2.538,2.538,0,0,1-3.264-.788A5.921,5.921,0,0,0,27.2,84.648,5.912,5.912,0,0,0,35.14,87.1a2.566,2.566,0,0,1,1.186-.293Z" transform="translate(-15.059 -40.036)"/>
      <path id="Trazado_147009" data-name="Trazado 147009" d="M45.94,114.971a4.988,4.988,0,0,1-1.17-.139c-2.323-.561-4-2.728-4.385-5.655a.967.967,0,0,1,1.08-1.085,5.864,5.864,0,0,0,3.459-.619,2.524,2.524,0,0,1,3.252.785,5.875,5.875,0,0,0,2.649,2.07.967.967,0,0,1,.444,1.446A6.654,6.654,0,0,1,45.94,114.971Zm-3.391-4.9a3.954,3.954,0,0,0,2.675,2.886,3.972,3.972,0,0,0,3.738-1.391,7.787,7.787,0,0,1-2.364-2.184.6.6,0,0,0-.781-.188A7.784,7.784,0,0,1,42.549,110.066Z" transform="translate(-24.755 -60.39)"/>
      <path id="Trazado_147010" data-name="Trazado 147010" d="M45.94,114.971a4.988,4.988,0,0,1-1.17-.139c-2.323-.561-4-2.728-4.385-5.655a.967.967,0,0,1,1.08-1.085,5.864,5.864,0,0,0,3.459-.619,2.524,2.524,0,0,1,3.252.785,5.875,5.875,0,0,0,2.649,2.07.967.967,0,0,1,.444,1.446A6.654,6.654,0,0,1,45.94,114.971Zm-3.391-4.9a3.954,3.954,0,0,0,2.675,2.886,3.972,3.972,0,0,0,3.738-1.391,7.787,7.787,0,0,1-2.364-2.184.6.6,0,0,0-.781-.188A7.784,7.784,0,0,1,42.549,110.066Z" transform="translate(-24.755 -60.39)"/>
      <path id="Trazado_147011" data-name="Trazado 147011" d="M39.966,89.955a.966.966,0,0,1-.78-.394,2.594,2.594,0,1,1,4.612-.929.967.967,0,1,1-1.881-.454.66.66,0,1,0-1.174.237.967.967,0,0,1-.777,1.54Z" transform="translate(-23.715 -47.055)"/>
      <path id="Trazado_147012" data-name="Trazado 147012" d="M69.972,97.178a.967.967,0,0,1-.434-1.832A.66.66,0,1,0,68.6,94.6a.967.967,0,1,1-1.881-.454,2.594,2.594,0,1,1,3.681,2.93A.955.955,0,0,1,69.972,97.178Z" transform="translate(-40.89 -51.181)"/>
      <path id="Trazado_147013" data-name="Trazado 147013" d="M46.3,58.5a.967.967,0,0,1-.959-1.1c0-.014.005-.033.008-.051a5.918,5.918,0,0,0-8.6-5.957,2.538,2.538,0,0,1-3.263-.787A5.918,5.918,0,0,0,23.12,51.991c-.005.017-.011.034-.015.046a.967.967,0,0,1-1.633.325,11.752,11.752,0,0,1-2.61-4.933c-1.394-5.349.882-10.948,6.09-14.976C29.778,28.718,35.532,27.61,39.27,29.7a3.594,3.594,0,0,0,1.879.453c4.269-.156,8.893,3.459,11.486,8.983,2.8,5.96,2.27,11.981-1.411,16.105a11.751,11.751,0,0,1-4.573,3.2.96.96,0,0,1-.346.065ZM39.464,48.8a7.872,7.872,0,0,1,7.84,7.192,10.137,10.137,0,0,0,2.477-2.038c3.148-3.527,3.56-8.759,1.1-14-2.233-4.757-6.214-8-9.666-7.872a5.547,5.547,0,0,1-2.891-.7c-3.023-1.686-8.036-.618-12.192,2.6-4.575,3.539-6.594,8.384-5.4,12.958a10.147,10.147,0,0,0,1.274,2.943,7.874,7.874,0,0,1,7.749-3.615,7.792,7.792,0,0,1,5.31,3.222.612.612,0,0,0,.8.192,7.8,7.8,0,0,1,3.6-.886Z" transform="translate(-11.317 -12.246)"/>
      <path id="Trazado_147014" data-name="Trazado 147014" d="M22.193,60.493a.966.966,0,0,1-.72-.322,11.752,11.752,0,0,1-2.61-4.933c-1.108-4.248.088-8.657,3.366-12.415a.968.968,0,0,1,.244-.2,8.717,8.717,0,0,1,6.431-1c4.966,1.2,7.918,6.686,6.579,12.232a11.4,11.4,0,0,1-1.413,3.376.968.968,0,0,1-1.465.209A5.91,5.91,0,0,0,23.12,59.8c-.005.017-.011.034-.015.046a.967.967,0,0,1-.912.647Zm1.386-16.276c-2.764,3.233-3.775,6.968-2.846,10.532a10.147,10.147,0,0,0,1.274,2.943,7.848,7.848,0,0,1,10.934-2.424A9.557,9.557,0,0,0,33.6,53.4c1.088-4.509-1.223-8.95-5.153-9.9a6.766,6.766,0,0,0-4.869.714Zm10.963,9.411h0Z" transform="translate(-11.317 -20.055)"/>
      <path id="Trazado_147015" data-name="Trazado 147015" d="M108.332,60.151a10.377,10.377,0,0,1-3.926-.81.967.967,0,0,1-.6-.856,16.179,16.179,0,0,0-1.493-5.98.967.967,0,0,1,.853-1.369,8.95,8.95,0,0,0,4.247-1.04,8.689,8.689,0,0,1,10.226,1,2.125,2.125,0,0,1,.464,2.778C117.039,55.546,113.636,60.151,108.332,60.151ZM105.7,57.758c5.678,1.917,9.4-2.765,10.769-4.922a.187.187,0,0,0-.052-.245,6.8,6.8,0,0,0-7.994-.844,9.649,9.649,0,0,1-3.822,1.221,18,18,0,0,1,1.1,4.79Z" transform="translate(-62.672 -24.64)"/>
      <path id="Trazado_147016" data-name="Trazado 147016" d="M104.379,56.184h-.1a.968.968,0,0,1-.926-.73,17.308,17.308,0,0,0-1.043-2.947.967.967,0,0,1,.853-1.369,8.949,8.949,0,0,0,4.247-1.04,8.689,8.689,0,0,1,10.226,1h0a2.128,2.128,0,0,1,.773,1.873.967.967,0,0,1-1.279.813,8.975,8.975,0,0,0-7.851.933A9.349,9.349,0,0,1,104.379,56.184Zm.219-3.216q.234.621.422,1.248a7.732,7.732,0,0,0,3.251-1.155,11.218,11.218,0,0,1,6.081-1.713,6.456,6.456,0,0,0-5.932.4A9.647,9.647,0,0,1,104.6,52.969Z" transform="translate(-62.673 -24.641)"/>
      <path id="Trazado_147017" data-name="Trazado 147017" d="M9.785,34.391c-.028,0-.056,0-.085,0C1.579,33.671.229,25.7.008,23.272a2.124,2.124,0,0,1,1.68-2.26,8.688,8.688,0,0,1,9.555,3.777,8.951,8.951,0,0,0,3.3,2.862.967.967,0,0,1,.134,1.608,17.021,17.021,0,0,0-2.751,2.72l-.024.031-.028.035c-.14.177-.277.357-.409.541l-.821-.515.787.563q-.187.262-.362.531l-.022.033c-.134.208-.249.4-.359.587l-.035.062-.015.027-.014.025a.967.967,0,0,1-.842.492Zm.02-1-.016-.009.016.009-.016-.009ZM3.863,22.712a8.464,8.464,0,0,0-1.77.192.187.187,0,0,0-.158.193c.231,2.543,1.411,8.407,7.338,9.292q.068-.11.138-.219l.029-.044c.143-.22.28-.421.421-.618l.039-.055q.223-.309.461-.61l.04-.05a18.772,18.772,0,0,1,2.035-2.166A9.652,9.652,0,0,1,9.591,25.8a6.532,6.532,0,0,0-5.728-3.086Z" transform="translate(0 -7.416)"/>
      <path id="Trazado_147018" data-name="Trazado 147018" d="M11.809,31.735a.964.964,0,0,1-.431-.1A9.307,9.307,0,0,1,7.6,28.045a8.977,8.977,0,0,0-6.562-4.411.967.967,0,0,1-.767-1.307,2.125,2.125,0,0,1,1.543-1.314,8.688,8.688,0,0,1,9.554,3.777,8.951,8.951,0,0,0,3.3,2.862.967.967,0,0,1,.135,1.608,17.329,17.329,0,0,0-2.273,2.147.966.966,0,0,1-.726.328Zm-7.189-9a11.155,11.155,0,0,1,4.632,4.3,7.73,7.73,0,0,0,2.366,2.511q.453-.472.944-.919A9.645,9.645,0,0,1,9.718,25.8a6.457,6.457,0,0,0-5.1-3.06Z" transform="translate(-0.127 -7.416)"/>
      <path id="Trazado_147019" data-name="Trazado 147019" d="M98.86,42.052a.967.967,0,0,1-.879-.565A17.783,17.783,0,0,0,95.391,37.4a.967.967,0,0,1,.593-1.584c2.084-.312,5.854-1.233,7.689-3.892a2.337,2.337,0,0,1,4.27,1.211,9,9,0,0,1-1.932,6.655.968.968,0,0,1-.443.281l-.15.042a6.37,6.37,0,0,0-1.329.614,10.835,10.835,0,0,1-5.2,1.323Zm-.995-4.622a19.668,19.668,0,0,1,1.59,2.657,8.3,8.3,0,0,0,3.625-1.009,8.284,8.284,0,0,1,1.659-.776,7.4,7.4,0,0,0,1.272-5.075.383.383,0,0,0-.287-.377.4.4,0,0,0-.458.174c-1.767,2.56-4.763,3.8-7.4,4.407Z" transform="translate(-58.342 -13.622)"/>
      <path id="Trazado_147020" data-name="Trazado 147020" d="M26.878,22.051a.968.968,0,0,1-.465-.119,10.834,10.834,0,0,1-4.027-3.55,6.348,6.348,0,0,0-1.03-1.271.968.968,0,0,1-.267-.454,9,9,0,0,1,1.318-6.793,2.337,2.337,0,0,1,4.353.869c.421,3.2,3.36,5.745,5.074,6.974a.967.967,0,0,1-.194,1.68,17.806,17.806,0,0,0-4.164,2.455.959.959,0,0,1-.6.209ZM22.9,15.922a8.239,8.239,0,0,1,1.133,1.451A8.293,8.293,0,0,0,26.8,19.924a19.7,19.7,0,0,1,2.622-1.637c-2.075-1.739-4.177-4.215-4.582-7.3a.4.4,0,0,0-.329-.363.381.381,0,0,0-.427.2A7.4,7.4,0,0,0,22.9,15.922Z" transform="translate(-12.796 0)"/>
      <path id="Trazado_147021" data-name="Trazado 147021" d="M84.329,72.2a.979.979,0,0,1-.225-.026.968.968,0,0,1-.717-1.165,1.094,1.094,0,0,0-2.129-.506.967.967,0,0,1-1.882-.448,3.029,3.029,0,1,1,5.893,1.4A.966.966,0,0,1,84.329,72.2Z" transform="translate(-48.648 -36.203)"/>
      <path id="Trazado_147022" data-name="Trazado 147022" d="M41.332,61.832A.957.957,0,0,1,41.1,61.8a.968.968,0,0,1-.713-1.167,1.094,1.094,0,1,0-2.127-.513.967.967,0,1,1-1.881-.454,3.028,3.028,0,1,1,5.888,1.421.967.967,0,0,1-.939.741Z" transform="translate(-22.29 -29.841)"/>
      <path id="Trazado_147023" data-name="Trazado 147023" d="M49.351,112.257a3.632,3.632,0,0,1-.854-.1,4.552,4.552,0,0,1-2.971-2.752.968.968,0,0,1,.721-1.359,5.877,5.877,0,0,0,1.762-.584,2.525,2.525,0,0,1,3.252.785,5.863,5.863,0,0,0,1.192,1.241A.967.967,0,0,1,52.467,111,5.026,5.026,0,0,1,49.351,112.257Zm-1.433-2.652a2.029,2.029,0,0,0,1.033.671,2.088,2.088,0,0,0,1.329-.169,7.731,7.731,0,0,1-.6-.741.6.6,0,0,0-.781-.188A7.762,7.762,0,0,1,47.918,109.605Z" transform="translate(-27.857 -60.383)"/>
    </g>
    <path id="Trazado_147029" data-name="Trazado 147029" d="M213.289,7.07A7.166,7.166,0,0,0,210.93,1.9a7.223,7.223,0,0,0-11.906,3.752,13.481,13.481,0,0,1-3.569,6.614l-2.615,2.615-6.469-6.469a3.315,3.315,0,0,0-4.689,0l-3.347,3.347a1.1,1.1,0,0,0,0,1.559l.8.8L176.6,16.66a1.1,1.1,0,0,0,0,1.559l5.719,5.719a1.1,1.1,0,1,0,1.559-1.559l-4.94-4.94,1.761-1.761,16.928,16.928-1.761,1.761-4.94-4.94a1.1,1.1,0,0,0-1.559,1.559l5.719,5.719a1.1,1.1,0,0,0,1.559,0l2.541-2.541.8.8a1.1,1.1,0,0,0,1.559,0l3.346-3.347a3.319,3.319,0,0,0,0-4.689l-6.469-6.469,2.562-2.562a12.986,12.986,0,0,1,6.543-3.6,7.223,7.223,0,0,0,5.755-7.239Zm-9.951,23-2.567,2.567-.8-.8,0,0L181.479,13.34l-.006-.006-.8-.8,2.567-2.567a1.112,1.112,0,0,1,1.57,0l18.527,18.527A1.112,1.112,0,0,1,203.338,30.065Zm6.278-19.281a4.993,4.993,0,0,1-2.528,1.365,15.183,15.183,0,0,0-7.657,4.2l-2.562,2.562-1.236-1.236L194.4,16.436l2.615-2.615a15.683,15.683,0,0,0,4.161-7.69,5.017,5.017,0,1,1,8.441,4.653Z" transform="translate(965.24 2666.473)"/>
  </g>
</svg>
