<svg xmlns="http://www.w3.org/2000/svg" width="330" height="237" viewBox="0 0 330 237">
  <g id="Grupo_144174" data-name="Grupo 144174" transform="translate(-299 -2642)">
    <rect id="Rectángulo_42403" data-name="Rectángulo 42403" width="330" height="237" transform="translate(299 2642)" fill="#f5db9a"/>
    <text id="Inclusion_en_el_mercado_goblal" data-name="Inclusion en el mercado
goblal" transform="translate(357 2791)" fill="#12263f" font-size="20" font-family="Roboto-Bold, Roboto" font-weight="700"><tspan x="0" y="21">Inclusion en el mercado</tspan><tspan x="0" y="46">goblal</tspan></text>
    <g id="layer2" transform="translate(356.471 2672.419)">
      <path id="circle5138" d="M90.048,45.421A44.627,44.627,0,1,1,45.421.794,44.627,44.627,0,0,1,90.048,45.421Z" transform="translate(1.275 1.274)" fill="#e4eff8"/>
      <path id="path5143" d="M27.414,6.085A19.989,19.989,0,0,0,7.408,26.058c0,13.776,20.005,30.81,20.005,30.81s20.005-17.034,20.005-30.81A19.989,19.989,0,0,0,27.414,6.085Z" transform="translate(33.132 26.76)" fill="#c4dcf0"/>
      <path id="path5145" d="M29.029,1.131A44.627,44.627,0,0,0,1.51,25.091C5.665,37.373,20.427,49.954,20.427,49.954s20.005-17.034,20.005-30.81a19.953,19.953,0,0,0-11.4-18.013Z" transform="translate(4.724 2.897)" fill="#c4dcf0"/>
      <path id="path5147" d="M21.665,11.377a3.071,3.071,0,0,0-3.078,3.078,3.071,3.071,0,0,1-3.078,3.078H12.432a3.078,3.078,0,0,0,0,6.155h1.539a3.078,3.078,0,1,1,0,6.155H3.809A44.627,44.627,0,0,0,30.9,39.077a44.628,44.628,0,0,0,41.27-27.7h-50.5Z" transform="translate(15.797 52.246)" fill="#3c6d9d"/>
      <path id="path5149" d="M47.224.857A44.59,44.59,0,0,0,46.7,89.985q-.637.041-1.274.063a44.627,44.627,0,1,1,0-89.254q.9.013,1.8.063Z" transform="translate(1.275 1.274)" fill="#f8f8f8"/>
      <path id="path5151" d="M.812,9A44.627,44.627,0,0,0,6.307,27.462H9.937a4.607,4.607,0,0,0,4.617-4.617,4.606,4.606,0,0,1,4.617-4.617h3.078a4.617,4.617,0,1,0,0-9.233Z" transform="translate(1.364 40.777)" fill="#3c6d9d"/>
      <path id="path5153" d="M8.157.857a44.59,44.59,0,0,1,.529,89.128q.637.041,1.274.063A44.627,44.627,0,1,0,9.96.794q-.9.013-1.8.063Z" transform="translate(36.736 1.274)" fill="#c4dcf0"/>
      <path id="path5155" d="M7.964,11.377c5.658,10.53,16.774,20.005,16.774,20.005s11.116-9.475,16.774-20.005Z" transform="translate(35.807 52.246)" fill="#94ac04"/>
      <path id="path5159" d="M47.7,11.377A44.627,44.627,0,0,1,8.248,39.014q.637.041,1.274.063a44.627,44.627,0,0,0,41.255-27.7Z" transform="translate(37.174 52.246)" fill="#94ac04"/>
      <path id="path5161" d="M.812,9A44.627,44.627,0,0,0,6.307,27.462H9.351A44.627,44.627,0,0,1,3.938,9Z" transform="translate(1.364 40.777)" fill="#f8f8f8"/>
      <path id="path5165" d="M15.465,2.91a4.617,4.617,0,1,0,0,9.233h3.078a4.606,4.606,0,0,1,4.617,4.617,4.606,4.606,0,0,0,4.617,4.617h11.59A44.627,44.627,0,0,0,27.7,2.91Z" transform="translate(49.698 11.469)" fill="#3c6d9d"/>
      <path id="path5167" d="M13.21,2.91a44.627,44.627,0,0,1,11.7,18.466h3.108A44.627,44.627,0,0,0,16.371,2.91Z" transform="translate(61.071 11.469)" fill="#94ac04"/>
      <path id="path5169" d="M31.431,10.027c0,6.155-9.233,15.389-9.233,15.389s-9.233-9.233-9.233-15.389a9.233,9.233,0,1,1,18.466,0Z" transform="translate(59.892 1.274)" fill="#ffca28"/>
      <g id="Grupo_143364" data-name="Grupo 143364" transform="translate(60.545 2.068)">
        <path id="path5179" d="M22.2.794a9.233,9.233,0,0,0-9.233,9.233c0,6.155,9.233,15.389,9.233,15.389s.626-.631,1.539-1.65c-2.623-2.928-7.694-9.172-7.694-13.739A9.229,9.229,0,0,1,23.737.932,9.249,9.249,0,0,0,22.2.794Z" transform="translate(-0.654 -0.794)" fill="#f8f8f8"/>
        <path id="path5181" d="M12.171,4.5a4.606,4.606,0,0,1,4.617,4.617A4.606,4.606,0,0,0,21.4,13.731h3.078a4.606,4.606,0,0,1-4.617-4.617A4.606,4.606,0,0,0,15.249,4.5Z" transform="translate(-4.476 17.046)" fill="#f8f8f8"/>
        <path id="path5183" d="M15.465,2.91a4.617,4.617,0,1,0,0,9.233h3.078a4.617,4.617,0,0,1,0-9.233Z" transform="translate(-10.848 9.401)" fill="#f8f8f8"/>
      </g>
      <path id="path5185" d="M15.826.794a9.249,9.249,0,0,0-1.539.138,9.229,9.229,0,0,1,7.694,9.095c0,4.567-5.071,10.811-7.694,13.739.913,1.019,1.539,1.65,1.539,1.65s9.233-9.233,9.233-15.389A9.233,9.233,0,0,0,15.826.794Z" transform="translate(66.263 1.274)" fill="#ecb200"/>
      <path id="ellipse5187" d="M20.178,4.93A3.078,3.078,0,1,1,17.1,1.852,3.078,3.078,0,0,1,20.178,4.93Z" transform="translate(64.989 6.371)" fill="#e4eff8"/>
      <path id="path5189" d="M46.89,26.056c0,13.776-20.005,30.812-20.005,30.812S6.879,39.833,6.879,26.056a20.005,20.005,0,0,1,40.011,0Z" transform="translate(30.583 26.76)" fill="#ffca28"/>
      <path id="path5191" d="M11.593,6.085c-.519,0-1.03.039-1.539.078A19.973,19.973,0,0,1,28.521,26.058c0,11.538-13.907,25.232-18.466,29.419.884.812,1.539,1.392,1.539,1.392S31.6,39.834,31.6,26.058A19.989,19.989,0,0,0,11.593,6.085Z" transform="translate(45.875 26.76)" fill="#ecb200"/>
      <path id="path5193" d="M26.884,6.085c.519,0,1.03.039,1.539.078A19.973,19.973,0,0,0,9.957,26.058c0,11.538,13.907,25.232,18.466,29.419-.884.812-1.539,1.392-1.539,1.392S6.879,39.834,6.879,26.058A19.989,19.989,0,0,1,26.884,6.085Z" transform="translate(30.583 26.76)" fill="#f8f8f8"/>
      <path id="ellipse5195" d="M35.637,20.994a13.85,13.85,0,1,1-13.85-13.85A13.85,13.85,0,0,1,35.637,20.994Z" transform="translate(35.68 31.857)" fill="#e4eff8"/>
      <path id="path5197" d="M21.787,7.144A13.84,13.84,0,0,0,13.672,32.2,13.832,13.832,0,0,1,32.983,12.866a13.85,13.85,0,0,0-11.2-5.723Z" transform="translate(35.68 31.857)" fill="#c4dcf0"/>
      <path id="path5199" d="M28.248,8.057A14.585,14.585,0,0,1,8.859,27.515,13.837,13.837,0,0,0,28.248,8.057Z" transform="translate(40.118 36.255)" fill="#f8f8f8"/>
      <path id="path5202" d="M3.969,9a4.617,4.617,0,0,1,0,9.233H7.046A4.617,4.617,0,0,0,7.046,9Z" transform="translate(16.566 40.777)" fill="#94ac04"/>
      <path id="path5204" d="M40.8,20.765C40.8,34.541,20.8,51.576,20.8,51.576S.794,34.541.794,20.765a20.005,20.005,0,0,1,40.011,0Z" transform="translate(1.275 1.274)" fill="#ffca28"/>
      <path id="path5206" d="M5.508.794c-.519,0-1.03.039-1.539.078A19.973,19.973,0,0,1,22.435,20.766C22.435,32.3,8.528,46,3.969,50.185c.884.812,1.539,1.392,1.539,1.392s20.005-17.034,20.005-30.81A19.989,19.989,0,0,0,5.508.794Z" transform="translate(16.566 1.274)" fill="#ecb200"/>
      <path id="path5208" d="M20.8.794c.519,0,1.03.039,1.539.078A19.973,19.973,0,0,0,3.871,20.766C3.871,32.3,17.779,46,22.338,50.185,21.454,51,20.8,51.576,20.8,51.576S.794,34.542.794,20.766A19.989,19.989,0,0,1,20.8.794Z" transform="translate(1.275 1.274)" fill="#f8f8f8"/>
      <path id="path5210" d="M14.163,10.583H11.085A4.606,4.606,0,0,0,6.469,15.2a4.606,4.606,0,0,1-4.617,4.617H4.93A4.607,4.607,0,0,0,9.546,15.2,4.606,4.606,0,0,1,14.163,10.583Z" transform="translate(6.372 48.423)" fill="#94ac04"/>
      <path id="ellipse5212" d="M29.552,15.7A13.85,13.85,0,1,1,15.7,1.852,13.85,13.85,0,0,1,29.552,15.7Z" transform="translate(6.372 6.371)" fill="#e4eff8"/>
      <path id="path5214" d="M15.7,1.852A13.84,13.84,0,0,0,7.587,26.91,13.832,13.832,0,0,1,26.895,7.572,13.85,13.85,0,0,0,15.7,1.852Z" transform="translate(6.372 6.371)" fill="#c4dcf0"/>
      <path id="path5216" d="M22.163,2.765A14.585,14.585,0,0,1,2.773,22.223,13.837,13.837,0,0,0,22.163,2.765Z" transform="translate(10.809 10.769)" fill="#f8f8f8"/>
      <path id="path5218" d="M3.526,3.7,4.564,9.86H10.72L12.259,3.7H3.526Z" transform="translate(14.432 15.291)" fill="#b4d305"/>
      <path id="path5220" d="M5.772,3.7,4.233,9.86H7.311L8.85,3.7Z" transform="translate(17.84 15.291)" fill="#94ac04"/>
      <path id="path5222" d="M3.525,3.7,4.565,9.86H6.624L5.584,3.7Z" transform="translate(14.431 15.291)" fill="#f8f8f8"/>
      <path id="path5224" d="M11.976,11.377A3.071,3.071,0,0,0,8.9,14.455a3.071,3.071,0,0,1-3.078,3.078H8.9a3.071,3.071,0,0,0,3.078-3.078,3.071,3.071,0,0,1,3.078-3.078Z" transform="translate(25.486 52.246)" fill="#f8f8f8"/>
      <path id="path5226" d="M10.918,12.435H7.84a3.078,3.078,0,0,0,0,6.155H9.379a3.078,3.078,0,1,1,0,6.155h3.078a3.078,3.078,0,1,0,0-6.155H10.918a3.078,3.078,0,0,1,0-6.155Z" transform="translate(20.389 57.343)" fill="#f8f8f8"/>
      <path id="path832" d="M22.067.529A21.541,21.541,0,0,0,.529,22.034a23.139,23.139,0,0,0,2.489,9.723A46.182,46.182,0,1,0,90.685,32.8v0a1.538,1.538,0,0,0-.228-.754,46.431,46.431,0,0,0-3.727-8.292c2.978-3.585,6.191-8.406,6.131-12.449A10.771,10.771,0,0,0,71.834,8.007,45.975,45.975,0,0,0,31.965,2.955a21.433,21.433,0,0,0-9.9-2.426Zm0,3.081A18.425,18.425,0,0,1,40.54,22.034c0,6.143-4.737,13.715-9.645,19.585a76.406,76.406,0,0,1-8.815,9.041,76.012,76.012,0,0,1-8.827-9.041C8.344,35.749,3.61,28.177,3.61,22.034A18.412,18.412,0,0,1,22.067,3.61Zm24.628,0a43.049,43.049,0,0,1,24.622,7.757,9.6,9.6,0,0,0,.132,1.476H65.167a6.151,6.151,0,1,0,0,12.3h3.066a3.04,3.04,0,0,1,3.078,3.081,6.179,6.179,0,0,0,6.158,6.155H87.953A42.805,42.805,0,0,1,86.946,62.09h-10.2a22.742,22.742,0,0,0,2.272-9.272,21.544,21.544,0,0,0-43.088,0A22.742,22.742,0,0,0,38.2,62.09h-.739A4.63,4.63,0,0,0,32.848,66.7,1.5,1.5,0,0,1,31.3,68.233H28.226a4.618,4.618,0,0,0,0,9.236H29.77a1.539,1.539,0,0,1,0,3.078H20.041a43.244,43.244,0,0,1-9.729-10.769c4.937.351,7.155-3.338,7.144-6.155a3.04,3.04,0,0,1,3.078-3.081h3.078A6.137,6.137,0,0,0,27.6,49.725c1.7-1.7,3.634-3.716,5.654-6.131,5.095-6.092,10.36-13.926,10.36-21.559a21.444,21.444,0,0,0-8.265-16.9A43.105,43.105,0,0,1,46.695,3.61Zm35.4,0A7.663,7.663,0,0,1,89.783,11.3c0,2.308-2.07,6.1-4.3,9.077a35.316,35.316,0,0,1-3.387,3.952,35.37,35.37,0,0,1-3.384-3.952c-2.234-2.979-4.316-6.769-4.316-9.077a7.671,7.671,0,0,1,7.7-7.688ZM22.067,6.688a15.386,15.386,0,1,0,15.392,15.38A15.4,15.4,0,0,0,22.067,6.688Zm60.025,0A4.618,4.618,0,1,0,86.705,11.3,4.64,4.64,0,0,0,82.092,6.688ZM22.067,9.765a12.308,12.308,0,1,1-12.3,12.3A12.283,12.283,0,0,1,22.067,9.765Zm60.025,0a1.539,1.539,0,0,1,0,3.078,1.539,1.539,0,1,1,0-3.078ZM15.924,14.376a1.548,1.548,0,1,0,.225,3.081l1.328,7.95A1.539,1.539,0,0,0,19,26.693h6.143a1.539,1.539,0,0,0,1.5-1.172l1.536-6.155a1.539,1.539,0,0,0-1.488-1.909H19.272l-.295-1.794a1.539,1.539,0,0,0-1.521-1.286Zm49.244,1.548H72.39c1.362,3.4,5.306,8.452,8.611,11.857a1.539,1.539,0,0,0,2.17,0s.594-.6,1.431-1.527A43.437,43.437,0,0,1,86.913,31.3H77.469a3.038,3.038,0,0,1-3.078-3.078,6.181,6.181,0,0,0-6.158-6.158H65.167a3.072,3.072,0,1,1,0-6.143ZM19.786,20.534h4.929l-.76,3.078H20.3ZM19,28.229a1.539,1.539,0,1,0,1.539,1.539A1.551,1.551,0,0,0,19,28.229Zm6.155,0a1.539,1.539,0,1,0,1.539,1.539A1.551,1.551,0,0,0,25.151,28.229Zm32.313,6.152A18.435,18.435,0,0,1,75.936,52.818c0,6.143-4.737,13.715-9.645,19.585a75.61,75.61,0,0,1-8.827,9.032A75.972,75.972,0,0,1,48.649,72.4c-4.908-5.869-9.642-13.441-9.642-19.585A18.422,18.422,0,0,1,57.464,34.381Zm-52.4,1.2a75.313,75.313,0,0,0,10,12.651H3.658A42.242,42.242,0,0,1,5.065,35.578Zm52.4,1.882A15.387,15.387,0,1,0,72.859,52.854,15.409,15.409,0,0,0,57.464,37.459Zm0,3.081A12.314,12.314,0,1,1,45.15,52.854,12.293,12.293,0,0,1,57.464,40.54Zm-.021,3.078a1.539,1.539,0,0,0-1.512,1.557,4.606,4.606,0,1,0,0,9.212v3.066H52.854a1.54,1.54,0,0,0,0,3.081h3.078a1.539,1.539,0,0,0,3.078,0,4.612,4.612,0,1,0,0-9.224V48.252H62.09a1.539,1.539,0,1,0,0-3.078H59.009a1.539,1.539,0,0,0-1.566-1.557Zm-3.057,6.167a1.506,1.506,0,0,1,1.545-1.533l0,3.057A1.5,1.5,0,0,1,54.386,49.785ZM3.871,51.309H18.127c1.752,1.68,2.951,2.714,2.951,2.714a1.539,1.539,0,0,0,1.99,0s.984-.868,2.335-2.137a3.075,3.075,0,0,1-1.791,5.578H20.534a6.181,6.181,0,0,0-6.158,6.158A3.038,3.038,0,0,1,11.3,66.7H8.53A43.371,43.371,0,0,1,3.871,51.309ZM59.009,54.39a1.531,1.531,0,1,1,0,3.063ZM39.77,65.168a63.557,63.557,0,0,0,6.516,9.212A96.135,96.135,0,0,0,56.466,84.8a1.539,1.539,0,0,0,2,0A95.693,95.693,0,0,0,68.654,74.38a63.565,63.565,0,0,0,6.516-9.212H85.636A43.126,43.126,0,0,1,24.475,83.625h5.3a4.617,4.617,0,0,0,0-9.233H28.226a1.54,1.54,0,0,1,0-3.081H31.3A4.641,4.641,0,0,0,35.926,66.7a1.493,1.493,0,0,1,1.533-1.533Z" transform="translate(0 0)" fill="#333"/>
    </g>
  </g>
</svg>
