<svg xmlns="http://www.w3.org/2000/svg" width="330" height="237" viewBox="0 0 330 237">
  <g id="Grupo_144175" data-name="Grupo 144175" transform="translate(-635 -2642)">
    <rect id="Rectángulo_42404" data-name="Rectángulo 42404" width="330" height="237" transform="translate(635 2642)" fill="#bada95"/>
    <text id="Mejora_constante" data-name="Mejora constante" transform="translate(693 2791)" fill="#12263f" font-size="20" font-family="Roboto-Bold, Roboto" font-weight="700"><tspan x="0" y="21">Mejora constante</tspan></text>
    <g id="ventas" transform="translate(684.501 2672.948)">
      <path id="Trazado_147032" data-name="Trazado 147032" d="M245.691,183.058H233.5V140.486a4.865,4.865,0,0,1,4.865-4.865h2.466a4.864,4.864,0,0,1,4.865,4.865Zm0,0" transform="translate(-190.029 -110.61)" fill="#abebf4"/>
      <path id="Trazado_147033" data-name="Trazado 147033" d="M245.691,280.238a66.27,66.27,0,0,1-12.2,4.345v16.422h12.2Zm0,0" transform="translate(-190.029 -228.558)" fill="#8ed7e8"/>
      <path id="Trazado_147034" data-name="Trazado 147034" d="M150.836,233.337h-12.2V201.512a4.242,4.242,0,0,1,4.242-4.242h3.711a4.243,4.243,0,0,1,4.242,4.242Zm0,0" transform="translate(-112.666 -160.89)" fill="#b2e59c"/>
      <path id="Trazado_147035" data-name="Trazado 147035" d="M340.551,117.351h-12.2V68.228a4.834,4.834,0,0,1,4.834-4.834h2.527a4.834,4.834,0,0,1,4.834,4.834Zm0,0" transform="translate(-267.394 -51.704)" fill="#ffde55"/>
      <path id="Trazado_147036" data-name="Trazado 147036" d="M340.548,218.594a79.573,79.573,0,0,1-12.2,8.616v16.719h12.2Zm0,0" transform="translate(-267.391 -178.281)" fill="#ffcd00"/>
      <path id="Trazado_147037" data-name="Trazado 147037" d="M109.477,249.034,134,236.018a4.1,4.1,0,0,1,5.942,4.44,11.88,11.88,0,0,1-4.067,7.052l-2.513,2.036a1.7,1.7,0,0,0,1.073,3.03l10.077,0a15.949,15.949,0,0,0,9.181-2.9l11.262-7.92a5.294,5.294,0,0,1,6.406,8.421L156.607,262.3a15.945,15.945,0,0,1-6.332,3.168l-32.334,7.917Zm0,0" transform="translate(-88.88 -192.094)" fill="#ffe2d9"/>
      <path id="Trazado_147038" data-name="Trazado 147038" d="M123.061,309.826c-9.286-2.725-8.595-15.431-8.595-15.431l-4.99,2.649,8.464,24.352,24.646-6.035C137.395,313.918,129.041,311.58,123.061,309.826Zm0,0" transform="translate(-88.88 -240.103)" fill="#ffcfc2"/>
      <path id="Trazado_147039" data-name="Trazado 147039" d="M29.165,308.758l9.162,24.453a7.143,7.143,0,0,1-5.107,9.472l-8.763,1.99a7.144,7.144,0,0,1-8.5-5.169l-4.719-18.157a7.357,7.357,0,0,1,5.1-8.926Zm0,0" transform="translate(-8.568 -251.818)" fill="#78b62e"/>
      <path id="Trazado_147040" data-name="Trazado 147040" d="M38.327,345.19,36.9,341.377a23.631,23.631,0,0,0-10.837-1.919,7.166,7.166,0,0,1-7.481-7.381,49.454,49.454,0,0,1,1.106-8.632l-3.344.955a7.358,7.358,0,0,0-5.1,8.926l4.719,18.156a7.144,7.144,0,0,0,8.5,5.169l8.763-1.99A7.143,7.143,0,0,0,38.327,345.19Zm0,0" transform="translate(-8.568 -263.797)" fill="#bada95"/>
      <path id="Trazado_147041" data-name="Trazado 147041" d="M79.952,430.8a4.066,4.066,0,1,1-4.066-4.066A4.066,4.066,0,0,1,79.952,430.8Zm0,0" transform="translate(-58.169 -348.041)" fill="#ffeb99"/>
      <path id="Trazado_147042" data-name="Trazado 147042" d="M58.612,7.5H47.552a2.871,2.871,0,1,0,0,5.743h3.936l-11.535,11.1-5.469-2.829a2.872,2.872,0,0,0-3.358.528L8.821,44.523A2.872,2.872,0,0,0,12.9,48.569L33.719,27.588l5.424,2.806a2.873,2.873,0,0,0,3.311-.482L55.74,17.122v4.407a2.871,2.871,0,1,0,5.743,0V10.371s0-.006,0-.009A2.66,2.66,0,0,0,58.612,7.5Zm0,0" transform="translate(-6.107 -6.117)" fill="#bada95"/>
      <path id="Trazado_147043" data-name="Trazado 147043" d="M86.34,94.914c-4.339-4.319-9.354-.277-9.354-.277V71.9a1.383,1.383,0,1,0-2.766,0V96.584s-6.6,5.2-9.43,6.47V62.111a3.455,3.455,0,0,1,3.451-3.451h2.527a3.455,3.455,0,0,1,3.451,3.451v4.126a1.383,1.383,0,0,0,2.766,0V62.111a6.224,6.224,0,0,0-6.218-6.217H68.241a6.224,6.224,0,0,0-6.218,6.217V104.15a14.521,14.521,0,0,1-2.531.471V75.462a6.255,6.255,0,0,0-6.248-6.249H50.778a6.255,6.255,0,0,0-6.248,6.249V89.554L42,90.9v-4.69a5.632,5.632,0,0,0-5.625-5.625H32.662a5.631,5.631,0,0,0-5.625,5.625V98.84l-4.516,2.4L9.84,104.861a8.741,8.741,0,0,0-6.058,10.6L5.2,120.921a1.383,1.383,0,1,0,2.677-.7l-1.418-5.458A5.94,5.94,0,0,1,10.6,107.52L22.2,104.207l8.714,23.258a6.2,6.2,0,0,1-4.118,7.638l-8.763,1.99a5.735,5.735,0,0,1-6.851-4.168L9.4,126.08a1.383,1.383,0,0,0-2.678.7L8.5,133.621a8.482,8.482,0,0,0,8.218,6.386c2.794,0,10.685-2.207,10.685-2.207a8.524,8.524,0,0,0,6.452-10.074l30.313-7.421a17.443,17.443,0,0,0,6.881-3.444L85.8,104.74A6.56,6.56,0,0,0,86.34,94.914ZM50.778,71.98h2.466a3.486,3.486,0,0,1,3.482,3.482V104.69l-8.727,0c-.8-.007-.246-.537-.2-.573l2.513-2.036a13.143,13.143,0,0,0,4.551-7.851A5.484,5.484,0,0,0,47.3,88.1V75.462A3.486,3.486,0,0,1,50.778,71.98ZM29.8,86.209a2.862,2.862,0,0,1,2.858-2.859h3.711a2.862,2.862,0,0,1,2.859,2.859v6.158L29.8,97.372Zm54.244,16.4L69.3,114.725a14.652,14.652,0,0,1-5.783,2.894L32.976,125.1l-8.212-21.916L48.212,90.733a2.718,2.718,0,0,1,3.938,2.942,10.453,10.453,0,0,1-3.582,6.254l-2.513,2.037A3.088,3.088,0,0,0,48,107.453l10.078,0h.006a17.246,17.246,0,0,0,9.971-3.155l11.262-7.92a3.9,3.9,0,0,1,5.048.465C85.137,97.64,86.655,100,84.048,102.6Zm0,0" transform="translate(-2.446 -45.587)"/>
      <path id="Trazado_147044" data-name="Trazado 147044" d="M75.218,424.688a5.449,5.449,0,1,0-5.449,5.449A5.456,5.456,0,0,0,75.218,424.688Zm-8.132,0a2.683,2.683,0,1,1,2.683,2.683A2.686,2.686,0,0,1,67.087,424.688Zm0,0" transform="translate(-52.052 -341.924)"/>
      <path id="Trazado_147045" data-name="Trazado 147045" d="M7.772,43.426,27.878,23.166,32.4,25.5a4.254,4.254,0,0,0,4.906-.714L48.249,14.256s-.3,5.411,4.255,5.411a4.26,4.26,0,0,0,4.255-4.255V4.255c0-.013,0-.027,0-.04A4.027,4.027,0,0,0,52.5,0H41.445A4.259,4.259,0,0,0,37.19,4.255c0,4.677,4.76,4.255,4.76,4.255L33.6,16.546l-4.588-2.373a4.238,4.238,0,0,0-4.975.782L1.732,37.432a4.26,4.26,0,0,0,.023,6.017A4.2,4.2,0,0,0,7.772,43.426ZM3.695,39.381,26,16.9a1.257,1.257,0,0,1,1.74-.273l5.468,2.828a1.383,1.383,0,0,0,1.595-.232L46.34,8.123a1.383,1.383,0,0,0-.959-2.379H41.445a1.489,1.489,0,0,1,0-2.977H52.5a1.3,1.3,0,0,1,1.488,1.48c0,.012,0,.024,0,.037V15.412a1.488,1.488,0,1,1-2.977,0V11.005a1.383,1.383,0,0,0-2.343-1L35.387,22.8a1.488,1.488,0,0,1-1.716.25l-5.424-2.806a1.384,1.384,0,0,0-1.617.254L5.808,41.478a1.426,1.426,0,0,1-2.1.008A1.49,1.49,0,0,1,3.695,39.381Zm0,0" transform="translate(0)"/>
    </g>
  </g>
</svg>
