<svg xmlns="http://www.w3.org/2000/svg" width="330" height="237" viewBox="0 0 330 237">
  <g id="Grupo_144171" data-name="Grupo 144171" transform="translate(-299 -2399)">
    <rect id="Rectángulo_42399" data-name="Rectángulo 42399" width="330" height="237" transform="translate(299 2399)" fill="#bada95"/>
    <g id="materias-primas" transform="translate(356.739 2388.753)">
      <g id="Grupo_143357" data-name="Grupo 143357" transform="translate(1.798 43.08)">
        <g id="Grupo_143347" data-name="Grupo 143347" transform="translate(0 0)">
          <g id="Grupo_143341" data-name="Grupo 143341" transform="translate(64.851 12.53)">
            <path id="Trazado_146879" data-name="Trazado 146879" d="M329.072,126.254h-51.1v33.382h7a1.209,1.209,0,0,1,1.209,1.209v26.583l3.263-3.254a10.3,10.3,0,0,1,14.544,0l16.823,16.776h8.254v-74.7Z" transform="translate(-277.976 -120.209)" fill="#3c6d9d"/>
            <path id="Trazado_146880" data-name="Trazado 146880" d="M277.976,126.254h6.705v33.382h-6.705Z" transform="translate(-277.976 -120.209)" fill="#82b8eb"/>
            <path id="Trazado_146881" data-name="Trazado 146881" d="M331.08,101.041h-53.1v6.045h53.1a1.209,1.209,0,0,0,1.209-1.209V102.25A1.209,1.209,0,0,0,331.08,101.041Z" transform="translate(-277.976 -101.041)" fill="#b2d9ff"/>
            <path id="Trazado_146882" data-name="Trazado 146882" d="M284.481,105.876v-3.627a1.209,1.209,0,0,1,1.209-1.209h-7.714v6.045h7.714A1.209,1.209,0,0,1,284.481,105.876Z" transform="translate(-277.976 -101.04)" fill="#3c6d9d"/>
            <g id="Grupo_143340" data-name="Grupo 143340" transform="translate(42.893 80.793)">
              <path id="Trazado_146883" data-name="Trazado 146883" d="M467.08,438.005H456.869l6.062,6.045h4.149a1.209,1.209,0,0,0,1.209-1.209v-3.627A1.209,1.209,0,0,0,467.08,438.005Z" transform="translate(-456.869 -438.005)" fill="#0182fc"/>
            </g>
          </g>
          <g id="Grupo_143346" data-name="Grupo 143346">
            <path id="Trazado_146884" data-name="Trazado 146884" d="M20.918,72.995v87.757H43.353v-40.4a1.209,1.209,0,0,1,1.209-1.209H82.552V72.995Z" transform="translate(-17.701 -67.189)" fill="#f5db9a"/>
            <path id="Trazado_146885" data-name="Trazado 146885" d="M20.918,74h8.646v87.517H20.918Z" transform="translate(-17.701 -67.95)" fill="#fac600"/>
            <g id="Grupo_143342" data-name="Grupo 143342" transform="translate(0 0)">
              <path id="Trazado_146886" data-name="Trazado 146886" d="M74.359,48.782H8.709A1.209,1.209,0,0,0,7.5,49.991v3.627a1.209,1.209,0,0,0,1.209,1.209h65.65a1.209,1.209,0,0,0,1.209-1.209V49.991A1.209,1.209,0,0,0,74.359,48.782Z" transform="translate(-7.5 -48.782)" fill="#fac600"/>
            </g>
            <g id="Grupo_143343" data-name="Grupo 143343">
              <path id="Trazado_146887" data-name="Trazado 146887" d="M17.69,53.617V49.99A1.209,1.209,0,0,1,18.9,48.781H8.709A1.209,1.209,0,0,0,7.5,49.99v3.627a1.209,1.209,0,0,0,1.209,1.209H18.9A1.209,1.209,0,0,1,17.69,53.617Z" transform="translate(-7.5 -48.781)" fill="#e8b800"/>
            </g>
            <g id="Grupo_143344" data-name="Grupo 143344" transform="translate(0 93.323)">
              <path id="Trazado_146888" data-name="Trazado 146888" d="M8.709,438.005A1.209,1.209,0,0,0,7.5,439.214v3.627a1.209,1.209,0,0,0,1.209,1.209H33.153v-6.045H8.709Z" transform="translate(-7.5 -438.005)" fill="#fac600"/>
            </g>
            <g id="Grupo_143345" data-name="Grupo 143345" transform="translate(0 93.323)">
              <path id="Trazado_146889" data-name="Trazado 146889" d="M17.69,442.84v-3.627A1.209,1.209,0,0,1,18.9,438H8.709A1.209,1.209,0,0,0,7.5,439.213v3.627a1.209,1.209,0,0,0,1.209,1.209H18.9A1.209,1.209,0,0,1,17.69,442.84Z" transform="translate(-7.5 -438.004)" fill="#e8b800"/>
            </g>
          </g>
        </g>
        <g id="Grupo_143356" data-name="Grupo 143356" transform="translate(25.652 51.958)">
          <g id="Grupo_143353" data-name="Grupo 143353">
            <path id="Trazado_146890" data-name="Trazado 146890" d="M161.9,266.69a1.209,1.209,0,0,0-1.209-1.209H115.7a1.209,1.209,0,0,0-1.209,1.209v46.2h27.738L161.9,293.273V266.69Z" transform="translate(-114.489 -265.481)" fill="#fcef91"/>
            <g id="Grupo_143348" data-name="Grupo 143348" transform="translate(0)">
              <path id="Trazado_146891" data-name="Trazado 146891" d="M123.8,265.481h-8.1a1.209,1.209,0,0,0-1.209,1.209v46.2h8.1v-46.2A1.209,1.209,0,0,1,123.8,265.481Z" transform="translate(-114.49 -265.481)" fill="#f0de59"/>
            </g>
            <g id="Grupo_143349" data-name="Grupo 143349" transform="translate(19.641)">
              <path id="Trazado_146892" data-name="Trazado 146892" d="M203.81,277h-6.677a.726.726,0,0,1-.726-.726V265.481h8.128V276.27A.725.725,0,0,1,203.81,277Z" transform="translate(-196.408 -265.481)" fill="#fe646f"/>
            </g>
            <g id="Grupo_143350" data-name="Grupo 143350" transform="translate(19.642)">
              <path id="Trazado_146893" data-name="Trazado 146893" d="M200.411,276.27V265.481h-4V276.27a.726.726,0,0,0,.726.726h4A.726.726,0,0,1,200.411,276.27Z" transform="translate(-196.409 -265.481)" fill="#fd4755"/>
            </g>
            <g id="Grupo_143351" data-name="Grupo 143351" transform="translate(6.121 29.083)">
              <path id="Trazado_146894" data-name="Trazado 146894" d="M151.486,398.968h-10.74a.726.726,0,0,1-.726-.726V387.5a.726.726,0,0,1,.726-.726h10.74a.726.726,0,0,1,.726.726v10.74a.726.726,0,0,1-.726.725Z" transform="translate(-140.02 -386.777)" fill="#fff"/>
            </g>
            <g id="Grupo_143352" data-name="Grupo 143352" transform="translate(6.121 29.083)">
              <path id="Trazado_146895" data-name="Trazado 146895" d="M146.045,398.244V387.5a.726.726,0,0,1,.726-.726h-6.026a.726.726,0,0,0-.726.726v10.74a.726.726,0,0,0,.726.725h6.026A.726.726,0,0,1,146.045,398.244Z" transform="translate(-140.019 -386.778)" fill="#f3f0f3"/>
            </g>
          </g>
          <g id="Grupo_143354" data-name="Grupo 143354" transform="translate(27.738 21.532)">
            <path id="Trazado_146896" data-name="Trazado 146896" d="M253.112,358.292l-22.935,22.872h60.415l-22.935-22.872A10.3,10.3,0,0,0,253.112,358.292Z" transform="translate(-230.177 -355.286)" fill="#d6cf9f"/>
          </g>
          <g id="Grupo_143355" data-name="Grupo 143355" transform="translate(27.738 21.534)">
            <path id="Trazado_146897" data-name="Trazado 146897" d="M265.039,356.4a10.3,10.3,0,0,0-11.927,1.895l-22.935,22.872h9.308L262.421,358.3A10.29,10.29,0,0,1,265.039,356.4Z" transform="translate(-230.177 -355.292)" fill="#b2ac83"/>
          </g>
        </g>
      </g>
      <g id="Grupo_143358" data-name="Grupo 143358" transform="translate(0 41.282)">
        <path id="Trazado_146898" data-name="Trazado 146898" d="M145.784,379.278H135.044a2.526,2.526,0,0,0-2.524,2.524v10.74a2.526,2.526,0,0,0,2.524,2.524h10.741a2.526,2.526,0,0,0,2.524-2.524V381.8A2.526,2.526,0,0,0,145.784,379.278Zm-1.073,12.191h-8.595v-8.595h8.595v8.595Z" transform="translate(-100.746 -298.238)"/>
        <path id="Trazado_146899" data-name="Trazado 146899" d="M117.745,70.106a1.8,1.8,0,0,0,1.8-1.8V63.454h.21a3.01,3.01,0,0,0,3.007-3.007V56.819a3.01,3.01,0,0,0-3.007-3.007H68.448V50.924h.21a3.011,3.011,0,0,0,3.007-3.007V44.289a3.01,3.01,0,0,0-3.007-3.007H3.007A3.01,3.01,0,0,0,0,44.289v3.627a3.011,3.011,0,0,0,3.007,3.007h.21V71.9H3.188a1.8,1.8,0,1,0,0,3.6h.029v27.221H3.188a1.8,1.8,0,1,0,0,3.6h.029V134.6h-.21A3.011,3.011,0,0,0,0,137.612v3.627a3.011,3.011,0,0,0,3.007,3.007H87.755a1.8,1.8,0,1,0,0-3.6H59.539l19.855-19.8a8.515,8.515,0,0,1,12,0l19.855,19.8H96.147a1.8,1.8,0,1,0,0,3.6h23.607a3.011,3.011,0,0,0,3.007-3.007v-3.627a3.01,3.01,0,0,0-3.007-3.007h-.21v-23.65h.029a1.8,1.8,0,1,0,0-3.6h-.029V84.627h.029a1.8,1.8,0,1,0,0-3.6h-.029V76.7a1.8,1.8,0,1,0-3.6,0v4.331h-47.5V75.5h.029a1.8,1.8,0,1,0,0-3.6h-.029V63.454h47.5v4.855a1.8,1.8,0,0,0,1.8,1.8ZM16.3,50.924a1.8,1.8,0,0,0,0-3.6H3.6V44.879H68.068v2.449H24.7a1.8,1.8,0,0,0,0,3.6H64.851V71.9H6.814V50.924Zm9.349,89.726H3.6V138.2H25.653Zm0-6.045H6.814V106.318H25.653Zm0-38.358v6.475H6.814V75.5H64.851V93.239H28.66a3.011,3.011,0,0,0-3.007,3.008Zm23.238.589h4.531v7.918H48.891Zm24.173,25.248L54.445,140.65h-25.2V96.836H45.294v8.991a2.526,2.526,0,0,0,2.524,2.524h6.677a2.527,2.527,0,0,0,2.524-2.524V96.836H73.063v25.248ZM110.286,134.6,93.939,118.3a12.118,12.118,0,0,0-17.084,0l-.195.194v-7.542h39.287V134.6h-5.661Zm8.879,3.6v2.449h-2.817l-2.456-2.449Zm-3.217-53.574v22.731H76.66V96.246a3.011,3.011,0,0,0-3.007-3.007h-5.2V84.627Zm-47.5-24.77V57.408h50.716v2.449Z" transform="translate(0 -41.282)"/>
        <path id="Trazado_146900" data-name="Trazado 146900" d="M366.721,389.783H365.27a1.8,1.8,0,0,0,0,3.6h1.451a1.8,1.8,0,0,0,0-3.6Z" transform="translate(-276.323 -306.224)"/>
        <path id="Trazado_146901" data-name="Trazado 146901" d="M340.057,415a1.8,1.8,0,0,0,0,3.6h1.451a1.8,1.8,0,0,0,0-3.6Z" transform="translate(-257.156 -325.392)"/>
        <path id="Trazado_146902" data-name="Trazado 146902" d="M395.526,429.688h1.451a1.8,1.8,0,1,0,0-3.6h-1.451a1.8,1.8,0,0,0,0,3.6Z" transform="translate(-299.325 -333.826)"/>
      </g>
    </g>
    <text id="Conseguir_materia_prima_sin_contaminantes" data-name="Conseguir materia prima sin contaminantes" transform="translate(357 2563)" fill="#12263f" font-size="20" font-family="Roboto-Bold, Roboto" font-weight="700"><tspan x="0" y="21">Conseguir materia prima </tspan><tspan x="0" y="46">sin contaminantes</tspan></text>
  </g>
</svg>
