<svg xmlns="http://www.w3.org/2000/svg" width="941" height="429" viewBox="0 0 941 429">
  <g id="Grupo_143339" data-name="Grupo 143339" transform="translate(-305 -1407)">
    <path id="Trazado_146845" data-name="Trazado 146845" d="M0,0H941V101H0Z" transform="translate(305 1407)" fill="#e9f3dd"/>
    <path id="Trazado_146846" data-name="Trazado 146846" d="M4.2-5.01V0H1.27V-14.219H6.816a6.417,6.417,0,0,1,2.817.586,4.318,4.318,0,0,1,1.87,1.665,4.643,4.643,0,0,1,.654,2.456,4.083,4.083,0,0,1-1.431,3.3A5.959,5.959,0,0,1,6.768-5.01Zm0-2.373H6.816A2.573,2.573,0,0,0,8.589-7.93,1.989,1.989,0,0,0,9.2-9.492a2.345,2.345,0,0,0-.615-1.689,2.3,2.3,0,0,0-1.7-.664H4.2Zm9.219,2a6.267,6.267,0,0,1,.605-2.8,4.432,4.432,0,0,1,1.743-1.9,5.086,5.086,0,0,1,2.642-.674A4.812,4.812,0,0,1,21.9-9.453,5.252,5.252,0,0,1,23.408-5.9l.02.723a5.523,5.523,0,0,1-1.357,3.9A4.718,4.718,0,0,1,18.428.2,4.742,4.742,0,0,1,14.78-1.27a5.62,5.62,0,0,1-1.362-3.984Zm2.822.205a3.939,3.939,0,0,0,.566,2.3,1.869,1.869,0,0,0,1.621.8,1.874,1.874,0,0,0,1.6-.786,4.31,4.31,0,0,0,.576-2.515,3.9,3.9,0,0,0-.576-2.285,1.874,1.874,0,0,0-1.621-.811,1.843,1.843,0,0,0-1.6.806A4.383,4.383,0,0,0,16.24-5.176ZM28.145,0H25.313V-15h2.832Zm5.371,0H30.693V-10.566h2.822Zm-.83-14.854h3.076l-2.705,3.027H30.762Zm6.641,1.689v2.6h1.807V-8.5H39.326v5.273a1.259,1.259,0,0,0,.225.84,1.128,1.128,0,0,0,.859.254,4.5,4.5,0,0,0,.83-.068V-.059A5.81,5.81,0,0,1,39.531.2q-2.969,0-3.027-3V-8.5H34.961v-2.07H36.5v-2.6ZM45.684,0H42.852V-10.566h2.832Zm-3-13.3a1.39,1.39,0,0,1,.425-1.045,1.6,1.6,0,0,1,1.157-.41,1.6,1.6,0,0,1,1.152.41,1.382,1.382,0,0,1,.43,1.045,1.386,1.386,0,0,1-.435,1.055,1.6,1.6,0,0,1-1.147.41,1.6,1.6,0,0,1-1.147-.41A1.386,1.386,0,0,1,42.686-13.3ZM52.4-2.08a1.851,1.851,0,0,0,1.27-.43,1.506,1.506,0,0,0,.508-1.143h2.646a3.62,3.62,0,0,1-.586,1.968A3.866,3.866,0,0,1,54.663-.3,4.936,4.936,0,0,1,52.451.2a4.587,4.587,0,0,1-3.574-1.44,5.7,5.7,0,0,1-1.309-3.979V-5.41a5.635,5.635,0,0,1,1.3-3.9,4.534,4.534,0,0,1,3.564-1.455A4.444,4.444,0,0,1,55.61-9.634a3.994,3.994,0,0,1,1.216,3H54.18a1.923,1.923,0,0,0-.508-1.333,1.7,1.7,0,0,0-1.289-.513,1.7,1.7,0,0,0-1.489.718,4.155,4.155,0,0,0-.5,2.329v.293a4.207,4.207,0,0,0,.5,2.344A1.722,1.722,0,0,0,52.4-2.08ZM64.561,0a3.134,3.134,0,0,1-.283-.947A3.415,3.415,0,0,1,61.611.2a3.752,3.752,0,0,1-2.573-.9,2.89,2.89,0,0,1-1.021-2.266,2.986,2.986,0,0,1,1.245-2.578,6.144,6.144,0,0,1,3.6-.908h1.3v-.605a1.741,1.741,0,0,0-.376-1.172A1.479,1.479,0,0,0,62.6-8.672a1.682,1.682,0,0,0-1.118.342,1.161,1.161,0,0,0-.405.938H58.252a2.835,2.835,0,0,1,.566-1.7,3.744,3.744,0,0,1,1.6-1.226,5.837,5.837,0,0,1,2.324-.444,4.611,4.611,0,0,1,3.1.981,3.433,3.433,0,0,1,1.147,2.759v4.58a5.052,5.052,0,0,0,.42,2.275V0ZM62.227-1.963a2.431,2.431,0,0,0,1.152-.278,1.828,1.828,0,0,0,.781-.747V-4.8H63.105q-2.119,0-2.256,1.465l-.01.166a1.13,1.13,0,0,0,.371.869A1.441,1.441,0,0,0,62.227-1.963Zm11.5-3.4a6.193,6.193,0,0,1,1.157-3.916,3.75,3.75,0,0,1,3.12-1.484A3.289,3.289,0,0,1,80.713-9.57l.117-1h2.559V-.352a4.516,4.516,0,0,1-.63,2.412,4.045,4.045,0,0,1-1.772,1.563,6.231,6.231,0,0,1-2.676.537A5.794,5.794,0,0,1,76.045,3.7a4.021,4.021,0,0,1-1.67-1.2L75.625.781a3.306,3.306,0,0,0,2.559,1.182,2.42,2.42,0,0,0,1.748-.6,2.253,2.253,0,0,0,.625-1.7V-.908A3.264,3.264,0,0,1,77.988.2a3.74,3.74,0,0,1-3.081-1.489,6.191,6.191,0,0,1-1.177-3.95Zm2.822.205a3.845,3.845,0,0,0,.576,2.251,1.834,1.834,0,0,0,1.582.815,1.961,1.961,0,0,0,1.846-.967V-7.5a1.956,1.956,0,0,0-1.826-.967,1.845,1.845,0,0,0-1.6.83A4.334,4.334,0,0,0,76.553-5.156ZM90.42.2A5.187,5.187,0,0,1,86.636-1.23a5.068,5.068,0,0,1-1.46-3.8V-5.3a6.383,6.383,0,0,1,.615-2.847,4.515,4.515,0,0,1,1.743-1.934,4.893,4.893,0,0,1,2.573-.679,4.385,4.385,0,0,1,3.413,1.367,5.555,5.555,0,0,1,1.245,3.877v1.152H88.037a2.622,2.622,0,0,0,.825,1.66,2.5,2.5,0,0,0,1.743.625,3.046,3.046,0,0,0,2.549-1.182l1.387,1.553a4.237,4.237,0,0,1-1.719,1.4A5.639,5.639,0,0,1,90.42.2ZM90.1-8.477a1.767,1.767,0,0,0-1.362.566,2.926,2.926,0,0,0-.669,1.621h3.926v-.225a2.086,2.086,0,0,0-.508-1.45A1.824,1.824,0,0,0,90.1-8.477Zm8.867-2.09.088,1.221a3.689,3.689,0,0,1,3.037-1.416,3.066,3.066,0,0,1,2.5.986,4.6,4.6,0,0,1,.84,2.949V0h-2.822V-6.758a1.831,1.831,0,0,0-.391-1.3,1.749,1.749,0,0,0-1.3-.405,1.942,1.942,0,0,0-1.787,1.016V0H96.309V-10.566ZM112.432.2a5.187,5.187,0,0,1-3.784-1.426,5.068,5.068,0,0,1-1.46-3.8V-5.3a6.383,6.383,0,0,1,.615-2.847,4.515,4.515,0,0,1,1.743-1.934,4.893,4.893,0,0,1,2.573-.679,4.385,4.385,0,0,1,3.413,1.367,5.555,5.555,0,0,1,1.245,3.877v1.152h-6.729a2.622,2.622,0,0,0,.825,1.66,2.5,2.5,0,0,0,1.743.625,3.046,3.046,0,0,0,2.549-1.182l1.387,1.553a4.237,4.237,0,0,1-1.719,1.4A5.639,5.639,0,0,1,112.432.2Zm-.322-8.672a1.767,1.767,0,0,0-1.362.566,2.926,2.926,0,0,0-.669,1.621H114v-.225a2.086,2.086,0,0,0-.508-1.45A1.824,1.824,0,0,0,112.109-8.477Zm12.207.557A7.667,7.667,0,0,0,123.3-8a2.067,2.067,0,0,0-2.1,1.084V0h-2.822V-10.566h2.666l.078,1.26a2.615,2.615,0,0,1,2.354-1.455,2.957,2.957,0,0,1,.879.127ZM131.5,0a3.134,3.134,0,0,1-.283-.947A3.415,3.415,0,0,1,128.555.2a3.752,3.752,0,0,1-2.573-.9,2.89,2.89,0,0,1-1.021-2.266,2.986,2.986,0,0,1,1.245-2.578,6.144,6.144,0,0,1,3.6-.908h1.3v-.605a1.741,1.741,0,0,0-.376-1.172,1.479,1.479,0,0,0-1.187-.439,1.682,1.682,0,0,0-1.118.342,1.161,1.161,0,0,0-.405.938H125.2a2.835,2.835,0,0,1,.566-1.7,3.744,3.744,0,0,1,1.6-1.226,5.837,5.837,0,0,1,2.324-.444,4.611,4.611,0,0,1,3.1.981,3.433,3.433,0,0,1,1.147,2.759v4.58a5.052,5.052,0,0,0,.42,2.275V0ZM129.17-1.963a2.431,2.431,0,0,0,1.152-.278,1.828,1.828,0,0,0,.781-.747V-4.8h-1.055q-2.119,0-2.256,1.465l-.01.166a1.13,1.13,0,0,0,.371.869A1.441,1.441,0,0,0,129.17-1.963ZM139.082,0H136.25V-15h2.832Z" transform="translate(335 1465)" fill="#12263f"/>
    <path id="Trazado_146847" data-name="Trazado 146847" d="M0,0H941V101H0Z" transform="translate(305 1516)" fill="#e9f3dd"/>
    <path id="Trazado_146848" data-name="Trazado 146848" d="M12.432-4.736a5.031,5.031,0,0,1-1.694,3.613A5.951,5.951,0,0,1,6.709.2a5.351,5.351,0,0,1-4.3-1.841A7.548,7.548,0,0,1,.84-6.7v-.869a8.523,8.523,0,0,1,.723-3.613,5.416,5.416,0,0,1,2.065-2.4,5.786,5.786,0,0,1,3.12-.835A5.8,5.8,0,0,1,10.713-13.1a5.407,5.407,0,0,1,1.738,3.7H9.521a2.97,2.97,0,0,0-.767-2,2.839,2.839,0,0,0-2.007-.62,2.489,2.489,0,0,0-2.192,1.05,5.883,5.883,0,0,0-.747,3.257v1.074a6.3,6.3,0,0,0,.7,3.369A2.443,2.443,0,0,0,6.709-2.2a2.892,2.892,0,0,0,2.026-.62A2.8,2.8,0,0,0,9.5-4.736Zm1.3-.645a6.267,6.267,0,0,1,.605-2.8,4.432,4.432,0,0,1,1.743-1.9,5.086,5.086,0,0,1,2.642-.674,4.812,4.812,0,0,1,3.491,1.309A5.252,5.252,0,0,1,23.721-5.9l.02.723a5.523,5.523,0,0,1-1.357,3.9A4.718,4.718,0,0,1,18.74.2,4.742,4.742,0,0,1,15.093-1.27,5.62,5.62,0,0,1,13.73-5.254Zm2.822.205a3.939,3.939,0,0,0,.566,2.3,1.869,1.869,0,0,0,1.621.8,1.874,1.874,0,0,0,1.6-.786,4.31,4.31,0,0,0,.576-2.515,3.9,3.9,0,0,0-.576-2.285,1.874,1.874,0,0,0-1.621-.811,1.843,1.843,0,0,0-1.6.806A4.383,4.383,0,0,0,16.553-5.176Zm8.486-.205a6.266,6.266,0,0,1,.605-2.8,4.432,4.432,0,0,1,1.743-1.9,5.086,5.086,0,0,1,2.642-.674,4.812,4.812,0,0,1,3.491,1.309A5.252,5.252,0,0,1,35.029-5.9l.02.723a5.523,5.523,0,0,1-1.357,3.9A4.718,4.718,0,0,1,30.049.2,4.742,4.742,0,0,1,26.4-1.27a5.62,5.62,0,0,1-1.362-3.984Zm2.822.205a3.939,3.939,0,0,0,.566,2.3,1.869,1.869,0,0,0,1.621.8,1.874,1.874,0,0,0,1.6-.786,4.31,4.31,0,0,0,.576-2.515,3.9,3.9,0,0,0-.576-2.285,1.874,1.874,0,0,0-1.621-.811,1.843,1.843,0,0,0-1.6.806A4.383,4.383,0,0,0,27.861-5.176ZM42.725-7.92A7.667,7.667,0,0,0,41.709-8a2.067,2.067,0,0,0-2.1,1.084V0H36.787V-10.566h2.666l.078,1.26a2.615,2.615,0,0,1,2.354-1.455,2.957,2.957,0,0,1,.879.127Zm.732,2.559A6.368,6.368,0,0,1,44.565-9.3,3.6,3.6,0,0,1,47.6-10.762a3.236,3.236,0,0,1,2.549,1.152V-15h2.832V0H50.43l-.137-1.123A3.321,3.321,0,0,1,47.578.2a3.587,3.587,0,0,1-2.993-1.47A6.573,6.573,0,0,1,43.457-5.361Zm2.822.205A4.16,4.16,0,0,0,46.8-2.881a1.687,1.687,0,0,0,1.5.791,1.889,1.889,0,0,0,1.846-1.1v-4.17a1.862,1.862,0,0,0-1.826-1.1Q46.279-8.467,46.279-5.156ZM58.145,0H55.313V-10.566h2.832Zm-3-13.3a1.39,1.39,0,0,1,.425-1.045,1.6,1.6,0,0,1,1.157-.41,1.6,1.6,0,0,1,1.152.41,1.382,1.382,0,0,1,.43,1.045,1.386,1.386,0,0,1-.435,1.055,1.6,1.6,0,0,1-1.147.41,1.6,1.6,0,0,1-1.147-.41A1.386,1.386,0,0,1,55.146-13.3Zm7.92,2.734.088,1.221a3.689,3.689,0,0,1,3.037-1.416,3.066,3.066,0,0,1,2.5.986,4.6,4.6,0,0,1,.84,2.949V0H66.709V-6.758a1.831,1.831,0,0,0-.391-1.3,1.749,1.749,0,0,0-1.3-.405,1.942,1.942,0,0,0-1.787,1.016V0H60.41V-10.566ZM77.793,0a3.134,3.134,0,0,1-.283-.947A3.415,3.415,0,0,1,74.844.2a3.752,3.752,0,0,1-2.573-.9A2.89,2.89,0,0,1,71.25-2.969,2.986,2.986,0,0,1,72.5-5.547a6.144,6.144,0,0,1,3.6-.908h1.3v-.605a1.741,1.741,0,0,0-.376-1.172,1.479,1.479,0,0,0-1.187-.439,1.682,1.682,0,0,0-1.118.342,1.161,1.161,0,0,0-.405.938H71.484a2.835,2.835,0,0,1,.566-1.7,3.744,3.744,0,0,1,1.6-1.226,5.837,5.837,0,0,1,2.324-.444,4.611,4.611,0,0,1,3.1.981,3.433,3.433,0,0,1,1.147,2.759v4.58a5.052,5.052,0,0,0,.42,2.275V0ZM75.459-1.963a2.431,2.431,0,0,0,1.152-.278,1.828,1.828,0,0,0,.781-.747V-4.8H76.338q-2.119,0-2.256,1.465l-.01.166a1.13,1.13,0,0,0,.371.869A1.441,1.441,0,0,0,75.459-1.963ZM86.787-2.08a1.851,1.851,0,0,0,1.27-.43,1.506,1.506,0,0,0,.508-1.143h2.646a3.62,3.62,0,0,1-.586,1.968A3.866,3.866,0,0,1,89.048-.3,4.936,4.936,0,0,1,86.836.2a4.587,4.587,0,0,1-3.574-1.44,5.7,5.7,0,0,1-1.309-3.979V-5.41a5.635,5.635,0,0,1,1.3-3.9,4.534,4.534,0,0,1,3.564-1.455A4.444,4.444,0,0,1,90-9.634a3.994,3.994,0,0,1,1.216,3H88.564a1.923,1.923,0,0,0-.508-1.333,1.7,1.7,0,0,0-1.289-.513,1.7,1.7,0,0,0-1.489.718,4.155,4.155,0,0,0-.5,2.329v.293a4.207,4.207,0,0,0,.5,2.344A1.722,1.722,0,0,0,86.787-2.08ZM95.8,0H92.969V-10.566H95.8Zm-3-13.3a1.39,1.39,0,0,1,.425-1.045,1.6,1.6,0,0,1,1.157-.41,1.6,1.6,0,0,1,1.152.41,1.382,1.382,0,0,1,.43,1.045,1.386,1.386,0,0,1-.435,1.055,1.6,1.6,0,0,1-1.147.41,1.6,1.6,0,0,1-1.147-.41A1.386,1.386,0,0,1,92.8-13.3Zm4.883,7.92a6.266,6.266,0,0,1,.605-2.8,4.432,4.432,0,0,1,1.743-1.9,5.086,5.086,0,0,1,2.642-.674,4.812,4.812,0,0,1,3.491,1.309A5.252,5.252,0,0,1,107.676-5.9l.02.723a5.523,5.523,0,0,1-1.357,3.9A4.718,4.718,0,0,1,102.7.2,4.742,4.742,0,0,1,99.048-1.27a5.62,5.62,0,0,1-1.362-3.984Zm2.822.205a3.939,3.939,0,0,0,.566,2.3,1.869,1.869,0,0,0,1.621.8,1.874,1.874,0,0,0,1.6-.786,4.31,4.31,0,0,0,.576-2.515,3.9,3.9,0,0,0-.576-2.285,1.874,1.874,0,0,0-1.621-.811,1.843,1.843,0,0,0-1.6.806A4.383,4.383,0,0,0,100.508-5.176ZM103.232-15h3.076L103.6-11.973h-2.295Zm8.8,4.434.088,1.221a3.689,3.689,0,0,1,3.037-1.416,3.066,3.066,0,0,1,2.5.986,4.6,4.6,0,0,1,.84,2.949V0h-2.822V-6.758a1.831,1.831,0,0,0-.391-1.3,1.749,1.749,0,0,0-1.3-.405A1.942,1.942,0,0,0,112.2-7.451V0h-2.822V-10.566Zm16.963-2.6v2.6H130.8V-8.5h-1.807v5.273a1.259,1.259,0,0,0,.225.84,1.128,1.128,0,0,0,.859.254,4.5,4.5,0,0,0,.83-.068V-.059A5.81,5.81,0,0,1,129.2.2q-2.969,0-3.027-3V-8.5h-1.543v-2.07h1.543v-2.6ZM137.236.2a5.187,5.187,0,0,1-3.784-1.426,5.068,5.068,0,0,1-1.46-3.8V-5.3a6.383,6.383,0,0,1,.615-2.847,4.515,4.515,0,0,1,1.743-1.934,4.893,4.893,0,0,1,2.573-.679,4.385,4.385,0,0,1,3.413,1.367,5.555,5.555,0,0,1,1.245,3.877v1.152h-6.729a2.622,2.622,0,0,0,.825,1.66,2.5,2.5,0,0,0,1.743.625,3.046,3.046,0,0,0,2.549-1.182l1.387,1.553a4.237,4.237,0,0,1-1.719,1.4A5.639,5.639,0,0,1,137.236.2Zm-.322-8.672a1.767,1.767,0,0,0-1.362.566,2.926,2.926,0,0,0-.669,1.621h3.926v-.225a2.086,2.086,0,0,0-.508-1.45A1.824,1.824,0,0,0,136.914-8.477ZM137.168-15h3.076l-2.705,3.027h-2.295Zm10.41,12.92a1.851,1.851,0,0,0,1.27-.43,1.506,1.506,0,0,0,.508-1.143H152a3.62,3.62,0,0,1-.586,1.968A3.866,3.866,0,0,1,149.839-.3,4.936,4.936,0,0,1,147.627.2a4.587,4.587,0,0,1-3.574-1.44,5.7,5.7,0,0,1-1.309-3.979V-5.41a5.635,5.635,0,0,1,1.3-3.9,4.534,4.534,0,0,1,3.564-1.455,4.444,4.444,0,0,1,3.179,1.128,3.994,3.994,0,0,1,1.216,3h-2.646a1.923,1.923,0,0,0-.508-1.333,1.7,1.7,0,0,0-1.289-.513,1.7,1.7,0,0,0-1.489.718,4.155,4.155,0,0,0-.5,2.329v.293a4.207,4.207,0,0,0,.5,2.344A1.722,1.722,0,0,0,147.578-2.08Zm8.633-8.486.088,1.221a3.689,3.689,0,0,1,3.037-1.416,3.066,3.066,0,0,1,2.5.986,4.6,4.6,0,0,1,.84,2.949V0h-2.822V-6.758a1.831,1.831,0,0,0-.391-1.3,1.749,1.749,0,0,0-1.3-.405,1.942,1.942,0,0,0-1.787,1.016V0h-2.822V-10.566ZM167.793,0h-2.832V-10.566h2.832Zm-3-13.3a1.39,1.39,0,0,1,.425-1.045,1.6,1.6,0,0,1,1.157-.41,1.6,1.6,0,0,1,1.152.41,1.382,1.382,0,0,1,.43,1.045,1.386,1.386,0,0,1-.435,1.055,1.6,1.6,0,0,1-1.147.41,1.6,1.6,0,0,1-1.147-.41A1.386,1.386,0,0,1,164.795-13.3ZM174.512-2.08a1.851,1.851,0,0,0,1.27-.43,1.506,1.506,0,0,0,.508-1.143h2.646a3.62,3.62,0,0,1-.586,1.968A3.866,3.866,0,0,1,176.772-.3,4.936,4.936,0,0,1,174.561.2a4.587,4.587,0,0,1-3.574-1.44,5.7,5.7,0,0,1-1.309-3.979V-5.41a5.635,5.635,0,0,1,1.3-3.9,4.534,4.534,0,0,1,3.564-1.455,4.444,4.444,0,0,1,3.179,1.128,3.994,3.994,0,0,1,1.216,3h-2.646a1.923,1.923,0,0,0-.508-1.333,1.7,1.7,0,0,0-1.289-.513A1.7,1.7,0,0,0,173-7.759a4.155,4.155,0,0,0-.5,2.329v.293a4.207,4.207,0,0,0,.5,2.344A1.722,1.722,0,0,0,174.512-2.08ZM186.67,0a3.134,3.134,0,0,1-.283-.947A3.415,3.415,0,0,1,183.721.2a3.752,3.752,0,0,1-2.573-.9,2.889,2.889,0,0,1-1.021-2.266,2.986,2.986,0,0,1,1.245-2.578,6.144,6.144,0,0,1,3.6-.908h1.3v-.605a1.741,1.741,0,0,0-.376-1.172,1.479,1.479,0,0,0-1.187-.439,1.682,1.682,0,0,0-1.118.342,1.161,1.161,0,0,0-.405.938h-2.822a2.835,2.835,0,0,1,.566-1.7,3.744,3.744,0,0,1,1.6-1.226,5.837,5.837,0,0,1,2.324-.444,4.611,4.611,0,0,1,3.1.981A3.433,3.433,0,0,1,189.1-7.021v4.58a5.052,5.052,0,0,0,.42,2.275V0Zm-2.334-1.963a2.431,2.431,0,0,0,1.152-.278,1.828,1.828,0,0,0,.781-.747V-4.8h-1.055q-2.119,0-2.256,1.465l-.01.166a1.13,1.13,0,0,0,.371.869A1.441,1.441,0,0,0,184.336-1.963ZM5.479,24.92a1.851,1.851,0,0,0,1.27-.43,1.506,1.506,0,0,0,.508-1.143H9.9a3.62,3.62,0,0,1-.586,1.968A3.866,3.866,0,0,1,7.739,26.7a4.936,4.936,0,0,1-2.212.493,4.587,4.587,0,0,1-3.574-1.44A5.7,5.7,0,0,1,.645,21.775V21.59a5.635,5.635,0,0,1,1.3-3.9,4.534,4.534,0,0,1,3.564-1.455,4.444,4.444,0,0,1,3.179,1.128,3.994,3.994,0,0,1,1.216,3H7.256a1.923,1.923,0,0,0-.508-1.333,1.7,1.7,0,0,0-1.289-.513,1.7,1.7,0,0,0-1.489.718,4.155,4.155,0,0,0-.5,2.329v.293a4.207,4.207,0,0,0,.5,2.344A1.722,1.722,0,0,0,5.479,24.92Zm10.9,2.275a5.187,5.187,0,0,1-3.784-1.426,5.068,5.068,0,0,1-1.46-3.8V21.7a6.383,6.383,0,0,1,.615-2.847,4.515,4.515,0,0,1,1.743-1.934,4.893,4.893,0,0,1,2.573-.679,4.385,4.385,0,0,1,3.413,1.367,5.555,5.555,0,0,1,1.245,3.877v1.152H13.994a2.622,2.622,0,0,0,.825,1.66,2.5,2.5,0,0,0,1.743.625,3.046,3.046,0,0,0,2.549-1.182L20.5,25.291a4.237,4.237,0,0,1-1.719,1.4A5.639,5.639,0,0,1,16.377,27.2Zm-.322-8.672a1.767,1.767,0,0,0-1.362.566,2.926,2.926,0,0,0-.669,1.621h3.926v-.225a2.086,2.086,0,0,0-.508-1.45A1.824,1.824,0,0,0,16.055,18.523Zm8.867-2.09.088,1.221a3.689,3.689,0,0,1,3.037-1.416,3.066,3.066,0,0,1,2.5.986,4.6,4.6,0,0,1,.84,2.949V27H28.564V20.242a1.831,1.831,0,0,0-.391-1.3,1.749,1.749,0,0,0-1.3-.405,1.942,1.942,0,0,0-1.787,1.016V27H22.266V16.434Zm11.982-2.6v2.6h1.807V18.5H36.9v5.273a1.259,1.259,0,0,0,.225.84,1.128,1.128,0,0,0,.859.254,4.5,4.5,0,0,0,.83-.068v2.139a5.81,5.81,0,0,1-1.709.254q-2.969,0-3.027-3V18.5H32.539v-2.07h1.543v-2.6Zm9.316,5.244A7.667,7.667,0,0,0,45.205,19a2.067,2.067,0,0,0-2.1,1.084V27H40.283V16.434h2.666l.078,1.26a2.615,2.615,0,0,1,2.354-1.455,2.957,2.957,0,0,1,.879.127ZM53.408,27a3.134,3.134,0,0,1-.283-.947A3.415,3.415,0,0,1,50.459,27.2a3.752,3.752,0,0,1-2.573-.9,2.89,2.89,0,0,1-1.021-2.266,2.986,2.986,0,0,1,1.245-2.578,6.144,6.144,0,0,1,3.6-.908h1.3v-.605a1.741,1.741,0,0,0-.376-1.172,1.479,1.479,0,0,0-1.187-.439,1.682,1.682,0,0,0-1.118.342,1.161,1.161,0,0,0-.405.938H47.1a2.835,2.835,0,0,1,.566-1.7,3.744,3.744,0,0,1,1.6-1.226,5.837,5.837,0,0,1,2.324-.444,4.611,4.611,0,0,1,3.1.981,3.433,3.433,0,0,1,1.147,2.759v4.58a5.052,5.052,0,0,0,.42,2.275V27Zm-2.334-1.963a2.431,2.431,0,0,0,1.152-.278,1.828,1.828,0,0,0,.781-.747V22.2H51.953q-2.119,0-2.256,1.465l-.01.166a1.13,1.13,0,0,0,.371.869A1.441,1.441,0,0,0,51.074,25.037ZM60.986,27H58.154V12h2.832Z" transform="translate(342 1567)" fill="#12263f"/>
    <path id="Trazado_146858" data-name="Trazado 146858" d="M0,0H941V101H0Z" transform="translate(305 1625)" fill="#e9f3dd"/>
    <path id="Trazado_146863" data-name="Trazado 146863" d="M9.824-6.162H4.2v3.809h6.6V0H1.27V-14.219h9.512v2.373H4.2v3.389H9.824Zm5.107-4.4.088,1.221a3.689,3.689,0,0,1,3.037-1.416,3.066,3.066,0,0,1,2.5.986,4.6,4.6,0,0,1,.84,2.949V0H18.574V-6.758a1.831,1.831,0,0,0-.391-1.3,1.749,1.749,0,0,0-1.3-.405A1.942,1.942,0,0,0,15.1-7.451V0H12.275V-10.566Zm11.982-2.6v2.6h1.807V-8.5H26.914v5.273a1.259,1.259,0,0,0,.225.84A1.128,1.128,0,0,0,28-2.129a4.5,4.5,0,0,0,.83-.068V-.059A5.81,5.81,0,0,1,27.119.2q-2.969,0-3.027-3V-8.5H22.549v-2.07h1.543v-2.6ZM35.156.2A5.187,5.187,0,0,1,31.372-1.23a5.068,5.068,0,0,1-1.46-3.8V-5.3a6.383,6.383,0,0,1,.615-2.847,4.515,4.515,0,0,1,1.743-1.934,4.893,4.893,0,0,1,2.573-.679,4.385,4.385,0,0,1,3.413,1.367A5.555,5.555,0,0,1,39.5-5.518v1.152H32.773a2.622,2.622,0,0,0,.825,1.66,2.5,2.5,0,0,0,1.743.625,3.046,3.046,0,0,0,2.549-1.182l1.387,1.553a4.237,4.237,0,0,1-1.719,1.4A5.639,5.639,0,0,1,35.156.2Zm-.322-8.672a1.767,1.767,0,0,0-1.362.566A2.926,2.926,0,0,0,32.8-6.289h3.926v-.225a2.086,2.086,0,0,0-.508-1.45A1.824,1.824,0,0,0,34.834-8.477ZM46.826-2.92a.909.909,0,0,0-.513-.815,5.824,5.824,0,0,0-1.646-.532q-3.77-.791-3.77-3.2a2.9,2.9,0,0,1,1.167-2.349,4.707,4.707,0,0,1,3.052-.942,5.067,5.067,0,0,1,3.218.947,2.985,2.985,0,0,1,1.206,2.461H46.719a1.366,1.366,0,0,0-.391-1,1.653,1.653,0,0,0-1.221-.4,1.689,1.689,0,0,0-1.1.322,1.017,1.017,0,0,0-.391.82.87.87,0,0,0,.444.757,4.571,4.571,0,0,0,1.5.5,12.244,12.244,0,0,1,1.777.474A2.92,2.92,0,0,1,49.57-3.037,2.756,2.756,0,0,1,48.33-.7a5.35,5.35,0,0,1-3.2.894,5.588,5.588,0,0,1-2.358-.474,3.957,3.957,0,0,1-1.616-1.3,3.018,3.018,0,0,1-.586-1.782h2.676A1.473,1.473,0,0,0,43.8-2.207a2.208,2.208,0,0,0,1.387.4,2.044,2.044,0,0,0,1.226-.308A.957.957,0,0,0,46.826-2.92Zm9.1-2.461a6.267,6.267,0,0,1,.605-2.8,4.432,4.432,0,0,1,1.743-1.9,5.086,5.086,0,0,1,2.642-.674,4.812,4.812,0,0,1,3.491,1.309A5.252,5.252,0,0,1,65.918-5.9l.02.723a5.523,5.523,0,0,1-1.357,3.9A4.718,4.718,0,0,1,60.938.2,4.742,4.742,0,0,1,57.29-1.27a5.62,5.62,0,0,1-1.362-3.984Zm2.822.205a3.939,3.939,0,0,0,.566,2.3,1.869,1.869,0,0,0,1.621.8,1.874,1.874,0,0,0,1.6-.786,4.31,4.31,0,0,0,.576-2.515,3.9,3.9,0,0,0-.576-2.285,1.874,1.874,0,0,0-1.621-.811,1.843,1.843,0,0,0-1.6.806A4.383,4.383,0,0,0,58.75-5.176Zm18.438-.01a6.337,6.337,0,0,1-1.108,3.911A3.554,3.554,0,0,1,73.086.2,3.292,3.292,0,0,1,70.5-.918v4.98H67.676V-10.566h2.617l.1,1.035a3.317,3.317,0,0,1,2.676-1.23A3.578,3.578,0,0,1,76.1-9.316a6.509,6.509,0,0,1,1.084,3.984Zm-2.822-.205a4.159,4.159,0,0,0-.522-2.275,1.7,1.7,0,0,0-1.519-.8A1.848,1.848,0,0,0,70.5-7.451v4.326A1.879,1.879,0,0,0,72.344-2.08Q74.365-2.08,74.365-5.391ZM83.8.2A5.187,5.187,0,0,1,80.015-1.23a5.068,5.068,0,0,1-1.46-3.8V-5.3a6.383,6.383,0,0,1,.615-2.847,4.515,4.515,0,0,1,1.743-1.934,4.893,4.893,0,0,1,2.573-.679A4.385,4.385,0,0,1,86.9-9.395a5.555,5.555,0,0,1,1.245,3.877v1.152H81.416a2.622,2.622,0,0,0,.825,1.66,2.5,2.5,0,0,0,1.743.625,3.046,3.046,0,0,0,2.549-1.182L87.92-1.709A4.237,4.237,0,0,1,86.2-.308,5.639,5.639,0,0,1,83.8.2Zm-.322-8.672a1.767,1.767,0,0,0-1.362.566,2.926,2.926,0,0,0-.669,1.621h3.926v-.225a2.086,2.086,0,0,0-.508-1.45A1.824,1.824,0,0,0,83.477-8.477Zm12.207.557A7.667,7.667,0,0,0,94.668-8a2.067,2.067,0,0,0-2.1,1.084V0H89.746V-10.566h2.666l.078,1.26a2.615,2.615,0,0,1,2.354-1.455,2.957,2.957,0,0,1,.879.127ZM102.871,0a3.134,3.134,0,0,1-.283-.947A3.415,3.415,0,0,1,99.922.2a3.752,3.752,0,0,1-2.573-.9,2.89,2.89,0,0,1-1.021-2.266,2.986,2.986,0,0,1,1.245-2.578,6.144,6.144,0,0,1,3.6-.908h1.3v-.605a1.741,1.741,0,0,0-.376-1.172,1.479,1.479,0,0,0-1.187-.439,1.682,1.682,0,0,0-1.118.342,1.161,1.161,0,0,0-.405.938H96.563a2.835,2.835,0,0,1,.566-1.7,3.744,3.744,0,0,1,1.6-1.226,5.837,5.837,0,0,1,2.324-.444,4.611,4.611,0,0,1,3.1.981A3.433,3.433,0,0,1,105.3-7.021v4.58a5.052,5.052,0,0,0,.42,2.275V0Zm-2.334-1.963a2.431,2.431,0,0,0,1.152-.278,1.828,1.828,0,0,0,.781-.747V-4.8h-1.055Q99.3-4.8,99.16-3.34l-.01.166a1.13,1.13,0,0,0,.371.869A1.441,1.441,0,0,0,100.537-1.963Zm10.313-11.2v2.6h1.807V-8.5H110.85v5.273a1.259,1.259,0,0,0,.225.84,1.128,1.128,0,0,0,.859.254,4.5,4.5,0,0,0,.83-.068V-.059A5.81,5.81,0,0,1,111.055.2q-2.969,0-3.027-3V-8.5h-1.543v-2.07h1.543v-2.6ZM117.207,0h-2.832V-10.566h2.832Zm-3-13.3a1.39,1.39,0,0,1,.425-1.045,1.6,1.6,0,0,1,1.157-.41,1.6,1.6,0,0,1,1.152.41,1.382,1.382,0,0,1,.43,1.045,1.386,1.386,0,0,1-.435,1.055,1.6,1.6,0,0,1-1.147.41,1.6,1.6,0,0,1-1.147-.41A1.386,1.386,0,0,1,114.209-13.3Zm9.277,9.854,1.963-7.119H128.4L124.834,0h-2.7l-3.564-10.566h2.949Zm5.566-1.934a6.267,6.267,0,0,1,.605-2.8,4.432,4.432,0,0,1,1.743-1.9,5.086,5.086,0,0,1,2.642-.674,4.812,4.812,0,0,1,3.491,1.309A5.252,5.252,0,0,1,139.043-5.9l.02.723a5.523,5.523,0,0,1-1.357,3.9A4.718,4.718,0,0,1,134.063.2a4.742,4.742,0,0,1-3.647-1.465,5.62,5.62,0,0,1-1.362-3.984Zm2.822.205a3.939,3.939,0,0,0,.566,2.3,1.869,1.869,0,0,0,1.621.8,1.874,1.874,0,0,0,1.6-.786,4.31,4.31,0,0,0,.576-2.515,3.9,3.9,0,0,0-.576-2.285,1.874,1.874,0,0,0-1.621-.811,1.843,1.843,0,0,0-1.6.806A4.383,4.383,0,0,0,131.875-5.176ZM146.523-2.92a.909.909,0,0,0-.513-.815,5.824,5.824,0,0,0-1.646-.532q-3.77-.791-3.77-3.2a2.9,2.9,0,0,1,1.167-2.349,4.707,4.707,0,0,1,3.052-.942,5.067,5.067,0,0,1,3.218.947,2.985,2.985,0,0,1,1.206,2.461h-2.822a1.366,1.366,0,0,0-.391-1,1.653,1.653,0,0,0-1.221-.4,1.689,1.689,0,0,0-1.1.322,1.017,1.017,0,0,0-.391.82.87.87,0,0,0,.444.757,4.571,4.571,0,0,0,1.5.5,12.244,12.244,0,0,1,1.777.474,2.92,2.92,0,0,1,2.236,2.842A2.756,2.756,0,0,1,148.027-.7a5.35,5.35,0,0,1-3.2.894,5.588,5.588,0,0,1-2.358-.474,3.957,3.957,0,0,1-1.616-1.3,3.018,3.018,0,0,1-.586-1.782h2.676a1.473,1.473,0,0,0,.557,1.152,2.208,2.208,0,0,0,1.387.4,2.044,2.044,0,0,0,1.226-.308A.957.957,0,0,0,146.523-2.92ZM159.043,0h-2.832V-15h2.832Zm1.885-5.381a6.267,6.267,0,0,1,.605-2.8,4.432,4.432,0,0,1,1.743-1.9,5.086,5.086,0,0,1,2.642-.674,4.812,4.812,0,0,1,3.491,1.309A5.252,5.252,0,0,1,170.918-5.9l.02.723a5.523,5.523,0,0,1-1.357,3.9A4.718,4.718,0,0,1,165.938.2,4.742,4.742,0,0,1,162.29-1.27a5.62,5.62,0,0,1-1.362-3.984Zm2.822.205a3.939,3.939,0,0,0,.566,2.3,1.869,1.869,0,0,0,1.621.8,1.874,1.874,0,0,0,1.6-.786,4.31,4.31,0,0,0,.576-2.515,3.9,3.9,0,0,0-.576-2.285,1.874,1.874,0,0,0-1.621-.811,1.843,1.843,0,0,0-1.6.806A4.383,4.383,0,0,0,163.75-5.176Zm13.32,3.1a1.851,1.851,0,0,0,1.27-.43,1.506,1.506,0,0,0,.508-1.143h2.646a3.62,3.62,0,0,1-.586,1.968A3.866,3.866,0,0,1,179.331-.3,4.936,4.936,0,0,1,177.119.2a4.587,4.587,0,0,1-3.574-1.44,5.7,5.7,0,0,1-1.309-3.979V-5.41a5.635,5.635,0,0,1,1.3-3.9,4.534,4.534,0,0,1,3.564-1.455,4.444,4.444,0,0,1,3.179,1.128,3.994,3.994,0,0,1,1.216,3h-2.646a1.923,1.923,0,0,0-.508-1.333,1.7,1.7,0,0,0-1.289-.513,1.7,1.7,0,0,0-1.489.718,4.155,4.155,0,0,0-.5,2.329v.293a4.207,4.207,0,0,0,.5,2.344A1.722,1.722,0,0,0,177.07-2.08ZM189.229,0a3.134,3.134,0,0,1-.283-.947A3.415,3.415,0,0,1,186.279.2a3.752,3.752,0,0,1-2.573-.9,2.889,2.889,0,0,1-1.021-2.266,2.986,2.986,0,0,1,1.245-2.578,6.144,6.144,0,0,1,3.6-.908h1.3v-.605a1.741,1.741,0,0,0-.376-1.172,1.479,1.479,0,0,0-1.187-.439,1.682,1.682,0,0,0-1.118.342,1.161,1.161,0,0,0-.405.938H182.92a2.835,2.835,0,0,1,.566-1.7,3.744,3.744,0,0,1,1.6-1.226,5.837,5.837,0,0,1,2.324-.444,4.611,4.611,0,0,1,3.1.981,3.433,3.433,0,0,1,1.147,2.759v4.58a5.052,5.052,0,0,0,.42,2.275V0Zm-2.334-1.963a2.431,2.431,0,0,0,1.152-.278,1.828,1.828,0,0,0,.781-.747V-4.8h-1.055q-2.119,0-2.256,1.465l-.01.166a1.13,1.13,0,0,0,.371.869A1.441,1.441,0,0,0,186.895-1.963ZM196.807,0h-2.832V-15h2.832Zm7.188.2A5.187,5.187,0,0,1,200.21-1.23a5.068,5.068,0,0,1-1.46-3.8V-5.3a6.383,6.383,0,0,1,.615-2.847,4.515,4.515,0,0,1,1.743-1.934,4.893,4.893,0,0,1,2.573-.679,4.385,4.385,0,0,1,3.413,1.367,5.555,5.555,0,0,1,1.245,3.877v1.152h-6.729a2.622,2.622,0,0,0,.825,1.66,2.5,2.5,0,0,0,1.743.625,3.046,3.046,0,0,0,2.549-1.182l1.387,1.553a4.237,4.237,0,0,1-1.719,1.4A5.639,5.639,0,0,1,203.994.2Zm-.322-8.672a1.767,1.767,0,0,0-1.362.566,2.926,2.926,0,0,0-.669,1.621h3.926v-.225a2.086,2.086,0,0,0-.508-1.45A1.824,1.824,0,0,0,203.672-8.477ZM215.664-2.92a.909.909,0,0,0-.513-.815,5.824,5.824,0,0,0-1.646-.532q-3.77-.791-3.77-3.2A2.9,2.9,0,0,1,210.9-9.819a4.707,4.707,0,0,1,3.052-.942,5.067,5.067,0,0,1,3.218.947,2.985,2.985,0,0,1,1.206,2.461h-2.822a1.366,1.366,0,0,0-.391-1,1.653,1.653,0,0,0-1.221-.4,1.689,1.689,0,0,0-1.1.322,1.017,1.017,0,0,0-.391.82.87.87,0,0,0,.444.757,4.571,4.571,0,0,0,1.5.5,12.244,12.244,0,0,1,1.777.474,2.92,2.92,0,0,1,2.236,2.842A2.756,2.756,0,0,1,217.168-.7a5.35,5.35,0,0,1-3.2.894,5.588,5.588,0,0,1-2.358-.474,3.957,3.957,0,0,1-1.616-1.3,3.018,3.018,0,0,1-.586-1.782h2.676a1.473,1.473,0,0,0,.557,1.152,2.208,2.208,0,0,0,1.387.4,2.044,2.044,0,0,0,1.226-.308A.957.957,0,0,0,215.664-2.92Z" transform="translate(342 1680)" fill="#12263f"/>
    <path id="Trazado_146869" data-name="Trazado 146869" d="M0,0H941V101H0Z" transform="translate(305 1735)" fill="#e9f3dd"/>
    <path id="Trazado_146874" data-name="Trazado 146874" d="M9.3-2.93H4.16L3.184,0H.068L5.361-14.219H8.076L13.4,0H10.283ZM4.951-5.3H8.506L6.719-10.625ZM18.936-2.08a1.851,1.851,0,0,0,1.27-.43,1.506,1.506,0,0,0,.508-1.143h2.646a3.62,3.62,0,0,1-.586,1.968A3.866,3.866,0,0,1,21.2-.3,4.936,4.936,0,0,1,18.984.2a4.587,4.587,0,0,1-3.574-1.44A5.7,5.7,0,0,1,14.1-5.225V-5.41a5.635,5.635,0,0,1,1.3-3.9,4.534,4.534,0,0,1,3.564-1.455,4.444,4.444,0,0,1,3.179,1.128,3.994,3.994,0,0,1,1.216,3H20.713a1.923,1.923,0,0,0-.508-1.333,1.7,1.7,0,0,0-1.289-.513,1.7,1.7,0,0,0-1.489.718,4.155,4.155,0,0,0-.5,2.329v.293a4.207,4.207,0,0,0,.5,2.344A1.722,1.722,0,0,0,18.936-2.08ZM28.35-13.164v2.6h1.807V-8.5H28.35v5.273a1.259,1.259,0,0,0,.225.84,1.128,1.128,0,0,0,.859.254,4.5,4.5,0,0,0,.83-.068V-.059A5.81,5.81,0,0,1,28.555.2q-2.969,0-3.027-3V-8.5H23.984v-2.07h1.543v-2.6ZM34.707,0H31.875V-10.566h2.832Zm-3-13.3a1.39,1.39,0,0,1,.425-1.045,1.6,1.6,0,0,1,1.157-.41,1.6,1.6,0,0,1,1.152.41,1.382,1.382,0,0,1,.43,1.045,1.386,1.386,0,0,1-.435,1.055,1.6,1.6,0,0,1-1.147.41,1.6,1.6,0,0,1-1.147-.41A1.386,1.386,0,0,1,31.709-13.3Zm9.277,9.854,1.963-7.119H45.9L42.334,0h-2.7L36.074-10.566h2.949ZM50.117,0H47.285V-10.566h2.832Zm-3-13.3a1.39,1.39,0,0,1,.425-1.045,1.6,1.6,0,0,1,1.157-.41,1.6,1.6,0,0,1,1.152.41,1.382,1.382,0,0,1,.43,1.045,1.386,1.386,0,0,1-.435,1.055,1.6,1.6,0,0,1-1.147.41,1.6,1.6,0,0,1-1.147-.41A1.386,1.386,0,0,1,47.119-13.3ZM52-5.361A6.368,6.368,0,0,1,53.11-9.3a3.6,3.6,0,0,1,3.032-1.465,3.236,3.236,0,0,1,2.549,1.152V-15h2.832V0H58.975l-.137-1.123A3.321,3.321,0,0,1,56.123.2a3.587,3.587,0,0,1-2.993-1.47A6.573,6.573,0,0,1,52-5.361Zm2.822.205a4.16,4.16,0,0,0,.518,2.275,1.687,1.687,0,0,0,1.5.791,1.889,1.889,0,0,0,1.846-1.1v-4.17a1.862,1.862,0,0,0-1.826-1.1Q54.824-8.467,54.824-5.156ZM69.834,0a3.134,3.134,0,0,1-.283-.947A3.415,3.415,0,0,1,66.885.2a3.752,3.752,0,0,1-2.573-.9,2.89,2.89,0,0,1-1.021-2.266,2.986,2.986,0,0,1,1.245-2.578,6.144,6.144,0,0,1,3.6-.908h1.3v-.605a1.741,1.741,0,0,0-.376-1.172,1.479,1.479,0,0,0-1.187-.439,1.682,1.682,0,0,0-1.118.342,1.161,1.161,0,0,0-.405.938H63.525a2.835,2.835,0,0,1,.566-1.7,3.744,3.744,0,0,1,1.6-1.226,5.837,5.837,0,0,1,2.324-.444,4.611,4.611,0,0,1,3.1.981,3.433,3.433,0,0,1,1.147,2.759v4.58a5.052,5.052,0,0,0,.42,2.275V0ZM67.5-1.963a2.431,2.431,0,0,0,1.152-.278,1.828,1.828,0,0,0,.781-.747V-4.8H68.379q-2.119,0-2.256,1.465l-.01.166a1.13,1.13,0,0,0,.371.869A1.441,1.441,0,0,0,67.5-1.963Zm6.494-3.4A6.368,6.368,0,0,1,75.1-9.3a3.6,3.6,0,0,1,3.032-1.465,3.236,3.236,0,0,1,2.549,1.152V-15h2.832V0H80.967L80.83-1.123A3.321,3.321,0,0,1,78.115.2a3.587,3.587,0,0,1-2.993-1.47A6.573,6.573,0,0,1,73.994-5.361Zm2.822.205a4.16,4.16,0,0,0,.518,2.275,1.687,1.687,0,0,0,1.5.791,1.889,1.889,0,0,0,1.846-1.1v-4.17a1.862,1.862,0,0,0-1.826-1.1Q76.816-8.467,76.816-5.156ZM90.566.2A5.187,5.187,0,0,1,86.782-1.23a5.068,5.068,0,0,1-1.46-3.8V-5.3a6.383,6.383,0,0,1,.615-2.847,4.515,4.515,0,0,1,1.743-1.934,4.893,4.893,0,0,1,2.573-.679,4.385,4.385,0,0,1,3.413,1.367,5.555,5.555,0,0,1,1.245,3.877v1.152H88.184a2.622,2.622,0,0,0,.825,1.66,2.5,2.5,0,0,0,1.743.625A3.046,3.046,0,0,0,93.3-3.262l1.387,1.553a4.237,4.237,0,0,1-1.719,1.4A5.639,5.639,0,0,1,90.566.2Zm-.322-8.672a1.767,1.767,0,0,0-1.362.566,2.926,2.926,0,0,0-.669,1.621h3.926v-.225a2.086,2.086,0,0,0-.508-1.45A1.824,1.824,0,0,0,90.244-8.477ZM102.236-2.92a.909.909,0,0,0-.513-.815,5.824,5.824,0,0,0-1.646-.532q-3.77-.791-3.77-3.2a2.9,2.9,0,0,1,1.167-2.349,4.707,4.707,0,0,1,3.052-.942,5.067,5.067,0,0,1,3.218.947,2.985,2.985,0,0,1,1.206,2.461h-2.822a1.366,1.366,0,0,0-.391-1,1.653,1.653,0,0,0-1.221-.4,1.689,1.689,0,0,0-1.1.322,1.017,1.017,0,0,0-.391.82.87.87,0,0,0,.444.757,4.571,4.571,0,0,0,1.5.5,12.244,12.244,0,0,1,1.777.474,2.92,2.92,0,0,1,2.236,2.842A2.756,2.756,0,0,1,103.74-.7a5.35,5.35,0,0,1-3.2.894,5.588,5.588,0,0,1-2.358-.474,3.957,3.957,0,0,1-1.616-1.3,3.018,3.018,0,0,1-.586-1.782h2.676a1.473,1.473,0,0,0,.557,1.152,2.208,2.208,0,0,0,1.387.4,2.044,2.044,0,0,0,1.226-.308A.957.957,0,0,0,102.236-2.92Zm15.264,0a.909.909,0,0,0-.513-.815,5.824,5.824,0,0,0-1.646-.532q-3.77-.791-3.77-3.2a2.9,2.9,0,0,1,1.167-2.349,4.707,4.707,0,0,1,3.052-.942,5.067,5.067,0,0,1,3.218.947,2.985,2.985,0,0,1,1.206,2.461h-2.822a1.366,1.366,0,0,0-.391-1,1.653,1.653,0,0,0-1.221-.4,1.689,1.689,0,0,0-1.1.322,1.017,1.017,0,0,0-.391.82.87.87,0,0,0,.444.757,4.571,4.571,0,0,0,1.5.5,12.244,12.244,0,0,1,1.777.474,2.92,2.92,0,0,1,2.236,2.842A2.756,2.756,0,0,1,119-.7,5.35,5.35,0,0,1,115.8.2a5.588,5.588,0,0,1-2.358-.474,3.957,3.957,0,0,1-1.616-1.3,3.018,3.018,0,0,1-.586-1.782h2.676a1.473,1.473,0,0,0,.557,1.152,2.208,2.208,0,0,0,1.387.4,2.044,2.044,0,0,0,1.226-.308A.957.957,0,0,0,117.5-2.92Zm4.121-2.461a6.266,6.266,0,0,1,.605-2.8,4.432,4.432,0,0,1,1.743-1.9,5.086,5.086,0,0,1,2.642-.674A4.812,4.812,0,0,1,130.1-9.453,5.252,5.252,0,0,1,131.611-5.9l.02.723a5.523,5.523,0,0,1-1.357,3.9A4.718,4.718,0,0,1,126.631.2a4.742,4.742,0,0,1-3.647-1.465,5.62,5.62,0,0,1-1.362-3.984Zm2.822.205a3.939,3.939,0,0,0,.566,2.3,1.869,1.869,0,0,0,1.621.8,1.874,1.874,0,0,0,1.6-.786,4.31,4.31,0,0,0,.576-2.515,3.9,3.9,0,0,0-.576-2.285,1.874,1.874,0,0,0-1.621-.811,1.843,1.843,0,0,0-1.6.806A4.383,4.383,0,0,0,124.443-5.176Zm18.438-.01a6.337,6.337,0,0,1-1.108,3.911A3.554,3.554,0,0,1,138.779.2a3.292,3.292,0,0,1-2.588-1.113v4.98h-2.822V-10.566h2.617l.1,1.035a3.317,3.317,0,0,1,2.676-1.23A3.578,3.578,0,0,1,141.8-9.316a6.509,6.509,0,0,1,1.084,3.984Zm-2.822-.205a4.158,4.158,0,0,0-.522-2.275,1.7,1.7,0,0,0-1.519-.8,1.848,1.848,0,0,0-1.826,1.016v4.326a1.879,1.879,0,0,0,1.846,1.045Q140.059-2.08,140.059-5.391Zm4.131.01a6.267,6.267,0,0,1,.605-2.8,4.432,4.432,0,0,1,1.743-1.9,5.086,5.086,0,0,1,2.642-.674,4.812,4.812,0,0,1,3.491,1.309A5.252,5.252,0,0,1,154.18-5.9l.02.723a5.523,5.523,0,0,1-1.357,3.9A4.718,4.718,0,0,1,149.2.2a4.742,4.742,0,0,1-3.647-1.465,5.62,5.62,0,0,1-1.362-3.984Zm2.822.205a3.939,3.939,0,0,0,.566,2.3,1.869,1.869,0,0,0,1.621.8,1.874,1.874,0,0,0,1.6-.786,4.31,4.31,0,0,0,.576-2.515,3.9,3.9,0,0,0-.576-2.285,1.874,1.874,0,0,0-1.621-.811,1.843,1.843,0,0,0-1.6.806A4.383,4.383,0,0,0,147.012-5.176ZM161.875-7.92A7.667,7.667,0,0,0,160.859-8a2.067,2.067,0,0,0-2.1,1.084V0h-2.822V-10.566H158.6l.078,1.26a2.615,2.615,0,0,1,2.354-1.455,2.957,2.957,0,0,1,.879.127Zm5.225-5.244v2.6h1.807V-8.5H167.1v5.273a1.259,1.259,0,0,0,.225.84,1.128,1.128,0,0,0,.859.254,4.5,4.5,0,0,0,.83-.068V-.059A5.81,5.81,0,0,1,167.3.2q-2.969,0-3.027-3V-8.5h-1.543v-2.07h1.543v-2.6ZM175.342.2a5.187,5.187,0,0,1-3.784-1.426,5.068,5.068,0,0,1-1.46-3.8V-5.3a6.383,6.383,0,0,1,.615-2.847,4.515,4.515,0,0,1,1.743-1.934,4.893,4.893,0,0,1,2.573-.679,4.385,4.385,0,0,1,3.413,1.367,5.555,5.555,0,0,1,1.245,3.877v1.152h-6.729a2.622,2.622,0,0,0,.825,1.66,2.5,2.5,0,0,0,1.743.625,3.046,3.046,0,0,0,2.549-1.182l1.387,1.553a4.237,4.237,0,0,1-1.719,1.4A5.639,5.639,0,0,1,175.342.2Zm-.322-8.672a1.767,1.767,0,0,0-1.362.566,2.926,2.926,0,0,0-.669,1.621h3.926v-.225a2.086,2.086,0,0,0-.508-1.45A1.824,1.824,0,0,0,175.02-8.477Z" transform="translate(342 1790)" fill="#12263f"/>
    <g id="Trazado_146849" data-name="Trazado 146849" transform="translate(603 1439)" fill="#3c6d9d">
      <path d="M 110 37.5 L 5 37.5 C 2.518692255020142 37.5 0.5 35.48130798339844 0.5 33 L 0.5 5 C 0.5 2.518692255020142 2.518692255020142 0.5 5 0.5 L 110 0.5 C 112.4813079833984 0.5 114.5 2.518692255020142 114.5 5 L 114.5 33 C 114.5 35.48130798339844 112.4813079833984 37.5 110 37.5 Z" stroke="none"/>
      <path d="M 5 1 C 2.794403076171875 1 1 2.794399261474609 1 5 L 1 33 C 1 35.20560073852539 2.794403076171875 37 5 37 L 110 37 C 112.2055969238281 37 114 35.20560073852539 114 33 L 114 5 C 114 2.794399261474609 112.2055969238281 1 110 1 L 5 1 M 5 0 L 110 0 C 112.7614135742188 0 115 2.238567352294922 115 5 L 115 33 C 115 35.76142883300781 112.7614135742188 38 110 38 L 5 38 C 2.238571166992188 38 0 35.76142883300781 0 33 L 0 5 C 0 2.238567352294922 2.238571166992188 0 5 0 Z" stroke="none" fill="#5f9025"/>
    </g>
    <path id="Trazado_146851" data-name="Trazado 146851" d="M5.1-14.219,8.75-3.906l3.633-10.312H16.23V0H13.291V-3.887l.293-6.709L9.746,0H7.734L3.906-10.586l.293,6.7V0H1.27V-14.219ZM21.719-5.01V0h-2.93V-14.219h5.547a6.417,6.417,0,0,1,2.817.586,4.318,4.318,0,0,1,1.87,1.665,4.643,4.643,0,0,1,.654,2.456,4.083,4.083,0,0,1-1.431,3.3,5.959,5.959,0,0,1-3.96,1.206Zm0-2.373h2.617a2.573,2.573,0,0,0,1.772-.547,1.989,1.989,0,0,0,.61-1.562,2.345,2.345,0,0,0-.615-1.689,2.3,2.3,0,0,0-1.7-.664H21.719ZM39.063-3.73A1.5,1.5,0,0,0,38.477-5a7.685,7.685,0,0,0-2.109-.937,14.953,14.953,0,0,1-2.412-.972,3.941,3.941,0,0,1-2.422-3.525,3.434,3.434,0,0,1,.649-2.056,4.236,4.236,0,0,1,1.865-1.411,7.021,7.021,0,0,1,2.729-.508,6.39,6.39,0,0,1,2.715.552A4.323,4.323,0,0,1,41.343-12.3,4.076,4.076,0,0,1,42-10.02h-2.93a1.917,1.917,0,0,0-.615-1.519,2.529,2.529,0,0,0-1.729-.542,2.7,2.7,0,0,0-1.67.454,1.432,1.432,0,0,0-.6,1.2,1.372,1.372,0,0,0,.7,1.162,7.889,7.889,0,0,0,2.056.879,8.882,8.882,0,0,1,3.643,1.865A3.715,3.715,0,0,1,42-3.75a3.422,3.422,0,0,1-1.4,2.9A6.113,6.113,0,0,1,36.846.2a7.26,7.26,0,0,1-2.988-.6A4.729,4.729,0,0,1,31.8-2.051a4.214,4.214,0,0,1-.708-2.422h2.939q0,2.354,2.813,2.354a2.736,2.736,0,0,0,1.631-.425A1.382,1.382,0,0,0,39.063-3.73Z" transform="translate(643 1465)" fill="#fff"/>
    <g id="Trazado_146854" data-name="Trazado 146854" transform="translate(727 1439)" fill="#3c6d9d">
      <path d="M 142 37.5 L 5 37.5 C 2.518699884414673 37.5 0.5 35.48130035400391 0.5 33 L 0.5 5 C 0.5 2.518699884414673 2.518699884414673 0.5 5 0.5 L 142 0.5 C 144.4812927246094 0.5 146.5 2.518699884414673 146.5 5 L 146.5 33 C 146.5 35.48130035400391 144.4812927246094 37.5 142 37.5 Z" stroke="none"/>
      <path d="M 5 1 C 2.794403076171875 1 1 2.794399261474609 1 5 L 1 33 C 1 35.20560073852539 2.794403076171875 37 5 37 L 142 37 C 144.2055969238281 37 146 35.20560073852539 146 33 L 146 5 C 146 2.794399261474609 144.2055969238281 1 142 1 L 5 1 M 5 0 L 142 0 C 144.7614135742188 0 147 2.238578796386719 147 5 L 147 33 C 147 35.76142120361328 144.7614135742188 38 142 38 L 5 38 C 2.238555908203125 38 0 35.76142120361328 0 33 L 0 5 C 0 2.238578796386719 2.238555908203125 0 5 0 Z" stroke="none" fill="#5f9025"/>
    </g>
    <path id="Trazado_146856" data-name="Trazado 146856" d="M5.1-14.219,8.75-3.906l3.633-10.312H16.23V0H13.291V-3.887l.293-6.709L9.746,0H7.734L3.906-10.586l.293,6.7V0H1.27V-14.219ZM26.992-2.93H21.855L20.879,0H17.764l5.293-14.219h2.715L31.094,0H27.979ZM22.646-5.3H26.2l-1.787-5.322ZM32.422,0V-14.219H36.8a6.644,6.644,0,0,1,3.354.845,5.89,5.89,0,0,1,2.31,2.4,7.41,7.41,0,0,1,.83,3.54v.654a7.431,7.431,0,0,1-.815,3.525,5.84,5.84,0,0,1-2.3,2.393A6.694,6.694,0,0,1,36.826,0Zm2.93-11.846v9.492h1.416a3.181,3.181,0,0,0,2.627-1.123,5.075,5.075,0,0,0,.928-3.213v-.752a5.156,5.156,0,0,0-.9-3.286A3.171,3.171,0,0,0,36.8-11.846ZM50.684-5.205H48.35V0H45.42V-14.219H50.7A5.972,5.972,0,0,1,54.59-13.1a3.876,3.876,0,0,1,1.367,3.174,4.374,4.374,0,0,1-.63,2.427,4.3,4.3,0,0,1-1.909,1.548L56.494-.137V0H53.35ZM48.35-7.578h2.363a2.42,2.42,0,0,0,1.709-.562,2.007,2.007,0,0,0,.605-1.548,2.148,2.148,0,0,0-.571-1.582,2.374,2.374,0,0,0-1.753-.576H48.35Z" transform="translate(769 1465)" fill="#fff"/>
    <g id="Trazado_146865" data-name="Trazado 146865" transform="translate(936 1439)" fill="#3c6d9d">
      <path d="M 83 37.5 L 5 37.5 C 2.518688917160034 37.5 0.5 35.4813117980957 0.5 33 L 0.5 5 C 0.5 2.518688917160034 2.518688917160034 0.5 5 0.5 L 83 0.5 C 85.48130798339844 0.5 87.5 2.518688917160034 87.5 5 L 87.5 33 C 87.5 35.4813117980957 85.48130798339844 37.5 83 37.5 Z" stroke="none"/>
      <path d="M 5 1 C 2.794387817382812 1 1 2.794387817382812 1 5 L 1 33 C 1 35.20561218261719 2.794387817382812 37 5 37 L 83 37 C 85.20561218261719 37 87 35.20561218261719 87 33 L 87 5 C 87 2.794387817382812 85.20561218261719 1 83 1 L 5 1 M 5 0 L 83 0 C 85.76142120361328 0 88 2.238574981689453 88 5 L 88 33 C 88 35.76142501831055 85.76142120361328 38 83 38 L 5 38 C 2.238578796386719 38 0 35.76142501831055 0 33 L 0 5 C 0 2.238574981689453 2.238578796386719 0 5 0 Z" stroke="none" fill="#5f9025"/>
    </g>
    <path id="Trazado_146866" data-name="Trazado 146866" d="M5.1-14.219,8.75-3.906l3.633-10.312H16.23V0H13.291V-3.887l.293-6.709L9.746,0H7.734L3.906-10.586l.293,6.7V0H1.27V-14.219ZM26.992-2.93H21.855L20.879,0H17.764l5.293-14.219h2.715L31.094,0H27.979ZM22.646-5.3H26.2l-1.787-5.322ZM36.924-3.525l3.223-10.693h3.262L38.457,0H35.4L30.469-14.219h3.252ZM44.746,0V-14.219h4.375a6.644,6.644,0,0,1,3.354.845,5.89,5.89,0,0,1,2.31,2.4,7.41,7.41,0,0,1,.83,3.54v.654A7.431,7.431,0,0,1,54.8-3.252,5.84,5.84,0,0,1,52.5-.859,6.694,6.694,0,0,1,49.15,0Zm2.93-11.846v9.492h1.416a3.181,3.181,0,0,0,2.627-1.123,5.075,5.075,0,0,0,.928-3.213v-.752a5.156,5.156,0,0,0-.9-3.286,3.171,3.171,0,0,0-2.627-1.118Zm19.941,0H63.262V0h-2.93V-11.846h-4.3v-2.373H67.617Z" transform="translate(947 1465)" fill="#fff"/>
    <g id="Trazado_146870" data-name="Trazado 146870" transform="translate(1043 1439)" fill="#3c6d9d">
      <path d="M 83 37.5 L 5 37.5 C 2.518688917160034 37.5 0.5 35.4813117980957 0.5 33 L 0.5 5 C 0.5 2.518688917160034 2.518688917160034 0.5 5 0.5 L 83 0.5 C 85.48130798339844 0.5 87.5 2.518688917160034 87.5 5 L 87.5 33 C 87.5 35.4813117980957 85.48130798339844 37.5 83 37.5 Z" stroke="none"/>
      <path d="M 5 1 C 2.794387817382812 1 1 2.794387817382812 1 5 L 1 33 C 1 35.20561218261719 2.794387817382812 37 5 37 L 83 37 C 85.20561218261719 37 87 35.20561218261719 87 33 L 87 5 C 87 2.794387817382812 85.20561218261719 1 83 1 L 5 1 M 5 0 L 83 0 C 85.76142120361328 0 88 2.238574981689453 88 5 L 88 33 C 88 35.76142501831055 85.76142120361328 38 83 38 L 5 38 C 2.238578796386719 38 0 35.76142501831055 0 33 L 0 5 C 0 2.238574981689453 2.238578796386719 0 5 0 Z" stroke="none" fill="#5f9025"/>
    </g>
    <path id="Trazado_146877" data-name="Trazado 146877" d="M5.1-14.219,8.75-3.906l3.633-10.312H16.23V0H13.291V-3.887l.293-6.709L9.746,0H7.734L3.906-10.586l.293,6.7V0H1.27V-14.219ZM29.951-4.736a5.031,5.031,0,0,1-1.694,3.613A5.951,5.951,0,0,1,24.229.2a5.351,5.351,0,0,1-4.3-1.841A7.548,7.548,0,0,1,18.359-6.7v-.869a8.523,8.523,0,0,1,.723-3.613,5.416,5.416,0,0,1,2.065-2.4,5.786,5.786,0,0,1,3.12-.835A5.8,5.8,0,0,1,28.232-13.1a5.407,5.407,0,0,1,1.738,3.7h-2.93a2.97,2.97,0,0,0-.767-2,2.839,2.839,0,0,0-2.007-.62,2.489,2.489,0,0,0-2.192,1.05,5.883,5.883,0,0,0-.747,3.257v1.074a6.3,6.3,0,0,0,.7,3.369,2.443,2.443,0,0,0,2.2,1.064,2.892,2.892,0,0,0,2.026-.62,2.8,2.8,0,0,0,.767-1.919ZM34.99,0h-2.93V-14.219h2.93ZM48.125-11.846H43.77V0H40.84V-11.846h-4.3v-2.373H48.125Z" transform="translate(1061 1465)" fill="#fff"/>
    <g id="Trazado_146850" data-name="Trazado 146850" transform="translate(567 1548)" fill="#3c6d9d">
      <path d="M 92 37.5 L 5 37.5 C 2.51868748664856 37.5 0.5 35.4813117980957 0.5 33 L 0.5 5 C 0.5 2.51868748664856 2.51868748664856 0.5 5 0.5 L 92 0.5 C 94.48131561279297 0.5 96.5 2.51868748664856 96.5 5 L 96.5 33 C 96.5 35.4813117980957 94.48131561279297 37.5 92 37.5 Z" stroke="none"/>
      <path d="M 5 1 C 2.794387817382812 1 1 2.794387817382812 1 5 L 1 33 C 1 35.20561218261719 2.794387817382812 37 5 37 L 92 37 C 94.20561218261719 37 96 35.20561218261719 96 33 L 96 5 C 96 2.794387817382812 94.20561218261719 1 92 1 L 5 1 M 5 0 L 92 0 C 94.76141357421875 0 97 2.238574981689453 97 5 L 97 33 C 97 35.76142501831055 94.76141357421875 38 92 38 L 5 38 C 2.238571166992188 38 0 35.76142501831055 0 33 L 0 5 C 0 2.238574981689453 2.238571166992188 0 5 0 Z" stroke="none" fill="#5f9025"/>
    </g>
    <path id="Trazado_146852" data-name="Trazado 146852" d="M4.385,0H1.455V-14.219h2.93ZM18.662,0h-2.93l-5.7-9.355V0H7.1V-14.219h2.93l5.713,9.375v-9.375h2.92Zm7.813-3.525L29.7-14.219h3.262L28.008,0H24.951L20.02-14.219h3.252ZM37.412,0h-2.93V-14.219h2.93Zm6.543-14.219L47.607-3.906,51.24-14.219h3.848V0H52.148V-3.887l.293-6.709L48.6,0H46.592L42.764-10.586l.293,6.7V0h-2.93V-14.219ZM65.85-2.93H60.713L59.736,0H56.621l5.293-14.219h2.715L69.951,0H66.836ZM61.5-5.3h3.555l-1.787-5.322Z" transform="translate(581 1574)" fill="#fff"/>
    <g id="Trazado_146853" data-name="Trazado 146853" transform="translate(681 1548)" fill="#3c6d9d">
      <path d="M 70 37.5 L 5 37.5 C 2.51869010925293 37.5 0.5 35.4813117980957 0.5 33 L 0.5 5 C 0.5 2.51869010925293 2.51869010925293 0.5 5 0.5 L 70 0.5 C 72.48130798339844 0.5 74.5 2.51869010925293 74.5 5 L 74.5 33 C 74.5 35.4813117980957 72.48130798339844 37.5 70 37.5 Z" stroke="none"/>
      <path d="M 5 1 C 2.794387817382812 1 1 2.794391632080078 1 5 L 1 33 C 1 35.20560836791992 2.794387817382812 37 5 37 L 70 37 C 72.20561218261719 37 74 35.20560836791992 74 33 L 74 5 C 74 2.794391632080078 72.20561218261719 1 70 1 L 5 1 M 5 0 L 70 0 C 72.76142120361328 0 75 2.238571166992188 75 5 L 75 33 C 75 35.76142120361328 72.76142120361328 38 70 38 L 5 38 C 2.238578796386719 38 0 35.76142120361328 0 33 L 0 5 C 0 2.238571166992188 2.238578796386719 0 5 0 Z" stroke="none" fill="#5f9025"/>
    </g>
    <path id="Trazado_146855" data-name="Trazado 146855" d="M4.385,0H1.455V-14.219h2.93ZM18.662,0h-2.93l-5.7-9.355V0H7.1V-14.219h2.93l5.713,9.375v-9.375h2.92Zm9.932-3.73A1.5,1.5,0,0,0,28.008-5,7.685,7.685,0,0,0,25.9-5.942a14.953,14.953,0,0,1-2.412-.972,3.941,3.941,0,0,1-2.422-3.525,3.434,3.434,0,0,1,.649-2.056,4.236,4.236,0,0,1,1.865-1.411,7.02,7.02,0,0,1,2.729-.508,6.39,6.39,0,0,1,2.715.552A4.323,4.323,0,0,1,30.874-12.3a4.076,4.076,0,0,1,.659,2.285H28.6a1.917,1.917,0,0,0-.615-1.519,2.529,2.529,0,0,0-1.729-.542,2.7,2.7,0,0,0-1.67.454,1.432,1.432,0,0,0-.6,1.2,1.372,1.372,0,0,0,.7,1.162,7.889,7.889,0,0,0,2.056.879,8.882,8.882,0,0,1,3.643,1.865A3.715,3.715,0,0,1,31.533-3.75a3.422,3.422,0,0,1-1.4,2.9A6.113,6.113,0,0,1,26.377.2a7.26,7.26,0,0,1-2.988-.6,4.729,4.729,0,0,1-2.056-1.646,4.214,4.214,0,0,1-.708-2.422h2.939q0,2.354,2.813,2.354a2.736,2.736,0,0,0,1.631-.425A1.382,1.382,0,0,0,28.594-3.73Z" transform="translate(702 1574)" fill="#fff"/>
    <g id="Trazado_146857" data-name="Trazado 146857" transform="translate(766 1548)" fill="#3c6d9d">
      <path d="M 70 37.5 L 5 37.5 C 2.51869010925293 37.5 0.5 35.4813117980957 0.5 33 L 0.5 5 C 0.5 2.51869010925293 2.51869010925293 0.5 5 0.5 L 70 0.5 C 72.48130798339844 0.5 74.5 2.51869010925293 74.5 5 L 74.5 33 C 74.5 35.4813117980957 72.48130798339844 37.5 70 37.5 Z" stroke="none"/>
      <path d="M 5 1 C 2.794387817382812 1 1 2.794391632080078 1 5 L 1 33 C 1 35.20560836791992 2.794387817382812 37 5 37 L 70 37 C 72.20561218261719 37 74 35.20560836791992 74 33 L 74 5 C 74 2.794391632080078 72.20561218261719 1 70 1 L 5 1 M 5 0 L 70 0 C 72.76142120361328 0 75 2.238571166992188 75 5 L 75 33 C 75 35.76142120361328 72.76142120361328 38 70 38 L 5 38 C 2.238578796386719 38 0 35.76142120361328 0 33 L 0 5 C 0 2.238571166992188 2.238578796386719 0 5 0 Z" stroke="none" fill="#5f9025"/>
    </g>
    <path id="Trazado_146859" data-name="Trazado 146859" d="M4.385,0H1.455V-14.219h2.93ZM18.262-4.736a5.031,5.031,0,0,1-1.694,3.613A5.951,5.951,0,0,1,12.539.2a5.351,5.351,0,0,1-4.3-1.841A7.548,7.548,0,0,1,6.67-6.7v-.869a8.523,8.523,0,0,1,.723-3.613,5.416,5.416,0,0,1,2.065-2.4,5.786,5.786,0,0,1,3.12-.835A5.8,5.8,0,0,1,16.543-13.1a5.407,5.407,0,0,1,1.738,3.7h-2.93a2.97,2.97,0,0,0-.767-2,2.839,2.839,0,0,0-2.007-.62,2.489,2.489,0,0,0-2.192,1.05,5.883,5.883,0,0,0-.747,3.257v1.074a6.3,6.3,0,0,0,.7,3.369,2.443,2.443,0,0,0,2.2,1.064,2.892,2.892,0,0,0,2.026-.62,2.8,2.8,0,0,0,.767-1.919ZM28.213-2.93H23.076L22.1,0H18.984l5.293-14.219h2.715L32.314,0H29.2ZM23.867-5.3h3.555l-1.787-5.322Z" transform="translate(787 1574)" fill="#fff"/>
    <g id="Trazado_146871" data-name="Trazado 146871" transform="translate(1043 1548)" fill="#3c6d9d">
      <path d="M 83 37.5 L 5 37.5 C 2.518688917160034 37.5 0.5 35.4813117980957 0.5 33 L 0.5 5 C 0.5 2.518688917160034 2.518688917160034 0.5 5 0.5 L 83 0.5 C 85.48130798339844 0.5 87.5 2.518688917160034 87.5 5 L 87.5 33 C 87.5 35.4813117980957 85.48130798339844 37.5 83 37.5 Z" stroke="none"/>
      <path d="M 5 1 C 2.794387817382812 1 1 2.794387817382812 1 5 L 1 33 C 1 35.20561218261719 2.794387817382812 37 5 37 L 83 37 C 85.20561218261719 37 87 35.20561218261719 87 33 L 87 5 C 87 2.794387817382812 85.20561218261719 1 83 1 L 5 1 M 5 0 L 83 0 C 85.76142120361328 0 88 2.238574981689453 88 5 L 88 33 C 88 35.76142501831055 85.76142120361328 38 83 38 L 5 38 C 2.238578796386719 38 0 35.76142501831055 0 33 L 0 5 C 0 2.238574981689453 2.238578796386719 0 5 0 Z" stroke="none" fill="#5f9025"/>
    </g>
    <path id="Trazado_146878" data-name="Trazado 146878" d="M8.643-3.73A1.5,1.5,0,0,0,8.057-5a7.685,7.685,0,0,0-2.109-.937,14.953,14.953,0,0,1-2.412-.972,3.941,3.941,0,0,1-2.422-3.525A3.434,3.434,0,0,1,1.763-12.5a4.236,4.236,0,0,1,1.865-1.411,7.02,7.02,0,0,1,2.729-.508,6.39,6.39,0,0,1,2.715.552A4.323,4.323,0,0,1,10.923-12.3a4.076,4.076,0,0,1,.659,2.285H8.652a1.917,1.917,0,0,0-.615-1.519,2.529,2.529,0,0,0-1.729-.542,2.7,2.7,0,0,0-1.67.454,1.432,1.432,0,0,0-.6,1.2,1.372,1.372,0,0,0,.7,1.162A7.889,7.889,0,0,0,6.8-8.389a8.882,8.882,0,0,1,3.643,1.865A3.715,3.715,0,0,1,11.582-3.75a3.422,3.422,0,0,1-1.4,2.9A6.113,6.113,0,0,1,6.426.2a7.26,7.26,0,0,1-2.988-.6A4.729,4.729,0,0,1,1.382-2.051,4.214,4.214,0,0,1,.674-4.473H3.613q0,2.354,2.813,2.354a2.736,2.736,0,0,0,1.631-.425A1.382,1.382,0,0,0,8.643-3.73ZM16.68,0H13.75V-14.219h2.93ZM30.557-4.736a5.031,5.031,0,0,1-1.694,3.613A5.951,5.951,0,0,1,24.834.2a5.351,5.351,0,0,1-4.3-1.841A7.548,7.548,0,0,1,18.965-6.7v-.869a8.523,8.523,0,0,1,.723-3.613,5.416,5.416,0,0,1,2.065-2.4,5.786,5.786,0,0,1,3.12-.835A5.8,5.8,0,0,1,28.838-13.1a5.407,5.407,0,0,1,1.738,3.7h-2.93a2.97,2.97,0,0,0-.767-2,2.839,2.839,0,0,0-2.007-.62,2.489,2.489,0,0,0-2.192,1.05,5.883,5.883,0,0,0-.747,3.257v1.074a6.3,6.3,0,0,0,.7,3.369,2.443,2.443,0,0,0,2.2,1.064,2.892,2.892,0,0,0,2.026-.62,2.8,2.8,0,0,0,.767-1.919Z" transform="translate(1070 1574)" fill="#fff"/>
    <g id="Trazado_146860" data-name="Trazado 146860" transform="translate(613 1654)" fill="#3c6d9d">
      <path d="M 63 37.5 L 5 37.5 C 2.51869010925293 37.5 0.5 35.4813117980957 0.5 33 L 0.5 5 C 0.5 2.51869010925293 2.51869010925293 0.5 5 0.5 L 63 0.5 C 65.48130798339844 0.5 67.5 2.51869010925293 67.5 5 L 67.5 33 C 67.5 35.4813117980957 65.48130798339844 37.5 63 37.5 Z" stroke="none"/>
      <path d="M 5 1 C 2.794387817382812 1 1 2.794391632080078 1 5 L 1 33 C 1 35.20560836791992 2.794387817382812 37 5 37 L 63 37 C 65.20561218261719 37 67 35.20560836791992 67 33 L 67 5 C 67 2.794391632080078 65.20561218261719 1 63 1 L 5 1 M 5 0 L 63 0 C 65.76142120361328 0 68 2.238571166992188 68 5 L 68 33 C 68 35.76142120361328 65.76142120361328 38 63 38 L 5 38 C 2.238578796386719 38 0 35.76142120361328 0 33 L 0 5 C 0 2.238571166992188 2.238578796386719 0 5 0 Z" stroke="none" fill="#5f9025"/>
    </g>
    <path id="Trazado_146864" data-name="Trazado 146864" d="M9.824-6.162H4.2v3.809h6.6V0H1.27V-14.219h9.512v2.373H4.2v3.389H9.824Zm13.594-5.684H19.063V0h-2.93V-11.846h-4.3v-2.373H23.418ZM32.3-3.73A1.5,1.5,0,0,0,31.719-5a7.685,7.685,0,0,0-2.109-.937A14.953,14.953,0,0,1,27.2-6.914a3.941,3.941,0,0,1-2.422-3.525,3.434,3.434,0,0,1,.649-2.056,4.236,4.236,0,0,1,1.865-1.411,7.02,7.02,0,0,1,2.729-.508,6.39,6.39,0,0,1,2.715.552A4.323,4.323,0,0,1,34.585-12.3a4.076,4.076,0,0,1,.659,2.285h-2.93a1.917,1.917,0,0,0-.615-1.519,2.529,2.529,0,0,0-1.729-.542,2.7,2.7,0,0,0-1.67.454,1.432,1.432,0,0,0-.6,1.2,1.372,1.372,0,0,0,.7,1.162,7.889,7.889,0,0,0,2.056.879A8.882,8.882,0,0,1,34.1-6.523,3.715,3.715,0,0,1,35.244-3.75a3.422,3.422,0,0,1-1.4,2.9A6.113,6.113,0,0,1,30.088.2a7.26,7.26,0,0,1-2.988-.6,4.729,4.729,0,0,1-2.056-1.646,4.214,4.214,0,0,1-.708-2.422h2.939q0,2.354,2.813,2.354a2.736,2.736,0,0,0,1.631-.425A1.382,1.382,0,0,0,32.3-3.73Z" transform="translate(627 1680)" fill="#fff"/>
    <g id="Trazado_146861" data-name="Trazado 146861" transform="translate(690 1654)" fill="#3c6d9d">
      <path d="M 121 53.5 L 5 53.5 C 2.518683433532715 53.5 0.5 51.48131561279297 0.5 49 L 0.5 5 C 0.5 2.518683433532715 2.518683433532715 0.5 5 0.5 L 121 0.5 C 123.481315612793 0.5 125.5 2.518683433532715 125.5 5 L 125.5 49 C 125.5 51.48131561279297 123.481315612793 53.5 121 53.5 Z" stroke="none"/>
      <path d="M 5 1 C 2.794403076171875 1 1 2.794399261474609 1 5 L 1 49 C 1 51.20560073852539 2.794403076171875 53 5 53 L 121 53 C 123.2055969238281 53 125 51.20560073852539 125 49 L 125 5 C 125 2.794399261474609 123.2055969238281 1 121 1 L 5 1 M 5 0 L 121 0 C 123.7614135742188 0 126 2.238567352294922 126 5 L 126 49 C 126 51.76141738891602 123.7614135742188 54 121 54 L 5 54 C 2.23858642578125 54 0 51.76141738891602 0 49 L 0 5 C 0 2.238567352294922 2.23858642578125 0 5 0 Z" stroke="none" fill="#5f9025"/>
    </g>
    <path id="Trazado_146862" data-name="Trazado 146862" d="M6.533-5.205H4.2V0H1.27V-14.219H6.553A5.972,5.972,0,0,1,10.439-13.1a3.876,3.876,0,0,1,1.367,3.174,4.374,4.374,0,0,1-.63,2.427A4.3,4.3,0,0,1,9.268-5.947L12.344-.137V0H9.2ZM4.2-7.578H6.563A2.42,2.42,0,0,0,8.271-8.14a2.007,2.007,0,0,0,.605-1.548,2.148,2.148,0,0,0-.571-1.582,2.374,2.374,0,0,0-1.753-.576H4.2ZM18.711.2A5.187,5.187,0,0,1,14.927-1.23a5.068,5.068,0,0,1-1.46-3.8V-5.3a6.383,6.383,0,0,1,.615-2.847,4.515,4.515,0,0,1,1.743-1.934,4.893,4.893,0,0,1,2.573-.679,4.385,4.385,0,0,1,3.413,1.367,5.555,5.555,0,0,1,1.245,3.877v1.152H16.328a2.622,2.622,0,0,0,.825,1.66A2.5,2.5,0,0,0,18.9-2.08a3.046,3.046,0,0,0,2.549-1.182l1.387,1.553a4.237,4.237,0,0,1-1.719,1.4A5.639,5.639,0,0,1,18.711.2Zm-.322-8.672a1.767,1.767,0,0,0-1.362.566,2.926,2.926,0,0,0-.669,1.621h3.926v-.225a2.086,2.086,0,0,0-.508-1.45A1.824,1.824,0,0,0,18.389-8.477Zm5.859,3.115a6.193,6.193,0,0,1,1.157-3.916,3.75,3.75,0,0,1,3.12-1.484A3.289,3.289,0,0,1,31.23-9.57l.117-1h2.559V-.352a4.516,4.516,0,0,1-.63,2.412A4.045,4.045,0,0,1,31.5,3.623a6.231,6.231,0,0,1-2.676.537A5.794,5.794,0,0,1,26.563,3.7a4.021,4.021,0,0,1-1.67-1.2L26.143.781A3.306,3.306,0,0,0,28.7,1.963a2.42,2.42,0,0,0,1.748-.6,2.253,2.253,0,0,0,.625-1.7V-.908A3.264,3.264,0,0,1,28.506.2a3.74,3.74,0,0,1-3.081-1.489,6.191,6.191,0,0,1-1.177-3.95Zm2.822.205a3.846,3.846,0,0,0,.576,2.251,1.834,1.834,0,0,0,1.582.815,1.961,1.961,0,0,0,1.846-.967V-7.5a1.956,1.956,0,0,0-1.826-.967,1.845,1.845,0,0,0-1.6.83A4.334,4.334,0,0,0,27.07-5.156ZM39.053,0H36.221V-10.566h2.832Zm-3-13.3a1.39,1.39,0,0,1,.425-1.045,1.6,1.6,0,0,1,1.157-.41,1.6,1.6,0,0,1,1.152.41,1.382,1.382,0,0,1,.43,1.045,1.386,1.386,0,0,1-.435,1.055,1.6,1.6,0,0,1-1.147.41,1.6,1.6,0,0,1-1.147-.41A1.386,1.386,0,0,1,36.055-13.3Zm4.883,7.92a6.267,6.267,0,0,1,.605-2.8,4.432,4.432,0,0,1,1.743-1.9,5.086,5.086,0,0,1,2.642-.674,4.812,4.812,0,0,1,3.491,1.309A5.252,5.252,0,0,1,50.928-5.9l.02.723a5.523,5.523,0,0,1-1.357,3.9A4.718,4.718,0,0,1,45.947.2,4.742,4.742,0,0,1,42.3-1.27a5.62,5.62,0,0,1-1.362-3.984Zm2.822.205a3.939,3.939,0,0,0,.566,2.3,1.869,1.869,0,0,0,1.621.8,1.874,1.874,0,0,0,1.6-.786,4.31,4.31,0,0,0,.576-2.515,3.9,3.9,0,0,0-.576-2.285,1.874,1.874,0,0,0-1.621-.811,1.843,1.843,0,0,0-1.6.806A4.383,4.383,0,0,0,43.76-5.176Zm11.523-5.391.088,1.221a3.689,3.689,0,0,1,3.037-1.416,3.066,3.066,0,0,1,2.5.986,4.6,4.6,0,0,1,.84,2.949V0H58.926V-6.758a1.831,1.831,0,0,0-.391-1.3,1.749,1.749,0,0,0-1.3-.405,1.942,1.942,0,0,0-1.787,1.016V0H52.627V-10.566ZM70.01,0a3.134,3.134,0,0,1-.283-.947A3.415,3.415,0,0,1,67.061.2a3.752,3.752,0,0,1-2.573-.9,2.89,2.89,0,0,1-1.021-2.266,2.986,2.986,0,0,1,1.245-2.578,6.144,6.144,0,0,1,3.6-.908h1.3v-.605a1.741,1.741,0,0,0-.376-1.172,1.479,1.479,0,0,0-1.187-.439,1.682,1.682,0,0,0-1.118.342,1.161,1.161,0,0,0-.405.938H63.7a2.835,2.835,0,0,1,.566-1.7,3.744,3.744,0,0,1,1.6-1.226,5.837,5.837,0,0,1,2.324-.444,4.611,4.611,0,0,1,3.1.981,3.433,3.433,0,0,1,1.147,2.759v4.58a5.052,5.052,0,0,0,.42,2.275V0ZM67.676-1.963a2.431,2.431,0,0,0,1.152-.278,1.828,1.828,0,0,0,.781-.747V-4.8H68.555Q66.436-4.8,66.3-3.34l-.01.166a1.13,1.13,0,0,0,.371.869A1.441,1.441,0,0,0,67.676-1.963ZM77.588,0H74.756V-15h2.832Zm7.188.2A5.187,5.187,0,0,1,80.991-1.23a5.068,5.068,0,0,1-1.46-3.8V-5.3a6.383,6.383,0,0,1,.615-2.847,4.515,4.515,0,0,1,1.743-1.934,4.893,4.893,0,0,1,2.573-.679,4.385,4.385,0,0,1,3.413,1.367,5.555,5.555,0,0,1,1.245,3.877v1.152H82.393a2.622,2.622,0,0,0,.825,1.66,2.5,2.5,0,0,0,1.743.625A3.046,3.046,0,0,0,87.51-3.262L88.9-1.709a4.237,4.237,0,0,1-1.719,1.4A5.639,5.639,0,0,1,84.775.2Zm-.322-8.672a1.767,1.767,0,0,0-1.362.566,2.926,2.926,0,0,0-.669,1.621h3.926v-.225a2.086,2.086,0,0,0-.508-1.45A1.824,1.824,0,0,0,84.453-8.477ZM96.445-2.92a.909.909,0,0,0-.513-.815,5.824,5.824,0,0,0-1.646-.532q-3.77-.791-3.77-3.2a2.9,2.9,0,0,1,1.167-2.349,4.707,4.707,0,0,1,3.052-.942,5.067,5.067,0,0,1,3.218.947A2.985,2.985,0,0,1,99.16-7.354H96.338a1.366,1.366,0,0,0-.391-1,1.653,1.653,0,0,0-1.221-.4,1.689,1.689,0,0,0-1.1.322,1.017,1.017,0,0,0-.391.82.87.87,0,0,0,.444.757,4.571,4.571,0,0,0,1.5.5,12.244,12.244,0,0,1,1.777.474,2.92,2.92,0,0,1,2.236,2.842A2.756,2.756,0,0,1,97.949-.7a5.35,5.35,0,0,1-3.2.894,5.588,5.588,0,0,1-2.358-.474,3.957,3.957,0,0,1-1.616-1.3,3.018,3.018,0,0,1-.586-1.782h2.676a1.473,1.473,0,0,0,.557,1.152,2.208,2.208,0,0,0,1.387.4,2.044,2.044,0,0,0,1.226-.308A.957.957,0,0,0,96.445-2.92ZM4.385,25H1.455V10.781h2.93Zm13.877-4.736a5.031,5.031,0,0,1-1.694,3.613A5.951,5.951,0,0,1,12.539,25.2a5.351,5.351,0,0,1-4.3-1.841A7.548,7.548,0,0,1,6.67,18.3v-.869a8.523,8.523,0,0,1,.723-3.613,5.416,5.416,0,0,1,2.065-2.4,5.786,5.786,0,0,1,3.12-.835A5.8,5.8,0,0,1,16.543,11.9a5.407,5.407,0,0,1,1.738,3.7h-2.93a2.97,2.97,0,0,0-.767-2,2.839,2.839,0,0,0-2.007-.62,2.489,2.489,0,0,0-2.192,1.05,5.883,5.883,0,0,0-.747,3.257v1.074a6.3,6.3,0,0,0,.7,3.369,2.443,2.443,0,0,0,2.2,1.064,2.892,2.892,0,0,0,2.026-.62,2.8,2.8,0,0,0,.767-1.919Zm9.951,1.807H23.076L22.1,25H18.984l5.293-14.219h2.715L32.314,25H29.2ZM23.867,19.7h3.555l-1.787-5.322Z" transform="translate(704 1676)" fill="#fff"/>
    <g id="Trazado_146867" data-name="Trazado 146867" transform="translate(954 1654)" fill="#3c6d9d">
      <path d="M 63 37.5 L 5 37.5 C 2.51869010925293 37.5 0.5 35.4813117980957 0.5 33 L 0.5 5 C 0.5 2.51869010925293 2.51869010925293 0.5 5 0.5 L 63 0.5 C 65.48130798339844 0.5 67.5 2.51869010925293 67.5 5 L 67.5 33 C 67.5 35.4813117980957 65.48130798339844 37.5 63 37.5 Z" stroke="none"/>
      <path d="M 5 1 C 2.794387817382812 1 1 2.794391632080078 1 5 L 1 33 C 1 35.20560836791992 2.794387817382812 37 5 37 L 63 37 C 65.20561218261719 37 67 35.20560836791992 67 33 L 67 5 C 67 2.794391632080078 65.20561218261719 1 63 1 L 5 1 M 5 0 L 63 0 C 65.76142120361328 0 68 2.238571166992188 68 5 L 68 33 C 68 35.76142120361328 65.76142120361328 38 63 38 L 5 38 C 2.238578796386719 38 0 35.76142120361328 0 33 L 0 5 C 0 2.238571166992188 2.238578796386719 0 5 0 Z" stroke="none" fill="#5f9025"/>
    </g>
    <path id="Trazado_146868" data-name="Trazado 146868" d="M12.432-4.736a5.031,5.031,0,0,1-1.694,3.613A5.951,5.951,0,0,1,6.709.2a5.351,5.351,0,0,1-4.3-1.841A7.548,7.548,0,0,1,.84-6.7v-.869a8.523,8.523,0,0,1,.723-3.613,5.416,5.416,0,0,1,2.065-2.4,5.786,5.786,0,0,1,3.12-.835A5.8,5.8,0,0,1,10.713-13.1a5.407,5.407,0,0,1,1.738,3.7H9.521a2.97,2.97,0,0,0-.767-2,2.839,2.839,0,0,0-2.007-.62,2.489,2.489,0,0,0-2.192,1.05,5.883,5.883,0,0,0-.747,3.257v1.074a6.3,6.3,0,0,0,.7,3.369A2.443,2.443,0,0,0,6.709-2.2a2.892,2.892,0,0,0,2.026-.62A2.8,2.8,0,0,0,9.5-4.736ZM22.383-2.93H17.246L16.27,0H13.154l5.293-14.219h2.715L26.484,0H23.369ZM18.037-5.3h3.555L19.8-10.625Zm15.039.1H30.742V0h-2.93V-14.219H33.1A5.972,5.972,0,0,1,36.982-13.1,3.876,3.876,0,0,1,38.35-9.922,4.374,4.374,0,0,1,37.72-7.5a4.3,4.3,0,0,1-1.909,1.548L38.887-.137V0H35.742ZM30.742-7.578h2.363a2.42,2.42,0,0,0,1.709-.562,2.007,2.007,0,0,0,.605-1.548,2.148,2.148,0,0,0-.571-1.582,2.374,2.374,0,0,0-1.753-.576H30.742ZM47.949-3.73A1.5,1.5,0,0,0,47.363-5a7.685,7.685,0,0,0-2.109-.937,14.953,14.953,0,0,1-2.412-.972,3.941,3.941,0,0,1-2.422-3.525,3.434,3.434,0,0,1,.649-2.056,4.236,4.236,0,0,1,1.865-1.411,7.021,7.021,0,0,1,2.729-.508,6.39,6.39,0,0,1,2.715.552A4.323,4.323,0,0,1,50.229-12.3a4.076,4.076,0,0,1,.659,2.285h-2.93a1.917,1.917,0,0,0-.615-1.519,2.529,2.529,0,0,0-1.729-.542,2.7,2.7,0,0,0-1.67.454,1.432,1.432,0,0,0-.6,1.2,1.372,1.372,0,0,0,.7,1.162,7.889,7.889,0,0,0,2.056.879,8.882,8.882,0,0,1,3.643,1.865A3.715,3.715,0,0,1,50.889-3.75a3.422,3.422,0,0,1-1.4,2.9A6.113,6.113,0,0,1,45.732.2a7.26,7.26,0,0,1-2.988-.6,4.729,4.729,0,0,1-2.056-1.646,4.214,4.214,0,0,1-.708-2.422H42.92q0,2.354,2.813,2.354a2.736,2.736,0,0,0,1.631-.425A1.382,1.382,0,0,0,47.949-3.73Z" transform="translate(962 1680)" fill="#fff"/>
    <g id="Trazado_146872" data-name="Trazado 146872" transform="translate(589 1764)" fill="#3c6d9d">
      <path d="M 184 37.5 L 5 37.5 C 2.518690586090088 37.5 0.5 35.48130798339844 0.5 33 L 0.5 5 C 0.5 2.518690586090088 2.518690586090088 0.5 5 0.5 L 184 0.5 C 186.4813079833984 0.5 188.5 2.518690586090088 188.5 5 L 188.5 33 C 188.5 35.48130798339844 186.4813079833984 37.5 184 37.5 Z" stroke="none"/>
      <path d="M 5 1 C 2.794387817382812 1 1 2.794380187988281 1 5 L 1 33 C 1 35.20561981201172 2.794387817382812 37 5 37 L 184 37 C 186.2056121826172 37 188 35.20561981201172 188 33 L 188 5 C 188 2.794380187988281 186.2056121826172 1 184 1 L 5 1 M 5 0 L 184 0 C 186.7614288330078 0 189 2.238571166992188 189 5 L 189 33 C 189 35.76142883300781 186.7614288330078 38 184 38 L 5 38 C 2.238571166992188 38 0 35.76142883300781 0 33 L 0 5 C 0 2.238571166992188 2.238571166992188 0 5 0 Z" stroke="none" fill="#5f9025"/>
    </g>
    <path id="Trazado_146875" data-name="Trazado 146875" d="M12.432-4.736a5.031,5.031,0,0,1-1.694,3.613A5.951,5.951,0,0,1,6.709.2a5.351,5.351,0,0,1-4.3-1.841A7.548,7.548,0,0,1,.84-6.7v-.869a8.523,8.523,0,0,1,.723-3.613,5.416,5.416,0,0,1,2.065-2.4,5.786,5.786,0,0,1,3.12-.835A5.8,5.8,0,0,1,10.713-13.1a5.407,5.407,0,0,1,1.738,3.7H9.521a2.97,2.97,0,0,0-.767-2,2.839,2.839,0,0,0-2.007-.62,2.489,2.489,0,0,0-2.192,1.05,5.883,5.883,0,0,0-.747,3.257v1.074a6.3,6.3,0,0,0,.7,3.369A2.443,2.443,0,0,0,6.709-2.2a2.892,2.892,0,0,0,2.026-.62A2.8,2.8,0,0,0,9.5-4.736ZM17.471,0h-2.93V-14.219h2.93Zm3.262,3.564-1.475-.771.352-.635a5.074,5.074,0,0,0,.674-2.373V-2.4h2.383l-.01,1.953a5.074,5.074,0,0,1-.547,2.188A5.608,5.608,0,0,1,20.732,3.564ZM40.811-14.219v9.365a4.8,4.8,0,0,1-1.46,3.691A5.629,5.629,0,0,1,35.361.2a5.692,5.692,0,0,1-3.955-1.318,4.713,4.713,0,0,1-1.494-3.623v-9.473h2.93v9.385A2.709,2.709,0,0,0,33.511-2.8a2.568,2.568,0,0,0,1.851.64q2.471,0,2.51-2.6v-9.463Zm4.814,3.652.088,1.221a3.689,3.689,0,0,1,3.037-1.416,3.066,3.066,0,0,1,2.5.986,4.6,4.6,0,0,1,.84,2.949V0H49.268V-6.758a1.831,1.831,0,0,0-.391-1.3,1.749,1.749,0,0,0-1.3-.405,1.942,1.942,0,0,0-1.787,1.016V0H42.969V-10.566ZM57.207,0H54.375V-10.566h2.832Zm-3-13.3a1.39,1.39,0,0,1,.425-1.045,1.6,1.6,0,0,1,1.157-.41,1.6,1.6,0,0,1,1.152.41,1.382,1.382,0,0,1,.43,1.045,1.386,1.386,0,0,1-.435,1.055,1.6,1.6,0,0,1-1.147.41,1.6,1.6,0,0,1-1.147-.41A1.386,1.386,0,0,1,54.209-13.3Zm9.277,9.854,1.963-7.119H68.4L64.834,0h-2.7L58.574-10.566h2.949ZM74.375.2A5.187,5.187,0,0,1,70.591-1.23a5.068,5.068,0,0,1-1.46-3.8V-5.3a6.383,6.383,0,0,1,.615-2.847,4.515,4.515,0,0,1,1.743-1.934,4.893,4.893,0,0,1,2.573-.679,4.385,4.385,0,0,1,3.413,1.367,5.555,5.555,0,0,1,1.245,3.877v1.152H71.992a2.622,2.622,0,0,0,.825,1.66,2.5,2.5,0,0,0,1.743.625,3.046,3.046,0,0,0,2.549-1.182L78.5-1.709a4.237,4.237,0,0,1-1.719,1.4A5.639,5.639,0,0,1,74.375.2Zm-.322-8.672a1.767,1.767,0,0,0-1.362.566,2.926,2.926,0,0,0-.669,1.621h3.926v-.225a2.086,2.086,0,0,0-.508-1.45A1.824,1.824,0,0,0,74.053-8.477ZM86.26-7.92A7.667,7.667,0,0,0,85.244-8a2.067,2.067,0,0,0-2.1,1.084V0H80.322V-10.566h2.666l.078,1.26a2.615,2.615,0,0,1,2.354-1.455,2.957,2.957,0,0,1,.879.127Zm7.08,5a.909.909,0,0,0-.513-.815,5.824,5.824,0,0,0-1.646-.532q-3.77-.791-3.77-3.2a2.9,2.9,0,0,1,1.167-2.349,4.707,4.707,0,0,1,3.052-.942,5.067,5.067,0,0,1,3.218.947,2.985,2.985,0,0,1,1.206,2.461H93.232a1.366,1.366,0,0,0-.391-1,1.653,1.653,0,0,0-1.221-.4,1.689,1.689,0,0,0-1.1.322,1.017,1.017,0,0,0-.391.82.87.87,0,0,0,.444.757,4.571,4.571,0,0,0,1.5.5,12.244,12.244,0,0,1,1.777.474,2.92,2.92,0,0,1,2.236,2.842A2.756,2.756,0,0,1,94.844-.7a5.35,5.35,0,0,1-3.2.894,5.588,5.588,0,0,1-2.358-.474,3.957,3.957,0,0,1-1.616-1.3,3.018,3.018,0,0,1-.586-1.782h2.676a1.473,1.473,0,0,0,.557,1.152,2.208,2.208,0,0,0,1.387.4,2.044,2.044,0,0,0,1.226-.308A.957.957,0,0,0,93.34-2.92ZM100.879,0H98.047V-10.566h2.832Zm-3-13.3a1.39,1.39,0,0,1,.425-1.045,1.6,1.6,0,0,1,1.157-.41,1.6,1.6,0,0,1,1.152.41,1.382,1.382,0,0,1,.43,1.045,1.386,1.386,0,0,1-.435,1.055,1.6,1.6,0,0,1-1.147.41,1.6,1.6,0,0,1-1.147-.41A1.386,1.386,0,0,1,97.881-13.3Zm4.883,7.939A6.368,6.368,0,0,1,103.872-9.3a3.6,3.6,0,0,1,3.032-1.465,3.236,3.236,0,0,1,2.549,1.152V-15h2.832V0h-2.549L109.6-1.123A3.321,3.321,0,0,1,106.885.2a3.587,3.587,0,0,1-2.993-1.47A6.573,6.573,0,0,1,102.764-5.361Zm2.822.205a4.16,4.16,0,0,0,.518,2.275,1.687,1.687,0,0,0,1.5.791,1.889,1.889,0,0,0,1.846-1.1v-4.17a1.862,1.862,0,0,0-1.826-1.1Q105.586-8.467,105.586-5.156ZM120.6,0a3.134,3.134,0,0,1-.283-.947A3.415,3.415,0,0,1,117.646.2a3.752,3.752,0,0,1-2.573-.9,2.89,2.89,0,0,1-1.021-2.266A2.986,2.986,0,0,1,115.3-5.547a6.144,6.144,0,0,1,3.6-.908h1.3v-.605a1.741,1.741,0,0,0-.376-1.172,1.479,1.479,0,0,0-1.187-.439,1.682,1.682,0,0,0-1.118.342,1.161,1.161,0,0,0-.405.938h-2.822a2.835,2.835,0,0,1,.566-1.7,3.744,3.744,0,0,1,1.6-1.226,5.837,5.837,0,0,1,2.324-.444,4.611,4.611,0,0,1,3.1.981,3.433,3.433,0,0,1,1.147,2.759v4.58a5.052,5.052,0,0,0,.42,2.275V0Zm-2.334-1.963a2.431,2.431,0,0,0,1.152-.278,1.828,1.828,0,0,0,.781-.747V-4.8h-1.055q-2.119,0-2.256,1.465l-.01.166a1.13,1.13,0,0,0,.371.869A1.441,1.441,0,0,0,118.262-1.963Zm6.494-3.4A6.368,6.368,0,0,1,125.864-9.3a3.6,3.6,0,0,1,3.032-1.465,3.236,3.236,0,0,1,2.549,1.152V-15h2.832V0h-2.549l-.137-1.123A3.321,3.321,0,0,1,128.877.2a3.587,3.587,0,0,1-2.993-1.47A6.573,6.573,0,0,1,124.756-5.361Zm2.822.205a4.16,4.16,0,0,0,.518,2.275,1.687,1.687,0,0,0,1.5.791,1.889,1.889,0,0,0,1.846-1.1v-4.17a1.862,1.862,0,0,0-1.826-1.1Q127.578-8.467,127.578-5.156ZM141.328.2a5.187,5.187,0,0,1-3.784-1.426,5.068,5.068,0,0,1-1.46-3.8V-5.3a6.383,6.383,0,0,1,.615-2.847,4.515,4.515,0,0,1,1.743-1.934,4.893,4.893,0,0,1,2.573-.679,4.385,4.385,0,0,1,3.413,1.367,5.555,5.555,0,0,1,1.245,3.877v1.152h-6.729a2.622,2.622,0,0,0,.825,1.66,2.5,2.5,0,0,0,1.743.625,3.046,3.046,0,0,0,2.549-1.182l1.387,1.553a4.237,4.237,0,0,1-1.719,1.4A5.639,5.639,0,0,1,141.328.2Zm-.322-8.672a1.767,1.767,0,0,0-1.362.566,2.926,2.926,0,0,0-.669,1.621H142.9v-.225a2.086,2.086,0,0,0-.508-1.45A1.824,1.824,0,0,0,141.006-8.477ZM153-2.92a.909.909,0,0,0-.513-.815,5.824,5.824,0,0,0-1.646-.532q-3.77-.791-3.77-3.2a2.9,2.9,0,0,1,1.167-2.349,4.707,4.707,0,0,1,3.052-.942,5.067,5.067,0,0,1,3.218.947,2.985,2.985,0,0,1,1.206,2.461h-2.822a1.366,1.366,0,0,0-.391-1,1.653,1.653,0,0,0-1.221-.4,1.689,1.689,0,0,0-1.1.322,1.017,1.017,0,0,0-.391.82.87.87,0,0,0,.444.757,4.571,4.571,0,0,0,1.5.5,12.244,12.244,0,0,1,1.777.474,2.92,2.92,0,0,1,2.236,2.842A2.756,2.756,0,0,1,154.5-.7,5.35,5.35,0,0,1,151.3.2a5.588,5.588,0,0,1-2.358-.474,3.957,3.957,0,0,1-1.616-1.3,3.018,3.018,0,0,1-.586-1.782h2.676a1.473,1.473,0,0,0,.557,1.152,2.208,2.208,0,0,0,1.387.4,2.044,2.044,0,0,0,1.226-.308A.957.957,0,0,0,153-2.92Z" transform="translate(603 1790)" fill="#fff"/>
    <g id="Trazado_146873" data-name="Trazado 146873" transform="translate(826 1764)" fill="#3c6d9d">
      <path d="M 123 37.5 L 5 37.5 C 2.518683433532715 37.5 0.5 35.48131561279297 0.5 33 L 0.5 5 C 0.5 2.518683433532715 2.518683433532715 0.5 5 0.5 L 123 0.5 C 125.481315612793 0.5 127.5 2.518683433532715 127.5 5 L 127.5 33 C 127.5 35.48131561279297 125.481315612793 37.5 123 37.5 Z" stroke="none"/>
      <path d="M 5 1 C 2.794403076171875 1 1 2.794399261474609 1 5 L 1 33 C 1 35.20560073852539 2.794403076171875 37 5 37 L 123 37 C 125.2055969238281 37 127 35.20560073852539 127 33 L 127 5 C 127 2.794399261474609 125.2055969238281 1 123 1 L 5 1 M 5 0 L 123 0 C 125.7614135742188 0 128 2.238567352294922 128 5 L 128 33 C 128 35.76141738891602 125.7614135742188 38 123 38 L 5 38 C 2.23858642578125 38 0 35.76141738891602 0 33 L 0 5 C 0 2.238567352294922 2.23858642578125 0 5 0 Z" stroke="none" fill="#5f9025"/>
    </g>
    <path id="Trazado_146876" data-name="Trazado 146876" d="M12.432-4.736a5.031,5.031,0,0,1-1.694,3.613A5.951,5.951,0,0,1,6.709.2a5.351,5.351,0,0,1-4.3-1.841A7.548,7.548,0,0,1,.84-6.7v-.869a8.523,8.523,0,0,1,.723-3.613,5.416,5.416,0,0,1,2.065-2.4,5.786,5.786,0,0,1,3.12-.835A5.8,5.8,0,0,1,10.713-13.1a5.407,5.407,0,0,1,1.738,3.7H9.521a2.97,2.97,0,0,0-.767-2,2.839,2.839,0,0,0-2.007-.62,2.489,2.489,0,0,0-2.192,1.05,5.883,5.883,0,0,0-.747,3.257v1.074a6.3,6.3,0,0,0,.7,3.369A2.443,2.443,0,0,0,6.709-2.2a2.892,2.892,0,0,0,2.026-.62A2.8,2.8,0,0,0,9.5-4.736Zm13.6-2.051a8.584,8.584,0,0,1-.742,3.682A5.589,5.589,0,0,1,23.169-.664,5.875,5.875,0,0,1,20,.2a5.915,5.915,0,0,1-3.154-.85A5.644,5.644,0,0,1,14.7-3.081a8.338,8.338,0,0,1-.771-3.628v-.7a8.538,8.538,0,0,1,.757-3.7,5.635,5.635,0,0,1,2.139-2.451,5.883,5.883,0,0,1,3.159-.854,5.883,5.883,0,0,1,3.159.854,5.635,5.635,0,0,1,2.139,2.451,8.514,8.514,0,0,1,.757,3.687Zm-2.969-.645a5.984,5.984,0,0,0-.8-3.4,2.61,2.61,0,0,0-2.285-1.162,2.611,2.611,0,0,0-2.275,1.147,5.915,5.915,0,0,0-.811,3.364v.693a6.058,6.058,0,0,0,.8,3.379,2.6,2.6,0,0,0,2.3,1.2,2.579,2.579,0,0,0,2.266-1.157,6.023,6.023,0,0,0,.8-3.374ZM33.428-5.205H31.094V0h-2.93V-14.219h5.283A5.972,5.972,0,0,1,37.334-13.1,3.876,3.876,0,0,1,38.7-9.922a4.374,4.374,0,0,1-.63,2.427,4.3,4.3,0,0,1-1.909,1.548L39.238-.137V0H36.094ZM31.094-7.578h2.363a2.42,2.42,0,0,0,1.709-.562,2.007,2.007,0,0,0,.605-1.548A2.148,2.148,0,0,0,35.2-11.27a2.374,2.374,0,0,0-1.753-.576H31.094ZM43.857-5.01V0h-2.93V-14.219h5.547a6.417,6.417,0,0,1,2.817.586,4.318,4.318,0,0,1,1.87,1.665,4.643,4.643,0,0,1,.654,2.456,4.083,4.083,0,0,1-1.431,3.3,5.959,5.959,0,0,1-3.96,1.206Zm0-2.373h2.617a2.573,2.573,0,0,0,1.772-.547,1.989,1.989,0,0,0,.61-1.562,2.345,2.345,0,0,0-.615-1.689,2.3,2.3,0,0,0-1.7-.664H43.857Zm21.65.6a8.584,8.584,0,0,1-.742,3.682A5.589,5.589,0,0,1,62.642-.664,5.875,5.875,0,0,1,59.473.2a5.915,5.915,0,0,1-3.154-.85A5.644,5.644,0,0,1,54.17-3.081,8.338,8.338,0,0,1,53.4-6.709v-.7a8.538,8.538,0,0,1,.757-3.7,5.635,5.635,0,0,1,2.139-2.451,5.883,5.883,0,0,1,3.159-.854,5.883,5.883,0,0,1,3.159.854,5.635,5.635,0,0,1,2.139,2.451,8.514,8.514,0,0,1,.757,3.687Zm-2.969-.645a5.984,5.984,0,0,0-.8-3.4,2.61,2.61,0,0,0-2.285-1.162,2.611,2.611,0,0,0-2.275,1.147,5.915,5.915,0,0,0-.811,3.364v.693a6.058,6.058,0,0,0,.8,3.379,2.6,2.6,0,0,0,2.3,1.2,2.579,2.579,0,0,0,2.266-1.157,6.023,6.023,0,0,0,.8-3.374ZM70.752,0h-2.93V-14.219h2.93ZM84.629-4.736a5.031,5.031,0,0,1-1.694,3.613A5.951,5.951,0,0,1,78.906.2a5.351,5.351,0,0,1-4.3-1.841A7.548,7.548,0,0,1,73.037-6.7v-.869a8.523,8.523,0,0,1,.723-3.613,5.416,5.416,0,0,1,2.065-2.4,5.786,5.786,0,0,1,3.12-.835A5.8,5.8,0,0,1,82.91-13.1a5.407,5.407,0,0,1,1.738,3.7h-2.93a2.97,2.97,0,0,0-.767-2,2.839,2.839,0,0,0-2.007-.62,2.489,2.489,0,0,0-2.192,1.05,5.883,5.883,0,0,0-.747,3.257v1.074a6.3,6.3,0,0,0,.7,3.369,2.443,2.443,0,0,0,2.2,1.064,2.892,2.892,0,0,0,2.026-.62A2.8,2.8,0,0,0,81.7-4.736ZM94.58-2.93H89.443L88.467,0H85.352l5.293-14.219h2.715L98.682,0H95.566ZM90.234-5.3h3.555L92-10.625Z" transform="translate(840 1790)" fill="#fff"/>
    <path id="Trazado_146815" data-name="Trazado 146815" d="M-3940-10223v71.441" transform="translate(4568 11700)" fill="none" stroke="#3c6d9d" stroke-width="2"/>
    <path id="Trazado_146816" data-name="Trazado 146816" d="M-3940-10223v71.441" transform="translate(4643 11700)" fill="none" stroke="#3c6d9d" stroke-width="2"/>
    <path id="Trazado_146817" data-name="Trazado 146817" d="M-3940-10223v177" transform="translate(4613 11700)" fill="none" stroke="#3c6d9d" stroke-width="2" stroke-dasharray="6"/>
    <path id="Trazado_146818" data-name="Trazado 146818" d="M-3940-10223v71.441" transform="translate(4738 11700)" fill="none" stroke="#3c6d9d" stroke-width="2"/>
    <path id="Trazado_146819" data-name="Trazado 146819" d="M-3940-10223v68" transform="translate(4738 11809)" fill="none" stroke="#3c6d9d" stroke-width="2"/>
    <path id="Trazado_146820" data-name="Trazado 146820" d="M-3940-10223v287" transform="translate(4794 11700)" fill="none" stroke="#3c6d9d" stroke-width="2" stroke-dasharray="6"/>
    <path id="Trazado_146821" data-name="Trazado 146821" d="M-3940-10223v177" transform="translate(4928 11700)" fill="none" stroke="#3c6d9d" stroke-width="2" stroke-dasharray="6"/>
    <path id="Trazado_146822" data-name="Trazado 146822" d="M-3940-10223v71.441" transform="translate(5026 11700)" fill="none" stroke="#3c6d9d" stroke-width="2" stroke-dasharray="6"/>
  </g>
</svg>
