<svg xmlns="http://www.w3.org/2000/svg" width="330" height="237" viewBox="0 0 330 237">
  <g id="Grupo_144172" data-name="Grupo 144172" transform="translate(-635 -2399)">
    <rect id="Rectángulo_42400" data-name="Rectángulo 42400" width="330" height="237" transform="translate(635 2399)" fill="#f5db9a"/>
    <text id="Conseguir_el_mejor_costo" data-name="Conseguir el mejor 
costo" transform="translate(693 2563)" fill="#12263f" font-size="20" font-family="Roboto-Bold, Roboto" font-weight="700"><tspan x="0" y="21">Conseguir el mejor </tspan><tspan x="0" y="46">costo</tspan></text>
    <g id="presupuesto" transform="translate(692.451 2429.537)">
      <path id="Trazado_146903" data-name="Trazado 146903" d="M168.79,26.2V89.474c0,.126,0,.253-.008.379a8.17,8.17,0,0,1-8.161,7.789H114.693a8.169,8.169,0,0,1-8.17-8.168V16.214a8.157,8.157,0,0,1,8.17-8.17h36.482a8.143,8.143,0,0,1,3.548.813c2.207,1.062,2.829,2.4,6.795,6.46,4.563,4.955,5.652,5.462,6.582,7.607A8.08,8.08,0,0,1,168.79,26.2Z" transform="translate(-83.779 -6.359)" fill="#ffc477"/>
      <path id="Trazado_146904" data-name="Trazado 146904" d="M192.635,26.2V89.473c0,.126,0,.253-.008.379a8.2,8.2,0,0,1-1.844.208H144.855a8.169,8.169,0,0,1-8.17-8.168V8.633c0-.128,0-.255.008-.381a8.207,8.207,0,0,1,1.844-.208H175.02a8.182,8.182,0,0,1,5.97,2.594l4.373,4.679,5.007,5.239a8.221,8.221,0,0,1,2.266,5.643Z" transform="translate(-107.624 -6.359)" fill="#ffdaaa"/>
      <path id="Trazado_146905" data-name="Trazado 146905" d="M303.5,186.441v45.932a11.546,11.546,0,0,1-11.545,11.545h-30a11.546,11.546,0,0,1-11.545-11.545V186.441A11.54,11.54,0,0,1,261.959,174.9h30A11.544,11.544,0,0,1,303.5,186.441Z" transform="translate(-197.535 -138.267)" fill="#4cba68"/>
      <path id="Trazado_146906" data-name="Trazado 146906" d="M321.523,186.441v45.932a11.484,11.484,0,0,1-2.236,6.828,11.5,11.5,0,0,1-4.535.927h-30a11.546,11.546,0,0,1-11.545-11.545V182.651a11.484,11.484,0,0,1,2.236-6.828,11.5,11.5,0,0,1,4.535-.927h30A11.544,11.544,0,0,1,321.523,186.441Z" transform="translate(-215.553 -138.267)" fill="#7ccc92"/>
      <path id="Trazado_146907" data-name="Trazado 146907" d="M364.887,367.7v5.395a1.726,1.726,0,0,1-1.724,1.727h-5.4a1.726,1.726,0,0,1-1.727-1.727V367.7a1.726,1.726,0,0,1,1.727-1.727h5.4A1.726,1.726,0,0,1,364.887,367.7Z" transform="translate(-281.038 -289.323)" fill="#2c733f"/>
      <path id="Trazado_146908" data-name="Trazado 146908" d="M325.52,210.8v5.78A3.723,3.723,0,0,1,321.8,220.3H292.02a3.724,3.724,0,0,1-3.723-3.723V210.8a3.724,3.724,0,0,1,3.723-3.723H321.8A3.723,3.723,0,0,1,325.52,210.8Z" transform="translate(-227.484 -163.709)" fill="#1e81ce"/>
      <path id="Trazado_146909" data-name="Trazado 146909" d="M349.364,210.8v5.78a3.723,3.723,0,0,1-3.723,3.723H322.181a3.724,3.724,0,0,1-3.723-3.723V210.8a3.724,3.724,0,0,1,3.723-3.723h23.461A3.723,3.723,0,0,1,349.364,210.8Z" transform="translate(-251.328 -163.709)" fill="#3d9ae2"/>
      <g id="Grupo_143359" data-name="Grupo 143359" transform="translate(60.813 62.539)">
        <path id="Trazado_146910" data-name="Trazado 146910" d="M297.147,367.7v5.395a1.726,1.726,0,0,1-1.727,1.727h-5.4a1.728,1.728,0,0,1-1.727-1.727V367.7a1.728,1.728,0,0,1,1.727-1.727h5.4A1.726,1.726,0,0,1,297.147,367.7Z" transform="translate(-288.297 -351.861)" fill="#2c733f"/>
        <path id="Trazado_146911" data-name="Trazado 146911" d="M364.887,300.335v5.395a1.726,1.726,0,0,1-1.724,1.727h-5.4a1.726,1.726,0,0,1-1.727-1.727v-5.395a1.726,1.726,0,0,1,1.727-1.727h5.4A1.726,1.726,0,0,1,364.887,300.335Z" transform="translate(-341.852 -298.608)" fill="#2c733f"/>
      </g>
      <path id="Trazado_146912" data-name="Trazado 146912" d="M433.444,300.335v5.395a1.726,1.726,0,0,1-1.727,1.727h-5.395a1.726,1.726,0,0,1-1.727-1.727v-5.395a1.726,1.726,0,0,1,1.727-1.727h5.395A1.726,1.726,0,0,1,433.444,300.335Z" transform="translate(-335.237 -236.069)" fill="#ee8700"/>
      <g id="Grupo_143360" data-name="Grupo 143360" transform="translate(60.813 62.539)">
        <path id="Trazado_146913" data-name="Trazado 146913" d="M297.147,300.335v5.395a1.726,1.726,0,0,1-1.727,1.727h-5.4a1.728,1.728,0,0,1-1.727-1.727v-5.395a1.728,1.728,0,0,1,1.727-1.727h5.4A1.726,1.726,0,0,1,297.147,300.335Z" transform="translate(-288.297 -298.608)" fill="#2c733f"/>
        <path id="Trazado_146914" data-name="Trazado 146914" d="M364.887,431.755v5.4a1.726,1.726,0,0,1-1.724,1.727h-5.4a1.726,1.726,0,0,1-1.727-1.727v-5.4a1.726,1.726,0,0,1,1.727-1.724h5.4A1.725,1.725,0,0,1,364.887,431.755Z" transform="translate(-341.852 -402.507)" fill="#2c733f"/>
        <path id="Trazado_146915" data-name="Trazado 146915" d="M297.147,431.755v5.4a1.726,1.726,0,0,1-1.727,1.727h-5.4a1.728,1.728,0,0,1-1.727-1.727v-5.4a1.727,1.727,0,0,1,1.727-1.724h5.4A1.726,1.726,0,0,1,297.147,431.755Z" transform="translate(-288.297 -402.507)" fill="#2c733f"/>
      </g>
      <path id="Trazado_146916" data-name="Trazado 146916" d="M433.444,368.533v16.754a2.944,2.944,0,0,1-2.944,2.946H427.54a2.944,2.944,0,0,1-2.944-2.946V368.533a2.565,2.565,0,0,1,2.565-2.565h3.719A2.564,2.564,0,0,1,433.444,368.533Z" transform="translate(-335.237 -289.322)" fill="#ee8700"/>
      <g id="Grupo_143361" data-name="Grupo 143361" transform="translate(60.813 62.539)">
        <path id="Trazado_146917" data-name="Trazado 146917" d="M364.887,367.7v1.6a1.726,1.726,0,0,1-1.724,1.727h-5.4a1.726,1.726,0,0,1-1.727-1.727v-1.6a1.726,1.726,0,0,1,1.727-1.727h5.4A1.726,1.726,0,0,1,364.887,367.7Z" transform="translate(-341.852 -351.861)" fill="#317f46"/>
        <path id="Trazado_146918" data-name="Trazado 146918" d="M297.147,367.7v1.6a1.726,1.726,0,0,1-1.727,1.727h-5.4A1.728,1.728,0,0,1,288.3,369.3v-1.6a1.728,1.728,0,0,1,1.727-1.727h5.4A1.726,1.726,0,0,1,297.147,367.7Z" transform="translate(-288.297 -351.861)" fill="#317f46"/>
        <path id="Trazado_146919" data-name="Trazado 146919" d="M364.887,300.335v1.6a1.726,1.726,0,0,1-1.724,1.727h-5.4a1.726,1.726,0,0,1-1.727-1.727v-1.6a1.726,1.726,0,0,1,1.727-1.727h5.4A1.726,1.726,0,0,1,364.887,300.335Z" transform="translate(-341.852 -298.608)" fill="#317f46"/>
      </g>
      <path id="Trazado_146920" data-name="Trazado 146920" d="M433.444,300.335v1.6a1.726,1.726,0,0,1-1.727,1.727h-5.395a1.726,1.726,0,0,1-1.727-1.727v-1.6a1.726,1.726,0,0,1,1.727-1.727h5.395A1.726,1.726,0,0,1,433.444,300.335Z" transform="translate(-335.237 -236.069)" fill="#ff9811"/>
      <g id="Grupo_143362" data-name="Grupo 143362" transform="translate(60.813 62.539)">
        <path id="Trazado_146921" data-name="Trazado 146921" d="M297.147,300.335v1.6a1.726,1.726,0,0,1-1.727,1.727h-5.4a1.728,1.728,0,0,1-1.727-1.727v-1.6a1.728,1.728,0,0,1,1.727-1.727h5.4A1.726,1.726,0,0,1,297.147,300.335Z" transform="translate(-288.297 -298.608)" fill="#317f46"/>
        <path id="Trazado_146922" data-name="Trazado 146922" d="M364.887,431.755v1.607a1.726,1.726,0,0,1-1.724,1.727h-5.4a1.726,1.726,0,0,1-1.727-1.727v-1.607a1.726,1.726,0,0,1,1.727-1.724h5.4A1.725,1.725,0,0,1,364.887,431.755Z" transform="translate(-341.852 -402.507)" fill="#317f46"/>
        <path id="Trazado_146923" data-name="Trazado 146923" d="M297.147,431.755v1.607a1.726,1.726,0,0,1-1.727,1.727h-5.4a1.728,1.728,0,0,1-1.727-1.727v-1.607a1.727,1.727,0,0,1,1.727-1.724h5.4A1.726,1.726,0,0,1,297.147,431.755Z" transform="translate(-288.297 -402.507)" fill="#317f46"/>
      </g>
      <path id="Trazado_146924" data-name="Trazado 146924" d="M433.444,368.533V381.5a2.944,2.944,0,0,1-2.944,2.946H427.54A2.944,2.944,0,0,1,424.6,381.5V368.533a2.565,2.565,0,0,1,2.565-2.565h3.719A2.564,2.564,0,0,1,433.444,368.533Z" transform="translate(-335.237 -289.322)" fill="#ff9811"/>
      <path id="Trazado_146925" data-name="Trazado 146925" d="M350.039,25.991H339.8a3.141,3.141,0,0,1-3.141-3.141V11.924a8.159,8.159,0,0,1,2.421,1.78l4.375,4.679,5.007,5.24A8.089,8.089,0,0,1,350.039,25.991Z" transform="translate(-265.719 -9.427)" fill="#ffb655"/>
      <path id="Trazado_146926" data-name="Trazado 146926" d="M101.966,465.652a4.012,4.012,0,0,1-4,4H73.457a4,4,0,0,1,0-8H97.966A4.012,4.012,0,0,1,101.966,465.652Z" transform="translate(-54.475 -364.966)" fill="#aa6100"/>
      <path id="Trazado_146927" data-name="Trazado 146927" d="M101.966,427.447a4.012,4.012,0,0,1-4,4H73.457a4,4,0,0,1,0-8H97.966A4.012,4.012,0,0,1,101.966,427.447Z" transform="translate(-54.475 -334.762)" fill="#cc7400"/>
      <path id="Trazado_146928" data-name="Trazado 146928" d="M101.966,389.243a4.011,4.011,0,0,1-4,4H73.457a4,4,0,0,1,0-8H97.966A4.012,4.012,0,0,1,101.966,389.243Z" transform="translate(-54.475 -304.559)" fill="#ee8700"/>
      <path id="Trazado_146929" data-name="Trazado 146929" d="M101.966,351.037a4.011,4.011,0,0,1-4,4H73.457a4.012,4.012,0,0,1-4-4,4.011,4.011,0,0,1,4-4H97.966A4.013,4.013,0,0,1,101.966,351.037Z" transform="translate(-54.475 -274.355)" fill="#ff9811"/>
      <path id="Trazado_146930" data-name="Trazado 146930" d="M97.965,316.835H73.457a4.012,4.012,0,0,1-4-4h0a4.012,4.012,0,0,1,4-4H97.965a4.012,4.012,0,0,1,4,4h0A4.012,4.012,0,0,1,97.965,316.835Z" transform="translate(-54.475 -244.154)" fill="#ffa733"/>
      <path id="Trazado_146931" data-name="Trazado 146931" d="M39.8,390.1a13.017,13.017,0,0,0-13.566-12.465h-5.1c-11.565.5-16.955,14.906-8.1,22.765a12.99,12.99,0,0,0,9.214,3.28h3.986v0c.364.015.731.018,1.1,0a13.241,13.241,0,0,0,2.421-.331A13.035,13.035,0,0,0,39.8,391.124v-.015C39.814,390.774,39.814,390.437,39.8,390.1Z" transform="translate(-6.383 -298.533)" fill="#cc7400"/>
      <path id="Trazado_146932" data-name="Trazado 146932" d="M81.652,392.4v.015a13.035,13.035,0,0,1-10.046,12.219A13.04,13.04,0,0,1,61.573,392.5c0-.03,0-.057,0-.086V392.4a13.039,13.039,0,0,1,10.044-13.147A13.038,13.038,0,0,1,81.649,391.39C81.664,391.731,81.664,392.068,81.652,392.4Z" transform="translate(-48.233 -299.826)" fill="#ee8700"/>
      <path id="Trazado_146933" data-name="Trazado 146933" d="M94.425,35.05H86.7V19.839a9.879,9.879,0,0,0-2.731-6.807L78.97,7.805C74.731,3.438,74.2,2.2,71.672.979A9.877,9.877,0,0,0,67.4,0H30.914a9.866,9.866,0,0,0-9.854,9.854V63H18.981a5.682,5.682,0,0,0-4.034,9.686,5.664,5.664,0,0,0-1.651,4,5.832,5.832,0,0,0,.112,1.124C1.071,79.061-3.844,94.331,5.185,102.619a14.235,14.235,0,0,0,10.271,3.763l28.034-.01a5.682,5.682,0,0,0,4.034-9.686,5.655,5.655,0,0,0,1.642-3.719H51.3v1.139A13.139,13.139,0,0,0,64.424,107.23h30a13.139,13.139,0,0,0,13.124-13.124V48.174A13.139,13.139,0,0,0,94.425,35.05ZM72.628,5.957c6.616,6.993,8.107,8.57,8.387,8.867,0,0,0,0,0,0h0a.046.046,0,0,0,.008.01l0,0a.036.036,0,0,0,.013.013.029.029,0,0,1,.006.008s0,0,0,0,0,0,.006.006.006.006.008.008H72.627V5.957ZM18.981,66.365H43.49a2.316,2.316,0,1,1,0,4.632H18.981a2.316,2.316,0,1,1,0-4.632Zm0,8H43.49a2.316,2.316,0,1,1,0,4.632H26.561a13.72,13.72,0,0,0-2.133-.771,14.2,14.2,0,0,0-3.369-.495c-.33-.008-.661-.006-.992.008H16.924a2.277,2.277,0,0,1-.259-1.059A2.32,2.32,0,0,1,18.981,74.366ZM45.806,84.683A2.319,2.319,0,0,1,43.49,87H34.064A14.17,14.17,0,0,0,31.2,82.367H43.49A2.32,2.32,0,0,1,45.806,84.683ZM10.786,81.66a14.535,14.535,0,0,0-2.653,3.4H6.171A11.125,11.125,0,0,1,10.786,81.66ZM4.379,88.221H6.832a14.543,14.543,0,0,0-.459,2.525H3.781A11.069,11.069,0,0,1,4.379,88.221ZM4.65,96.57A11.05,11.05,0,0,1,3.859,93.9H6.432a12.711,12.711,0,0,0,.6,2.666Zm2.1,3.158c1.034,0,1.634,0,1.775,0a14.224,14.224,0,0,0,2.266,2.741A11.128,11.128,0,0,1,6.752,99.728Zm14.373,3.5A11.174,11.174,0,1,1,28.2,83.831,11.165,11.165,0,0,1,21.125,103.225ZM43.49,103h-13.6a14.43,14.43,0,0,0,3.619-4.632H43.49a2.316,2.316,0,1,1,0,4.632Zm2.3-10.035A2.317,2.317,0,0,1,43.49,95H34.676a14.472,14.472,0,0,0,.2-4.632h8.61A2.318,2.318,0,0,1,45.788,92.967ZM51.3,89.6H48.259a5.589,5.589,0,0,0-.735-.914,5.672,5.672,0,0,0,0-8,5.673,5.673,0,0,0,0-8A5.69,5.69,0,0,0,43.49,63H24.428V9.854a6.494,6.494,0,0,1,6.485-6.485H69.259v13.2a1.684,1.684,0,0,0,1.684,1.684H83.126c.352,1.364.135.914.2,16.8h-18.9A13.139,13.139,0,0,0,51.3,48.174V89.6Zm53.091,4.508a9.977,9.977,0,0,1-9.966,9.966h-30a9.978,9.978,0,0,1-9.966-9.966V48.174a9.978,9.978,0,0,1,9.966-9.966h30a9.977,9.977,0,0,1,9.966,9.966V94.106Z"/>
      <path id="Trazado_146934" data-name="Trazado 146934" d="M291.788,212.763h-5.729a2.15,2.15,0,0,1-2.144-2.144v-5.78a2.15,2.15,0,0,1,2.144-2.144h29.778a2.146,2.146,0,0,1,2.144,2.144v5.78a2.146,2.146,0,0,1-2.144,2.144H298.6a1.579,1.579,0,0,0,0,3.158h17.238a5.308,5.308,0,0,0,5.3-5.3v-5.78a5.308,5.308,0,0,0-5.3-5.3H286.059a5.3,5.3,0,0,0-5.3,5.3v5.78a5.3,5.3,0,0,0,5.3,5.3h5.729a1.579,1.579,0,0,0,0-3.158Z" transform="translate(-221.523 -157.748)"/>
      <path id="Trazado_146935" data-name="Trazado 146935" d="M284.063,370.435h5.4a3.309,3.309,0,0,0,3.306-3.306v-5.395a3.309,3.309,0,0,0-3.306-3.306h-5.4a3.31,3.31,0,0,0-3.306,3.306v5.395A3.31,3.31,0,0,0,284.063,370.435Zm-.147-8.7a.148.148,0,0,1,.147-.147h5.4a.148.148,0,0,1,.147.147v5.395a.148.148,0,0,1-.147.147h-5.4a.148.148,0,0,1-.147-.147Z" transform="translate(-221.523 -283.362)"/>
      <path id="Trazado_146936" data-name="Trazado 146936" d="M425.756,291.068h-5.395a3.309,3.309,0,0,0-3.306,3.306v5.395a3.309,3.309,0,0,0,3.306,3.306h5.395a3.309,3.309,0,0,0,3.306-3.306v-5.395A3.309,3.309,0,0,0,425.756,291.068Zm.147,8.7a.147.147,0,0,1-.147.147h-5.395a.148.148,0,0,1-.147-.147c.065-5.338-.137-5.542.147-5.542h5.395a.147.147,0,0,1,.147.147Z" transform="translate(-329.276 -230.108)"/>
      <path id="Trazado_146937" data-name="Trazado 146937" d="M284.063,303.074h5.4a3.309,3.309,0,0,0,3.306-3.306v-5.395a3.309,3.309,0,0,0-3.306-3.306h-5.4a3.31,3.31,0,0,0-3.306,3.306v5.395A3.31,3.31,0,0,0,284.063,303.074Zm-.147-8.7a.148.148,0,0,1,.147-.147h5.4a.148.148,0,0,1,.147.147v5.395a.148.148,0,0,1-.147.147h-5.4a.148.148,0,0,1-.147-.147Z" transform="translate(-221.523 -230.109)"/>
      <path id="Trazado_146938" data-name="Trazado 146938" d="M291.912,423.6a3.3,3.3,0,0,0-2.474-1.114h-5.4a3.3,3.3,0,0,0-2.472,1.114c-1.147,1.287-.758,2.689-.834,3.369v4.218a3.31,3.31,0,0,0,3.306,3.306h5.4a3.309,3.309,0,0,0,3.306-3.306v-4.218C292.668,426.309,293.053,424.891,291.912,423.6Zm-2.474,7.734c-5.331-.065-5.544.137-5.544-.147,0-5.713-.063-5.542.147-5.542h5.4c.259,0,.1.36.147,1.324C289.585,426.974,289.722,431.339,289.438,431.339Z" transform="translate(-221.502 -334.007)"/>
      <path id="Trazado_146939" data-name="Trazado 146939" d="M424.917,358.428H421.2a4.149,4.149,0,0,0-4.144,4.144v16.754a4.53,4.53,0,0,0,4.523,4.525h2.961a4.528,4.528,0,0,0,4.523-4.525V362.572A4.148,4.148,0,0,0,424.917,358.428Zm.986,20.9a1.366,1.366,0,0,1-1.365,1.367h-2.961a1.367,1.367,0,0,1-1.364-1.367V362.572a.987.987,0,0,1,.985-.985h3.719a.987.987,0,0,1,.985.985v16.754Z" transform="translate(-329.275 -283.361)"/>
      <path id="Trazado_146940" data-name="Trazado 146940" d="M169.4,178.124h0c-1.926-.707-3.317-1.218-3.317-3,0-1.626,1.08-2.45,3.209-2.45,2.26,0,2.869,1,3.665,1a1.517,1.517,0,0,0,1.346-1.556c0-1.316-2.146-1.968-4.064-2.14v-1.186a1.5,1.5,0,1,0-2.993,0v1.375a4.894,4.894,0,0,0-4.064,5.119c0,3.676,2.706,4.692,4.881,5.51,2.129.8,3.811,1.432,3.811,3.863,0,2.008-1.115,3.026-3.314,3.026-3.219,0-3.249-2.173-4.476-2.173a1.579,1.579,0,0,0-1.373,1.556c0,1.244,1.853,2.88,4.536,3.3v1.146a1.5,1.5,0,0,0,2.993,0v-1.177c2.886-.543,4.536-2.662,4.536-5.84C174.771,180.1,171.791,179,169.4,178.124Z" transform="translate(-128.197 -132.252)"/>
      <path id="Trazado_146941" data-name="Trazado 146941" d="M357.182,422.491h-5.4a3.3,3.3,0,0,0-2.474,1.114c-1.143,1.289-.756,2.689-.832,3.369v4.218a3.309,3.309,0,0,0,3.306,3.306h5.4a3.308,3.308,0,0,0,3.3-3.306v-5.4a3.309,3.309,0,0,0-3.3-3.3Zm0,8.848c-5.331-.065-5.544.137-5.544-.147v-5.4a.148.148,0,0,1,.147-.145h5.4a.146.146,0,0,1,.145.145C357.264,431.139,357.462,431.339,357.182,431.339Z" transform="translate(-275.058 -334.007)"/>
      <path id="Trazado_146942" data-name="Trazado 146942" d="M357.2,291.068h-5.4a3.309,3.309,0,0,0-3.306,3.306v5.395a3.309,3.309,0,0,0,3.306,3.306h5.4a3.256,3.256,0,0,0,1.2-.227,3.31,3.31,0,0,0,2.1-3.078v-5.395A3.31,3.31,0,0,0,357.2,291.068Zm.145,8.7a.146.146,0,0,1-.145.147h-5.4a.148.148,0,0,1-.147-.147v-5.395c0-.284.2-.084,5.544-.147a.146.146,0,0,1,.145.147v5.395Z" transform="translate(-275.077 -230.108)"/>
      <path id="Trazado_146943" data-name="Trazado 146943" d="M358.4,358.655a3.256,3.256,0,0,0-1.2-.227h-5.4a3.309,3.309,0,0,0-3.306,3.306v5.395a3.309,3.309,0,0,0,3.306,3.306h5.4a3.308,3.308,0,0,0,3.3-3.306v-5.395A3.309,3.309,0,0,0,358.4,358.655Zm-1.057,8.473a.146.146,0,0,1-.145.147h-5.4a.148.148,0,0,1-.147-.147v-5.395a.148.148,0,0,1,.147-.147h5.4a.146.146,0,0,1,.145.147Z" transform="translate(-275.077 -283.361)"/>
      <path id="Trazado_146944" data-name="Trazado 146944" d="M321.626,106.2h3.967a1.579,1.579,0,1,0,0-3.158h-3.967a1.579,1.579,0,1,0,0,3.158Z" transform="translate(-252.584 -81.462)"/>
      <path id="Trazado_146945" data-name="Trazado 146945" d="M157.749,106.2h28a1.579,1.579,0,1,0,0-3.158h-28a1.579,1.579,0,1,0,0,3.158Z" transform="translate(-123.029 -81.462)"/>
      <path id="Trazado_146946" data-name="Trazado 146946" d="M162.769,143.63a1.579,1.579,0,0,0,0-3.158h-5.02a1.579,1.579,0,1,0,0,3.158Z" transform="translate(-123.029 -111.052)"/>
      <path id="Trazado_146947" data-name="Trazado 146947" d="M240.409,142.051a1.58,1.58,0,0,0-1.579-1.579H211.878a1.579,1.579,0,0,0,0,3.158H238.83A1.58,1.58,0,0,0,240.409,142.051Z" transform="translate(-165.821 -111.052)"/>
      <path id="Trazado_146948" data-name="Trazado 146948" d="M80.8,403.748c0-.4.146-.511.283-.587a2.714,2.714,0,0,1,2.289.155,1.805,1.805,0,0,0,.855.26c1.558,0,2.789-2.894-.931-3.534v-.1a1.6,1.6,0,1,0-3.2,0v.3a3.591,3.591,0,0,0-2.441,3.6c0,2.693,1.957,3.429,3.386,3.965,1.363.512,1.834.736,1.834,1.663,0,.58-.156,1.116-1.289,1.116-1.651,0-1.453-1.3-2.689-1.3a1.65,1.65,0,0,0-1.526,1.636c0,1.094,1.138,2.132,2.724,2.553v.12a1.6,1.6,0,1,0,3.2,0v-.162a3.956,3.956,0,0,0,2.724-4.053C86.018,404.578,80.8,405.3,80.8,403.748Z" transform="translate(-60.731 -314.916)"/>
    </g>
  </g>
</svg>
