<svg xmlns="http://www.w3.org/2000/svg" width="330" height="237" viewBox="0 0 330 237">
  <g id="Grupo_144173" data-name="Grupo 144173" transform="translate(-971 -2399)">
    <rect id="Rect치ngulo_42401" data-name="Rect치ngulo 42401" width="330" height="237" transform="translate(971 2399)" fill="#bada95"/>
    <text id="Trazabilidad_del_proceso" data-name="Trazabilidad del proceso" transform="translate(1029 2563)" fill="#12263f" font-size="20" font-family="Roboto-Bold, Roboto" font-weight="700"><tspan x="0" y="21">Trazabilidad del proceso</tspan></text>
    <g id="trazabilidad" transform="translate(1023 2429.537)">
      <path id="Trazado_146949" data-name="Trazado 146949" d="M64.636,64.636a3.948,3.948,0,0,1-5.583,0L48.58,54.163l2.346-3.238,3.238-2.346L64.636,59.053a3.964,3.964,0,0,1,0,5.583Z" transform="translate(31.665 31.665)" fill="#7e94a0"/>
      <path id="Trazado_146950" data-name="Trazado 146950" d="M0,0H7.9V6.891H0Z" transform="translate(75.355 80.955) rotate(-45)" fill="#a3bdce"/>
      <path id="Trazado_146951" data-name="Trazado 146951" d="M70.376,93.5a3.314,3.314,0,0,1-3.3,3.3H4.3A3.314,3.314,0,0,1,1,93.5V4.3A3.314,3.314,0,0,1,4.3,1H58.136a1.625,1.625,0,0,1,1.156.479l10.6,10.6a1.625,1.625,0,0,1,.479,1.156Z" transform="translate(0.652 0.652)" fill="#e5e5e5"/>
      <rect id="Rect치ngulo_42402" data-name="Rect치ngulo 42402" width="33.036" height="6.607" rx="2" transform="translate(19.822 13.215)" fill="#f5db9a"/>
      <path id="Trazado_146952" data-name="Trazado 146952" d="M47.414,12.5H39.3A3.314,3.314,0,0,1,36,9.2V1.09a1.781,1.781,0,0,1,.479.33l10.6,10.6a1.781,1.781,0,0,1,.33.479Z" transform="translate(23.465 0.71)" fill="#a3bdce"/>
      <circle id="Elipse_4892" data-name="Elipse 4892" cx="31.385" cy="31.385" r="31.385" transform="translate(24.777 24.777)" fill="#c4ddf0"/>
      <circle id="Elipse_4893" data-name="Elipse 4893" cx="24.777" cy="24.777" r="24.777" transform="translate(31.385 31.385)" fill="#f5db9a"/>
      <g id="Grupo_143363" data-name="Grupo 143363" transform="translate(0 0)">
        <path id="Trazado_146953" data-name="Trazado 146953" d="M42.385,16.911a4.955,4.955,0,1,0,0-9.911H15.955a4.955,4.955,0,0,0,0,9.911ZM14.3,11.955A1.652,1.652,0,0,1,15.955,10.3H42.385a1.652,1.652,0,1,1,0,3.3H15.955A1.652,1.652,0,0,1,14.3,11.955Z" transform="translate(7.17 4.563)" fill="#373737"/>
        <path id="Trazado_146954" data-name="Trazado 146954" d="M83.118,75.2A32.917,32.917,0,0,0,72.68,27.6v-13.7a3.266,3.266,0,0,0-.963-2.329L61.117.963A3.266,3.266,0,0,0,58.788,0H4.955A4.955,4.955,0,0,0,0,4.955v89.2a4.955,4.955,0,0,0,4.955,4.955H67.725a4.955,4.955,0,0,0,4.955-4.955v-3.3a1.652,1.652,0,1,0-3.3,0v3.3a1.652,1.652,0,0,1-1.652,1.652H4.955A1.652,1.652,0,0,1,3.3,94.154V4.955A1.652,1.652,0,0,1,4.955,3.3H57.814V9.911a4.955,4.955,0,0,0,4.955,4.955h6.607V25.9A33.036,33.036,0,1,0,75.2,83.116L89.54,97.457a5.6,5.6,0,0,0,7.929.013,5.667,5.667,0,0,0,0-7.919Zm-22-65.286V5.638l5.928,5.925H62.769A1.652,1.652,0,0,1,61.117,9.911ZM26.429,56.162A29.733,29.733,0,1,1,56.162,85.895,29.733,29.733,0,0,1,26.429,56.162ZM81.058,77.8l2.436,2.436-3.249,3.256-2.435-2.435a33.131,33.131,0,0,0,3.247-3.249ZM95.127,95.145a2.372,2.372,0,0,1-3.238-.012l-9.3-9.3,3.247-3.247,9.306,9.3a2.332,2.332,0,0,1-.018,3.259Z" transform="translate(0 0)" fill="#373737"/>
        <path id="Trazado_146955" data-name="Trazado 146955" d="M6,18.652A1.652,1.652,0,0,0,7.652,20.3h18.17a1.652,1.652,0,0,0,0-3.3H7.652A1.652,1.652,0,0,0,6,18.652Z" transform="translate(3.911 11.081)" fill="#373737"/>
        <path id="Trazado_146956" data-name="Trazado 146956" d="M7.652,25.3H19.215a1.652,1.652,0,0,0,0-3.3H7.652a1.652,1.652,0,0,0,0,3.3Z" transform="translate(3.911 14.34)" fill="#373737"/>
        <path id="Trazado_146957" data-name="Trazado 146957" d="M7.652,30.3h8.259a1.652,1.652,0,0,0,0-3.3H7.652a1.652,1.652,0,0,0,0,3.3Z" transform="translate(3.911 17.599)" fill="#373737"/>
        <path id="Trazado_146958" data-name="Trazado 146958" d="M7.652,35.3h6.607a1.652,1.652,0,1,0,0-3.3H7.652a1.652,1.652,0,0,0,0,3.3Z" transform="translate(3.911 20.858)" fill="#373737"/>
        <path id="Trazado_146959" data-name="Trazado 146959" d="M7.652,40.3h6.607a1.652,1.652,0,0,0,0-3.3H7.652a1.652,1.652,0,0,0,0,3.3Z" transform="translate(3.911 24.117)" fill="#373737"/>
        <path id="Trazado_146960" data-name="Trazado 146960" d="M7.652,45.3h8.259a1.652,1.652,0,1,0,0-3.3H7.652a1.652,1.652,0,1,0,0,3.3Z" transform="translate(3.911 27.376)" fill="#373737"/>
        <path id="Trazado_146961" data-name="Trazado 146961" d="M7.652,50.3H20.866a1.652,1.652,0,1,0,0-3.3H7.652a1.652,1.652,0,1,0,0,3.3Z" transform="translate(3.911 30.635)" fill="#373737"/>
        <path id="Trazado_146962" data-name="Trazado 146962" d="M7.652,55.3H29.125a1.652,1.652,0,1,0,0-3.3H7.652a1.652,1.652,0,1,0,0,3.3Z" transform="translate(3.911 33.895)" fill="#373737"/>
        <path id="Trazado_146963" data-name="Trazado 146963" d="M50.679,18.754a1.652,1.652,0,1,0-.785,3.209,23.149,23.149,0,1,1-5.507-.661,1.652,1.652,0,1,0,0-3.3,26.4,26.4,0,1,0,6.292.753Z" transform="translate(11.745 11.732)" fill="#373737"/>
        <path id="Trazado_146964" data-name="Trazado 146964" d="M30.82,39.395a1.652,1.652,0,1,0-2.336,2.336l3.3,3.3a1.652,1.652,0,0,0,2.336,0L47.338,31.82A1.652,1.652,0,1,0,45,29.484L32.955,41.531Z" transform="translate(18.251 18.903)" fill="#373737"/>
      </g>
    </g>
  </g>
</svg>
