<svg xmlns="http://www.w3.org/2000/svg" width="330" height="237" viewBox="0 0 330 237">
  <g id="Grupo_144177" data-name="Grupo 144177" transform="translate(-299 -2884)">
    <rect id="Rectángulo_42406" data-name="Rectángulo 42406" width="330" height="237" transform="translate(299 2884)" fill="#bada95"/>
    <text id="Calidad_de_vida_humana" data-name="Calidad de vida humana" transform="translate(357 3048)" fill="#12263f" font-size="20" font-family="Roboto-Bold, Roboto" font-weight="700"><tspan x="0" y="21">Calidad de vida humana</tspan></text>
    <g id="Layer_1" transform="translate(317.75 2912.64)">
      <g id="Grupo_143386" data-name="Grupo 143386" transform="translate(40.387 4.541)">
        <path id="Trazado_147046" data-name="Trazado 147046" d="M116.839,39.092V35.439H84.4v3.653a6.414,6.414,0,1,0,0,12.82v.466a16.2,16.2,0,0,0,6.59,13.056h0v5.19a9.628,9.628,0,1,0,19.256,0V65.432h0a16.192,16.192,0,0,0,6.59-13.052v-.466a6.414,6.414,0,1,0,0-12.82Z" transform="translate(-61.387 -22.004)" fill="#feb69f"/>
        <g id="Grupo_143370" data-name="Grupo 143370" transform="translate(0 48.622)">
          <path id="Trazado_147047" data-name="Trazado 147047" d="M110.474,117.58l-19.861-4.785a9.63,9.63,0,0,1-19.259,0L51.492,117.58a12.724,12.724,0,0,0-9.742,12.37v46.3h78.466v-46.3a12.724,12.724,0,0,0-9.742-12.37Z" transform="translate(-41.75 -112.795)" fill="#fcef91"/>
        </g>
        <g id="Grupo_143371" data-name="Grupo 143371" transform="translate(64.54 81.327)">
          <path id="Trazado_147048" data-name="Trazado 147048" d="M183.635,184.695h13.926v30.753H183.635Z" transform="translate(-183.635 -184.695)" fill="#feb69f"/>
        </g>
        <g id="Grupo_143376" data-name="Grupo 143376" transform="translate(23.014 0)">
          <g id="Grupo_143372" data-name="Grupo 143372">
            <path id="Trazado_147049" data-name="Trazado 147049" d="M100.445,5.9H99.167a6.823,6.823,0,0,0-6.823,6.823v6.612h12.821V10.623A4.719,4.719,0,0,0,100.445,5.9Z" transform="translate(-92.344 -5.904)" fill="#878787"/>
          </g>
          <g id="Grupo_143373" data-name="Grupo 143373" transform="translate(12.821)">
            <path id="Trazado_147050" data-name="Trazado 147050" d="M133.323,5.9h-8.074a4.719,4.719,0,0,0-4.719,4.719v8.715h19.617V12.727A6.823,6.823,0,0,0,133.323,5.9Z" transform="translate(-120.529 -5.904)" fill="#878787"/>
          </g>
          <g id="Grupo_143374" data-name="Grupo 143374" transform="translate(0 13.434)">
            <path id="Trazado_147051" data-name="Trazado 147051" d="M92.345,47.4V35.438h4.681v7.279A4.681,4.681,0,0,1,92.345,47.4Z" transform="translate(-92.345 -35.438)" fill="#878787"/>
          </g>
          <g id="Grupo_143375" data-name="Grupo 143375" transform="translate(27.757 13.435)">
            <path id="Trazado_147052" data-name="Trazado 147052" d="M158.046,47.4a4.681,4.681,0,0,1-4.681-4.681V35.439h4.681Z" transform="translate(-153.365 -35.439)" fill="#878787"/>
          </g>
        </g>
        <g id="Grupo_143377" data-name="Grupo 143377" transform="translate(29.605 43.426)">
          <path id="Trazado_147053" data-name="Trazado 147053" d="M126.09,101.372v3.542a19.179,19.179,0,0,1-19.256.009v-3.546a16.221,16.221,0,0,0,19.256,0Z" transform="translate(-106.834 -101.372)" fill="#ea8f7c"/>
        </g>
        <g id="Grupo_143378" data-name="Grupo 143378" transform="translate(0 81.327)">
          <path id="Trazado_147054" data-name="Trazado 147054" d="M41.75,184.695H55.676v30.753H41.75Z" transform="translate(-41.75 -184.695)" fill="#feb69f"/>
        </g>
        <g id="Grupo_143379" data-name="Grupo 143379" transform="translate(9.452 81.33)">
          <path id="Trazado_147055" data-name="Trazado 147055" d="M62.53,184.7H67v30.749H62.53Z" transform="translate(-62.53 -184.7)" fill="#ea8f7c"/>
        </g>
        <g id="Grupo_143380" data-name="Grupo 143380" transform="translate(64.54 81.33)">
          <path id="Trazado_147056" data-name="Trazado 147056" d="M183.635,184.7h4.471v30.749h-4.471Z" transform="translate(-183.635 -184.7)" fill="#ea8f7c"/>
        </g>
        <g id="Grupo_143383" data-name="Grupo 143383" transform="translate(61.98 32.637)">
          <g id="Grupo_143381" data-name="Grupo 143381">
            <path id="Trazado_147057" data-name="Trazado 147057" d="M189.009,83.327c-1.7-.559-3.021-.92-3.908-4.74a1.211,1.211,0,0,0-2.357,0c-.867,3.736-2.077,4.136-3.908,4.741a1.211,1.211,0,0,0,0,2.3c3.041,1,3.386,2.491,3.908,4.74a1.21,1.21,0,0,0,2.357,0c.867-3.735,2.142-4.157,3.908-4.74A1.211,1.211,0,0,0,189.009,83.327Z" transform="translate(-178.009 -77.654)"/>
          </g>
          <g id="Grupo_143382" data-name="Grupo 143382" transform="translate(4.045 4.74)">
            <path id="Trazado_147058" data-name="Trazado 147058" d="M190.586,90.167a5.916,5.916,0,0,0-1.792,2.02,6.253,6.253,0,0,0-1.892-2,6.057,6.057,0,0,0,1.874-2.111,6.136,6.136,0,0,0,1.81,2.092Z" transform="translate(-186.902 -88.075)" fill="#f0c020"/>
          </g>
        </g>
        <g id="Grupo_143384" data-name="Grupo 143384" transform="translate(4.657 32.637)">
          <path id="Trazado_147059" data-name="Trazado 147059" d="M62.989,83.327c-1.7-.559-3.021-.92-3.908-4.74a1.211,1.211,0,0,0-2.357,0c-.867,3.736-2.077,4.136-3.908,4.741a1.211,1.211,0,0,0,0,2.3c3.041,1,3.386,2.491,3.908,4.74a1.21,1.21,0,0,0,2.357,0c.867-3.735,2.142-4.157,3.908-4.74A1.211,1.211,0,0,0,62.989,83.327Z" transform="translate(-51.989 -77.654)"/>
        </g>
        <g id="Grupo_143385" data-name="Grupo 143385" transform="translate(8.703 37.377)">
          <path id="Trazado_147060" data-name="Trazado 147060" d="M64.566,90.167a5.916,5.916,0,0,0-1.792,2.02,6.253,6.253,0,0,0-1.892-2,6.057,6.057,0,0,0,1.874-2.111A6.137,6.137,0,0,0,64.566,90.167Z" transform="translate(-60.882 -88.075)" fill="#f0c020"/>
        </g>
      </g>
      <g id="Grupo_143387" data-name="Grupo 143387" transform="translate(43.799 58.208)">
        <path id="Trazado_147061" data-name="Trazado 147061" d="M50.387,152.686a1.137,1.137,0,0,1-1.137-1.137V136a9.282,9.282,0,0,1,7.13-9.052l12.555-3.026a1.137,1.137,0,1,1,.533,2.211l-12.555,3.026A7.016,7.016,0,0,0,51.524,136v15.552A1.137,1.137,0,0,1,50.387,152.686Z" transform="translate(-49.25 -123.886)" fill="#3c6d9d"/>
      </g>
      <g id="Grupo_143388" data-name="Grupo 143388" transform="translate(43.799 84.734)">
        <path id="Trazado_147062" data-name="Trazado 147062" d="M50.387,210.675a1.137,1.137,0,0,1-1.137-1.137v-1.365a1.137,1.137,0,1,1,2.274,0v1.365A1.137,1.137,0,0,1,50.387,210.675Zm0-5.913a1.137,1.137,0,0,1-1.137-1.137V183.337a1.137,1.137,0,0,1,2.274,0v20.287A1.137,1.137,0,0,1,50.387,204.762Z" transform="translate(-49.25 -182.2)" fill="#fae0e1"/>
      </g>
      <g id="Grupo_143389" data-name="Grupo 143389" transform="translate(72.922 35.179)">
        <path id="Trazado_147063" data-name="Trazado 147063" d="M115.549,74.4a1.137,1.137,0,1,0-2.274,0,6.7,6.7,0,0,0,13.4,0,1.137,1.137,0,1,0-2.274,0,4.424,4.424,0,0,1-8.847,0Z" transform="translate(-113.275 -73.259)"/>
      </g>
      <g id="Grupo_143390" data-name="Grupo 143390" transform="translate(72.058 24.872)">
        <path id="Trazado_147064" data-name="Trazado 147064" d="M112.512,50.6a1.137,1.137,0,0,0-1.137,1.137v1.545a1.137,1.137,0,1,0,2.274,0V51.736A1.137,1.137,0,0,0,112.512,50.6Z" transform="translate(-111.375 -50.599)"/>
      </g>
      <g id="Grupo_143391" data-name="Grupo 143391" transform="translate(85.834 24.872)">
        <path id="Trazado_147065" data-name="Trazado 147065" d="M142.8,54.418a1.137,1.137,0,0,0,1.137-1.137V51.736a1.137,1.137,0,1,0-2.274,0v1.545A1.137,1.137,0,0,0,142.8,54.418Z" transform="translate(-141.662 -50.599)"/>
      </g>
      <g id="Grupo_143392" data-name="Grupo 143392" transform="translate(78.483 24.872)">
        <path id="Trazado_147066" data-name="Trazado 147066" d="M127.774,59.021V51.736a1.137,1.137,0,1,0-2.274,0v7.286a1.137,1.137,0,1,0,2.274,0Z" transform="translate(-125.5 -50.599)"/>
      </g>
      <g id="Grupo_143393" data-name="Grupo 143393" transform="translate(64.571 42.13)">
        <path id="Trazado_147067" data-name="Trazado 147067" d="M96.642,90.65a1.137,1.137,0,1,0-1.56-.387A1.138,1.138,0,0,0,96.642,90.65Z" transform="translate(-94.916 -88.539)"/>
      </g>
      <g id="Grupo_143394" data-name="Grupo 143394" transform="translate(39.25 3.404)">
        <path id="Trazado_147068" data-name="Trazado 147068" d="M79.62,63.928a10.78,10.78,0,0,0,10.66-9.283c0-.02.008-.04.011-.061l18.554,4.471a11.55,11.55,0,0,1,8.87,11.263V84.732H106.064V79.487a1.137,1.137,0,1,0-2.274,0v37.134a1.137,1.137,0,0,0,2.274,0V87.006h11.652v6.87a1.137,1.137,0,1,0,2.274,0V70.319a13.864,13.864,0,0,0-10.612-13.473L90.385,52.265V48.518A17.252,17.252,0,0,0,96.96,35.527a7.541,7.541,0,0,0,.019-14.974c0-.277,0-2.083,0-9.189a7.97,7.97,0,0,0-7.96-7.96H80.941a5.846,5.846,0,0,0-4.719,2.4A5.846,5.846,0,0,0,71.5,3.4H70.225a7.97,7.97,0,0,0-7.96,7.96c0,3.753,0,8.323,0,9.189a7.541,7.541,0,0,0,.02,14.974,17.319,17.319,0,0,0,.563,3.86,1.153,1.153,0,0,0,1.392.805,1.135,1.135,0,0,0,.806-1.392v0a15.374,15.374,0,0,1-.5-4.347V30.959a5.827,5.827,0,0,0,4.681-5.7V19.114h20.8v6.141a5.826,5.826,0,0,0,4.681,5.7v3.489c0,.008,0,.015,0,.022A15.091,15.091,0,0,1,69.34,45.955a1.17,1.17,0,0,0-1.605.059,1.136,1.136,0,0,0,.055,1.606c.335.313.7.614,1.066.906v3.739L49.862,56.845A13.864,13.864,0,0,0,39.25,70.319v46.3a1.137,1.137,0,1,0,2.274,0V87.006H53.176v29.615a1.137,1.137,0,1,0,2.274,0V79.487a1.137,1.137,0,0,0-2.274,0v5.244H41.524V70.319a11.55,11.55,0,0,1,8.87-11.263l18.55-4.471A10.8,10.8,0,0,0,79.62,63.928Zm21.71-35.889a5.282,5.282,0,0,1-4.351,5.192V22.847A5.282,5.282,0,0,1,101.33,28.039ZM80.941,5.678h8.074A5.692,5.692,0,0,1,94.7,11.364v5.474H77.359V13.62A3.547,3.547,0,0,1,80.9,10.077H91.158a1.137,1.137,0,1,0,0-2.274H80.9a5.784,5.784,0,0,0-3.531,1.2,3.584,3.584,0,0,1,3.569-3.329Zm-16.4,5.686a5.692,5.692,0,0,1,5.686-5.686H71.5a3.584,3.584,0,0,1,3.569,3.329,5.78,5.78,0,0,0-3.531-1.2H68.083a1.137,1.137,0,0,0,0,2.274h3.459a3.547,3.547,0,0,1,3.543,3.543v3.218H64.539ZM57.91,28.039a5.281,5.281,0,0,1,4.351-5.192V33.231A5.282,5.282,0,0,1,57.91,28.039Zm9.035-2.784a3.55,3.55,0,0,1-2.406,3.356v-9.5h2.406Zm25.35,0V19.114H94.7v9.5A3.55,3.55,0,0,1,92.3,25.255ZM71.129,53.163v-3.1a17.392,17.392,0,0,0,16.981-.005v3.106a8.491,8.491,0,1,1-16.981,0Z" transform="translate(-39.25 -3.404)"/>
      </g>
      <g id="Grupo_143395" data-name="Grupo 143395" transform="translate(117.716 101.837)">
        <path id="Trazado_147069" data-name="Trazado 147069" d="M212.887,219.8a1.138,1.138,0,0,0-1.137,1.137v13.646a1.137,1.137,0,1,0,2.274,0V220.937A1.138,1.138,0,0,0,212.887,219.8Z" transform="translate(-211.75 -219.8)"/>
      </g>
      <g id="Grupo_143396" data-name="Grupo 143396" transform="translate(117.716 97.288)">
        <circle id="Elipse_4896" data-name="Elipse 4896" cx="1.137" cy="1.137" r="1.137"/>
      </g>
    </g>
  </g>
</svg>
