<svg xmlns="http://www.w3.org/2000/svg" width="330" height="237" viewBox="0 0 330 237">
  <g id="Grupo_144178" data-name="Grupo 144178" transform="translate(-635 -2884)">
    <rect id="Rect치ngulo_42407" data-name="Rect치ngulo 42407" width="330" height="237" transform="translate(635 2884)" fill="#f5db9a"/>
    <text id="Buena_imagen_del_Producto" data-name="Buena imagen del 
Producto" transform="translate(693 3048)" fill="#12263f" font-size="20" font-family="Roboto-Bold, Roboto" font-weight="700"><tspan x="0" y="21">Buena imagen del </tspan><tspan x="0" y="46">Producto</tspan></text>
    <g id="buena-calidad" transform="translate(696.688 2938.754)">
      <path id="Trazado_147070" data-name="Trazado 147070" d="M62.1,83.479H4.055A3.064,3.064,0,0,1,1,80.424V4.055A3.064,3.064,0,0,1,4.055,1H50.777a1.5,1.5,0,0,1,1.069.443l9.806,9.806a1.5,1.5,0,0,1,.443,1.069Z" transform="translate(0.527 0.527)" fill="#e4f1ff"/>
      <rect id="Rect치ngulo_42408" data-name="Rect치ngulo 42408" width="27.493" height="6.11" rx="2" transform="translate(18.329 12.219)" fill="#3c6d9d"/>
      <path id="Trazado_147071" data-name="Trazado 147071" d="M38.525,47.8,33.683,58.906A1.97,1.97,0,0,0,35.5,61.64h4.078a1.317,1.317,0,0,1,.932.382l2.306,2.308a1.995,1.995,0,0,0,3.223-.6l5.01-11.046,5.01,11.045a1.995,1.995,0,0,0,3.223.6l2.306-2.308a1.317,1.317,0,0,1,.932-.382H66.6A1.97,1.97,0,0,0,68.416,58.9L63.574,47.815Z" transform="translate(17.683 25.209)" fill="#78b62e"/>
      <path id="Trazado_147072" data-name="Trazado 147072" d="M73.084,46.852v.011a4.888,4.888,0,0,0-.625,3.146,4.9,4.9,0,0,1-1.9,4.582,4.888,4.888,0,0,0-1.787,2.671,4.9,4.9,0,0,1-3.5,3.5A4.888,4.888,0,0,0,62.6,62.55a4.888,4.888,0,0,1-4.582,1.9,4.9,4.9,0,0,0-3.148.625h-.009a4.9,4.9,0,0,1-4.949,0H49.9a4.888,4.888,0,0,0-3.146-.625,4.9,4.9,0,0,1-4.582-1.9A4.888,4.888,0,0,0,39.5,60.763a4.9,4.9,0,0,1-3.5-3.5,4.888,4.888,0,0,0-1.787-2.67,4.888,4.888,0,0,1-1.9-4.582,4.9,4.9,0,0,0-.625-3.148v-.009a4.9,4.9,0,0,1,0-4.949v-.011a4.888,4.888,0,0,0,.625-3.146,4.9,4.9,0,0,1,1.9-4.582A4.888,4.888,0,0,0,36,31.492a4.9,4.9,0,0,1,3.5-3.5,4.888,4.888,0,0,0,2.67-1.787,4.888,4.888,0,0,1,4.582-1.9,4.9,4.9,0,0,0,3.148-.625h.009a4.9,4.9,0,0,1,4.949,0h.011a4.888,4.888,0,0,0,3.146.625A4.9,4.9,0,0,1,62.6,26.2a4.888,4.888,0,0,0,2.671,1.787,4.9,4.9,0,0,1,3.5,3.5,4.888,4.888,0,0,0,1.787,2.67,4.888,4.888,0,0,1,1.9,4.582,4.9,4.9,0,0,0,.625,3.148V41.9a4.9,4.9,0,0,1,0,4.949Z" transform="translate(16.361 12.136)" fill="#fcef91"/>
      <circle id="Elipse_4897" data-name="Elipse 4897" cx="13.746" cy="13.746" r="13.746" transform="translate(54.986 42.767)" fill="#78b62e"/>
      <path id="Trazado_147073" data-name="Trazado 147073" d="M44.554,11.644h-7.5A3.064,3.064,0,0,1,34,8.589V1.09a1.647,1.647,0,0,1,.443.305L44.249,11.2a1.646,1.646,0,0,1,.305.443Z" transform="translate(17.931 0.575)" fill="#a3bdce"/>
      <g id="Grupo_143397" data-name="Grupo 143397" transform="translate(0 0)">
        <path id="Trazado_147074" data-name="Trazado 147074" d="M36.966,16.164a4.582,4.582,0,1,0,0-9.164H15.582a4.582,4.582,0,0,0,0,9.164ZM14.055,11.582a1.527,1.527,0,0,1,1.527-1.527H36.966a1.527,1.527,0,1,1,0,3.055H15.582A1.527,1.527,0,0,1,14.055,11.582Z" transform="translate(5.801 3.692)" fill="#373737"/>
        <path id="Trazado_147075" data-name="Trazado 147075" d="M90.328,51.089a6.429,6.429,0,0,0-2.491-6.012,3.36,3.36,0,0,1-1.231-1.844,6.432,6.432,0,0,0-4.6-4.591,3.388,3.388,0,0,1-1.833-1.231,6.4,6.4,0,0,0-6.015-2.491,3.408,3.408,0,0,1-2.175-.435,6.441,6.441,0,0,0-6.5,0,3.36,3.36,0,0,1-1.329.429V12.845a3.02,3.02,0,0,0-.9-2.154l-9.8-9.8A3.02,3.02,0,0,0,51.3,0H4.582A4.582,4.582,0,0,0,0,4.582V80.951a4.582,4.582,0,0,0,4.582,4.582H45.822a1.527,1.527,0,1,0,0-3.055H4.582a1.527,1.527,0,0,1-1.527-1.527V4.582A1.527,1.527,0,0,1,4.582,3.055H50.4v6.11a4.582,4.582,0,0,0,4.582,4.582H61.1V35.009a6.426,6.426,0,0,0-3.8,2.4,3.36,3.36,0,0,1-1.844,1.231,6.432,6.432,0,0,0-4.591,4.6,3.388,3.388,0,0,1-1.231,1.833,6.433,6.433,0,0,0-2.491,6.015,3.383,3.383,0,0,1-.435,2.175,6.433,6.433,0,0,0,0,6.5,3.392,3.392,0,0,1,.429,2.17,6.429,6.429,0,0,0,2.491,6.012,3.36,3.36,0,0,1,1.231,1.844,6.415,6.415,0,0,0,3.305,4.092l-4.2,9.639a3.5,3.5,0,0,0,3.224,4.857h4l2.248,2.251a3.542,3.542,0,0,0,2.48,1.016,3.665,3.665,0,0,0,.655-.061,3.513,3.513,0,0,0,2.551-2.009L68.732,81.6l3.615,7.968A3.513,3.513,0,0,0,74.9,91.582a3.569,3.569,0,0,0,3.143-.964l2.241-2.242h4A3.5,3.5,0,0,0,87.5,83.5l-4.2-9.623a6.415,6.415,0,0,0,3.3-4.095,3.388,3.388,0,0,1,1.231-1.833,6.433,6.433,0,0,0,2.491-6.015,3.456,3.456,0,0,1,.434-2.177,6.433,6.433,0,0,0,0-6.5,3.392,3.392,0,0,1-.431-2.173ZM53.458,9.164V5.213l5.482,5.479H54.986A1.527,1.527,0,0,1,53.458,9.164Zm8.87,79.155a.44.44,0,0,1-.331.26.466.466,0,0,1-.417-.121l-2.3-2.3a2.858,2.858,0,0,0-2.015-.832H53.183a.441.441,0,0,1-.373-.2.411.411,0,0,1-.044-.394L56.919,75.2a3.29,3.29,0,0,1,.377.42,6.4,6.4,0,0,0,6.015,2.491,3.389,3.389,0,0,1,2.175.435,6.5,6.5,0,0,0,1.057.481Zm22.326-3.2a.441.441,0,0,1-.373.2H80.2a2.856,2.856,0,0,0-2.012.829L75.9,88.442a.47.47,0,0,1-.425.13.441.441,0,0,1-.335-.269l-4.213-9.286A6.473,6.473,0,0,0,72,78.53a3.42,3.42,0,0,1,2.17-.429A6.415,6.415,0,0,0,80.18,75.61a3.344,3.344,0,0,1,.374-.417L84.7,84.7A.419.419,0,0,1,84.654,85.12ZM88.13,58.213v.014a6.464,6.464,0,0,0-.817,4.124A3.377,3.377,0,0,1,86.005,65.5a6.459,6.459,0,0,0-2.346,3.513,3.38,3.38,0,0,1-2.413,2.412,6.426,6.426,0,0,0-3.513,2.345,3.414,3.414,0,0,1-3.154,1.306,6.478,6.478,0,0,0-4.144.823,3.36,3.36,0,0,1-3.414,0,6.455,6.455,0,0,0-3.253-.878,6.53,6.53,0,0,0-.878.061,3.4,3.4,0,0,1-3.154-1.307,6.459,6.459,0,0,0-3.513-2.346,3.38,3.38,0,0,1-2.412-2.413,6.426,6.426,0,0,0-2.345-3.513,3.372,3.372,0,0,1-1.306-3.154,6.476,6.476,0,0,0-.823-4.144,3.36,3.36,0,0,1,0-3.414,6.464,6.464,0,0,0,.817-4.124,3.377,3.377,0,0,1,1.307-3.154A6.459,6.459,0,0,0,53.808,44a3.38,3.38,0,0,1,2.413-2.412,6.426,6.426,0,0,0,3.513-2.345,3.411,3.411,0,0,1,3.154-1.306,6.49,6.49,0,0,0,4.144-.823,3.36,3.36,0,0,1,3.414,0,6.453,6.453,0,0,0,4.124.817,3.392,3.392,0,0,1,3.154,1.307,6.459,6.459,0,0,0,3.513,2.346A3.38,3.38,0,0,1,83.649,44a6.426,6.426,0,0,0,2.345,3.513A3.372,3.372,0,0,1,87.3,50.669a6.476,6.476,0,0,0,.823,4.144,3.36,3.36,0,0,1,.008,3.4Z" transform="translate(0 0)" fill="#373737"/>
        <path id="Trazado_147076" data-name="Trazado 147076" d="M50.274,27A15.274,15.274,0,1,0,65.548,42.274,15.274,15.274,0,0,0,50.274,27Zm0,27.493A12.219,12.219,0,1,1,62.493,42.274,12.219,12.219,0,0,1,50.274,54.493Z" transform="translate(18.458 14.239)" fill="#373737"/>
        <path id="Trazado_147077" data-name="Trazado 147077" d="M6,18.527a1.527,1.527,0,0,0,1.527,1.527H50.294a1.527,1.527,0,1,0,0-3.055H7.527A1.527,1.527,0,0,0,6,18.527Z" transform="translate(3.164 8.966)" fill="#373737"/>
        <path id="Trazado_147078" data-name="Trazado 147078" d="M48.767,23.527A1.527,1.527,0,0,0,47.239,22H7.527a1.527,1.527,0,0,0,0,3.055H47.239A1.527,1.527,0,0,0,48.767,23.527Z" transform="translate(3.164 11.602)" fill="#373737"/>
        <path id="Trazado_147079" data-name="Trazado 147079" d="M34.746,28.527A1.527,1.527,0,0,0,33.219,27H22.527a1.527,1.527,0,0,0,0,3.055H33.219A1.527,1.527,0,0,0,34.746,28.527Z" transform="translate(11.075 14.239)" fill="#373737"/>
        <path id="Trazado_147080" data-name="Trazado 147080" d="M24.329,27H7.527a1.527,1.527,0,0,0,0,3.055h16.8a1.527,1.527,0,0,0,0-3.055Z" transform="translate(3.164 14.239)" fill="#373737"/>
        <path id="Trazado_147081" data-name="Trazado 147081" d="M13,33.527a1.527,1.527,0,0,0,1.527,1.527H34.383a1.527,1.527,0,0,0,0-3.055H14.527A1.527,1.527,0,0,0,13,33.527Z" transform="translate(6.856 16.876)" fill="#373737"/>
        <path id="Trazado_147082" data-name="Trazado 147082" d="M7.527,35.055H12.11a1.527,1.527,0,1,0,0-3.055H7.527a1.527,1.527,0,1,0,0,3.055Z" transform="translate(3.164 16.876)" fill="#373737"/>
        <path id="Trazado_147083" data-name="Trazado 147083" d="M7.527,40.055H38.075a1.527,1.527,0,1,0,0-3.055H7.527a1.527,1.527,0,1,0,0,3.055Z" transform="translate(3.164 19.513)" fill="#373737"/>
        <path id="Trazado_147084" data-name="Trazado 147084" d="M41.13,43.527A1.527,1.527,0,0,0,39.6,42H7.527a1.527,1.527,0,1,0,0,3.055H39.6A1.527,1.527,0,0,0,41.13,43.527Z" transform="translate(3.164 22.15)" fill="#373737"/>
        <path id="Trazado_147085" data-name="Trazado 147085" d="M7.527,47a1.527,1.527,0,1,0,0,3.055h16.8a1.527,1.527,0,0,0,0-3.055Z" transform="translate(3.164 24.787)" fill="#373737"/>
        <path id="Trazado_147086" data-name="Trazado 147086" d="M50.612,34.448,44.055,41l-.448-.448a1.527,1.527,0,1,0-2.16,2.16l1.528,1.527a1.527,1.527,0,0,0,2.16,0l7.637-7.637a1.527,1.527,0,1,0-2.16-2.16Z" transform="translate(21.623 17.931)" fill="#373737"/>
      </g>
    </g>
  </g>
</svg>
