<svg xmlns="http://www.w3.org/2000/svg" xmlns:xlink="http://www.w3.org/1999/xlink" width="1289.333" height="283.432" viewBox="0 0 1289.333 283.432">
  <defs>
    <linearGradient id="linear-gradient" x1="1.043" y1="-0.125" x2="0.336" y2="1.321" gradientUnits="objectBoundingBox">
      <stop offset="0" stop-color="#64f6f0"/>
      <stop offset="0.645" stop-color="#4b31a8"/>
      <stop offset="1" stop-color="#461698"/>
    </linearGradient>
    <filter id="Rectángulo_34835" x="0" y="0" width="1289.333" height="283.432" filterUnits="userSpaceOnUse">
      <feOffset dy="8" input="SourceAlpha"/>
      <feGaussianBlur stdDeviation="10.5" result="blur"/>
      <feFlood flood-opacity="0.18"/>
      <feComposite operator="in" in2="blur"/>
      <feComposite in="SourceGraphic"/>
    </filter>
    <clipPath id="clip-path">
      <path id="Rectangle_652" data-name="Rectangle 652" d="M1207.677,0H19.323C8.651,0,0,3.669,0,8.195V213.06c0,4.526,8.651,8.195,19.323,8.195H1207.677c10.672,0,19.323-3.669,19.323-8.195V8.195C1227,3.669,1218.349,0,1207.677,0Z" fill="url(#linear-gradient)"/>
    </clipPath>
    <linearGradient id="linear-gradient-2" x1="0.425" y1="1.997" x2="0.5" gradientUnits="objectBoundingBox">
      <stop offset="0" stop-color="#5f9025"/>
      <stop offset="1" stop-color="#78b62e"/>
    </linearGradient>
    <linearGradient id="linear-gradient-3" x1="0.5" x2="0.5" y2="1" gradientUnits="objectBoundingBox">
      <stop offset="0" stop-color="#d0cece"/>
      <stop offset="1" stop-color="#e2e2e2"/>
    </linearGradient>
  </defs>
  <g id="Grupo_78461" data-name="Grupo 78461" transform="translate(-147.5 -1343.5)">
    <g transform="matrix(1, 0, 0, 1, 147.5, 1343.5)" filter="url(#Rectángulo_34835)">
      <rect id="Rectángulo_34835-2" data-name="Rectángulo 34835" width="1226.333" height="220.432" rx="18" transform="translate(31.5 23.5)" fill="#fff"/>
    </g>
    <g id="Enmascarar_grupo_45" data-name="Enmascarar grupo 45" transform="translate(178.333 1367)" clip-path="url(#clip-path)">
      <path id="Sustracción_4" data-name="Sustracción 4" d="M0,0H0c20.749,2.08,41.589,4.891,61.942,8.354,20.125,3.424,40.271,7.572,59.874,12.327,19.42,4.709,38.778,10.126,57.535,16.1,18.617,5.929,37.1,12.551,54.937,19.682,17.733,7.09,35.251,14.851,52.07,23.068,16.739,8.178,33.2,17.013,48.937,26.259,15.665,9.206,30.988,19.048,45.541,29.252s28.633,20.989,41.871,32.053c13.3,11.111,26.062,22.771,37.943,34.655,11.936,11.939,23.289,24.409,33.746,37.063a487.413,487.413,0,0,1,29.281,39.277,449.574,449.574,0,0,1,24.559,41.293A418.78,418.78,0,0,1,567.8,362.5c2.116,5.481,4.132,11.066,5.992,16.6H391.614c-1.459-3.138-2.992-6.3-4.559-9.39a332.315,332.315,0,0,0-17.238-29.994c-6.252-9.684-13.173-19.311-20.574-28.613-7.339-9.228-15.32-18.346-23.724-27.1-8.353-8.708-17.336-17.271-26.7-25.454-9.331-8.157-19.252-16.123-29.488-23.676S248.3,220,237.238,213.114,214.564,199.6,202.713,193.4s-24.23-12.1-36.77-17.536c-12.613-5.467-25.682-10.589-38.842-15.225-13.252-4.67-26.952-8.97-40.722-12.781-13.876-3.838-28.15-7.27-42.426-10.2C29.528,134.7,14.74,132.179,0,130.169V0Z" transform="translate(633.086 378.738) rotate(180)" fill="url(#linear-gradient-2)"/>
      <path id="Sustracción_2" data-name="Sustracción 2" d="M401.437,0C623.144,0,802.874,132.663,802.874,296.312S623.144,592.623,401.437,592.623,0,459.96,0,296.312,179.729,0,401.437,0Z" transform="translate(-55.245 115.954)" opacity="0.444" fill="url(#linear-gradient-3)" style="mix-blend-mode: multiply;isolation: isolate"/>
      <path id="Sustracción_6" data-name="Sustracción 6" d="M0,0H0C18.261,2.721,36.506,6.241,54.23,10.462a610.972,610.972,0,0,1,70.141,21.18,561.338,561.338,0,0,1,64.351,28.449,504.37,504.37,0,0,1,57.624,35.02A443.69,443.69,0,0,1,296.289,136a385.284,385.284,0,0,1,41.329,46.074,334.843,334.843,0,0,1,31.769,50.555h-2.108c-2.346-4.6-4.831-9.2-7.389-13.662a338.859,338.859,0,0,0-21-32.18,369.272,369.272,0,0,0-24.981-30.351c-8.922-9.747-18.582-19.281-28.711-28.339-10.1-9.036-20.928-17.832-32.188-26.143S229.826,85.651,217.586,78.2c-12.286-7.483-25.2-14.612-38.391-21.19-13.239-6.6-27.075-12.807-41.12-18.439-14.141-5.669-28.808-10.884-43.6-15.5C79.55,18.405,64.136,14.24,48.661,10.687,33.048,7.1,16.968,4.051.866,1.615L0,1.486V0Z" transform="translate(427.699 232.27) rotate(180)" fill="#fff"/>
    </g>
  </g>
</svg>
