<svg xmlns="http://www.w3.org/2000/svg" xmlns:xlink="http://www.w3.org/1999/xlink" width="816.164" height="380" viewBox="0 0 816.164 380"><defs><clipPath id="a"><rect width="408.206" height="120.959" fill="none"/></clipPath><clipPath id="c"><rect width="353.91" height="2.72" transform="translate(16.266 118.239)" fill="none"/></clipPath><clipPath id="d"><rect width="32.662" height="20.58" transform="translate(222.906 98.97)" fill="none"/></clipPath><clipPath id="e"><rect width="141.917" height="6.602" transform="translate(4.696 9.564)" fill="none"/></clipPath><clipPath id="f"><rect width="141.939" height="6.585" transform="translate(261.492 27.646)" fill="none"/></clipPath><clipPath id="g"><rect width="34.183" height="17.805" transform="translate(225.309 56.699)" fill="none"/></clipPath><clipPath id="h"><rect width="25.059" height="9.16" transform="translate(132.922 110.391)" fill="none"/></clipPath><clipPath id="i"><rect width="179.471" height="12.916" fill="#3c6d9d"/></clipPath><clipPath id="j"><rect width="111.832" height="34.572" transform="translate(0 0)" fill="#3c6d9d"/></clipPath><clipPath id="k"><rect width="159.917" height="35.275" transform="translate(0 0)" fill="#3c6d9d"/></clipPath><clipPath id="l"><rect width="107.227" height="35.275" transform="translate(0 0)" fill="#3c6d9d"/></clipPath><clipPath id="m"><rect width="159.442" height="17.341" transform="translate(0 0)" fill="#3c6d9d"/></clipPath><clipPath id="n"><rect width="195.82" height="17.244" transform="translate(0 0)" fill="#3c6d9d"/></clipPath><clipPath id="o"><rect width="188.271" height="38.94" transform="translate(0 0)" fill="#3c6d9d"/></clipPath></defs><g transform="translate(-391.918 -3870)"><g transform="translate(494.5 3870)" fill="none" stroke="#3c6d9d" stroke-width="1" stroke-dasharray="4"><rect width="611" height="45" stroke="none"/><rect x="0.5" y="0.5" width="610" height="44" fill="none"/></g><path d="M126.2,12.992V17h-2.344V5.625h4.438a5.134,5.134,0,0,1,2.254.469,3.454,3.454,0,0,1,1.5,1.332,3.714,3.714,0,0,1,.523,1.965,3.266,3.266,0,0,1-1.145,2.637,4.767,4.767,0,0,1-3.168.965Zm0-1.9h2.094a2.059,2.059,0,0,0,1.418-.437,1.591,1.591,0,0,0,.488-1.25,1.876,1.876,0,0,0-.492-1.352,1.839,1.839,0,0,0-1.359-.531H126.2Zm12.578-.43a6.134,6.134,0,0,0-.812-.062,1.654,1.654,0,0,0-1.68.867V17h-2.258V8.547h2.133l.063,1.008A2.092,2.092,0,0,1,138.1,8.391a2.366,2.366,0,0,1,.7.1Zm.453,2.031a5.013,5.013,0,0,1,.484-2.242,3.546,3.546,0,0,1,1.395-1.523,4.069,4.069,0,0,1,2.113-.539,3.849,3.849,0,0,1,2.793,1.047,4.2,4.2,0,0,1,1.207,2.844l.016.578a4.418,4.418,0,0,1-1.086,3.121,4.209,4.209,0,0,1-5.832,0,4.5,4.5,0,0,1-1.09-3.187Zm2.258.164a3.151,3.151,0,0,0,.453,1.84,1.629,1.629,0,0,0,2.578.008,3.448,3.448,0,0,0,.461-2.012,3.12,3.12,0,0,0-.461-1.828,1.5,1.5,0,0,0-1.3-.648,1.475,1.475,0,0,0-1.281.645A3.506,3.506,0,0,0,141.484,12.859Zm10.656,2.477a1.481,1.481,0,0,0,1.016-.344,1.2,1.2,0,0,0,.406-.914h2.117a2.9,2.9,0,0,1-.469,1.574,3.093,3.093,0,0,1-1.262,1.109,3.949,3.949,0,0,1-1.77.395A3.67,3.67,0,0,1,149.32,16a4.56,4.56,0,0,1-1.047-3.184v-.148a4.508,4.508,0,0,1,1.039-3.117,3.627,3.627,0,0,1,2.852-1.164,3.555,3.555,0,0,1,2.543.9,3.2,3.2,0,0,1,.973,2.4h-2.117a1.539,1.539,0,0,0-.406-1.066,1.513,1.513,0,0,0-2.223.164,3.324,3.324,0,0,0-.4,1.863v.234a3.366,3.366,0,0,0,.4,1.875A1.378,1.378,0,0,0,152.141,15.336Zm8.719,1.82a4.15,4.15,0,0,1-3.027-1.141,4.054,4.054,0,0,1-1.168-3.039v-.219a5.106,5.106,0,0,1,.492-2.277,3.612,3.612,0,0,1,1.395-1.547,3.914,3.914,0,0,1,2.059-.543,3.508,3.508,0,0,1,2.73,1.094,4.444,4.444,0,0,1,1,3.1v.922h-5.383a2.1,2.1,0,0,0,.66,1.328,2,2,0,0,0,1.395.5,2.437,2.437,0,0,0,2.039-.945l1.109,1.242a3.389,3.389,0,0,1-1.375,1.121A4.511,4.511,0,0,1,160.859,17.156Zm-.258-6.937a1.414,1.414,0,0,0-1.09.453,2.341,2.341,0,0,0-.535,1.3h3.141v-.18a1.669,1.669,0,0,0-.406-1.16A1.459,1.459,0,0,0,160.6,10.219Zm9.594,4.445a.727.727,0,0,0-.41-.652,4.659,4.659,0,0,0-1.316-.426q-3.016-.633-3.016-2.562a2.323,2.323,0,0,1,.934-1.879,3.766,3.766,0,0,1,2.441-.754,4.053,4.053,0,0,1,2.574.758,2.388,2.388,0,0,1,.965,1.969h-2.258a1.092,1.092,0,0,0-.312-.8A1.322,1.322,0,0,0,168.82,10a1.351,1.351,0,0,0-.883.258.814.814,0,0,0-.312.656.7.7,0,0,0,.355.605,3.657,3.657,0,0,0,1.2.4,9.8,9.8,0,0,1,1.422.379,2.336,2.336,0,0,1,1.789,2.273,2.205,2.205,0,0,1-.992,1.871,4.28,4.28,0,0,1-2.562.715,4.47,4.47,0,0,1-1.887-.379,3.166,3.166,0,0,1-1.293-1.039,2.414,2.414,0,0,1-.469-1.426h2.141a1.179,1.179,0,0,0,.445.922,1.766,1.766,0,0,0,1.109.32,1.635,1.635,0,0,0,.98-.246A.766.766,0,0,0,170.2,14.664Zm3.3-1.969a5.013,5.013,0,0,1,.484-2.242,3.546,3.546,0,0,1,1.395-1.523,4.069,4.069,0,0,1,2.113-.539,3.849,3.849,0,0,1,2.793,1.047,4.2,4.2,0,0,1,1.207,2.844l.016.578a4.418,4.418,0,0,1-1.086,3.121,4.209,4.209,0,0,1-5.832,0,4.5,4.5,0,0,1-1.09-3.187Zm2.258.164a3.151,3.151,0,0,0,.453,1.84,1.629,1.629,0,0,0,2.578.008,3.448,3.448,0,0,0,.461-2.012,3.12,3.12,0,0,0-.461-1.828,1.5,1.5,0,0,0-1.3-.648,1.475,1.475,0,0,0-1.281.645A3.506,3.506,0,0,0,175.75,12.859Zm11.719,1.8a.727.727,0,0,0-.41-.652,4.659,4.659,0,0,0-1.316-.426q-3.016-.633-3.016-2.562a2.323,2.323,0,0,1,.934-1.879,3.766,3.766,0,0,1,2.441-.754,4.053,4.053,0,0,1,2.574.758,2.388,2.388,0,0,1,.965,1.969h-2.258a1.092,1.092,0,0,0-.312-.8,1.322,1.322,0,0,0-.977-.316,1.351,1.351,0,0,0-.883.258.814.814,0,0,0-.312.656.7.7,0,0,0,.355.605,3.657,3.657,0,0,0,1.2.4,9.8,9.8,0,0,1,1.422.379,2.336,2.336,0,0,1,1.789,2.273,2.205,2.205,0,0,1-.992,1.871,4.28,4.28,0,0,1-2.562.715,4.47,4.47,0,0,1-1.887-.379,3.166,3.166,0,0,1-1.293-1.039,2.414,2.414,0,0,1-.469-1.426H184.6a1.179,1.179,0,0,0,.445.922,1.766,1.766,0,0,0,1.109.32,1.635,1.635,0,0,0,.98-.246A.766.766,0,0,0,187.469,14.664ZM194.75,12.7a5.053,5.053,0,0,1,.887-3.148,2.9,2.9,0,0,1,2.434-1.156,2.6,2.6,0,0,1,2.164,1.039l.148-.883h1.984v11.7H200.1V16.273a2.6,2.6,0,0,1-2.047.883,2.878,2.878,0,0,1-2.406-1.172A5.3,5.3,0,0,1,194.75,12.7Zm2.258.164a3.305,3.305,0,0,0,.426,1.844,1.364,1.364,0,0,0,1.2.633,1.519,1.519,0,0,0,1.469-.828V11.016a1.506,1.506,0,0,0-1.453-.8,1.38,1.38,0,0,0-1.211.633A3.651,3.651,0,0,0,197.008,12.859Zm12.2,3.281a2.831,2.831,0,0,1-2.312,1.016,2.67,2.67,0,0,1-2.074-.781,3.335,3.335,0,0,1-.73-2.289V8.547h2.258v5.461q0,1.32,1.2,1.32a1.631,1.631,0,0,0,1.578-.8V8.547h2.266V17h-2.125Zm7.781,1.016a4.15,4.15,0,0,1-3.027-1.141,4.054,4.054,0,0,1-1.168-3.039v-.219a5.106,5.106,0,0,1,.492-2.277,3.612,3.612,0,0,1,1.395-1.547,3.914,3.914,0,0,1,2.059-.543,3.508,3.508,0,0,1,2.73,1.094,4.444,4.444,0,0,1,1,3.1v.922h-5.383a2.1,2.1,0,0,0,.66,1.328,2,2,0,0,0,1.395.5,2.437,2.437,0,0,0,2.039-.945l1.109,1.242a3.389,3.389,0,0,1-1.375,1.121A4.511,4.511,0,0,1,216.984,17.156Zm-.258-6.937a1.414,1.414,0,0,0-1.09.453,2.341,2.341,0,0,0-.535,1.3h3.141v-.18a1.669,1.669,0,0,0-.406-1.16A1.459,1.459,0,0,0,216.727,10.219ZM230.625,17a2.507,2.507,0,0,1-.227-.758,2.732,2.732,0,0,1-2.133.914,3,3,0,0,1-2.059-.719,2.312,2.312,0,0,1-.816-1.812,2.389,2.389,0,0,1,1-2.062,4.915,4.915,0,0,1,2.879-.727H230.3v-.484a1.393,1.393,0,0,0-.3-.937,1.183,1.183,0,0,0-.949-.352,1.345,1.345,0,0,0-.895.273.929.929,0,0,0-.324.75h-2.258a2.268,2.268,0,0,1,.453-1.359,3,3,0,0,1,1.281-.98,4.669,4.669,0,0,1,1.859-.355,3.689,3.689,0,0,1,2.48.785,2.747,2.747,0,0,1,.918,2.207v3.664a4.041,4.041,0,0,0,.336,1.82V17Zm-1.867-1.57a1.945,1.945,0,0,0,.922-.223,1.462,1.462,0,0,0,.625-.6V13.156h-.844q-1.7,0-1.8,1.172l-.008.133a.9.9,0,0,0,.3.7A1.153,1.153,0,0,0,228.758,15.43Zm7.93,1.57h-2.266V5h2.266ZM241.25,6.469V8.547H242.7V10.2H241.25v4.219a1.007,1.007,0,0,0,.18.672.9.9,0,0,0,.688.2,3.6,3.6,0,0,0,.664-.055v1.711a4.648,4.648,0,0,1-1.367.2,2.156,2.156,0,0,1-2.422-2.4V10.2h-1.234V8.547h1.234V6.469Zm6.594,10.688a4.15,4.15,0,0,1-3.027-1.141,4.054,4.054,0,0,1-1.168-3.039v-.219a5.106,5.106,0,0,1,.492-2.277,3.612,3.612,0,0,1,1.395-1.547,3.914,3.914,0,0,1,2.059-.543,3.508,3.508,0,0,1,2.73,1.094,4.444,4.444,0,0,1,1,3.1v.922h-5.383a2.1,2.1,0,0,0,.66,1.328,2,2,0,0,0,1.395.5,2.437,2.437,0,0,0,2.039-.945l1.109,1.242a3.389,3.389,0,0,1-1.375,1.121A4.511,4.511,0,0,1,247.844,17.156Zm-.258-6.937a1.414,1.414,0,0,0-1.09.453,2.341,2.341,0,0,0-.535,1.3H249.1v-.18a1.669,1.669,0,0,0-.406-1.16A1.459,1.459,0,0,0,247.586,10.219Zm9.766.445a6.134,6.134,0,0,0-.812-.062,1.654,1.654,0,0,0-1.68.867V17H252.6V8.547h2.133l.063,1.008a2.092,2.092,0,0,1,1.883-1.164,2.366,2.366,0,0,1,.7.1ZM263.1,17a2.508,2.508,0,0,1-.227-.758,2.732,2.732,0,0,1-2.133.914,3,3,0,0,1-2.059-.719,2.312,2.312,0,0,1-.816-1.812,2.389,2.389,0,0,1,1-2.062,4.915,4.915,0,0,1,2.879-.727h1.039v-.484a1.393,1.393,0,0,0-.3-.937,1.183,1.183,0,0,0-.949-.352,1.345,1.345,0,0,0-.895.273.929.929,0,0,0-.324.75h-2.258a2.268,2.268,0,0,1,.453-1.359,3,3,0,0,1,1.281-.98,4.669,4.669,0,0,1,1.859-.355,3.689,3.689,0,0,1,2.48.785,2.747,2.747,0,0,1,.918,2.207v3.664a4.041,4.041,0,0,0,.336,1.82V17Zm-1.867-1.57a1.945,1.945,0,0,0,.922-.223,1.462,1.462,0,0,0,.625-.6V13.156h-.844q-1.7,0-1.8,1.172l-.008.133a.9.9,0,0,0,.3.7A1.153,1.153,0,0,0,261.234,15.43Zm7.625-6.883.07.977a2.951,2.951,0,0,1,2.43-1.133,2.453,2.453,0,0,1,2,.789,3.681,3.681,0,0,1,.672,2.359V17h-2.258V11.594a1.465,1.465,0,0,0-.312-1.043,1.4,1.4,0,0,0-1.039-.324,1.553,1.553,0,0,0-1.43.813V17h-2.258V8.547ZM282.109,17h-2.266V5h2.266Zm6.758,0a2.508,2.508,0,0,1-.227-.758,2.732,2.732,0,0,1-2.133.914,3,3,0,0,1-2.059-.719,2.312,2.312,0,0,1-.816-1.812,2.389,2.389,0,0,1,1-2.062,4.915,4.915,0,0,1,2.879-.727h1.039v-.484a1.393,1.393,0,0,0-.3-.937,1.183,1.183,0,0,0-.949-.352,1.345,1.345,0,0,0-.895.273.929.929,0,0,0-.324.75H283.82a2.268,2.268,0,0,1,.453-1.359,3,3,0,0,1,1.281-.98,4.669,4.669,0,0,1,1.859-.355,3.689,3.689,0,0,1,2.48.785,2.747,2.747,0,0,1,.918,2.207v3.664a4.041,4.041,0,0,0,.336,1.82V17ZM287,15.43a1.945,1.945,0,0,0,.922-.223,1.462,1.462,0,0,0,.625-.6V13.156H287.7q-1.7,0-1.8,1.172l-.008.133a.9.9,0,0,0,.3.7A1.153,1.153,0,0,0,287,15.43ZM298.914,17h-2.266V8.547h2.266Zm-2.4-10.641a1.112,1.112,0,0,1,.34-.836,1.465,1.465,0,0,1,1.848,0,1.105,1.105,0,0,1,.344.836,1.108,1.108,0,0,1-.348.844,1.448,1.448,0,0,1-1.836,0A1.108,1.108,0,0,1,296.516,6.359Zm6.336,2.188.07.977a2.951,2.951,0,0,1,2.43-1.133,2.453,2.453,0,0,1,2,.789,3.681,3.681,0,0,1,.672,2.359V17h-2.258V11.594a1.465,1.465,0,0,0-.312-1.043,1.4,1.4,0,0,0-1.039-.324,1.553,1.553,0,0,0-1.43.813V17h-2.258V8.547Zm6.531,4.148a5.013,5.013,0,0,1,.484-2.242,3.546,3.546,0,0,1,1.395-1.523,4.069,4.069,0,0,1,2.113-.539,3.849,3.849,0,0,1,2.793,1.047,4.2,4.2,0,0,1,1.207,2.844l.016.578A4.418,4.418,0,0,1,316.3,15.98a4.209,4.209,0,0,1-5.832,0,4.5,4.5,0,0,1-1.09-3.187Zm2.258.164a3.151,3.151,0,0,0,.453,1.84,1.629,1.629,0,0,0,2.578.008,3.448,3.448,0,0,0,.461-2.012,3.12,3.12,0,0,0-.461-1.828,1.5,1.5,0,0,0-1.3-.648,1.475,1.475,0,0,0-1.281.645A3.506,3.506,0,0,0,311.641,12.859ZM322.3,15.336a1.481,1.481,0,0,0,1.016-.344,1.2,1.2,0,0,0,.406-.914h2.117a2.9,2.9,0,0,1-.469,1.574,3.093,3.093,0,0,1-1.262,1.109,3.949,3.949,0,0,1-1.77.395A3.67,3.67,0,0,1,319.477,16a4.56,4.56,0,0,1-1.047-3.184v-.148a4.508,4.508,0,0,1,1.039-3.117,3.627,3.627,0,0,1,2.852-1.164,3.555,3.555,0,0,1,2.543.9,3.2,3.2,0,0,1,.973,2.4h-2.117a1.539,1.539,0,0,0-.406-1.066,1.513,1.513,0,0,0-2.223.164,3.324,3.324,0,0,0-.4,1.863v.234a3.366,3.366,0,0,0,.4,1.875A1.378,1.378,0,0,0,322.3,15.336Zm9.891.8a2.831,2.831,0,0,1-2.312,1.016,2.67,2.67,0,0,1-2.074-.781,3.335,3.335,0,0,1-.73-2.289V8.547h2.258v5.461q0,1.32,1.2,1.32a1.631,1.631,0,0,0,1.578-.8V8.547h2.266V17H332.25Zm6.273.859H336.2V8.547h2.266Zm-2.4-10.641a1.112,1.112,0,0,1,.34-.836,1.465,1.465,0,0,1,1.848,0,1.105,1.105,0,0,1,.344.836,1.108,1.108,0,0,1-.348.844,1.448,1.448,0,0,1-1.836,0A1.108,1.108,0,0,1,336.063,6.359Zm3.906,6.352a5.094,5.094,0,0,1,.887-3.148,2.877,2.877,0,0,1,2.426-1.172,2.589,2.589,0,0,1,2.039.922V5h2.266V17h-2.039l-.109-.9a2.657,2.657,0,0,1-2.172,1.055,2.869,2.869,0,0,1-2.395-1.176A5.258,5.258,0,0,1,339.969,12.711Zm2.258.164a3.328,3.328,0,0,0,.414,1.82,1.349,1.349,0,0,0,1.2.633,1.511,1.511,0,0,0,1.477-.883V11.109a1.489,1.489,0,0,0-1.461-.883Q342.227,10.227,342.227,12.875ZM354.234,17a2.508,2.508,0,0,1-.227-.758,2.732,2.732,0,0,1-2.133.914,3,3,0,0,1-2.059-.719A2.312,2.312,0,0,1,349,14.625a2.389,2.389,0,0,1,1-2.062,4.915,4.915,0,0,1,2.879-.727h1.039v-.484a1.393,1.393,0,0,0-.3-.937,1.183,1.183,0,0,0-.949-.352,1.345,1.345,0,0,0-.895.273.929.929,0,0,0-.324.75h-2.258a2.268,2.268,0,0,1,.453-1.359,3,3,0,0,1,1.281-.98,4.669,4.669,0,0,1,1.859-.355,3.689,3.689,0,0,1,2.48.785,2.747,2.747,0,0,1,.918,2.207v3.664a4.041,4.041,0,0,0,.336,1.82V17Zm-1.867-1.57a1.945,1.945,0,0,0,.922-.223,1.462,1.462,0,0,0,.625-.6V13.156h-.844q-1.7,0-1.8,1.172l-.008.133a.9.9,0,0,0,.3.7A1.153,1.153,0,0,0,352.367,15.43Zm5.2-2.719a5.094,5.094,0,0,1,.887-3.148,2.877,2.877,0,0,1,2.426-1.172,2.589,2.589,0,0,1,2.039.922V5h2.266V17h-2.039l-.109-.9a2.657,2.657,0,0,1-2.172,1.055,2.869,2.869,0,0,1-2.395-1.176A5.258,5.258,0,0,1,357.563,12.711Zm2.258.164a3.328,3.328,0,0,0,.414,1.82,1.349,1.349,0,0,0,1.2.633,1.511,1.511,0,0,0,1.477-.883V11.109a1.489,1.489,0,0,0-1.461-.883Q359.82,10.227,359.82,12.875Zm10.742-.164a5.094,5.094,0,0,1,.887-3.148,2.877,2.877,0,0,1,2.426-1.172,2.589,2.589,0,0,1,2.039.922V5h2.266V17h-2.039l-.109-.9a2.657,2.657,0,0,1-2.172,1.055,2.869,2.869,0,0,1-2.395-1.176A5.258,5.258,0,0,1,370.563,12.711Zm2.258.164a3.328,3.328,0,0,0,.414,1.82,1.349,1.349,0,0,0,1.2.633,1.511,1.511,0,0,0,1.477-.883V11.109a1.489,1.489,0,0,0-1.461-.883Q372.82,10.227,372.82,12.875Zm11,4.281a4.15,4.15,0,0,1-3.027-1.141,4.054,4.054,0,0,1-1.168-3.039v-.219a5.106,5.106,0,0,1,.492-2.277,3.612,3.612,0,0,1,1.395-1.547,3.914,3.914,0,0,1,2.059-.543,3.508,3.508,0,0,1,2.73,1.094,4.444,4.444,0,0,1,1,3.1v.922h-5.383a2.1,2.1,0,0,0,.66,1.328,2,2,0,0,0,1.395.5,2.437,2.437,0,0,0,2.039-.945l1.109,1.242a3.389,3.389,0,0,1-1.375,1.121A4.511,4.511,0,0,1,383.82,17.156Zm-.258-6.937a1.414,1.414,0,0,0-1.09.453,2.341,2.341,0,0,0-.535,1.3h3.141v-.18a1.669,1.669,0,0,0-.406-1.16A1.459,1.459,0,0,0,383.563,10.219ZM394.945,17H392.68V5h2.266Zm1.508-4.3a5.013,5.013,0,0,1,.484-2.242,3.546,3.546,0,0,1,1.395-1.523,4.069,4.069,0,0,1,2.113-.539,3.849,3.849,0,0,1,2.793,1.047,4.2,4.2,0,0,1,1.207,2.844l.016.578a4.418,4.418,0,0,1-1.086,3.121,4.209,4.209,0,0,1-5.832,0,4.5,4.5,0,0,1-1.09-3.187Zm2.258.164a3.151,3.151,0,0,0,.453,1.84,1.629,1.629,0,0,0,2.578.008A3.448,3.448,0,0,0,402.2,12.7a3.12,3.12,0,0,0-.461-1.828,1.5,1.5,0,0,0-1.3-.648,1.475,1.475,0,0,0-1.281.645A3.506,3.506,0,0,0,398.711,12.859Zm11.719,1.8a.727.727,0,0,0-.41-.652,4.659,4.659,0,0,0-1.316-.426q-3.016-.633-3.016-2.562a2.323,2.323,0,0,1,.934-1.879,3.766,3.766,0,0,1,2.441-.754,4.053,4.053,0,0,1,2.574.758,2.388,2.388,0,0,1,.965,1.969h-2.258a1.092,1.092,0,0,0-.312-.8,1.322,1.322,0,0,0-.977-.316,1.351,1.351,0,0,0-.883.258.814.814,0,0,0-.312.656.7.7,0,0,0,.355.605,3.657,3.657,0,0,0,1.2.4,9.8,9.8,0,0,1,1.422.379,2.336,2.336,0,0,1,1.789,2.273,2.2,2.2,0,0,1-.992,1.871,4.28,4.28,0,0,1-2.562.715,4.47,4.47,0,0,1-1.887-.379,3.166,3.166,0,0,1-1.293-1.039,2.414,2.414,0,0,1-.469-1.426h2.141a1.179,1.179,0,0,0,.445.922,1.766,1.766,0,0,0,1.109.32,1.635,1.635,0,0,0,.98-.246A.766.766,0,0,0,410.43,14.664ZM422.961,17a2.508,2.508,0,0,1-.227-.758,2.732,2.732,0,0,1-2.133.914,3,3,0,0,1-2.059-.719,2.312,2.312,0,0,1-.816-1.812,2.389,2.389,0,0,1,1-2.062,4.915,4.915,0,0,1,2.879-.727h1.039v-.484a1.393,1.393,0,0,0-.3-.937,1.183,1.183,0,0,0-.949-.352,1.345,1.345,0,0,0-.895.273.929.929,0,0,0-.324.75h-2.258a2.268,2.268,0,0,1,.453-1.359,3,3,0,0,1,1.281-.98,4.669,4.669,0,0,1,1.859-.355,3.689,3.689,0,0,1,2.48.785,2.747,2.747,0,0,1,.918,2.207v3.664a4.041,4.041,0,0,0,.336,1.82V17Zm-1.867-1.57a1.945,1.945,0,0,0,.922-.223,1.462,1.462,0,0,0,.625-.6V13.156H421.8q-1.7,0-1.8,1.172l-.008.133a.9.9,0,0,0,.3.7A1.153,1.153,0,0,0,421.094,15.43Zm7.93,1.57h-2.266V5h2.266Zm4.242,0H431V8.547h2.266Zm-2.4-10.641a1.112,1.112,0,0,1,.34-.836,1.465,1.465,0,0,1,1.848,0,1.105,1.105,0,0,1,.344.836,1.108,1.108,0,0,1-.348.844,1.448,1.448,0,0,1-1.836,0A1.108,1.108,0,0,1,430.867,6.359Zm6.375,2.188.07.945a2.971,2.971,0,0,1,2.43-1.1,2.255,2.255,0,0,1,2.242,1.289,2.9,2.9,0,0,1,2.539-1.289,2.521,2.521,0,0,1,2.047.8,3.681,3.681,0,0,1,.672,2.41V17h-2.266V11.609a1.61,1.61,0,0,0-.281-1.051,1.246,1.246,0,0,0-.992-.332,1.409,1.409,0,0,0-1.406.969L442.3,17h-2.258V11.617a1.59,1.59,0,0,0-.289-1.062,1.259,1.259,0,0,0-.984-.328,1.463,1.463,0,0,0-1.391.8V17h-2.258V8.547Zm15.625,8.609a4.15,4.15,0,0,1-3.027-1.141,4.054,4.054,0,0,1-1.168-3.039v-.219a5.106,5.106,0,0,1,.492-2.277,3.612,3.612,0,0,1,1.395-1.547,3.914,3.914,0,0,1,2.059-.543,3.508,3.508,0,0,1,2.73,1.094,4.444,4.444,0,0,1,1,3.1v.922h-5.383a2.1,2.1,0,0,0,.66,1.328,2,2,0,0,0,1.395.5,2.437,2.437,0,0,0,2.039-.945l1.109,1.242a3.389,3.389,0,0,1-1.375,1.121A4.511,4.511,0,0,1,452.867,17.156Zm-.258-6.937a1.414,1.414,0,0,0-1.09.453,2.341,2.341,0,0,0-.535,1.3h3.141v-.18a1.669,1.669,0,0,0-.406-1.16A1.459,1.459,0,0,0,452.609,10.219ZM459.7,8.547l.07.977a2.951,2.951,0,0,1,2.43-1.133,2.453,2.453,0,0,1,2,.789,3.681,3.681,0,0,1,.672,2.359V17h-2.258V11.594a1.465,1.465,0,0,0-.312-1.043,1.4,1.4,0,0,0-1.039-.324,1.553,1.553,0,0,0-1.43.813V17h-2.258V8.547Zm9.586-2.078V8.547h1.445V10.2h-1.445v4.219a1.007,1.007,0,0,0,.18.672.9.9,0,0,0,.688.2,3.6,3.6,0,0,0,.664-.055v1.711a4.648,4.648,0,0,1-1.367.2,2.156,2.156,0,0,1-2.422-2.4V10.2H465.8V8.547h1.234V6.469Zm2.117,6.227a5.013,5.013,0,0,1,.484-2.242,3.546,3.546,0,0,1,1.395-1.523,4.069,4.069,0,0,1,2.113-.539,3.849,3.849,0,0,1,2.793,1.047,4.2,4.2,0,0,1,1.207,2.844l.016.578a4.418,4.418,0,0,1-1.086,3.121,4.209,4.209,0,0,1-5.832,0,4.5,4.5,0,0,1-1.09-3.187Zm2.258.164a3.151,3.151,0,0,0,.453,1.84,1.629,1.629,0,0,0,2.578.008,3.448,3.448,0,0,0,.461-2.012,3.12,3.12,0,0,0-.461-1.828,1.5,1.5,0,0,0-1.3-.648,1.475,1.475,0,0,0-1.281.645A3.506,3.506,0,0,0,473.664,12.859Zm11.719,1.8a.727.727,0,0,0-.41-.652,4.659,4.659,0,0,0-1.316-.426q-3.016-.633-3.016-2.562a2.323,2.323,0,0,1,.934-1.879,3.766,3.766,0,0,1,2.441-.754,4.053,4.053,0,0,1,2.574.758,2.388,2.388,0,0,1,.965,1.969H485.3a1.092,1.092,0,0,0-.312-.8,1.322,1.322,0,0,0-.977-.316,1.351,1.351,0,0,0-.883.258.814.814,0,0,0-.312.656.7.7,0,0,0,.355.605,3.657,3.657,0,0,0,1.2.4,9.8,9.8,0,0,1,1.422.379,2.336,2.336,0,0,1,1.789,2.273,2.2,2.2,0,0,1-.992,1.871,4.28,4.28,0,0,1-2.562.715,4.47,4.47,0,0,1-1.887-.379,3.166,3.166,0,0,1-1.293-1.039,2.414,2.414,0,0,1-.469-1.426h2.141a1.179,1.179,0,0,0,.445.922,1.766,1.766,0,0,0,1.109.32,1.635,1.635,0,0,0,.98-.246A.766.766,0,0,0,485.383,14.664Z" transform="translate(494.5 3883)" fill="#12263f"/><g transform="translate(0 -15)"><path d="M4765.082,11904H3948.918a138.44,138.44,0,0,1,5.937-21.2,153.987,153.987,0,0,1,9.328-20.507,192.127,192.127,0,0,1,28.161-38.569,269.415,269.415,0,0,1,39.716-34.688,370.12,370.12,0,0,1,49.928-30.06,481.364,481.364,0,0,1,58.8-24.682,587.117,587.117,0,0,1,66.33-18.557,673.949,673.949,0,0,1,72.518-11.683,739.028,739.028,0,0,1,154.729,0,673.892,673.892,0,0,1,72.517,11.683,587.2,587.2,0,0,1,66.33,18.557,481.425,481.425,0,0,1,58.8,24.682,370.126,370.126,0,0,1,49.928,30.06,269.349,269.349,0,0,1,39.715,34.688,192.129,192.129,0,0,1,28.162,38.569,153.917,153.917,0,0,1,9.328,20.507,138.459,138.459,0,0,1,5.937,21.194Z" transform="translate(-3557 -7640)" fill="#f3f9ff"/><g transform="translate(596.5 4144.041)"><g clip-path="url(#a)"><g clip-path="url(#a)"><g opacity="0.5"><g clip-path="url(#c)"><path d="M16.266,119.533c0,.985,79.226,1.426,176.955,1.426s176.955-.375,176.955-1.426-79.226-1.294-176.955-1.294-176.955.309-176.955,1.294" fill="#7da1b7"/></g></g><path d="M235.807,99.266h-70.44l-7.385,12.944-4.194,7.342-16.287,0a4.58,4.58,0,0,1,0-9.16h5.636L188.07,32.25h12.743V54.423l25.77,44.84h9.22Z" fill="#637188"/><path d="M255.568,119.55H234.637L222.906,98.97h12.9Z" fill="#637188"/><g opacity="0.5" style="mix-blend-mode:multiply;isolation:isolate"><g clip-path="url(#d)"><path d="M255.568,119.55H234.637L222.906,98.97h12.9Z" fill="#637188"/></g></g><rect width="18.101" height="11.15" transform="translate(68.577 51.791) rotate(-86.243)" fill="#637188"/><path d="M146.613,12.065a76.705,76.705,0,0,1-8.077,6.323C122.22,29.525,99.823,36.193,75.218,35.759c-20.931-.369-40.08-5.817-55.131-14.642q-1.38-.806-2.714-1.657a80.623,80.623,0,0,1-11.2-8.513c-.5-.454-.993-.914-1.479-1.384Z" fill="#93b9c1"/><g opacity="0.5"><g clip-path="url(#e)"><path d="M4.7,9.564a76.783,76.783,0,0,0,7.849,6.6L145.088,13.4c.518-.438,1.023-.88,1.524-1.331Z" fill="#637188"/></g></g><path d="M151.477,7.37a4.782,4.782,0,0,1-4.867,4.695L4.7,9.563A4.782,4.782,0,1,1,4.868,0L146.779,2.5a4.783,4.783,0,0,1,4.7,4.867" fill="#93b9c1"/><rect width="18.101" height="11.15" transform="translate(325.846 68.69) rotate(-86.243)" fill="#637188"/><path d="M403.431,27.646a76.772,76.772,0,0,1-7.959,6.471C379.364,45.553,357.1,52.635,332.486,52.658c-28.092.025-53.153-9.156-69.491-23.527-.511-.447-1.009-.9-1.5-1.356Z" fill="#93b9c1"/><g opacity="0.5"><g clip-path="url(#f)"><path d="M261.492,27.774a76.652,76.652,0,0,0,7.97,6.456L401.931,29c.509-.447,1.007-.9,1.5-1.359Z" fill="#637188"/></g></g><path d="M403.419,18.08l-141.932.129a4.783,4.783,0,1,0,.008,9.565l141.933-.128a4.783,4.783,0,0,0-.009-9.566" fill="#93b9c1"/><path d="M30.138,43.879,141.95,51.223l-9.927,14.908L29.12,59.372a7.763,7.763,0,1,1,1.018-15.493" fill="#637188"/><path d="M364.708,73.637a7.761,7.761,0,0,1-8.253,7.236l-123.26-8.1L225.308,56.7,357.472,65.38a7.762,7.762,0,0,1,7.236,8.257" fill="#93b9c1"/><g opacity="0.5"><g clip-path="url(#g)"><path d="M259.492,74.5l-26.3-1.727L225.308,56.7l9.505.624S242.537,73.39,259.492,74.5" fill="#637188"/></g></g><g opacity="0.5" style="mix-blend-mode:screen;isolation:isolate"><g clip-path="url(#h)"><path d="M157.981,112.211l-4.194,7.34H137.5a4.58,4.58,0,0,1,0-9.159h18.377Z" fill="#637188"/></g></g><path d="M255.568,114.968a4.578,4.578,0,0,1-4.581,4.578h-3.608L235.8,99.263H178.113L166.506,119.6l-16.263-.052a4.578,4.578,0,1,1,0-9.156h5.636l44.935-78.143,44.91,78.143h5.263a4.575,4.575,0,0,1,4.581,4.578" fill="#93b9c1"/><path d="M267.885,114.968a4.578,4.578,0,0,1-4.581,4.578H247.379L235.8,99.263H213.128L200.814,32.247h12.314l44.913,78.143H263.3a4.575,4.575,0,0,1,4.581,4.578" fill="#93b9c1"/><path d="M214.83,63.283a7.763,7.763,0,1,1-7.763-7.763,7.763,7.763,0,0,1,7.763,7.763" fill="#c4eff2"/><path d="M51.221,45.264l131,8.6L172.3,68.777,50.2,60.757a7.763,7.763,0,1,1,1.018-15.493" fill="#93b9c1"/></g></g></g><rect width="226" height="48" transform="translate(821.5 4116)" fill="#eff6e5"/><rect width="226" height="61" transform="translate(821.5 4000)" fill="#e3eaf1"/><rect width="226" height="57" transform="translate(849.5 3943)" fill="#eff6e5"/><rect width="197" height="56" transform="translate(864.5 4060)" fill="#fff4d9"/><g transform="translate(844.765 4131.5)"><g clip-path="url(#i)"><path d="M9.853,8.725a4.272,4.272,0,0,1-1.44,3.07,5.054,5.054,0,0,1-3.424,1.121,4.549,4.549,0,0,1-3.657-1.564A6.419,6.419,0,0,1,0,7.056V6.317A7.25,7.25,0,0,1,.614,3.246,4.608,4.608,0,0,1,2.37,1.208,4.92,4.92,0,0,1,5.022.5,4.919,4.919,0,0,1,8.392,1.62,4.592,4.592,0,0,1,9.87,4.765H7.379a2.521,2.521,0,0,0-.651-1.7A2.411,2.411,0,0,0,5.022,2.54a2.118,2.118,0,0,0-1.864.893A5.013,5.013,0,0,0,2.523,6.2v.912a5.352,5.352,0,0,0,.594,2.864,2.078,2.078,0,0,0,1.872.905,2.459,2.459,0,0,0,1.722-.527,2.383,2.383,0,0,0,.652-1.631Z" fill="#3c6d9d"/><path d="M10.957,8.176a5.315,5.315,0,0,1,.515-2.382,3.765,3.765,0,0,1,1.481-1.618A4.315,4.315,0,0,1,15.2,3.6a4.09,4.09,0,0,1,2.967,1.112,4.464,4.464,0,0,1,1.283,3.022l.016.614a4.7,4.7,0,0,1-1.153,3.316,4.011,4.011,0,0,1-3.1,1.249,4.03,4.03,0,0,1-3.1-1.245,4.776,4.776,0,0,1-1.158-3.386Zm2.4.171a3.365,3.365,0,0,0,.481,1.958,1.729,1.729,0,0,0,2.74.008,3.676,3.676,0,0,0,.489-2.141,3.326,3.326,0,0,0-.489-1.945,1.593,1.593,0,0,0-1.378-.69,1.567,1.567,0,0,0-1.362.686,3.742,3.742,0,0,0-.481,2.124" fill="#3c6d9d"/><path d="M23.151,3.769l.075,1.038a3.134,3.134,0,0,1,2.581-1.2,2.6,2.6,0,0,1,2.125.839,3.907,3.907,0,0,1,.714,2.506v5.8h-2.4V7.006A1.558,1.558,0,0,0,25.915,5.9a1.484,1.484,0,0,0-1.1-.345,1.652,1.652,0,0,0-1.519.863V12.75h-2.4V3.769Z" fill="#3c6d9d"/><path d="M33.336,1.561V3.769h1.536v1.76H33.336V10.01a1.063,1.063,0,0,0,.191.714.958.958,0,0,0,.73.217,3.889,3.889,0,0,0,.706-.059V12.7a4.967,4.967,0,0,1-1.453.214,2.29,2.29,0,0,1-2.573-2.547V5.529H29.626V3.769h1.311V1.561Z" fill="#3c6d9d"/><path d="M41.413,12.75a2.66,2.66,0,0,1-.241-.805,2.9,2.9,0,0,1-2.266.971,3.188,3.188,0,0,1-2.187-.764,2.452,2.452,0,0,1-.868-1.925A2.537,2.537,0,0,1,36.91,8.035a5.218,5.218,0,0,1,3.059-.771h1.1V6.748a1.484,1.484,0,0,0-.32-1,1.26,1.26,0,0,0-1.009-.373,1.429,1.429,0,0,0-.95.291.984.984,0,0,0-.344.8h-2.4a2.415,2.415,0,0,1,.481-1.446A3.191,3.191,0,0,1,37.893,3.98,4.959,4.959,0,0,1,39.869,3.6a3.928,3.928,0,0,1,2.636.833,2.92,2.92,0,0,1,.975,2.345v3.894a4.278,4.278,0,0,0,.357,1.934v.141Zm-1.984-1.668a2.059,2.059,0,0,0,.979-.237,1.555,1.555,0,0,0,.665-.635V8.666h-.9q-1.8,0-1.917,1.245l-.009.142a.956.956,0,0,0,.316.738,1.228,1.228,0,0,0,.863.291" fill="#3c6d9d"/><path d="M47.572,3.769l.075,1.005A3.154,3.154,0,0,1,50.228,3.6a2.4,2.4,0,0,1,2.383,1.37,3.081,3.081,0,0,1,2.7-1.37,2.677,2.677,0,0,1,2.175.851,3.907,3.907,0,0,1,.714,2.56V12.75H55.79V7.023a1.71,1.71,0,0,0-.3-1.116,1.322,1.322,0,0,0-1.054-.354,1.5,1.5,0,0,0-1.494,1.029l.008,6.168h-2.4V7.032A1.692,1.692,0,0,0,50.245,5.9a1.335,1.335,0,0,0-1.046-.35,1.556,1.556,0,0,0-1.478.848V12.75h-2.4V3.769Z" fill="#3c6d9d"/><path d="M60.023,1.444a1.182,1.182,0,0,1,.361-.887,1.551,1.551,0,0,1,1.963,0,1.17,1.17,0,0,1,.365.887,1.179,1.179,0,0,1-.369.9,1.54,1.54,0,0,1-1.95,0,1.176,1.176,0,0,1-.37-.9M62.571,12.75H60.164V3.769h2.407Z" fill="#3c6d9d"/><path d="M66.755,3.769l.075,1.038a3.134,3.134,0,0,1,2.581-1.2,2.6,2.6,0,0,1,2.125.839,3.907,3.907,0,0,1,.714,2.506v5.8h-2.4V7.006A1.558,1.558,0,0,0,69.519,5.9a1.484,1.484,0,0,0-1.1-.345,1.652,1.652,0,0,0-1.519.863V12.75H64.5V3.769Z" fill="#3c6d9d"/><path d="M79.273,12.75a2.66,2.66,0,0,1-.241-.805,2.9,2.9,0,0,1-2.266.971,3.188,3.188,0,0,1-2.187-.764,2.452,2.452,0,0,1-.868-1.925A2.537,2.537,0,0,1,74.77,8.035a5.218,5.218,0,0,1,3.059-.771h1.1V6.748a1.484,1.484,0,0,0-.32-1A1.26,1.26,0,0,0,77.6,5.379a1.429,1.429,0,0,0-.95.291.984.984,0,0,0-.344.8h-2.4a2.415,2.415,0,0,1,.481-1.446A3.191,3.191,0,0,1,75.753,3.98,4.959,4.959,0,0,1,77.729,3.6a3.928,3.928,0,0,1,2.636.833,2.92,2.92,0,0,1,.975,2.345v3.894a4.278,4.278,0,0,0,.357,1.934v.141Zm-1.984-1.668a2.059,2.059,0,0,0,.979-.237,1.555,1.555,0,0,0,.665-.635V8.666h-.9q-1.8,0-1.917,1.245l-.009.142a.956.956,0,0,0,.316.738,1.228,1.228,0,0,0,.863.291" fill="#3c6d9d"/><path d="M86.918,10.982A1.573,1.573,0,0,0,88,10.617a1.278,1.278,0,0,0,.432-.972h2.25a3.073,3.073,0,0,1-.5,1.673A3.29,3.29,0,0,1,88.84,12.5a4.207,4.207,0,0,1-1.88.419,3.9,3.9,0,0,1-3.038-1.225A4.837,4.837,0,0,1,82.81,8.308V8.151a4.793,4.793,0,0,1,1.1-3.312A3.854,3.854,0,0,1,86.942,3.6a3.783,3.783,0,0,1,2.7.959,3.4,3.4,0,0,1,1.032,2.552h-2.25A1.643,1.643,0,0,0,88,5.974a1.606,1.606,0,0,0-2.361.173,3.547,3.547,0,0,0-.428,1.982v.25a3.589,3.589,0,0,0,.425,2,1.461,1.461,0,0,0,1.286.607" fill="#3c6d9d"/><path d="M92.031,1.444a1.182,1.182,0,0,1,.361-.887,1.551,1.551,0,0,1,1.963,0,1.17,1.17,0,0,1,.365.887,1.179,1.179,0,0,1-.369.9,1.54,1.54,0,0,1-1.95,0,1.176,1.176,0,0,1-.37-.9M94.58,12.75H92.173V3.769H94.58Z" fill="#3c6d9d"/><path d="M96.181,8.176A5.326,5.326,0,0,1,96.7,5.794a3.771,3.771,0,0,1,1.481-1.618,4.318,4.318,0,0,1,2.246-.573,4.088,4.088,0,0,1,2.967,1.112,4.463,4.463,0,0,1,1.283,3.021l.017.615a4.7,4.7,0,0,1-1.154,3.316,4.473,4.473,0,0,1-6.2,0,4.777,4.777,0,0,1-1.158-3.387Zm2.4.171a3.36,3.36,0,0,0,.481,1.958,1.73,1.73,0,0,0,2.739.008,3.68,3.68,0,0,0,.49-2.141,3.326,3.326,0,0,0-.49-1.945,1.593,1.593,0,0,0-1.378-.69,1.564,1.564,0,0,0-1.361.686,3.734,3.734,0,0,0-.481,2.124M100.9,0h2.615l-2.3,2.573h-1.95Z" fill="#3c6d9d"/><path d="M108.376,3.769l.074,1.038a3.134,3.134,0,0,1,2.582-1.2,2.607,2.607,0,0,1,2.125.839,3.919,3.919,0,0,1,.713,2.506v5.8h-2.4V7.006A1.563,1.563,0,0,0,111.14,5.9a1.486,1.486,0,0,0-1.1-.345,1.648,1.648,0,0,0-1.518.863V12.75h-2.4V3.769Z" fill="#3c6d9d"/><path d="M123.657,10.982a1.574,1.574,0,0,0,1.079-.365,1.281,1.281,0,0,0,.432-.972h2.25a3.09,3.09,0,0,1-.5,1.673,3.3,3.3,0,0,1-1.341,1.179,4.2,4.2,0,0,1-1.88.419,3.9,3.9,0,0,1-3.038-1.225,4.841,4.841,0,0,1-1.112-3.383V8.151a4.794,4.794,0,0,1,1.1-3.312,3.853,3.853,0,0,1,3.03-1.237,3.779,3.779,0,0,1,2.7.959,3.4,3.4,0,0,1,1.033,2.552h-2.25a1.647,1.647,0,0,0-.432-1.139,1.606,1.606,0,0,0-2.361.173,3.538,3.538,0,0,0-.428,1.982v.25a3.59,3.59,0,0,0,.424,2,1.464,1.464,0,0,0,1.286.607" fill="#3c6d9d"/><path d="M133.833,6.018a6.547,6.547,0,0,0-.863-.066,1.756,1.756,0,0,0-1.784.921V12.75h-2.4V3.769h2.267l.066,1.071a2.223,2.223,0,0,1,2-1.237,2.507,2.507,0,0,1,.747.108Z" fill="#3c6d9d"/><path d="M140.367,11.837a3.008,3.008,0,0,1-2.457,1.079,2.835,2.835,0,0,1-2.2-.83,3.541,3.541,0,0,1-.776-2.432V3.769h2.4V9.577q0,1.406,1.278,1.406a1.734,1.734,0,0,0,1.677-.849V3.769h2.407V12.75h-2.258Z" fill="#3c6d9d"/><path d="M147.256,10.816h4.391V12.75h-7.454V11.289L148.418,5.7h-4.1V3.768h7.2V5.181Z" fill="#3c6d9d"/><path d="M158.354,12.75a2.69,2.69,0,0,1-.24-.805,2.9,2.9,0,0,1-2.266.971,3.193,3.193,0,0,1-2.188-.764,2.454,2.454,0,0,1-.867-1.925,2.536,2.536,0,0,1,1.058-2.192,5.222,5.222,0,0,1,3.059-.771h1.1V6.748a1.479,1.479,0,0,0-.321-1,1.259,1.259,0,0,0-1.008-.373,1.432,1.432,0,0,0-.951.291.987.987,0,0,0-.343.8h-2.4a2.416,2.416,0,0,1,.482-1.446,3.191,3.191,0,0,1,1.361-1.041A4.958,4.958,0,0,1,156.81,3.6a3.924,3.924,0,0,1,2.636.833,2.918,2.918,0,0,1,.976,2.345v3.894a4.294,4.294,0,0,0,.356,1.934v.141Zm-1.983-1.668a2.059,2.059,0,0,0,.979-.237,1.561,1.561,0,0,0,.665-.635V8.666h-.9q-1.8,0-1.918,1.245l-.008.142a.956.956,0,0,0,.316.738,1.228,1.228,0,0,0,.863.291" fill="#3c6d9d"/><path d="M161.891,8.193a5.413,5.413,0,0,1,.942-3.345A3.055,3.055,0,0,1,165.41,3.6a2.751,2.751,0,0,1,2.167.98V0h2.407V12.75h-2.167L167.7,11.8a2.82,2.82,0,0,1-2.307,1.121,3.046,3.046,0,0,1-2.544-1.249,5.582,5.582,0,0,1-.959-3.474m2.4.178a3.547,3.547,0,0,0,.439,1.937,1.433,1.433,0,0,0,1.279.674,1.606,1.606,0,0,0,1.569-.939V6.492a1.583,1.583,0,0,0-1.553-.939q-1.734,0-1.734,2.818" fill="#3c6d9d"/><path d="M177.047,12.75a2.689,2.689,0,0,1-.24-.805,2.9,2.9,0,0,1-2.266.971,3.193,3.193,0,0,1-2.188-.764,2.454,2.454,0,0,1-.867-1.925,2.536,2.536,0,0,1,1.058-2.192,5.222,5.222,0,0,1,3.059-.771h1.1V6.748a1.479,1.479,0,0,0-.321-1,1.259,1.259,0,0,0-1.008-.373,1.432,1.432,0,0,0-.951.291.987.987,0,0,0-.343.8h-2.4a2.416,2.416,0,0,1,.482-1.446,3.191,3.191,0,0,1,1.361-1.041A4.958,4.958,0,0,1,175.5,3.6a3.924,3.924,0,0,1,2.636.833,2.918,2.918,0,0,1,.976,2.345v3.894a4.294,4.294,0,0,0,.356,1.934v.141Zm-1.983-1.668a2.059,2.059,0,0,0,.979-.237,1.561,1.561,0,0,0,.665-.635V8.666h-.9q-1.8,0-1.918,1.245l-.008.142a.956.956,0,0,0,.316.738,1.228,1.228,0,0,0,.863.291" fill="#3c6d9d"/></g></g><g transform="translate(907.5 4071.001)"><path d="M0,0V2.136H3.867V12.8H6.5V2.136h3.92V0Z" fill="#3c6d9d"/><g clip-path="url(#j)"><path d="M15.354,12.972a4.668,4.668,0,0,1-3.406-1.283A4.56,4.56,0,0,1,10.634,8.27V8.024a5.743,5.743,0,0,1,.554-2.561,4.072,4.072,0,0,1,1.568-1.741,4.411,4.411,0,0,1,2.317-.611,3.943,3.943,0,0,1,3.071,1.231,5,5,0,0,1,1.121,3.489V8.868H13.21a2.359,2.359,0,0,0,.742,1.494,2.245,2.245,0,0,0,1.569.563,2.742,2.742,0,0,0,2.294-1.064l1.248,1.4a3.794,3.794,0,0,1-1.547,1.26,5.07,5.07,0,0,1-2.162.453m-.29-7.813a1.591,1.591,0,0,0-1.227.512,2.658,2.658,0,0,0-.6,1.466h3.533v-.2a1.888,1.888,0,0,0-.457-1.31,1.634,1.634,0,0,0-1.248-.464" fill="#3c6d9d"/><path d="M23.089,3.287l.079,1.063A3.343,3.343,0,0,1,25.9,3.111a2.537,2.537,0,0,1,2.522,1.45,3.267,3.267,0,0,1,2.856-1.45,2.838,2.838,0,0,1,2.3.9,4.141,4.141,0,0,1,.756,2.712V12.8H31.79V6.732a1.807,1.807,0,0,0-.316-1.181,1.4,1.4,0,0,0-1.116-.374,1.584,1.584,0,0,0-1.582,1.089l.008,6.531h-2.54V6.741a1.786,1.786,0,0,0-.325-1.2,1.416,1.416,0,0,0-1.107-.369,1.645,1.645,0,0,0-1.565.9V12.8h-2.54V3.287Z" fill="#3c6d9d"/><path d="M44.85,8.13a5.712,5.712,0,0,1-1,3.52,3.2,3.2,0,0,1-2.693,1.322,2.963,2.963,0,0,1-2.33-1v4.483H36.29V3.287h2.356l.087.931a2.987,2.987,0,0,1,2.408-1.107,3.222,3.222,0,0,1,2.734,1.3A5.859,5.859,0,0,1,44.85,8Zm-2.539-.185A3.748,3.748,0,0,0,41.84,5.9a1.532,1.532,0,0,0-1.367-.721,1.661,1.661,0,0,0-1.643.915V9.984a1.691,1.691,0,0,0,1.662.94q1.818,0,1.819-2.979" fill="#3c6d9d"/><path d="M50.8,12.972A4.668,4.668,0,0,1,47.4,11.689,4.56,4.56,0,0,1,46.081,8.27V8.024a5.743,5.743,0,0,1,.554-2.561A4.072,4.072,0,0,1,48.2,3.722a4.411,4.411,0,0,1,2.317-.611,3.943,3.943,0,0,1,3.071,1.231,5,5,0,0,1,1.121,3.489V8.868H48.657a2.359,2.359,0,0,0,.742,1.494,2.245,2.245,0,0,0,1.569.563,2.742,2.742,0,0,0,2.294-1.064l1.248,1.4a3.794,3.794,0,0,1-1.547,1.26,5.07,5.07,0,0,1-2.162.453m-.29-7.813a1.591,1.591,0,0,0-1.227.512,2.658,2.658,0,0,0-.6,1.466h3.533v-.2a1.888,1.888,0,0,0-.457-1.31,1.634,1.634,0,0,0-1.248-.464" fill="#3c6d9d"/><path d="M61.5,5.669a6.873,6.873,0,0,0-.914-.07,1.861,1.861,0,0,0-1.89.975V12.8h-2.54V3.287h2.4l.07,1.134a2.354,2.354,0,0,1,2.118-1.31,2.636,2.636,0,0,1,.791.115Z" fill="#3c6d9d"/><path d="M67.966,12.8a2.783,2.783,0,0,1-.255-.853,3.073,3.073,0,0,1-2.4,1.028,3.377,3.377,0,0,1-2.316-.808,2.6,2.6,0,0,1-.918-2.039A2.688,2.688,0,0,1,63.2,7.8a5.532,5.532,0,0,1,3.239-.817h1.169V6.442a1.568,1.568,0,0,0-.339-1.055A1.331,1.331,0,0,0,66.2,4.992a1.51,1.51,0,0,0-1.007.308,1.044,1.044,0,0,0-.364.843h-2.54a2.552,2.552,0,0,1,.51-1.529,3.365,3.365,0,0,1,1.441-1.1,5.262,5.262,0,0,1,2.092-.4,4.154,4.154,0,0,1,2.79.883,3.094,3.094,0,0,1,1.033,2.483V10.6a4.549,4.549,0,0,0,.378,2.048v.15Zm-2.1-1.767a2.175,2.175,0,0,0,1.037-.251,1.635,1.635,0,0,0,.7-.672V8.472h-.949q-1.906,0-2.03,1.319l-.009.149a1.014,1.014,0,0,0,.334.782,1.3,1.3,0,0,0,.914.308" fill="#3c6d9d"/><path d="M75.146.949V3.287h1.626V5.15H75.146V9.9a1.131,1.131,0,0,0,.2.756,1.018,1.018,0,0,0,.774.229,4.052,4.052,0,0,0,.747-.062v1.925a5.241,5.241,0,0,1-1.538.228,2.425,2.425,0,0,1-2.725-2.7V5.15H71.217V3.287h1.389V.949Z" fill="#3c6d9d"/><path d="M83.883,11.83a3.185,3.185,0,0,1-2.6,1.143,3.007,3.007,0,0,1-2.334-.879,3.756,3.756,0,0,1-.821-2.576V3.287h2.54v6.15q0,1.488,1.354,1.488a1.833,1.833,0,0,0,1.775-.9V3.287h2.549V12.8H83.953Z" fill="#3c6d9d"/><path d="M93.6,5.669a6.9,6.9,0,0,0-.915-.07,1.862,1.862,0,0,0-1.89.975V12.8h-2.54V3.287h2.4l.069,1.134a2.354,2.354,0,0,1,2.118-1.31,2.636,2.636,0,0,1,.791.115Z" fill="#3c6d9d"/><path d="M100.073,12.8a2.783,2.783,0,0,1-.255-.853,3.073,3.073,0,0,1-2.4,1.028,3.377,3.377,0,0,1-2.316-.808,2.6,2.6,0,0,1-.918-2.039A2.688,2.688,0,0,1,95.3,7.8a5.532,5.532,0,0,1,3.239-.817h1.169V6.442a1.567,1.567,0,0,0-.339-1.055,1.331,1.331,0,0,0-1.067-.395A1.51,1.51,0,0,0,97.3,5.3a1.044,1.044,0,0,0-.364.843h-2.54a2.552,2.552,0,0,1,.51-1.529,3.365,3.365,0,0,1,1.441-1.1,5.262,5.262,0,0,1,2.092-.4,4.154,4.154,0,0,1,2.79.883,3.094,3.094,0,0,1,1.033,2.483V10.6a4.549,4.549,0,0,0,.378,2.048v.15Zm-2.1-1.767a2.175,2.175,0,0,0,1.037-.251,1.635,1.635,0,0,0,.7-.672V8.472h-.949q-1.907,0-2.03,1.319l-.009.149a1.014,1.014,0,0,0,.334.782,1.3,1.3,0,0,0,.914.308" fill="#3c6d9d"/><path d="M109.362,10.169a.816.816,0,0,0-.462-.733,5.243,5.243,0,0,0-1.48-.48q-3.393-.711-3.393-2.883a2.615,2.615,0,0,1,1.05-2.114,4.245,4.245,0,0,1,2.747-.848,4.558,4.558,0,0,1,2.9.853,2.686,2.686,0,0,1,1.086,2.215h-2.54a1.234,1.234,0,0,0-.351-.9,1.5,1.5,0,0,0-1.1-.355,1.521,1.521,0,0,0-.993.29.916.916,0,0,0-.352.738.781.781,0,0,0,.4.681,4.085,4.085,0,0,0,1.349.449,11.066,11.066,0,0,1,1.6.426,2.628,2.628,0,0,1,2.013,2.558,2.478,2.478,0,0,1-1.116,2.1,4.813,4.813,0,0,1-2.883.8,5.048,5.048,0,0,1-2.123-.426,3.544,3.544,0,0,1-1.454-1.17,2.71,2.71,0,0,1-.528-1.6h2.408a1.331,1.331,0,0,0,.5,1.038,1.99,1.99,0,0,0,1.248.36,1.849,1.849,0,0,0,1.1-.276.865.865,0,0,0,.374-.726" fill="#3c6d9d"/><path d="M5.761,22.426a1.252,1.252,0,0,1,.383-.941,1.433,1.433,0,0,1,1.041-.369,1.441,1.441,0,0,1,1.037.369,1.345,1.345,0,0,1,0,1.89,1.446,1.446,0,0,1-1.033.369,1.444,1.444,0,0,1-1.033-.369,1.25,1.25,0,0,1-.391-.949m2.7,11.97H5.91v-9.51H8.459Z" fill="#3c6d9d"/><path d="M12.889,24.887l.079,1.1A3.321,3.321,0,0,1,15.7,24.711a2.758,2.758,0,0,1,2.249.888,4.132,4.132,0,0,1,.756,2.654V34.4h-2.54V28.315a1.653,1.653,0,0,0-.351-1.174,1.58,1.58,0,0,0-1.169-.364,1.748,1.748,0,0,0-1.609.914V34.4H10.5v-9.51Z" fill="#3c6d9d"/><path d="M26.143,34.4a2.783,2.783,0,0,1-.255-.853,3.073,3.073,0,0,1-2.4,1.028,3.375,3.375,0,0,1-2.315-.808,2.6,2.6,0,0,1-.919-2.039A2.689,2.689,0,0,1,21.375,29.4a5.529,5.529,0,0,1,3.238-.817h1.169v-.545a1.567,1.567,0,0,0-.338-1.055,1.333,1.333,0,0,0-1.068-.4,1.507,1.507,0,0,0-1.006.308,1.045,1.045,0,0,0-.365.843h-2.54a2.552,2.552,0,0,1,.51-1.529,3.365,3.365,0,0,1,1.441-1.1,5.262,5.262,0,0,1,2.092-.4,4.157,4.157,0,0,1,2.791.883,3.093,3.093,0,0,1,1.032,2.483V32.2a4.549,4.549,0,0,0,.378,2.048v.15Zm-2.1-1.767a2.175,2.175,0,0,0,1.037-.251,1.635,1.635,0,0,0,.7-.672V30.072h-.949q-1.906,0-2.03,1.319l-.009.149a1.014,1.014,0,0,0,.334.782,1.3,1.3,0,0,0,.914.308" fill="#3c6d9d"/><path d="M29.887,29.572a5.728,5.728,0,0,1,1-3.542,3.236,3.236,0,0,1,2.729-1.319,2.912,2.912,0,0,1,2.293,1.037V20.9h2.549V34.4H36.162l-.123-1.011A2.989,2.989,0,0,1,33.6,34.573,3.226,3.226,0,0,1,30.9,33.25a5.914,5.914,0,0,1-1.016-3.678m2.54.189a3.751,3.751,0,0,0,.466,2.051,1.518,1.518,0,0,0,1.353.713,1.7,1.7,0,0,0,1.661-1V27.772a1.675,1.675,0,0,0-1.643-.995q-1.837,0-1.837,2.984" fill="#3c6d9d"/><path d="M44.8,34.572a4.665,4.665,0,0,1-3.4-1.283,4.561,4.561,0,0,1-1.315-3.419v-.246a5.743,5.743,0,0,1,.554-2.561,4.074,4.074,0,0,1,1.569-1.741,4.407,4.407,0,0,1,2.316-.611,3.945,3.945,0,0,1,3.072,1.231,5,5,0,0,1,1.12,3.489v1.037H42.658a2.36,2.36,0,0,0,.743,1.494,2.243,2.243,0,0,0,1.568.563,2.742,2.742,0,0,0,2.294-1.064l1.248,1.4a3.794,3.794,0,0,1-1.547,1.26,5.07,5.07,0,0,1-2.162.453m-.29-7.813a1.589,1.589,0,0,0-1.226.512,2.658,2.658,0,0,0-.6,1.466h3.533v-.2a1.888,1.888,0,0,0-.457-1.31,1.634,1.634,0,0,0-1.248-.464" fill="#3c6d9d"/><path d="M54.109,32.524a1.666,1.666,0,0,0,1.143-.387,1.355,1.355,0,0,0,.457-1.028H58.09a3.252,3.252,0,0,1-.527,1.771,3.472,3.472,0,0,1-1.419,1.248,4.453,4.453,0,0,1-1.991.444,4.127,4.127,0,0,1-3.217-1.3,5.128,5.128,0,0,1-1.178-3.581v-.167a5.073,5.073,0,0,1,1.169-3.507,4.082,4.082,0,0,1,3.208-1.309A4,4,0,0,1,57,25.726a3.591,3.591,0,0,1,1.093,2.7H55.709a1.747,1.747,0,0,0-.457-1.206,1.7,1.7,0,0,0-2.5.183,3.749,3.749,0,0,0-.454,2.1v.265a3.791,3.791,0,0,0,.449,2.112,1.548,1.548,0,0,0,1.362.643" fill="#3c6d9d"/><path d="M65.236,33.43a3.185,3.185,0,0,1-2.6,1.143,3,3,0,0,1-2.333-.879,3.756,3.756,0,0,1-.822-2.576V24.887h2.54v6.15q0,1.488,1.354,1.488a1.833,1.833,0,0,0,1.775-.9v-6.74H67.7V34.4H65.306Z" fill="#3c6d9d"/><path d="M75.124,34.4a2.783,2.783,0,0,1-.255-.853,3.073,3.073,0,0,1-2.4,1.028,3.375,3.375,0,0,1-2.315-.808,2.6,2.6,0,0,1-.919-2.039A2.689,2.689,0,0,1,70.356,29.4a5.529,5.529,0,0,1,3.238-.817h1.169v-.545a1.567,1.567,0,0,0-.338-1.055,1.333,1.333,0,0,0-1.068-.4,1.507,1.507,0,0,0-1.006.308,1.045,1.045,0,0,0-.365.843h-2.54a2.552,2.552,0,0,1,.51-1.529,3.365,3.365,0,0,1,1.441-1.1,5.262,5.262,0,0,1,2.092-.4,4.157,4.157,0,0,1,2.791.883,3.093,3.093,0,0,1,1.032,2.483V32.2a4.549,4.549,0,0,0,.378,2.048v.15Zm-2.1-1.767a2.175,2.175,0,0,0,1.037-.251,1.635,1.635,0,0,0,.7-.672V30.072h-.949q-1.907,0-2.03,1.319l-.009.149a1.014,1.014,0,0,0,.334.782,1.3,1.3,0,0,0,.914.308" fill="#3c6d9d"/><path d="M78.868,29.572a5.728,5.728,0,0,1,1-3.542A3.236,3.236,0,0,1,82.6,24.711a2.912,2.912,0,0,1,2.293,1.037V20.9h2.549V34.4H85.143l-.123-1.011a2.989,2.989,0,0,1-2.443,1.187,3.226,3.226,0,0,1-2.693-1.323,5.914,5.914,0,0,1-1.016-3.678m2.54.189a3.752,3.752,0,0,0,.466,2.051,1.518,1.518,0,0,0,1.353.713,1.7,1.7,0,0,0,1.661-1V27.772a1.675,1.675,0,0,0-1.643-.995q-1.838,0-1.837,2.984" fill="#3c6d9d"/><path d="M94.917,34.4a2.783,2.783,0,0,1-.255-.853,3.073,3.073,0,0,1-2.4,1.028,3.375,3.375,0,0,1-2.315-.808,2.6,2.6,0,0,1-.919-2.039A2.689,2.689,0,0,1,90.149,29.4a5.529,5.529,0,0,1,3.238-.817h1.169v-.545a1.567,1.567,0,0,0-.338-1.055,1.333,1.333,0,0,0-1.068-.4,1.507,1.507,0,0,0-1.006.308,1.045,1.045,0,0,0-.365.843h-2.54a2.552,2.552,0,0,1,.51-1.529,3.365,3.365,0,0,1,1.441-1.1,5.262,5.262,0,0,1,2.092-.4,4.157,4.157,0,0,1,2.791.883,3.093,3.093,0,0,1,1.032,2.483V32.2a4.549,4.549,0,0,0,.378,2.048v.15Zm-2.1-1.767a2.175,2.175,0,0,0,1.037-.251,1.635,1.635,0,0,0,.7-.672V30.072h-.949q-1.907,0-2.03,1.319l-.009.149a1.014,1.014,0,0,0,.334.782,1.3,1.3,0,0,0,.914.308" fill="#3c6d9d"/><path d="M104.207,31.769a.815.815,0,0,0-.461-.733,5.252,5.252,0,0,0-1.481-.48q-3.393-.711-3.393-2.883a2.616,2.616,0,0,1,1.051-2.114,4.243,4.243,0,0,1,2.746-.848,4.561,4.561,0,0,1,2.9.853,2.685,2.685,0,0,1,1.085,2.215h-2.54a1.234,1.234,0,0,0-.351-.9,1.5,1.5,0,0,0-1.1-.355,1.521,1.521,0,0,0-.993.29.916.916,0,0,0-.352.738.782.782,0,0,0,.4.681,4.078,4.078,0,0,0,1.348.449,11.066,11.066,0,0,1,1.6.426,2.628,2.628,0,0,1,2.013,2.558,2.478,2.478,0,0,1-1.116,2.1,4.813,4.813,0,0,1-2.883.805,5.044,5.044,0,0,1-2.122-.426,3.547,3.547,0,0,1-1.455-1.17,2.71,2.71,0,0,1-.528-1.6h2.408a1.331,1.331,0,0,0,.5,1.038,1.99,1.99,0,0,0,1.248.36,1.853,1.853,0,0,0,1.1-.276.864.864,0,0,0,.373-.726" fill="#3c6d9d"/></g></g><g transform="translate(854.542 4012.862)"><g clip-path="url(#k)"><path d="M2.637,8.992V13.5H0V.7H4.992a5.769,5.769,0,0,1,2.536.527,3.89,3.89,0,0,1,1.683,1.5A4.178,4.178,0,0,1,9.8,4.94,3.675,3.675,0,0,1,8.512,7.907,5.364,5.364,0,0,1,4.949,8.992Zm0-2.136H4.992a2.319,2.319,0,0,0,1.6-.492,1.79,1.79,0,0,0,.549-1.406,2.113,2.113,0,0,0-.554-1.521,2.068,2.068,0,0,0-1.529-.6H2.637Z" fill="#3c6d9d"/><path d="M16.787,6.372a6.873,6.873,0,0,0-.914-.07,1.861,1.861,0,0,0-1.89.975V13.5h-2.54V3.99h2.4l.07,1.134a2.354,2.354,0,0,1,2.118-1.31,2.636,2.636,0,0,1,.791.115Z" fill="#3c6d9d"/><path d="M17.3,8.657a5.642,5.642,0,0,1,.545-2.522,3.986,3.986,0,0,1,1.569-1.714,4.577,4.577,0,0,1,2.377-.606A4.33,4.33,0,0,1,24.93,4.992a4.727,4.727,0,0,1,1.358,3.2l.018.65a4.97,4.97,0,0,1-1.222,3.512,4.248,4.248,0,0,1-3.278,1.322,4.271,4.271,0,0,1-3.283-1.318A5.061,5.061,0,0,1,17.3,8.772Zm2.54.181a3.549,3.549,0,0,0,.51,2.072,1.83,1.83,0,0,0,2.9.009,3.885,3.885,0,0,0,.519-2.267,3.516,3.516,0,0,0-.519-2.059,1.686,1.686,0,0,0-1.459-.731,1.659,1.659,0,0,0-1.441.727,3.949,3.949,0,0,0-.51,2.249" fill="#3c6d9d"/><path d="M27.475,8.675a5.722,5.722,0,0,1,1-3.542A3.236,3.236,0,0,1,31.2,3.814a2.912,2.912,0,0,1,2.293,1.037V0h2.549V13.5H33.75l-.123-1.011a2.989,2.989,0,0,1-2.443,1.187,3.229,3.229,0,0,1-2.694-1.323,5.914,5.914,0,0,1-1.015-3.678m2.54.189a3.751,3.751,0,0,0,.466,2.051,1.518,1.518,0,0,0,1.353.713,1.7,1.7,0,0,0,1.661-.995V6.875a1.675,1.675,0,0,0-1.643-.995q-1.837,0-1.837,2.984" fill="#3c6d9d"/><path d="M43.708,12.533a3.185,3.185,0,0,1-2.6,1.143,3,3,0,0,1-2.333-.879,3.756,3.756,0,0,1-.822-2.576V3.99h2.54v6.15q0,1.488,1.354,1.488a1.833,1.833,0,0,0,1.775-.9V3.99h2.549V13.5H43.778Z" fill="#3c6d9d"/><path d="M52.04,11.628a1.666,1.666,0,0,0,1.143-.387,1.355,1.355,0,0,0,.457-1.028h2.381a3.252,3.252,0,0,1-.527,1.771,3.472,3.472,0,0,1-1.419,1.248,4.453,4.453,0,0,1-1.991.444,4.127,4.127,0,0,1-3.217-1.3A5.128,5.128,0,0,1,47.689,8.8V8.631a5.073,5.073,0,0,1,1.169-3.507,4.082,4.082,0,0,1,3.208-1.309A4,4,0,0,1,54.928,4.83a3.591,3.591,0,0,1,1.093,2.7H53.64a1.747,1.747,0,0,0-.457-1.206,1.7,1.7,0,0,0-2.5.183,3.749,3.749,0,0,0-.454,2.1v.265a3.791,3.791,0,0,0,.449,2.112,1.548,1.548,0,0,0,1.362.643" fill="#3c6d9d"/><path d="M60.513,1.652V3.99h1.626V5.853H60.513V10.6a1.131,1.131,0,0,0,.2.756,1.018,1.018,0,0,0,.774.229,4.052,4.052,0,0,0,.747-.062v1.925a5.241,5.241,0,0,1-1.538.228,2.425,2.425,0,0,1-2.725-2.7V5.853H56.584V3.99h1.389V1.652Z" fill="#3c6d9d"/><path d="M62.9,8.657a5.642,5.642,0,0,1,.545-2.522,3.992,3.992,0,0,1,1.569-1.714,4.58,4.58,0,0,1,2.377-.606,4.334,4.334,0,0,1,3.143,1.177,4.731,4.731,0,0,1,1.357,3.2l.018.65a4.97,4.97,0,0,1-1.222,3.512,4.735,4.735,0,0,1-6.56,0A5.057,5.057,0,0,1,62.9,8.772Zm2.54.181a3.549,3.549,0,0,0,.51,2.072,1.83,1.83,0,0,0,2.9.009,3.885,3.885,0,0,0,.519-2.267,3.516,3.516,0,0,0-.519-2.059,1.686,1.686,0,0,0-1.459-.731,1.659,1.659,0,0,0-1.441.727,3.949,3.949,0,0,0-.51,2.249" fill="#3c6d9d"/><path d="M78.618,10.872a.815.815,0,0,0-.461-.733,5.252,5.252,0,0,0-1.481-.48q-3.393-.711-3.393-2.883a2.617,2.617,0,0,1,1.051-2.114,4.242,4.242,0,0,1,2.746-.848,4.561,4.561,0,0,1,2.9.853,2.685,2.685,0,0,1,1.085,2.215h-2.54a1.234,1.234,0,0,0-.351-.9,1.5,1.5,0,0,0-1.1-.355,1.521,1.521,0,0,0-.993.29.916.916,0,0,0-.352.738.782.782,0,0,0,.4.681,4.078,4.078,0,0,0,1.348.449,11.066,11.066,0,0,1,1.6.426,2.628,2.628,0,0,1,2.013,2.558,2.478,2.478,0,0,1-1.116,2.1,4.813,4.813,0,0,1-2.883.8,5.044,5.044,0,0,1-2.122-.426,3.547,3.547,0,0,1-1.455-1.17,2.71,2.71,0,0,1-.528-1.6h2.408a1.331,1.331,0,0,0,.5,1.038,1.99,1.99,0,0,0,1.248.36,1.853,1.853,0,0,0,1.1-.276.864.864,0,0,0,.373-.726" fill="#3c6d9d"/><path d="M86.81,8.657a5.687,5.687,0,0,1,1-3.542,3.26,3.26,0,0,1,2.737-1.3A2.919,2.919,0,0,1,92.98,4.984l.167-.994h2.232V17.156H92.83V12.683a2.926,2.926,0,0,1-2.3.993,3.239,3.239,0,0,1-2.707-1.318,5.965,5.965,0,0,1-1.011-3.7m2.54.181a3.731,3.731,0,0,0,.479,2.077,1.533,1.533,0,0,0,1.349.713,1.708,1.708,0,0,0,1.652-.933V6.76a1.694,1.694,0,0,0-1.634-.9,1.555,1.555,0,0,0-1.363.713,4.125,4.125,0,0,0-.483,2.263" fill="#3c6d9d"/><path d="M103.069,12.533a3.185,3.185,0,0,1-2.6,1.143,3,3,0,0,1-2.333-.879,3.756,3.756,0,0,1-.822-2.576V3.99h2.54v6.15q0,1.488,1.354,1.488a1.833,1.833,0,0,0,1.775-.9V3.99h2.549V13.5h-2.391Z" fill="#3c6d9d"/><path d="M110.188,13.5h-2.54V3.99h2.54ZM109.441.132h2.769l-2.435,2.725H107.71Z" fill="#3c6d9d"/><path d="M114.759,3.99l.079,1.063a3.343,3.343,0,0,1,2.734-1.239,2.537,2.537,0,0,1,2.522,1.45,3.267,3.267,0,0,1,2.856-1.45,2.838,2.838,0,0,1,2.3.9,4.141,4.141,0,0,1,.756,2.712V13.5H123.46V7.435a1.807,1.807,0,0,0-.316-1.181,1.4,1.4,0,0,0-1.116-.374,1.584,1.584,0,0,0-1.582,1.089l.008,6.531h-2.54V7.444a1.786,1.786,0,0,0-.325-1.195,1.416,1.416,0,0,0-1.107-.369,1.645,1.645,0,0,0-1.565.9V13.5h-2.54V3.99Z" fill="#3c6d9d"/><path d="M127.942,1.529a1.253,1.253,0,0,1,.383-.941,1.647,1.647,0,0,1,2.078,0,1.246,1.246,0,0,1,.387.941,1.245,1.245,0,0,1-.391.949,1.629,1.629,0,0,1-2.065,0,1.246,1.246,0,0,1-.392-.949m2.7,11.971h-2.549V3.99h2.549Z" fill="#3c6d9d"/><path d="M136.688,11.628a1.665,1.665,0,0,0,1.142-.387,1.355,1.355,0,0,0,.457-1.028h2.381a3.252,3.252,0,0,1-.527,1.771,3.472,3.472,0,0,1-1.419,1.248,4.453,4.453,0,0,1-1.991.444,4.127,4.127,0,0,1-3.217-1.3A5.128,5.128,0,0,1,132.336,8.8V8.631a5.073,5.073,0,0,1,1.169-3.507,4.082,4.082,0,0,1,3.208-1.309,4,4,0,0,1,2.862,1.015,3.591,3.591,0,0,1,1.093,2.7h-2.381a1.747,1.747,0,0,0-.457-1.206,1.7,1.7,0,0,0-2.5.183,3.749,3.749,0,0,0-.454,2.1v.265a3.791,3.791,0,0,0,.449,2.112,1.549,1.549,0,0,0,1.363.643" fill="#3c6d9d"/><path d="M141.724,8.657a5.642,5.642,0,0,1,.545-2.522,3.992,3.992,0,0,1,1.569-1.714,4.58,4.58,0,0,1,2.377-.606,4.334,4.334,0,0,1,3.143,1.177,4.73,4.73,0,0,1,1.357,3.2l.018.65a4.97,4.97,0,0,1-1.222,3.512,4.735,4.735,0,0,1-6.56,0,5.057,5.057,0,0,1-1.227-3.586Zm2.54.181a3.549,3.549,0,0,0,.51,2.072,1.83,1.83,0,0,0,2.9.009,3.885,3.885,0,0,0,.519-2.267,3.516,3.516,0,0,0-.519-2.059,1.686,1.686,0,0,0-1.459-.731,1.659,1.659,0,0,0-1.441.727,3.949,3.949,0,0,0-.51,2.249" fill="#3c6d9d"/><path d="M157.447,10.872a.815.815,0,0,0-.461-.733,5.252,5.252,0,0,0-1.481-.48q-3.393-.711-3.393-2.883a2.616,2.616,0,0,1,1.051-2.114,4.243,4.243,0,0,1,2.746-.848,4.561,4.561,0,0,1,2.9.853,2.685,2.685,0,0,1,1.085,2.215h-2.54a1.234,1.234,0,0,0-.351-.9,1.5,1.5,0,0,0-1.1-.355,1.521,1.521,0,0,0-.993.29.916.916,0,0,0-.352.738.782.782,0,0,0,.4.681,4.078,4.078,0,0,0,1.348.449,11.066,11.066,0,0,1,1.6.426,2.628,2.628,0,0,1,2.013,2.558,2.478,2.478,0,0,1-1.116,2.1,4.813,4.813,0,0,1-2.883.8,5.044,5.044,0,0,1-2.122-.426,3.547,3.547,0,0,1-1.455-1.17,2.71,2.71,0,0,1-.528-1.6h2.408a1.331,1.331,0,0,0,.5,1.038,1.99,1.99,0,0,0,1.248.36,1.853,1.853,0,0,0,1.1-.276.864.864,0,0,0,.373-.726" fill="#3c6d9d"/><path d="M18.659,35.275a4.668,4.668,0,0,1-3.406-1.283,4.56,4.56,0,0,1-1.314-3.419v-.246a5.743,5.743,0,0,1,.554-2.561,4.068,4.068,0,0,1,1.569-1.741,4.407,4.407,0,0,1,2.316-.611,3.946,3.946,0,0,1,3.072,1.231,5,5,0,0,1,1.12,3.489v1.037H16.515a2.359,2.359,0,0,0,.742,1.494,2.245,2.245,0,0,0,1.569.563,2.742,2.742,0,0,0,2.294-1.064l1.248,1.4a3.794,3.794,0,0,1-1.547,1.26,5.07,5.07,0,0,1-2.162.453m-.29-7.813a1.587,1.587,0,0,0-1.226.512,2.651,2.651,0,0,0-.6,1.466h3.533v-.2a1.888,1.888,0,0,0-.457-1.31,1.634,1.634,0,0,0-1.248-.464" fill="#3c6d9d"/><path d="M26.35,25.59l.079,1.1a3.321,3.321,0,0,1,2.734-1.275,2.758,2.758,0,0,1,2.249.888,4.132,4.132,0,0,1,.756,2.654V35.1h-2.54V29.018a1.653,1.653,0,0,0-.351-1.174,1.58,1.58,0,0,0-1.169-.364,1.748,1.748,0,0,0-1.609.914V35.1h-2.54V25.59Z" fill="#3c6d9d"/><rect width="2.549" height="13.5" transform="translate(38.707 21.599)" fill="#3c6d9d"/><path d="M42.952,30.257a5.642,5.642,0,0,1,.545-2.522,3.992,3.992,0,0,1,1.569-1.714,4.58,4.58,0,0,1,2.377-.606,4.334,4.334,0,0,1,3.143,1.177,4.731,4.731,0,0,1,1.357,3.2l.018.65a4.97,4.97,0,0,1-1.222,3.512,4.735,4.735,0,0,1-6.56,0,5.057,5.057,0,0,1-1.227-3.586Zm2.54.181A3.549,3.549,0,0,0,46,32.51a1.83,1.83,0,0,0,2.9.009,3.885,3.885,0,0,0,.519-2.267,3.516,3.516,0,0,0-.519-2.059,1.686,1.686,0,0,0-1.459-.731A1.659,1.659,0,0,0,46,28.189a3.949,3.949,0,0,0-.51,2.249" fill="#3c6d9d"/><path d="M58.676,32.472a.815.815,0,0,0-.461-.733,5.252,5.252,0,0,0-1.481-.48q-3.393-.711-3.393-2.883a2.617,2.617,0,0,1,1.051-2.114,4.243,4.243,0,0,1,2.746-.848,4.561,4.561,0,0,1,2.9.853,2.685,2.685,0,0,1,1.085,2.215h-2.54a1.234,1.234,0,0,0-.351-.9,1.5,1.5,0,0,0-1.1-.355,1.521,1.521,0,0,0-.993.29.916.916,0,0,0-.352.738.782.782,0,0,0,.4.681,4.078,4.078,0,0,0,1.348.449,11.066,11.066,0,0,1,1.6.426,2.628,2.628,0,0,1,2.013,2.558,2.478,2.478,0,0,1-1.116,2.1,4.813,4.813,0,0,1-2.883.805,5.044,5.044,0,0,1-2.122-.426,3.547,3.547,0,0,1-1.455-1.17,2.71,2.71,0,0,1-.528-1.6H55.45a1.331,1.331,0,0,0,.5,1.038,1.99,1.99,0,0,0,1.248.36,1.853,1.853,0,0,0,1.1-.276.864.864,0,0,0,.373-.726" fill="#3c6d9d"/><path d="M72.774,35.1a2.783,2.783,0,0,1-.255-.853,3.073,3.073,0,0,1-2.4,1.028,3.375,3.375,0,0,1-2.315-.808,2.6,2.6,0,0,1-.919-2.039,2.689,2.689,0,0,1,1.121-2.321,5.529,5.529,0,0,1,3.238-.817h1.169v-.545a1.567,1.567,0,0,0-.338-1.055,1.333,1.333,0,0,0-1.068-.4A1.507,1.507,0,0,0,70,27.6a1.045,1.045,0,0,0-.365.843H67.1a2.552,2.552,0,0,1,.51-1.529,3.365,3.365,0,0,1,1.441-1.1,5.262,5.262,0,0,1,2.092-.4,4.157,4.157,0,0,1,2.791.883,3.093,3.093,0,0,1,1.032,2.483V32.9a4.549,4.549,0,0,0,.378,2.048v.15Zm-2.1-1.767a2.175,2.175,0,0,0,1.037-.251,1.635,1.635,0,0,0,.7-.672V30.775h-.949q-1.906,0-2.03,1.319l-.009.149a1.014,1.014,0,0,0,.334.782,1.3,1.3,0,0,0,.914.308" fill="#3c6d9d"/><rect width="2.549" height="13.5" transform="translate(77.045 21.599)" fill="#3c6d9d"/><path d="M81.668,23.129a1.252,1.252,0,0,1,.383-.941,1.647,1.647,0,0,1,2.078,0,1.342,1.342,0,0,1,0,1.89,1.629,1.629,0,0,1-2.065,0,1.247,1.247,0,0,1-.392-.949m2.7,11.97H81.817v-9.51h2.549Z" fill="#3c6d9d"/><path d="M88.84,25.59l.079,1.063a3.343,3.343,0,0,1,2.734-1.239,2.537,2.537,0,0,1,2.522,1.45,3.267,3.267,0,0,1,2.856-1.45,2.838,2.838,0,0,1,2.3.9,4.141,4.141,0,0,1,.756,2.712V35.1H97.541V29.035a1.807,1.807,0,0,0-.316-1.181,1.4,1.4,0,0,0-1.116-.374,1.584,1.584,0,0,0-1.582,1.089l.008,6.531H92V29.044a1.786,1.786,0,0,0-.325-1.195,1.416,1.416,0,0,0-1.107-.369,1.645,1.645,0,0,0-1.565.9V35.1h-2.54V25.59Z" fill="#3c6d9d"/><path d="M106.418,35.275a4.665,4.665,0,0,1-3.4-1.283,4.561,4.561,0,0,1-1.315-3.419v-.246a5.743,5.743,0,0,1,.554-2.561,4.074,4.074,0,0,1,1.569-1.741,4.407,4.407,0,0,1,2.316-.611,3.945,3.945,0,0,1,3.072,1.231,5,5,0,0,1,1.12,3.489v1.037h-6.055a2.36,2.36,0,0,0,.743,1.494,2.243,2.243,0,0,0,1.568.563,2.742,2.742,0,0,0,2.294-1.064l1.248,1.4a3.794,3.794,0,0,1-1.547,1.26,5.07,5.07,0,0,1-2.162.453m-.29-7.813a1.589,1.589,0,0,0-1.226.512,2.658,2.658,0,0,0-.6,1.466h3.533v-.2a1.888,1.888,0,0,0-.457-1.31,1.634,1.634,0,0,0-1.248-.464" fill="#3c6d9d"/><path d="M114.108,25.59l.079,1.1a3.321,3.321,0,0,1,2.734-1.275,2.758,2.758,0,0,1,2.249.888,4.132,4.132,0,0,1,.756,2.654V35.1h-2.54V29.018a1.653,1.653,0,0,0-.351-1.174,1.58,1.58,0,0,0-1.169-.364,1.748,1.748,0,0,0-1.609.914V35.1h-2.54V25.59Z" fill="#3c6d9d"/><path d="M124.893,23.252V25.59h1.626v1.863h-1.626V32.2a1.131,1.131,0,0,0,.2.756,1.018,1.018,0,0,0,.774.229,4.052,4.052,0,0,0,.747-.062v1.925a5.241,5.241,0,0,1-1.538.228,2.425,2.425,0,0,1-2.725-2.7V27.453h-1.389V25.59h1.389V23.252Z" fill="#3c6d9d"/><path d="M127.274,30.257a5.642,5.642,0,0,1,.545-2.522,3.992,3.992,0,0,1,1.569-1.714,4.58,4.58,0,0,1,2.377-.606,4.334,4.334,0,0,1,3.143,1.177,4.731,4.731,0,0,1,1.357,3.2l.018.65a4.97,4.97,0,0,1-1.222,3.512,4.735,4.735,0,0,1-6.56,0,5.057,5.057,0,0,1-1.227-3.586Zm2.54.181a3.549,3.549,0,0,0,.51,2.072,1.83,1.83,0,0,0,2.9.009,3.885,3.885,0,0,0,.519-2.267,3.516,3.516,0,0,0-.519-2.059,1.686,1.686,0,0,0-1.459-.731,1.659,1.659,0,0,0-1.441.727,3.949,3.949,0,0,0-.51,2.249" fill="#3c6d9d"/><path d="M143,32.472a.815.815,0,0,0-.461-.733,5.252,5.252,0,0,0-1.481-.48q-3.393-.711-3.393-2.883a2.617,2.617,0,0,1,1.051-2.114,4.242,4.242,0,0,1,2.746-.848,4.561,4.561,0,0,1,2.9.853,2.685,2.685,0,0,1,1.085,2.215H142.9a1.234,1.234,0,0,0-.351-.9,1.5,1.5,0,0,0-1.1-.355,1.521,1.521,0,0,0-.993.29.916.916,0,0,0-.352.738.782.782,0,0,0,.4.681,4.078,4.078,0,0,0,1.348.449,11.066,11.066,0,0,1,1.6.426,2.628,2.628,0,0,1,2.013,2.558,2.478,2.478,0,0,1-1.116,2.1,4.813,4.813,0,0,1-2.883.805,5.044,5.044,0,0,1-2.122-.426,3.547,3.547,0,0,1-1.455-1.17,2.71,2.71,0,0,1-.528-1.6h2.408a1.331,1.331,0,0,0,.5,1.038,1.99,1.99,0,0,0,1.248.36,1.853,1.853,0,0,0,1.1-.276.864.864,0,0,0,.373-.726" fill="#3c6d9d"/></g></g><g transform="translate(914.428 3953.172)"><path d="M10,.7,6.732,9.985,3.446.7H0V13.5H2.637V10L2.374,3.973,5.819,13.5H7.63l3.453-9.536L10.819,10v3.5h2.646V.7Z" fill="#3c6d9d"/><g clip-path="url(#l)"><path d="M21.112,13.5a2.783,2.783,0,0,1-.255-.853,3.073,3.073,0,0,1-2.4,1.028,3.375,3.375,0,0,1-2.315-.808,2.6,2.6,0,0,1-.919-2.039,2.689,2.689,0,0,1,1.121-2.321,5.529,5.529,0,0,1,3.238-.817h1.169V7.145a1.567,1.567,0,0,0-.338-1.055A1.333,1.333,0,0,0,19.345,5.7,1.507,1.507,0,0,0,18.339,6a1.045,1.045,0,0,0-.365.843h-2.54a2.552,2.552,0,0,1,.51-1.529,3.365,3.365,0,0,1,1.441-1.1,5.262,5.262,0,0,1,2.092-.4,4.157,4.157,0,0,1,2.791.883A3.093,3.093,0,0,1,23.3,7.18V11.3a4.549,4.549,0,0,0,.378,2.048v.15Zm-2.1-1.767a2.175,2.175,0,0,0,1.037-.251,1.635,1.635,0,0,0,.7-.672V9.175H19.8q-1.906,0-2.03,1.319l-.009.149a1.014,1.014,0,0,0,.334.782,1.3,1.3,0,0,0,.914.308" fill="#3c6d9d"/><path d="M27.589,3.99l.079,1.1A3.321,3.321,0,0,1,30.4,3.814a2.758,2.758,0,0,1,2.249.888,4.132,4.132,0,0,1,.756,2.654V13.5h-2.54V7.418a1.653,1.653,0,0,0-.351-1.174,1.58,1.58,0,0,0-1.169-.364,1.748,1.748,0,0,0-1.609.914V13.5H25.2V3.99Z" fill="#3c6d9d"/><path d="M35.314,1.529A1.253,1.253,0,0,1,35.7.588a1.647,1.647,0,0,1,2.078,0,1.246,1.246,0,0,1,.387.941,1.245,1.245,0,0,1-.391.949,1.629,1.629,0,0,1-2.065,0,1.246,1.246,0,0,1-.392-.949m2.7,11.971H35.464V3.99h2.549Z" fill="#3c6d9d"/><path d="M48.665,8.833a5.706,5.706,0,0,1-1,3.52,3.2,3.2,0,0,1-2.694,1.322,2.961,2.961,0,0,1-2.329-1v4.483H40.1V3.99H42.46l.088.931a2.985,2.985,0,0,1,2.408-1.107,3.219,3.219,0,0,1,2.733,1.3A5.853,5.853,0,0,1,48.665,8.7Zm-2.54-.185a3.739,3.739,0,0,0-.47-2.048,1.532,1.532,0,0,0-1.367-.721,1.661,1.661,0,0,0-1.643.915v3.893a1.69,1.69,0,0,0,1.661.94q1.82,0,1.819-2.979" fill="#3c6d9d"/><path d="M55.934,12.533a3.185,3.185,0,0,1-2.6,1.143A3,3,0,0,1,51,12.8a3.756,3.756,0,0,1-.822-2.576V3.99h2.54v6.15q0,1.488,1.354,1.488a1.833,1.833,0,0,0,1.775-.9V3.99H58.4V13.5H56Z" fill="#3c6d9d"/><rect width="2.549" height="13.5" transform="translate(60.442 0)" fill="#3c6d9d"/><path d="M70.594,13.5a2.783,2.783,0,0,1-.255-.853,3.073,3.073,0,0,1-2.4,1.028,3.375,3.375,0,0,1-2.315-.808,2.6,2.6,0,0,1-.919-2.039,2.689,2.689,0,0,1,1.121-2.321,5.529,5.529,0,0,1,3.238-.817h1.169V7.145a1.567,1.567,0,0,0-.338-1.055A1.333,1.333,0,0,0,68.827,5.7,1.507,1.507,0,0,0,67.821,6a1.045,1.045,0,0,0-.365.843h-2.54a2.552,2.552,0,0,1,.51-1.529,3.365,3.365,0,0,1,1.441-1.1,5.262,5.262,0,0,1,2.092-.4A4.157,4.157,0,0,1,71.75,4.7,3.093,3.093,0,0,1,72.782,7.18V11.3a4.549,4.549,0,0,0,.378,2.048v.15Zm-2.1-1.767a2.175,2.175,0,0,0,1.037-.251,1.635,1.635,0,0,0,.7-.672V9.175h-.949q-1.906,0-2.03,1.319l-.009.149a1.014,1.014,0,0,0,.334.782,1.3,1.3,0,0,0,.914.308" fill="#3c6d9d"/><path d="M78.688,11.628a1.666,1.666,0,0,0,1.143-.387,1.355,1.355,0,0,0,.457-1.028h2.381a3.252,3.252,0,0,1-.527,1.771,3.472,3.472,0,0,1-1.419,1.248,4.453,4.453,0,0,1-1.991.444,4.127,4.127,0,0,1-3.217-1.3A5.128,5.128,0,0,1,74.337,8.8V8.631a5.073,5.073,0,0,1,1.169-3.507,4.082,4.082,0,0,1,3.208-1.309A4,4,0,0,1,81.576,4.83a3.591,3.591,0,0,1,1.093,2.7H80.288a1.747,1.747,0,0,0-.457-1.206,1.7,1.7,0,0,0-2.5.183,3.749,3.749,0,0,0-.454,2.1v.265a3.791,3.791,0,0,0,.449,2.112,1.548,1.548,0,0,0,1.362.643" fill="#3c6d9d"/><path d="M84.1,1.529a1.253,1.253,0,0,1,.382-.941,1.647,1.647,0,0,1,2.078,0,1.246,1.246,0,0,1,.387.941,1.248,1.248,0,0,1-.39.949,1.63,1.63,0,0,1-2.066,0,1.245,1.245,0,0,1-.391-.949M86.8,13.5H84.252V3.99H86.8Z" fill="#3c6d9d"/><path d="M88.5,8.657a5.628,5.628,0,0,1,.545-2.522,3.98,3.98,0,0,1,1.569-1.714,4.58,4.58,0,0,1,2.377-.607,4.334,4.334,0,0,1,3.143,1.178,4.73,4.73,0,0,1,1.357,3.2l.018.651a4.975,4.975,0,0,1-1.222,3.512,4.735,4.735,0,0,1-6.561,0A5.058,5.058,0,0,1,88.5,8.771Zm2.54.181a3.549,3.549,0,0,0,.51,2.072,1.83,1.83,0,0,0,2.9.009,3.887,3.887,0,0,0,.519-2.267,3.516,3.516,0,0,0-.519-2.059,1.684,1.684,0,0,0-1.459-.731,1.655,1.655,0,0,0-1.441.727,3.949,3.949,0,0,0-.51,2.249M93.489,0h2.769L93.823,2.725H91.758Z" fill="#3c6d9d"/><path d="M101.408,3.99l.079,1.1a3.321,3.321,0,0,1,2.734-1.275,2.758,2.758,0,0,1,2.249.888,4.132,4.132,0,0,1,.756,2.654V13.5h-2.54V7.418a1.653,1.653,0,0,0-.351-1.174,1.58,1.58,0,0,0-1.169-.364,1.748,1.748,0,0,0-1.609.914V13.5h-2.54V3.99Z" fill="#3c6d9d"/><path d="M7.836,23.129a1.251,1.251,0,0,1,.382-.941,1.437,1.437,0,0,1,1.042-.369,1.441,1.441,0,0,1,1.037.369,1.341,1.341,0,0,1-.005,1.89,1.442,1.442,0,0,1-1.032.369,1.442,1.442,0,0,1-1.033-.369,1.247,1.247,0,0,1-.391-.949m2.7,11.97H7.985v-9.51h2.549Z" fill="#3c6d9d"/><path d="M14.964,25.59l.079,1.1a3.321,3.321,0,0,1,2.734-1.275,2.758,2.758,0,0,1,2.249.888,4.132,4.132,0,0,1,.756,2.654V35.1h-2.54V29.018a1.653,1.653,0,0,0-.351-1.174,1.58,1.58,0,0,0-1.169-.364,1.748,1.748,0,0,0-1.609.914V35.1h-2.54V25.59Z" fill="#3c6d9d"/><path d="M28.218,35.1a2.783,2.783,0,0,1-.255-.853,3.073,3.073,0,0,1-2.4,1.028,3.377,3.377,0,0,1-2.316-.808,2.6,2.6,0,0,1-.918-2.039,2.688,2.688,0,0,1,1.12-2.321,5.532,5.532,0,0,1,3.239-.817h1.169v-.545a1.567,1.567,0,0,0-.339-1.055,1.331,1.331,0,0,0-1.067-.4,1.51,1.51,0,0,0-1.007.308,1.044,1.044,0,0,0-.364.843H22.54a2.552,2.552,0,0,1,.51-1.529,3.365,3.365,0,0,1,1.441-1.1,5.262,5.262,0,0,1,2.092-.4,4.154,4.154,0,0,1,2.79.883,3.094,3.094,0,0,1,1.033,2.483V32.9a4.549,4.549,0,0,0,.378,2.048v.15Zm-2.1-1.767a2.175,2.175,0,0,0,1.037-.251,1.635,1.635,0,0,0,.7-.672V30.775h-.949q-1.907,0-2.03,1.319l-.009.149a1.014,1.014,0,0,0,.334.782,1.3,1.3,0,0,0,.914.308" fill="#3c6d9d"/><path d="M31.962,30.275a5.728,5.728,0,0,1,1-3.542,3.238,3.238,0,0,1,2.73-1.319,2.912,2.912,0,0,1,2.293,1.037V21.6h2.549V35.1H38.237l-.123-1.011a2.989,2.989,0,0,1-2.443,1.187,3.227,3.227,0,0,1-2.694-1.323,5.914,5.914,0,0,1-1.015-3.678m2.54.189a3.751,3.751,0,0,0,.466,2.051,1.518,1.518,0,0,0,1.353.713,1.7,1.7,0,0,0,1.661-.995V28.475a1.675,1.675,0,0,0-1.643-1q-1.838,0-1.837,2.984" fill="#3c6d9d"/><path d="M46.877,35.275a4.668,4.668,0,0,1-3.406-1.283,4.56,4.56,0,0,1-1.314-3.419v-.246a5.743,5.743,0,0,1,.554-2.561,4.072,4.072,0,0,1,1.568-1.741,4.411,4.411,0,0,1,2.317-.611,3.943,3.943,0,0,1,3.071,1.231,5,5,0,0,1,1.121,3.489v1.037H44.733a2.359,2.359,0,0,0,.742,1.494,2.245,2.245,0,0,0,1.569.563,2.742,2.742,0,0,0,2.294-1.064l1.248,1.4a3.794,3.794,0,0,1-1.547,1.26,5.07,5.07,0,0,1-2.162.453m-.29-7.813a1.591,1.591,0,0,0-1.227.512,2.658,2.658,0,0,0-.6,1.466h3.533v-.2a1.888,1.888,0,0,0-.457-1.31,1.634,1.634,0,0,0-1.248-.464" fill="#3c6d9d"/><path d="M56.185,33.228a1.666,1.666,0,0,0,1.143-.387,1.355,1.355,0,0,0,.457-1.028h2.381a3.252,3.252,0,0,1-.527,1.771,3.475,3.475,0,0,1-1.42,1.248,4.448,4.448,0,0,1-1.99.444,4.127,4.127,0,0,1-3.217-1.3A5.128,5.128,0,0,1,51.834,30.4v-.167A5.073,5.073,0,0,1,53,26.724a4.082,4.082,0,0,1,3.208-1.309,3.994,3.994,0,0,1,2.861,1.015,3.592,3.592,0,0,1,1.094,2.7H57.785a1.747,1.747,0,0,0-.457-1.206,1.7,1.7,0,0,0-2.5.183,3.75,3.75,0,0,0-.453,2.1v.265a3.791,3.791,0,0,0,.449,2.112,1.548,1.548,0,0,0,1.362.643" fill="#3c6d9d"/><path d="M67.312,34.133a3.188,3.188,0,0,1-2.6,1.143,3.007,3.007,0,0,1-2.334-.879,3.756,3.756,0,0,1-.82-2.576V25.59h2.539v6.15q0,1.488,1.354,1.488a1.833,1.833,0,0,0,1.775-.9V25.59h2.549V35.1h-2.39Z" fill="#3c6d9d"/><path d="M77.2,35.1a2.783,2.783,0,0,1-.255-.853,3.073,3.073,0,0,1-2.4,1.028,3.377,3.377,0,0,1-2.316-.808,2.6,2.6,0,0,1-.918-2.039,2.688,2.688,0,0,1,1.12-2.321,5.532,5.532,0,0,1,3.239-.817h1.169v-.545A1.567,1.567,0,0,0,76.5,27.69a1.331,1.331,0,0,0-1.067-.4,1.51,1.51,0,0,0-1.007.308,1.044,1.044,0,0,0-.364.843h-2.54a2.552,2.552,0,0,1,.51-1.529,3.365,3.365,0,0,1,1.441-1.1,5.262,5.262,0,0,1,2.092-.4,4.154,4.154,0,0,1,2.79.883,3.094,3.094,0,0,1,1.033,2.483V32.9a4.549,4.549,0,0,0,.378,2.048v.15Zm-2.1-1.767a2.175,2.175,0,0,0,1.037-.251,1.635,1.635,0,0,0,.7-.672V30.775H75.89q-1.906,0-2.03,1.319l-.009.149a1.014,1.014,0,0,0,.334.782,1.3,1.3,0,0,0,.914.308" fill="#3c6d9d"/><path d="M80.943,30.275a5.728,5.728,0,0,1,1-3.542,3.238,3.238,0,0,1,2.73-1.319,2.912,2.912,0,0,1,2.293,1.037V21.6h2.549V35.1H87.218L87.1,34.089a2.989,2.989,0,0,1-2.443,1.187,3.227,3.227,0,0,1-2.694-1.323,5.914,5.914,0,0,1-1.015-3.678m2.54.189a3.751,3.751,0,0,0,.466,2.051,1.518,1.518,0,0,0,1.353.713,1.7,1.7,0,0,0,1.661-.995V28.475a1.675,1.675,0,0,0-1.643-1q-1.837,0-1.837,2.984" fill="#3c6d9d"/><path d="M96.993,35.1a2.783,2.783,0,0,1-.255-.853,3.073,3.073,0,0,1-2.4,1.028,3.377,3.377,0,0,1-2.316-.808,2.6,2.6,0,0,1-.918-2.039,2.688,2.688,0,0,1,1.12-2.321,5.532,5.532,0,0,1,3.239-.817h1.169v-.545a1.568,1.568,0,0,0-.339-1.055,1.331,1.331,0,0,0-1.067-.4,1.51,1.51,0,0,0-1.007.308,1.044,1.044,0,0,0-.364.843h-2.54a2.552,2.552,0,0,1,.51-1.529,3.365,3.365,0,0,1,1.441-1.1,5.262,5.262,0,0,1,2.092-.4,4.154,4.154,0,0,1,2.79.883,3.094,3.094,0,0,1,1.033,2.483V32.9a4.549,4.549,0,0,0,.378,2.048v.15Zm-2.1-1.767a2.175,2.175,0,0,0,1.037-.251,1.635,1.635,0,0,0,.7-.672V30.775h-.949q-1.906,0-2.03,1.319l-.009.149a1.014,1.014,0,0,0,.334.782,1.3,1.3,0,0,0,.914.308" fill="#3c6d9d"/></g></g><rect width="188" height="40" transform="translate(570.5 4109)" fill="#fff4d9"/><rect width="213" height="59" transform="translate(545.5 4006)" fill="#e3eaf1"/><rect width="235" height="44" transform="translate(531.5 4065)" fill="#eff6e5"/><g transform="translate(587.5 4120.617)"><g clip-path="url(#m)"><path d="M10.9,7.576a7.734,7.734,0,0,1-.668,3.314,5.033,5.033,0,0,1-1.912,2.2,5.291,5.291,0,0,1-2.852.773A5.332,5.332,0,0,1,2.628,13.1,5.078,5.078,0,0,1,.695,10.911,7.5,7.5,0,0,1,0,7.646V7.014A7.694,7.694,0,0,1,.681,3.686,5.076,5.076,0,0,1,2.606,1.481,5.3,5.3,0,0,1,5.45.712a5.3,5.3,0,0,1,2.842.769,5.07,5.07,0,0,1,1.925,2.205A7.672,7.672,0,0,1,10.9,7.005ZM8.227,7a5.383,5.383,0,0,0-.721-3.059A2.348,2.348,0,0,0,5.45,2.892,2.348,2.348,0,0,0,3.4,3.925a5.316,5.316,0,0,0-.73,3.027v.624a5.456,5.456,0,0,0,.721,3.041A2.341,2.341,0,0,0,5.467,11.7a2.323,2.323,0,0,0,2.039-1.041A5.422,5.422,0,0,0,8.227,7.62Z" fill="#3c6d9d"/><path d="M21.208,9.018a5.706,5.706,0,0,1-1,3.52,3.2,3.2,0,0,1-2.693,1.322,2.961,2.961,0,0,1-2.329-1v4.483H12.647V4.175H15l.088.931A2.985,2.985,0,0,1,17.5,4a3.219,3.219,0,0,1,2.733,1.3,5.853,5.853,0,0,1,.976,3.586Zm-2.54-.185A3.739,3.739,0,0,0,18.2,6.785a1.531,1.531,0,0,0-1.366-.721,1.661,1.661,0,0,0-1.643.915v3.893a1.69,1.69,0,0,0,1.661.94q1.819,0,1.819-2.979" fill="#3c6d9d"/><path d="M27.158,13.86a4.668,4.668,0,0,1-3.406-1.283,4.56,4.56,0,0,1-1.314-3.419V8.912a5.743,5.743,0,0,1,.554-2.561A4.072,4.072,0,0,1,24.56,4.61,4.411,4.411,0,0,1,26.877,4,3.943,3.943,0,0,1,29.948,5.23a5,5,0,0,1,1.121,3.489V9.756H25.014a2.359,2.359,0,0,0,.742,1.494,2.245,2.245,0,0,0,1.569.563,2.742,2.742,0,0,0,2.294-1.064l1.248,1.4a3.794,3.794,0,0,1-1.547,1.26,5.07,5.07,0,0,1-2.162.453m-.29-7.813a1.591,1.591,0,0,0-1.227.512,2.658,2.658,0,0,0-.6,1.466h3.533v-.2a1.888,1.888,0,0,0-.457-1.31,1.634,1.634,0,0,0-1.248-.464" fill="#3c6d9d"/><path d="M37.854,6.557a6.873,6.873,0,0,0-.914-.07,1.861,1.861,0,0,0-1.89.975v6.223H32.51V4.175h2.4l.07,1.134A2.354,2.354,0,0,1,37.1,4a2.636,2.636,0,0,1,.791.115Z" fill="#3c6d9d"/><path d="M44.324,13.685a2.783,2.783,0,0,1-.255-.853,3.073,3.073,0,0,1-2.4,1.028,3.377,3.377,0,0,1-2.316-.808,2.6,2.6,0,0,1-.918-2.039,2.688,2.688,0,0,1,1.12-2.321,5.532,5.532,0,0,1,3.239-.817h1.169V7.33a1.567,1.567,0,0,0-.339-1.055,1.331,1.331,0,0,0-1.067-.395,1.51,1.51,0,0,0-1.007.308,1.044,1.044,0,0,0-.364.843h-2.54a2.552,2.552,0,0,1,.51-1.529A3.365,3.365,0,0,1,40.6,4.4,5.262,5.262,0,0,1,42.689,4a4.154,4.154,0,0,1,2.79.883,3.094,3.094,0,0,1,1.033,2.483v4.122a4.549,4.549,0,0,0,.378,2.048v.15Zm-2.1-1.767a2.175,2.175,0,0,0,1.037-.251,1.635,1.635,0,0,0,.7-.672V9.36h-.949q-1.906,0-2.03,1.319l-.009.149a1.014,1.014,0,0,0,.334.782,1.3,1.3,0,0,0,.914.308" fill="#3c6d9d"/><path d="M53.807,6.557a6.873,6.873,0,0,0-.914-.07A1.861,1.861,0,0,0,51,7.462v6.223h-2.54V4.175h2.4l.07,1.134A2.354,2.354,0,0,1,53.051,4a2.636,2.636,0,0,1,.791.115Z" fill="#3c6d9d"/><path d="M55.011,1.714a1.249,1.249,0,0,1,.382-.94,1.645,1.645,0,0,1,2.079,0,1.245,1.245,0,0,1,.386.94,1.245,1.245,0,0,1-.391.949,1.63,1.63,0,0,1-2.066,0,1.248,1.248,0,0,1-.39-.949m2.7,11.971H55.16V4.175h2.549Z" fill="#3c6d9d"/><path d="M59.4,8.841a5.642,5.642,0,0,1,.545-2.522,3.99,3.99,0,0,1,1.568-1.714A4.584,4.584,0,0,1,63.9,4a4.331,4.331,0,0,1,3.142,1.177,4.731,4.731,0,0,1,1.358,3.2l.018.65a4.97,4.97,0,0,1-1.222,3.512,4.736,4.736,0,0,1-6.561,0A5.057,5.057,0,0,1,59.4,8.956Zm2.54.181a3.549,3.549,0,0,0,.51,2.072,1.83,1.83,0,0,0,2.9.009,3.885,3.885,0,0,0,.519-2.267,3.516,3.516,0,0,0-.519-2.059A1.686,1.686,0,0,0,63.9,6.046a1.659,1.659,0,0,0-1.441.727,3.949,3.949,0,0,0-.51,2.249" fill="#3c6d9d"/><path d="M75.129,11.057a.816.816,0,0,0-.462-.733,5.243,5.243,0,0,0-1.48-.48q-3.393-.711-3.393-2.883a2.615,2.615,0,0,1,1.05-2.114A4.245,4.245,0,0,1,73.591,4a4.558,4.558,0,0,1,2.895.853,2.686,2.686,0,0,1,1.086,2.215h-2.54a1.234,1.234,0,0,0-.351-.9,1.5,1.5,0,0,0-1.1-.355,1.521,1.521,0,0,0-.993.29.916.916,0,0,0-.352.738.781.781,0,0,0,.4.681,4.085,4.085,0,0,0,1.349.449,11.066,11.066,0,0,1,1.6.426A2.628,2.628,0,0,1,77.6,10.952a2.478,2.478,0,0,1-1.116,2.1,4.813,4.813,0,0,1-2.883.805,5.048,5.048,0,0,1-2.123-.426,3.544,3.544,0,0,1-1.454-1.17,2.71,2.71,0,0,1-.528-1.6H71.9a1.331,1.331,0,0,0,.5,1.038,1.99,1.99,0,0,0,1.248.36,1.849,1.849,0,0,0,1.1-.276.865.865,0,0,0,.374-.726" fill="#3c6d9d"/><path d="M88.093,13.86a4.668,4.668,0,0,1-3.406-1.283,4.56,4.56,0,0,1-1.314-3.419V8.912a5.743,5.743,0,0,1,.554-2.561A4.072,4.072,0,0,1,85.5,4.61,4.41,4.41,0,0,1,87.812,4,3.943,3.943,0,0,1,90.883,5.23,5,5,0,0,1,92,8.719V9.756H85.949a2.359,2.359,0,0,0,.742,1.494,2.245,2.245,0,0,0,1.569.563,2.742,2.742,0,0,0,2.294-1.064l1.248,1.4a3.794,3.794,0,0,1-1.547,1.26,5.07,5.07,0,0,1-2.162.453M87.8,6.047a1.591,1.591,0,0,0-1.227.512,2.658,2.658,0,0,0-.6,1.466h3.533v-.2a1.888,1.888,0,0,0-.457-1.31A1.634,1.634,0,0,0,87.8,6.047" fill="#3c6d9d"/><path d="M95.783,4.175l.079,1.1A3.321,3.321,0,0,1,98.6,4a2.758,2.758,0,0,1,2.249.888,4.132,4.132,0,0,1,.756,2.654v6.144h-2.54V7.6a1.653,1.653,0,0,0-.351-1.174,1.58,1.58,0,0,0-1.169-.364,1.748,1.748,0,0,0-1.609.914v6.706h-2.54V4.175Z" fill="#3c6d9d"/><path d="M104.221,13.685V6.039h-1.415V4.175h1.415V3.367a3.282,3.282,0,0,1,.918-2.483A3.553,3.553,0,0,1,107.71,0,5.95,5.95,0,0,1,109,.176l-.026,1.969a3.229,3.229,0,0,0-.774-.079q-1.433,0-1.432,1.345v.764h1.889V6.039H106.77v7.646Z" fill="#3c6d9d"/><path d="M114.143,13.86a4.668,4.668,0,0,1-3.406-1.283,4.56,4.56,0,0,1-1.313-3.419V8.912a5.743,5.743,0,0,1,.553-2.561,4.072,4.072,0,0,1,1.568-1.741A4.411,4.411,0,0,1,113.862,4a3.943,3.943,0,0,1,3.071,1.231,5,5,0,0,1,1.121,3.489V9.756H112a2.359,2.359,0,0,0,.742,1.494,2.245,2.245,0,0,0,1.569.563,2.742,2.742,0,0,0,2.294-1.064l1.248,1.4a3.794,3.794,0,0,1-1.547,1.26,5.07,5.07,0,0,1-2.162.453m-.289-7.813a1.592,1.592,0,0,0-1.228.512,2.658,2.658,0,0,0-.6,1.466h3.533v-.2a1.888,1.888,0,0,0-.457-1.31,1.633,1.633,0,0,0-1.247-.464" fill="#3c6d9d"/><path d="M124.84,6.557a6.873,6.873,0,0,0-.914-.07,1.861,1.861,0,0,0-1.89.975v6.223H119.5V4.175h2.4l.07,1.134A2.354,2.354,0,0,1,124.084,4a2.636,2.636,0,0,1,.791.115Z" fill="#3c6d9d"/><path d="M128.443,4.175l.079,1.063A3.343,3.343,0,0,1,131.256,4a2.537,2.537,0,0,1,2.522,1.45A3.267,3.267,0,0,1,136.634,4a2.838,2.838,0,0,1,2.3.9,4.141,4.141,0,0,1,.756,2.712v6.073h-2.549V7.62a1.807,1.807,0,0,0-.316-1.181,1.4,1.4,0,0,0-1.116-.374,1.584,1.584,0,0,0-1.582,1.089l.008,6.531H131.6V7.629a1.786,1.786,0,0,0-.325-1.2,1.416,1.416,0,0,0-1.107-.369,1.645,1.645,0,0,0-1.565.9v6.724h-2.54V4.175Z" fill="#3c6d9d"/><path d="M141.249,8.841a5.642,5.642,0,0,1,.545-2.522,3.989,3.989,0,0,1,1.568-1.714A4.584,4.584,0,0,1,145.74,4a4.331,4.331,0,0,1,3.142,1.177,4.731,4.731,0,0,1,1.358,3.2l.018.65a4.97,4.97,0,0,1-1.222,3.512,4.736,4.736,0,0,1-6.561,0,5.057,5.057,0,0,1-1.226-3.586Zm2.54.181a3.549,3.549,0,0,0,.51,2.072,1.83,1.83,0,0,0,2.9.009,3.885,3.885,0,0,0,.519-2.267,3.516,3.516,0,0,0-.519-2.059,1.686,1.686,0,0,0-1.459-.731,1.659,1.659,0,0,0-1.441.727,3.949,3.949,0,0,0-.51,2.249" fill="#3c6d9d"/><path d="M156.973,11.057a.816.816,0,0,0-.462-.733,5.243,5.243,0,0,0-1.48-.48q-3.393-.711-3.393-2.883a2.616,2.616,0,0,1,1.05-2.114A4.245,4.245,0,0,1,155.435,4a4.558,4.558,0,0,1,2.9.853,2.686,2.686,0,0,1,1.086,2.215h-2.54a1.234,1.234,0,0,0-.351-.9,1.5,1.5,0,0,0-1.1-.355,1.521,1.521,0,0,0-.993.29.916.916,0,0,0-.352.738.781.781,0,0,0,.4.681,4.085,4.085,0,0,0,1.349.449,11.065,11.065,0,0,1,1.6.426,2.628,2.628,0,0,1,2.013,2.558,2.478,2.478,0,0,1-1.116,2.1,4.813,4.813,0,0,1-2.883.805,5.048,5.048,0,0,1-2.123-.426,3.544,3.544,0,0,1-1.454-1.17,2.71,2.71,0,0,1-.528-1.6h2.408a1.331,1.331,0,0,0,.5,1.038,1.99,1.99,0,0,0,1.248.36,1.849,1.849,0,0,0,1.1-.276.865.865,0,0,0,.374-.726" fill="#3c6d9d"/></g></g><g transform="translate(551.5 4078)"><path d="M10,.7,6.732,9.985,3.446.7H0V13.5H2.637V10L2.374,3.973,5.819,13.5H7.63l3.453-9.536L10.819,10v3.5h2.646V.7Z" fill="#3c6d9d"/><g clip-path="url(#n)"><path d="M21.112,13.5a2.783,2.783,0,0,1-.255-.853,3.073,3.073,0,0,1-2.4,1.028,3.375,3.375,0,0,1-2.315-.808,2.6,2.6,0,0,1-.919-2.039,2.689,2.689,0,0,1,1.121-2.321,5.529,5.529,0,0,1,3.238-.817h1.169V7.145a1.567,1.567,0,0,0-.338-1.055A1.333,1.333,0,0,0,19.345,5.7,1.507,1.507,0,0,0,18.339,6a1.045,1.045,0,0,0-.365.843h-2.54a2.552,2.552,0,0,1,.51-1.529,3.365,3.365,0,0,1,1.441-1.1,5.262,5.262,0,0,1,2.092-.4,4.157,4.157,0,0,1,2.791.883A3.093,3.093,0,0,1,23.3,7.18V11.3a4.549,4.549,0,0,0,.378,2.048v.15Zm-2.1-1.767a2.175,2.175,0,0,0,1.037-.251,1.635,1.635,0,0,0,.7-.672V9.175H19.8q-1.906,0-2.03,1.319l-.009.149a1.014,1.014,0,0,0,.334.782,1.3,1.3,0,0,0,.914.308" fill="#3c6d9d"/><rect width="2.549" height="13.5" transform="translate(25.383 0)" fill="#3c6d9d"/><path d="M36.984,5.027a3.17,3.17,0,0,1,2.54-1.213q3.095,0,3.138,3.6V13.5h-2.54V7.479a1.762,1.762,0,0,0-.352-1.208A1.506,1.506,0,0,0,38.6,5.88a1.729,1.729,0,0,0-1.617.861V13.5h-2.54V0h2.54Z" fill="#3c6d9d"/><path d="M44.561,1.529a1.249,1.249,0,0,1,.382-.94,1.647,1.647,0,0,1,2.078,0,1.242,1.242,0,0,1,.387.94,1.248,1.248,0,0,1-.39.949,1.627,1.627,0,0,1-2.066,0,1.245,1.245,0,0,1-.391-.949m2.7,11.971H44.71V3.99h2.549Z" fill="#3c6d9d"/><path d="M48.981,8.675A5.578,5.578,0,0,1,50.023,5.15a3.375,3.375,0,0,1,2.808-1.336,2.961,2.961,0,0,1,2.434,1.072l.106-.9h2.3v9.193a4.063,4.063,0,0,1-.566,2.171,3.64,3.64,0,0,1-1.6,1.406,5.594,5.594,0,0,1-2.408.484,5.221,5.221,0,0,1-2.039-.418,3.621,3.621,0,0,1-1.5-1.076L50.686,14.2a2.975,2.975,0,0,0,2.3,1.063,2.178,2.178,0,0,0,1.573-.54,2.03,2.03,0,0,0,.563-1.534v-.51a2.94,2.94,0,0,1-2.312.994,3.365,3.365,0,0,1-2.772-1.34,5.569,5.569,0,0,1-1.06-3.556Zm2.54.189a3.464,3.464,0,0,0,.519,2.028,1.646,1.646,0,0,0,1.423.736,1.764,1.764,0,0,0,1.662-.871V6.751a1.762,1.762,0,0,0-1.644-.871,1.663,1.663,0,0,0-1.437.748,3.917,3.917,0,0,0-.523,2.236" fill="#3c6d9d"/><path d="M59.607,1.529a1.25,1.25,0,0,1,.383-.94,1.647,1.647,0,0,1,2.078,0,1.242,1.242,0,0,1,.387.94,1.245,1.245,0,0,1-.391.949,1.626,1.626,0,0,1-2.065,0,1.246,1.246,0,0,1-.392-.949m2.7,11.971H59.757V3.99h2.549Z" fill="#3c6d9d"/><path d="M68.774,13.675a4.665,4.665,0,0,1-3.4-1.283,4.561,4.561,0,0,1-1.315-3.419V8.727a5.743,5.743,0,0,1,.554-2.561,4.074,4.074,0,0,1,1.569-1.741,4.407,4.407,0,0,1,2.316-.611,3.945,3.945,0,0,1,3.072,1.231,5,5,0,0,1,1.12,3.489V9.571H66.63a2.36,2.36,0,0,0,.743,1.494,2.243,2.243,0,0,0,1.568.563,2.742,2.742,0,0,0,2.294-1.064l1.248,1.4a3.794,3.794,0,0,1-1.547,1.26,5.07,5.07,0,0,1-2.162.453m-.29-7.813a1.589,1.589,0,0,0-1.226.512,2.658,2.658,0,0,0-.6,1.466h3.533v-.2a1.888,1.888,0,0,0-.457-1.31,1.634,1.634,0,0,0-1.248-.464" fill="#3c6d9d"/><path d="M76.465,3.99l.079,1.1a3.321,3.321,0,0,1,2.734-1.275,2.758,2.758,0,0,1,2.249.888,4.132,4.132,0,0,1,.756,2.654V13.5h-2.54V7.418a1.653,1.653,0,0,0-.351-1.174,1.58,1.58,0,0,0-1.169-.364,1.748,1.748,0,0,0-1.609.914V13.5h-2.54V3.99Z" fill="#3c6d9d"/><path d="M88.585,13.675a4.665,4.665,0,0,1-3.4-1.283,4.561,4.561,0,0,1-1.315-3.419V8.727a5.743,5.743,0,0,1,.554-2.561,4.074,4.074,0,0,1,1.569-1.741A4.407,4.407,0,0,1,88.3,3.814a3.945,3.945,0,0,1,3.072,1.231A5,5,0,0,1,92.5,8.534V9.571H86.441a2.36,2.36,0,0,0,.743,1.494,2.243,2.243,0,0,0,1.568.563,2.742,2.742,0,0,0,2.294-1.064l1.248,1.4a3.794,3.794,0,0,1-1.547,1.26,5.07,5.07,0,0,1-2.162.453m-.29-7.813a1.589,1.589,0,0,0-1.226.512,2.658,2.658,0,0,0-.6,1.466H90v-.2a1.888,1.888,0,0,0-.457-1.31,1.634,1.634,0,0,0-1.248-.464" fill="#3c6d9d"/><path d="M98.024,8.675a5.728,5.728,0,0,1,1-3.542,3.236,3.236,0,0,1,2.729-1.319,2.912,2.912,0,0,1,2.293,1.037V0h2.549V13.5H104.3l-.123-1.011a2.989,2.989,0,0,1-2.443,1.187,3.226,3.226,0,0,1-2.693-1.323,5.914,5.914,0,0,1-1.016-3.678m2.54.189a3.752,3.752,0,0,0,.466,2.051,1.518,1.518,0,0,0,1.353.713,1.7,1.7,0,0,0,1.661-.995V6.875A1.675,1.675,0,0,0,102.4,5.88q-1.837,0-1.837,2.984" fill="#3c6d9d"/><path d="M112.939,13.675a4.665,4.665,0,0,1-3.405-1.283,4.561,4.561,0,0,1-1.315-3.419V8.727a5.743,5.743,0,0,1,.554-2.561,4.074,4.074,0,0,1,1.569-1.741,4.407,4.407,0,0,1,2.316-.611,3.945,3.945,0,0,1,3.072,1.231,5,5,0,0,1,1.12,3.489V9.571h-6.055a2.36,2.36,0,0,0,.743,1.494,2.243,2.243,0,0,0,1.568.563,2.742,2.742,0,0,0,2.294-1.064l1.248,1.4a3.794,3.794,0,0,1-1.547,1.26,5.07,5.07,0,0,1-2.162.453m-.29-7.813a1.589,1.589,0,0,0-1.226.512,2.658,2.658,0,0,0-.6,1.466h3.533v-.2a1.888,1.888,0,0,0-.457-1.31,1.634,1.634,0,0,0-1.248-.464" fill="#3c6d9d"/><rect width="2.549" height="13.5" transform="translate(118.424 0)" fill="#3c6d9d"/><path d="M136.107,8.833a5.706,5.706,0,0,1-1,3.52,3.2,3.2,0,0,1-2.694,1.322,2.961,2.961,0,0,1-2.329-1v4.483h-2.541V3.99H129.9l.088.931A2.985,2.985,0,0,1,132.4,3.814a3.219,3.219,0,0,1,2.733,1.3,5.853,5.853,0,0,1,.976,3.586Zm-2.54-.185A3.739,3.739,0,0,0,133.1,6.6a1.532,1.532,0,0,0-1.367-.721,1.661,1.661,0,0,0-1.643.915v3.893a1.69,1.69,0,0,0,1.661.94q1.819,0,1.819-2.979" fill="#3c6d9d"/><path d="M142.058,13.675a4.665,4.665,0,0,1-3.4-1.283,4.561,4.561,0,0,1-1.315-3.419V8.727a5.743,5.743,0,0,1,.554-2.561,4.074,4.074,0,0,1,1.569-1.741,4.407,4.407,0,0,1,2.316-.611,3.945,3.945,0,0,1,3.072,1.231,5,5,0,0,1,1.12,3.489V9.571h-6.055a2.36,2.36,0,0,0,.743,1.494,2.243,2.243,0,0,0,1.568.563,2.742,2.742,0,0,0,2.294-1.064l1.248,1.4a3.794,3.794,0,0,1-1.547,1.26,5.07,5.07,0,0,1-2.162.453m-.29-7.813a1.589,1.589,0,0,0-1.226.512,2.658,2.658,0,0,0-.6,1.466h3.533v-.2a1.888,1.888,0,0,0-.457-1.31,1.634,1.634,0,0,0-1.248-.464" fill="#3c6d9d"/><path d="M152.754,6.372a6.873,6.873,0,0,0-.914-.07,1.861,1.861,0,0,0-1.89.975V13.5h-2.54V3.99h2.4l.07,1.134A2.354,2.354,0,0,1,152,3.814a2.636,2.636,0,0,1,.791.115Z" fill="#3c6d9d"/><path d="M159.126,10.872a.815.815,0,0,0-.461-.733,5.252,5.252,0,0,0-1.481-.48q-3.393-.711-3.393-2.883a2.616,2.616,0,0,1,1.051-2.114,4.243,4.243,0,0,1,2.746-.848,4.561,4.561,0,0,1,2.9.853,2.685,2.685,0,0,1,1.085,2.215h-2.54a1.234,1.234,0,0,0-.351-.9,1.5,1.5,0,0,0-1.1-.355,1.521,1.521,0,0,0-.993.29.916.916,0,0,0-.352.738.782.782,0,0,0,.4.681,4.078,4.078,0,0,0,1.348.449,11.065,11.065,0,0,1,1.6.426,2.628,2.628,0,0,1,2.013,2.558,2.478,2.478,0,0,1-1.116,2.1,4.813,4.813,0,0,1-2.883.8,5.044,5.044,0,0,1-2.122-.426,3.547,3.547,0,0,1-1.455-1.17,2.71,2.71,0,0,1-.528-1.6H155.9a1.331,1.331,0,0,0,.5,1.038,1.99,1.99,0,0,0,1.248.36,1.853,1.853,0,0,0,1.1-.276.864.864,0,0,0,.373-.726" fill="#3c6d9d"/><path d="M162.835,8.657a5.642,5.642,0,0,1,.545-2.522,3.992,3.992,0,0,1,1.569-1.714,4.58,4.58,0,0,1,2.377-.606,4.334,4.334,0,0,1,3.143,1.177,4.731,4.731,0,0,1,1.357,3.2l.018.65a4.97,4.97,0,0,1-1.222,3.512,4.735,4.735,0,0,1-6.56,0,5.057,5.057,0,0,1-1.227-3.586Zm2.54.181a3.549,3.549,0,0,0,.51,2.072,1.83,1.83,0,0,0,2.9.009,3.885,3.885,0,0,0,.519-2.267,3.516,3.516,0,0,0-.519-2.059,1.686,1.686,0,0,0-1.459-.731,1.659,1.659,0,0,0-1.441.727,3.949,3.949,0,0,0-.51,2.249" fill="#3c6d9d"/><path d="M175.746,3.99l.079,1.1a3.321,3.321,0,0,1,2.734-1.275,2.758,2.758,0,0,1,2.249.888,4.132,4.132,0,0,1,.756,2.654V13.5h-2.54V7.418a1.653,1.653,0,0,0-.351-1.174A1.58,1.58,0,0,0,177.5,5.88a1.748,1.748,0,0,0-1.609.914V13.5h-2.54V3.99Z" fill="#3c6d9d"/><path d="M189,13.5a2.783,2.783,0,0,1-.255-.853,3.073,3.073,0,0,1-2.4,1.028,3.375,3.375,0,0,1-2.315-.808,2.6,2.6,0,0,1-.919-2.039,2.689,2.689,0,0,1,1.121-2.321,5.529,5.529,0,0,1,3.238-.817h1.169V7.145A1.567,1.567,0,0,0,188.3,6.09a1.333,1.333,0,0,0-1.068-.395A1.507,1.507,0,0,0,186.227,6a1.045,1.045,0,0,0-.365.843h-2.54a2.552,2.552,0,0,1,.51-1.529,3.365,3.365,0,0,1,1.441-1.1,5.262,5.262,0,0,1,2.092-.4,4.157,4.157,0,0,1,2.791.883,3.093,3.093,0,0,1,1.032,2.483V11.3a4.549,4.549,0,0,0,.378,2.048v.15Zm-2.1-1.767a2.175,2.175,0,0,0,1.037-.251,1.635,1.635,0,0,0,.7-.672V9.175h-.949q-1.906,0-2.03,1.319l-.009.149a1.014,1.014,0,0,0,.334.782,1.3,1.3,0,0,0,.914.308" fill="#3c6d9d"/><rect width="2.549" height="13.5" transform="translate(193.271 0)" fill="#3c6d9d"/></g></g><g transform="translate(558.671 4014.977)"><path d="M28.789.7l-3.27,9.282L22.232.7H18.787V13.5h2.636V10L21.16,3.973,24.605,13.5h1.811L29.87,3.964,29.606,10v3.5h2.646V.7Z" fill="#3c6d9d"/><g clip-path="url(#o)"><path d="M39.9,13.5a2.783,2.783,0,0,1-.255-.853,3.073,3.073,0,0,1-2.4,1.028,3.379,3.379,0,0,1-2.316-.808,2.6,2.6,0,0,1-.918-2.039,2.686,2.686,0,0,1,1.121-2.321,5.529,5.529,0,0,1,3.238-.817h1.169V7.145A1.572,1.572,0,0,0,39.2,6.09,1.335,1.335,0,0,0,38.132,5.7,1.507,1.507,0,0,0,37.126,6a1.042,1.042,0,0,0-.365.843h-2.54a2.552,2.552,0,0,1,.51-1.529,3.365,3.365,0,0,1,1.441-1.1,5.262,5.262,0,0,1,2.092-.4,4.152,4.152,0,0,1,2.79.883A3.091,3.091,0,0,1,42.087,7.18V11.3a4.549,4.549,0,0,0,.378,2.048v.15Zm-2.1-1.767a2.175,2.175,0,0,0,1.037-.251,1.635,1.635,0,0,0,.7-.672V9.175h-.949q-1.906,0-2.03,1.319l-.009.149a1.014,1.014,0,0,0,.334.782,1.3,1.3,0,0,0,.914.308" fill="#3c6d9d"/><rect width="2.549" height="13.5" transform="translate(44.17 0)" fill="#3c6d9d"/><path d="M48.415,8.657a5.642,5.642,0,0,1,.545-2.522,3.986,3.986,0,0,1,1.569-1.714,4.577,4.577,0,0,1,2.377-.606,4.33,4.33,0,0,1,3.142,1.177,4.727,4.727,0,0,1,1.358,3.2l.018.65A4.97,4.97,0,0,1,56.2,12.354a4.736,4.736,0,0,1-6.561,0,5.061,5.061,0,0,1-1.226-3.586Zm2.54.181a3.549,3.549,0,0,0,.51,2.072,1.83,1.83,0,0,0,2.9.009,3.885,3.885,0,0,0,.519-2.267,3.516,3.516,0,0,0-.519-2.059,1.686,1.686,0,0,0-1.459-.731,1.659,1.659,0,0,0-1.441.727,3.949,3.949,0,0,0-.51,2.249" fill="#3c6d9d"/><path d="M64.139,10.872a.817.817,0,0,0-.461-.733,5.252,5.252,0,0,0-1.481-.48Q58.8,8.948,58.8,6.776a2.615,2.615,0,0,1,1.05-2.114A4.247,4.247,0,0,1,62.6,3.814a4.563,4.563,0,0,1,2.9.853,2.685,2.685,0,0,1,1.085,2.215h-2.54a1.234,1.234,0,0,0-.351-.9,1.5,1.5,0,0,0-1.1-.355,1.521,1.521,0,0,0-.993.29.916.916,0,0,0-.352.738.783.783,0,0,0,.4.681A4.094,4.094,0,0,0,63,7.783a11.066,11.066,0,0,1,1.6.426,2.628,2.628,0,0,1,2.013,2.558,2.478,2.478,0,0,1-1.116,2.1,4.813,4.813,0,0,1-2.883.8,5.048,5.048,0,0,1-2.123-.426,3.55,3.55,0,0,1-1.454-1.17,2.71,2.71,0,0,1-.528-1.6h2.408a1.331,1.331,0,0,0,.5,1.038,1.99,1.99,0,0,0,1.248.36,1.849,1.849,0,0,0,1.1-.276.865.865,0,0,0,.374-.726" fill="#3c6d9d"/><path d="M81.286,8.833a5.7,5.7,0,0,1-1,3.52A3.2,3.2,0,0,1,77.6,13.675a2.961,2.961,0,0,1-2.329-1v4.483H72.725V3.99h2.356l.088.931a2.985,2.985,0,0,1,2.408-1.107,3.219,3.219,0,0,1,2.733,1.3A5.853,5.853,0,0,1,81.286,8.7Zm-2.54-.185a3.748,3.748,0,0,0-.47-2.048,1.533,1.533,0,0,0-1.367-.721,1.661,1.661,0,0,0-1.643.915v3.893a1.69,1.69,0,0,0,1.661.94q1.819,0,1.819-2.979" fill="#3c6d9d"/><path d="M88.2,6.372a6.873,6.873,0,0,0-.914-.07,1.861,1.861,0,0,0-1.89.975V13.5h-2.54V3.99h2.4l.07,1.134a2.354,2.354,0,0,1,2.118-1.31,2.636,2.636,0,0,1,.791.115Z" fill="#3c6d9d"/><path d="M88.713,8.657a5.642,5.642,0,0,1,.545-2.522,3.986,3.986,0,0,1,1.569-1.714A4.577,4.577,0,0,1,93.2,3.815a4.33,4.33,0,0,1,3.142,1.177,4.727,4.727,0,0,1,1.358,3.2l.018.65A4.97,4.97,0,0,1,96.5,12.354a4.736,4.736,0,0,1-6.561,0,5.061,5.061,0,0,1-1.226-3.586Zm2.54.181a3.549,3.549,0,0,0,.51,2.072,1.83,1.83,0,0,0,2.9.009,3.885,3.885,0,0,0,.519-2.267,3.516,3.516,0,0,0-.519-2.059A1.686,1.686,0,0,0,93.2,5.862a1.659,1.659,0,0,0-1.441.727,3.949,3.949,0,0,0-.51,2.249" fill="#3c6d9d"/><path d="M103.241,11.628a1.666,1.666,0,0,0,1.143-.387,1.355,1.355,0,0,0,.457-1.028h2.381a3.252,3.252,0,0,1-.527,1.771,3.478,3.478,0,0,1-1.419,1.248,4.456,4.456,0,0,1-1.991.444,4.127,4.127,0,0,1-3.217-1.3A5.128,5.128,0,0,1,98.89,8.8V8.631a5.073,5.073,0,0,1,1.169-3.507,4.082,4.082,0,0,1,3.208-1.309,3.994,3.994,0,0,1,2.861,1.015,3.588,3.588,0,0,1,1.094,2.7h-2.381a1.747,1.747,0,0,0-.457-1.206,1.7,1.7,0,0,0-2.5.183,3.75,3.75,0,0,0-.453,2.1v.265a3.791,3.791,0,0,0,.449,2.112,1.548,1.548,0,0,0,1.362.643" fill="#3c6d9d"/><path d="M113.05,13.675a4.668,4.668,0,0,1-3.406-1.283,4.56,4.56,0,0,1-1.314-3.419V8.727a5.743,5.743,0,0,1,.554-2.561,4.068,4.068,0,0,1,1.569-1.741,4.407,4.407,0,0,1,2.316-.611,3.946,3.946,0,0,1,3.072,1.231,5,5,0,0,1,1.12,3.489V9.571h-6.055a2.359,2.359,0,0,0,.742,1.494,2.245,2.245,0,0,0,1.569.563,2.742,2.742,0,0,0,2.294-1.064l1.248,1.4a3.794,3.794,0,0,1-1.547,1.26,5.07,5.07,0,0,1-2.162.453m-.29-7.813a1.587,1.587,0,0,0-1.226.512,2.651,2.651,0,0,0-.6,1.466h3.533v-.2a1.888,1.888,0,0,0-.457-1.31,1.634,1.634,0,0,0-1.248-.464" fill="#3c6d9d"/><path d="M123.553,10.872a.817.817,0,0,0-.461-.733,5.252,5.252,0,0,0-1.481-.48q-3.393-.711-3.393-2.883a2.615,2.615,0,0,1,1.05-2.114,4.247,4.247,0,0,1,2.747-.848,4.563,4.563,0,0,1,2.9.853A2.685,2.685,0,0,1,126,6.882h-2.54a1.234,1.234,0,0,0-.351-.9,1.5,1.5,0,0,0-1.1-.355,1.521,1.521,0,0,0-.993.29.916.916,0,0,0-.352.738.783.783,0,0,0,.4.681,4.094,4.094,0,0,0,1.349.449,11.066,11.066,0,0,1,1.6.426,2.628,2.628,0,0,1,2.013,2.558,2.478,2.478,0,0,1-1.116,2.1,4.813,4.813,0,0,1-2.883.8,5.048,5.048,0,0,1-2.123-.426,3.55,3.55,0,0,1-1.454-1.17,2.71,2.71,0,0,1-.528-1.6h2.408a1.331,1.331,0,0,0,.5,1.038,1.99,1.99,0,0,0,1.248.36,1.849,1.849,0,0,0,1.1-.276.865.865,0,0,0,.374-.726" fill="#3c6d9d"/><path d="M127.262,8.657a5.642,5.642,0,0,1,.545-2.522,3.986,3.986,0,0,1,1.569-1.714,4.577,4.577,0,0,1,2.377-.606A4.33,4.33,0,0,1,134.9,4.992a4.727,4.727,0,0,1,1.358,3.2l.018.65a4.97,4.97,0,0,1-1.222,3.512,4.736,4.736,0,0,1-6.561,0,5.061,5.061,0,0,1-1.226-3.586Zm2.54.181a3.549,3.549,0,0,0,.51,2.072,1.83,1.83,0,0,0,2.9.009,3.885,3.885,0,0,0,.519-2.267,3.516,3.516,0,0,0-.519-2.059,1.686,1.686,0,0,0-1.459-.731,1.659,1.659,0,0,0-1.441.727,3.949,3.949,0,0,0-.51,2.249" fill="#3c6d9d"/><path d="M142.985,10.872a.817.817,0,0,0-.461-.733,5.252,5.252,0,0,0-1.481-.48q-3.393-.711-3.393-2.883a2.616,2.616,0,0,1,1.05-2.114,4.247,4.247,0,0,1,2.747-.848,4.563,4.563,0,0,1,2.9.853,2.685,2.685,0,0,1,1.085,2.215h-2.54a1.234,1.234,0,0,0-.351-.9,1.5,1.5,0,0,0-1.1-.355,1.521,1.521,0,0,0-.993.29.916.916,0,0,0-.352.738.783.783,0,0,0,.4.681,4.094,4.094,0,0,0,1.349.449,11.066,11.066,0,0,1,1.6.426,2.628,2.628,0,0,1,2.013,2.558,2.478,2.478,0,0,1-1.116,2.1,4.813,4.813,0,0,1-2.883.8,5.048,5.048,0,0,1-2.123-.426,3.55,3.55,0,0,1-1.454-1.17,2.71,2.71,0,0,1-.528-1.6h2.408a1.331,1.331,0,0,0,.5,1.038,1.99,1.99,0,0,0,1.248.36,1.849,1.849,0,0,0,1.1-.276.865.865,0,0,0,.374-.726" fill="#3c6d9d"/><path d="M151.177,8.675a5.722,5.722,0,0,1,1-3.542A3.236,3.236,0,0,1,154.9,3.814,2.912,2.912,0,0,1,157.2,4.851V0h2.549V13.5h-2.294l-.123-1.011a2.989,2.989,0,0,1-2.443,1.187,3.229,3.229,0,0,1-2.694-1.323,5.914,5.914,0,0,1-1.015-3.678m2.54.189a3.751,3.751,0,0,0,.466,2.051,1.518,1.518,0,0,0,1.353.713,1.7,1.7,0,0,0,1.661-.995V6.875a1.675,1.675,0,0,0-1.643-.995q-1.838,0-1.837,2.984" fill="#3c6d9d"/><path d="M166.092,13.675a4.668,4.668,0,0,1-3.406-1.283,4.56,4.56,0,0,1-1.314-3.419V8.727a5.743,5.743,0,0,1,.554-2.561,4.068,4.068,0,0,1,1.569-1.741,4.407,4.407,0,0,1,2.316-.611,3.946,3.946,0,0,1,3.072,1.231A5,5,0,0,1,170,8.534V9.571h-6.055a2.359,2.359,0,0,0,.742,1.494,2.245,2.245,0,0,0,1.569.563,2.742,2.742,0,0,0,2.294-1.064l1.248,1.4a3.794,3.794,0,0,1-1.547,1.26,5.07,5.07,0,0,1-2.162.453m-.29-7.813a1.587,1.587,0,0,0-1.226.512,2.651,2.651,0,0,0-.6,1.466h3.533v-.2a1.888,1.888,0,0,0-.457-1.31,1.634,1.634,0,0,0-1.248-.464" fill="#3c6d9d"/><rect width="2.549" height="13.5" transform="translate(0 21.599)" fill="#3c6d9d"/><path d="M4.623,23.128a1.25,1.25,0,0,1,.382-.94,1.437,1.437,0,0,1,1.042-.369,1.441,1.441,0,0,1,1.037.369,1.342,1.342,0,0,1,0,1.89,1.444,1.444,0,0,1-1.033.369,1.444,1.444,0,0,1-1.033-.369,1.247,1.247,0,0,1-.391-.95M7.321,35.1H4.772v-9.51H7.321Z" fill="#3c6d9d"/><path d="M11.8,25.59l.079,1.063a3.343,3.343,0,0,1,2.734-1.239,2.537,2.537,0,0,1,2.522,1.45,3.267,3.267,0,0,1,2.856-1.45,2.838,2.838,0,0,1,2.3.9,4.141,4.141,0,0,1,.756,2.712V35.1H20.5V29.035a1.807,1.807,0,0,0-.316-1.181,1.4,1.4,0,0,0-1.116-.374,1.584,1.584,0,0,0-1.582,1.089L17.49,35.1H14.95V29.044a1.786,1.786,0,0,0-.325-1.195,1.416,1.416,0,0,0-1.107-.369,1.645,1.645,0,0,0-1.565.9V35.1H9.413V25.59Z" fill="#3c6d9d"/><path d="M33.557,30.433a5.7,5.7,0,0,1-1,3.52,3.2,3.2,0,0,1-2.693,1.322,2.961,2.961,0,0,1-2.329-1v4.483H25V25.59h2.356l.088.931a2.985,2.985,0,0,1,2.408-1.107,3.219,3.219,0,0,1,2.733,1.3,5.853,5.853,0,0,1,.976,3.586Zm-2.54-.185a3.748,3.748,0,0,0-.47-2.048,1.533,1.533,0,0,0-1.367-.721,1.661,1.661,0,0,0-1.643.915v3.893a1.69,1.69,0,0,0,1.661.94q1.819,0,1.819-2.979" fill="#3c6d9d"/><path d="M35.112,23.128a1.251,1.251,0,0,1,.383-.94,1.647,1.647,0,0,1,2.078,0,1.342,1.342,0,0,1,0,1.89,1.63,1.63,0,0,1-2.066,0,1.251,1.251,0,0,1-.391-.95m2.7,11.971H35.262v-9.51h2.549Z" fill="#3c6d9d"/><path d="M44.279,35.275a4.668,4.668,0,0,1-3.406-1.283,4.56,4.56,0,0,1-1.314-3.419v-.246a5.743,5.743,0,0,1,.554-2.561,4.068,4.068,0,0,1,1.569-1.741A4.407,4.407,0,0,1,44,25.414a3.946,3.946,0,0,1,3.072,1.231,5,5,0,0,1,1.12,3.489v1.037H42.135a2.359,2.359,0,0,0,.742,1.494,2.245,2.245,0,0,0,1.569.563,2.742,2.742,0,0,0,2.294-1.064l1.248,1.4a3.794,3.794,0,0,1-1.547,1.26,5.07,5.07,0,0,1-2.162.453m-.29-7.813a1.587,1.587,0,0,0-1.226.512,2.651,2.651,0,0,0-.6,1.466h3.533v-.2a1.888,1.888,0,0,0-.457-1.31,1.634,1.634,0,0,0-1.248-.464" fill="#3c6d9d"/><path d="M52.55,33.052H57.2V35.1H49.307V33.553l4.473-5.915H49.439V25.59h7.62v1.5Z" fill="#3c6d9d"/><path d="M64.3,35.1a2.783,2.783,0,0,1-.255-.853,3.073,3.073,0,0,1-2.4,1.028,3.379,3.379,0,0,1-2.316-.808,2.6,2.6,0,0,1-.918-2.039,2.686,2.686,0,0,1,1.121-2.321,5.529,5.529,0,0,1,3.238-.817H63.94v-.545A1.572,1.572,0,0,0,63.6,27.69a1.335,1.335,0,0,0-1.068-.4,1.507,1.507,0,0,0-1.006.308,1.042,1.042,0,0,0-.365.843h-2.54a2.552,2.552,0,0,1,.51-1.529,3.365,3.365,0,0,1,1.441-1.1,5.262,5.262,0,0,1,2.092-.4,4.152,4.152,0,0,1,2.79.883,3.091,3.091,0,0,1,1.033,2.483V32.9a4.549,4.549,0,0,0,.378,2.048v.15Zm-2.1-1.767a2.175,2.175,0,0,0,1.037-.251,1.635,1.635,0,0,0,.7-.672V30.775h-.949q-1.906,0-2.03,1.319l-.009.149a1.014,1.014,0,0,0,.334.782,1.3,1.3,0,0,0,.914.308" fill="#3c6d9d"/><path d="M76.474,31.5l1.758-5.915h2.724L77.133,36.576l-.211.5a2.9,2.9,0,0,1-2.812,1.864,4.01,4.01,0,0,1-1.125-.167V36.849l.386.009a2.094,2.094,0,0,0,1.077-.22,1.449,1.449,0,0,0,.558-.73l.3-.782L71.974,25.59h2.733Z" fill="#3c6d9d"/><path d="M86.045,30.275a5.722,5.722,0,0,1,1-3.542,3.236,3.236,0,0,1,2.729-1.319,2.912,2.912,0,0,1,2.293,1.037V21.6h2.549V35.1H92.32L92.2,34.089a2.989,2.989,0,0,1-2.443,1.187,3.229,3.229,0,0,1-2.694-1.323,5.914,5.914,0,0,1-1.015-3.678m2.54.189a3.751,3.751,0,0,0,.466,2.051,1.518,1.518,0,0,0,1.353.713,1.7,1.7,0,0,0,1.661-.995V28.475a1.675,1.675,0,0,0-1.643-1q-1.837,0-1.837,2.984" fill="#3c6d9d"/><path d="M100.96,35.275a4.668,4.668,0,0,1-3.406-1.283,4.56,4.56,0,0,1-1.314-3.419v-.246a5.743,5.743,0,0,1,.554-2.561,4.068,4.068,0,0,1,1.569-1.741,4.407,4.407,0,0,1,2.316-.611,3.946,3.946,0,0,1,3.072,1.231,5,5,0,0,1,1.12,3.489v1.037H98.816a2.359,2.359,0,0,0,.742,1.494,2.245,2.245,0,0,0,1.569.563,2.742,2.742,0,0,0,2.294-1.064l1.248,1.4a3.794,3.794,0,0,1-1.547,1.26,5.07,5.07,0,0,1-2.162.453m-.29-7.813a1.587,1.587,0,0,0-1.226.512,2.651,2.651,0,0,0-.6,1.466h3.533v-.2a1.888,1.888,0,0,0-.457-1.31,1.634,1.634,0,0,0-1.248-.464" fill="#3c6d9d"/><path d="M111.463,32.472a.817.817,0,0,0-.461-.733,5.252,5.252,0,0,0-1.481-.48q-3.393-.711-3.393-2.883a2.615,2.615,0,0,1,1.05-2.114,4.247,4.247,0,0,1,2.747-.848,4.563,4.563,0,0,1,2.9.853,2.685,2.685,0,0,1,1.085,2.215h-2.54a1.234,1.234,0,0,0-.351-.9,1.5,1.5,0,0,0-1.1-.355,1.521,1.521,0,0,0-.993.29.916.916,0,0,0-.352.738.783.783,0,0,0,.4.681,4.094,4.094,0,0,0,1.349.449,11.066,11.066,0,0,1,1.6.426,2.628,2.628,0,0,1,2.013,2.558,2.478,2.478,0,0,1-1.116,2.1,4.813,4.813,0,0,1-2.883.805,5.048,5.048,0,0,1-2.123-.426,3.55,3.55,0,0,1-1.454-1.17,2.71,2.71,0,0,1-.528-1.6h2.408a1.331,1.331,0,0,0,.5,1.038,1.99,1.99,0,0,0,1.248.36,1.849,1.849,0,0,0,1.1-.276.865.865,0,0,0,.374-.726" fill="#3c6d9d"/><path d="M115.55,23.128a1.25,1.25,0,0,1,.382-.94,1.649,1.649,0,0,1,2.079,0,1.344,1.344,0,0,1-.005,1.89,1.629,1.629,0,0,1-2.065,0,1.247,1.247,0,0,1-.391-.95m2.7,11.971H115.7v-9.51h2.549Z" fill="#3c6d9d"/><path d="M122.678,25.59l.079,1.1a3.321,3.321,0,0,1,2.734-1.275,2.758,2.758,0,0,1,2.249.888,4.132,4.132,0,0,1,.756,2.654V35.1h-2.54V29.018a1.653,1.653,0,0,0-.351-1.174,1.58,1.58,0,0,0-1.169-.364,1.748,1.748,0,0,0-1.609.914V35.1h-2.54V25.59Z" fill="#3c6d9d"/><path d="M131.115,35.1V27.454H129.7V25.59h1.415v-.808a3.282,3.282,0,0,1,.918-2.483,3.555,3.555,0,0,1,2.571-.884,5.95,5.95,0,0,1,1.292.176l-.026,1.969a3.229,3.229,0,0,0-.774-.079q-1.432,0-1.432,1.345v.764h1.889v1.864h-1.889V35.1Z" fill="#3c6d9d"/><path d="M141.038,35.275a4.668,4.668,0,0,1-3.406-1.283,4.56,4.56,0,0,1-1.314-3.419v-.246a5.743,5.743,0,0,1,.554-2.561,4.068,4.068,0,0,1,1.569-1.741,4.407,4.407,0,0,1,2.316-.611,3.946,3.946,0,0,1,3.072,1.231,5,5,0,0,1,1.12,3.489v1.037h-6.055a2.359,2.359,0,0,0,.742,1.494,2.245,2.245,0,0,0,1.569.563,2.742,2.742,0,0,0,2.294-1.064l1.248,1.4a3.794,3.794,0,0,1-1.547,1.26,5.07,5.07,0,0,1-2.162.453m-.29-7.813a1.587,1.587,0,0,0-1.226.512,2.651,2.651,0,0,0-.6,1.466h3.533v-.2a1.888,1.888,0,0,0-.457-1.31,1.634,1.634,0,0,0-1.248-.464" fill="#3c6d9d"/><path d="M150.346,33.227a1.666,1.666,0,0,0,1.143-.387,1.355,1.355,0,0,0,.457-1.028h2.381a3.252,3.252,0,0,1-.527,1.771,3.478,3.478,0,0,1-1.419,1.248,4.456,4.456,0,0,1-1.991.444,4.127,4.127,0,0,1-3.217-1.3,5.128,5.128,0,0,1-1.178-3.581V30.23a5.073,5.073,0,0,1,1.169-3.507,4.082,4.082,0,0,1,3.208-1.309,3.994,3.994,0,0,1,2.861,1.015,3.588,3.588,0,0,1,1.094,2.7h-2.381a1.747,1.747,0,0,0-.457-1.206,1.7,1.7,0,0,0-2.5.183,3.75,3.75,0,0,0-.453,2.1v.265a3.792,3.792,0,0,0,.449,2.112,1.548,1.548,0,0,0,1.362.643" fill="#3c6d9d"/><path d="M159.732,33.227a1.666,1.666,0,0,0,1.143-.387,1.355,1.355,0,0,0,.457-1.028h2.381a3.252,3.252,0,0,1-.527,1.771,3.478,3.478,0,0,1-1.419,1.248,4.456,4.456,0,0,1-1.991.444,4.127,4.127,0,0,1-3.217-1.3,5.128,5.128,0,0,1-1.178-3.581V30.23a5.073,5.073,0,0,1,1.169-3.507,4.082,4.082,0,0,1,3.208-1.309,3.994,3.994,0,0,1,2.861,1.015,3.588,3.588,0,0,1,1.094,2.7h-2.381a1.747,1.747,0,0,0-.457-1.206,1.7,1.7,0,0,0-2.5.183,3.75,3.75,0,0,0-.453,2.1v.265a3.792,3.792,0,0,0,.449,2.112,1.548,1.548,0,0,0,1.362.643" fill="#3c6d9d"/><path d="M165.146,23.128a1.251,1.251,0,0,1,.383-.94,1.647,1.647,0,0,1,2.078,0,1.342,1.342,0,0,1,0,1.89,1.629,1.629,0,0,1-2.065,0,1.248,1.248,0,0,1-.392-.95m2.7,11.971H165.3v-9.51h2.549Z" fill="#3c6d9d"/><path d="M169.541,30.257a5.628,5.628,0,0,1,.545-2.522,3.98,3.98,0,0,1,1.569-1.714,4.578,4.578,0,0,1,2.377-.607,4.33,4.33,0,0,1,3.142,1.178,4.726,4.726,0,0,1,1.358,3.2l.018.651a4.975,4.975,0,0,1-1.222,3.512,4.735,4.735,0,0,1-6.561,0,5.058,5.058,0,0,1-1.226-3.586Zm2.54.181a3.549,3.549,0,0,0,.51,2.072,1.83,1.83,0,0,0,2.9.009,3.887,3.887,0,0,0,.519-2.267,3.516,3.516,0,0,0-.519-2.059,1.684,1.684,0,0,0-1.459-.731,1.655,1.655,0,0,0-1.441.727,3.949,3.949,0,0,0-.51,2.249m2.452-8.838H177.3l-2.435,2.725H172.8Z" fill="#3c6d9d"/><path d="M182.452,25.59l.079,1.1a3.321,3.321,0,0,1,2.734-1.275,2.758,2.758,0,0,1,2.249.888,4.132,4.132,0,0,1,.756,2.654V35.1h-2.54V29.018a1.653,1.653,0,0,0-.351-1.174,1.58,1.58,0,0,0-1.169-.364,1.748,1.748,0,0,0-1.609.914V35.1h-2.54V25.59Z" fill="#3c6d9d"/></g></g></g></g></svg>