<svg xmlns="http://www.w3.org/2000/svg" xmlns:xlink="http://www.w3.org/1999/xlink" width="333" height="353" viewBox="0 0 333 353"><defs><clipPath id="a"><rect width="307.838" height="220.535" fill="none"/></clipPath><clipPath id="c"><rect width="111.63" height="2.379" transform="translate(161.08 175.995)" fill="none"/></clipPath><clipPath id="d"><rect width="44.47" height="79.921" transform="translate(81.266 89.91)" fill="none"/></clipPath><clipPath id="e"><rect width="55.748" height="97.944" transform="translate(28.2 71.887)" fill="none"/></clipPath><clipPath id="f"><rect width="103.869" height="7.857" transform="translate(134.68 88.037)" fill="none"/></clipPath><clipPath id="g"><rect width="22.055" height="36.241" transform="translate(142.124 109.849)" fill="none"/></clipPath><clipPath id="h"><rect width="22.055" height="36.241" transform="translate(207.639 109.849)" fill="none"/></clipPath><clipPath id="i"><rect width="17.969" height="24.646" transform="translate(149.014 57.759)" fill="none"/></clipPath><clipPath id="j"><rect width="15.648" height="23.16" transform="translate(188.624 51.997)" fill="none"/></clipPath></defs><g transform="translate(-982.5 -4997)"><rect width="333" height="353" rx="21" transform="translate(982.5 4997)" fill="#eff6e5"/><g transform="translate(995.5 5063)"><g clip-path="url(#a)"><g clip-path="url(#a)"><path d="M255.214,212.455H63.807a6.7,6.7,0,0,1-6.7-6.7V175.852a6.7,6.7,0,0,1,6.7-6.7H255.214a6.7,6.7,0,0,1,6.695,6.7v29.907a6.7,6.7,0,0,1-6.695,6.7" fill="#fff"/><path d="M268.671,63.627c-1.68-.28-14.157,1.664-15.269,9.868s-7.333,12.464-4.237,19.111,8.08,7.635,8.184,15.243,0,26.772,0,26.772,12.776,5.715,15.061,4.6,7.479-7.766,9.141-11.4.415-26.694-.416-29.81-.415-11.471-3.116-15.6-3.739-17.843-9.348-18.778" fill="#7e8e0b"/><path d="M265.34,83.155l2.916,35.419.415,46.308-7.374-1.125,2.389-49.388Z" fill="#c39f62"/><path d="M249.559,81.389s-9.556.623-12.672,7.478,0,20.982,1.662,20.982-9.608,3.739-8.855,13.191a110.235,110.235,0,0,0,1.688,13.607l11.322,4.882s17.242.1,18.592,1.143,7.375-8.518,7.375-11.426-.415-12.672-.415-12.672-.624-17.865-1.87-20.358-1.662-16-16.827-16.827" fill="#a7b816"/><path d="M53.131,128.909h6.707a9.973,9.973,0,0,0,9.973-9.973V47.062a9.972,9.972,0,0,0-9.973-9.973H53.131a9.972,9.972,0,0,0-9.973,9.973v71.874a9.973,9.973,0,0,0,9.973,9.973" fill="#c6cec6"/><path d="M68.531,123.352H61.824a9.973,9.973,0,0,1-9.973-9.973V41.505a9.917,9.917,0,0,1,1.035-4.4,9.966,9.966,0,0,0-9.728,9.96v71.875a9.973,9.973,0,0,0,9.973,9.972h6.707a9.964,9.964,0,0,0,8.938-5.568c-.082,0-.162.012-.245.012" fill="#a6b3a6"/><rect width="26.653" height="2.387" transform="translate(43.158 79.637)" fill="#dbe0db"/><rect width="8.693" height="2.387" transform="translate(43.158 79.637)" fill="#8c9c8c"/><path d="M101.918,134.154h9.2A13.681,13.681,0,0,0,124.8,120.473V67.7a13.681,13.681,0,0,0-13.681-13.681h-9.2A13.679,13.679,0,0,0,88.238,67.7v52.773a13.679,13.679,0,0,0,13.68,13.681" fill="#f0e2d3"/><path d="M110.643,132.033a13.681,13.681,0,0,1-13.681-13.681V65.579a13.659,13.659,0,0,1,6.387-11.56h-1.431A13.681,13.681,0,0,0,88.237,67.7v52.774a13.681,13.681,0,0,0,13.681,13.68h9.2a13.6,13.6,0,0,0,7.294-2.121Z" fill="#e4ccb1"/><rect width="8.725" height="3.023" transform="translate(88.237 82.89)" fill="#cc9f6c"/><rect width="27.837" height="3.023" transform="translate(96.962 82.89)" fill="#dfc2a2"/><path d="M124.8,77.805a23.664,23.664,0,0,0-11.426,0c-6.232,1.558-10.519,3.895-10.594,7.167s-3.739,5.713-1.87,11.114-2.131-1.143,4.232,11.01,5.272,17.712,12.751,18.36,23.682.8,24.772-2.624,2.649-6.232,3.272-8.1,2.961-4.312,3.116-8.466,2.337-7.477-.934-10.178-3.272-6.751-5.454-7.842S139.081,83.05,137.99,83s-1.869-2.856-4.518-3.012-8.673-2.181-8.673-2.181" fill="#7e8e0b"/><path d="M293.38,176H21.338a6.532,6.532,0,0,1-6.532-6.532v-4.393a6.532,6.532,0,0,1,6.532-6.532H293.38a6.531,6.531,0,0,1,6.532,6.532v4.393A6.531,6.531,0,0,1,293.38,176" fill="#aebd00"/><path d="M152.492,159.984H117.4v-1.446h41.332Z" fill="#6d8600"/><path d="M270.44,187.2H48.259a7.126,7.126,0,0,1-7.126-7.126V175.28a7.126,7.126,0,0,1,7.126-7.126H270.44a7.125,7.125,0,0,1,7.126,7.126v4.792a7.125,7.125,0,0,1-7.126,7.126" fill="#ff9758"/><path d="M38.136,195.206H17.8a3,3,0,0,1-3-3v-2.016a3,3,0,0,1,3-3H38.136a3,3,0,0,1,3,3v2.016a3,3,0,0,1-3,3" fill="#ffa975"/><path d="M304.841,187.2h-15.1a3,3,0,0,1-3-3v-2.016a3,3,0,0,1,3-3h15.1a3,3,0,0,1,3,3V184.2a3,3,0,0,1-3,3" fill="#ff9758"/><path d="M278.6,203.328H232.877a3.183,3.183,0,0,1-3.183-3.182v-2.141a3.182,3.182,0,0,1,3.183-3.182H278.6a3.182,3.182,0,0,1,3.183,3.182v2.141a3.183,3.183,0,0,1-3.183,3.182" fill="#ffd18b"/><path d="M244.271,184.138H235.38a1.37,1.37,0,1,1,0-2.74h8.891a1.37,1.37,0,1,1,0,2.74" fill="#ffa975"/><path d="M201.749,179.99h-8.891a1.37,1.37,0,0,1,0-2.74h8.891a1.37,1.37,0,1,1,0,2.74" fill="#ffa975"/><path d="M229.411,181.36H218.189a1.37,1.37,0,0,1,0-2.74h11.222a1.37,1.37,0,1,1,0,2.74" fill="#ffa975"/><path d="M217.073,175.569h-8.891a1.37,1.37,0,1,1,0-2.74h8.891a1.37,1.37,0,0,1,0,2.74" fill="#ffa975"/><path d="M157.366,178.31h-8.891a1.37,1.37,0,1,1,0-2.74h8.891a1.37,1.37,0,1,1,0,2.74" fill="#ffa975"/><path d="M248.081,175.713H239.19a1.37,1.37,0,1,1,0-2.74h8.891a1.37,1.37,0,1,1,0,2.74" fill="#ffa975"/><path d="M191.027,175.713h-8.891a1.37,1.37,0,0,1,0-2.74h8.891a1.37,1.37,0,1,1,0,2.74" fill="#ffa975"/><path d="M137.58,176.94h-8.891a1.37,1.37,0,0,1,0-2.74h8.891a1.37,1.37,0,0,1,0,2.74" fill="#ffa975"/><path d="M59.224,179.164H50.333a1.37,1.37,0,0,1,0-2.74h8.891a1.37,1.37,0,1,1,0,2.74" fill="#ffa975"/><path d="M129.809,184.138H113.272a1.37,1.37,0,1,1,0-2.74h16.537a1.37,1.37,0,0,1,0,2.74" fill="#ffa975"/><path d="M119.485,174.342H102.949a1.37,1.37,0,0,1,0-2.74h16.536a1.37,1.37,0,1,1,0,2.74" fill="#ffa975"/><path d="M181.718,182.768h-19.95a1.37,1.37,0,1,1,0-2.74h19.95a1.37,1.37,0,0,1,0,2.74" fill="#ffa975"/><path d="M104.718,181.4H89.607a1.37,1.37,0,1,1,0-2.74h15.111a1.37,1.37,0,0,1,0,2.74" fill="#ffa975"/><path d="M77.655,184.138H57.706a1.37,1.37,0,1,1,0-2.74H77.655a1.37,1.37,0,1,1,0,2.74" fill="#ffa975"/><path d="M232.64,172.972h-3.718a1.37,1.37,0,0,1,0-2.74h3.718a1.37,1.37,0,0,1,0,2.74" fill="#ffa975"/><path d="M210.779,184.138h-3.718a1.37,1.37,0,1,1,0-2.74h3.718a1.37,1.37,0,0,1,0,2.74" fill="#ffa975"/><path d="M148.556,184.138h-3.718a1.37,1.37,0,0,1,0-2.74h3.718a1.37,1.37,0,0,1,0,2.74" fill="#ffa975"/><path d="M82.462,177.794H78.743a1.37,1.37,0,0,1,0-2.74h3.719a1.37,1.37,0,0,1,0,2.74" fill="#ffa975"/><g style="mix-blend-mode:multiply;isolation:isolate"><g clip-path="url(#c)"><rect width="111.63" height="2.379" transform="translate(161.08 175.995)" fill="#c7a688"/></g></g><path d="M28.2,169.832l-13.395-.368V164.9a6.361,6.361,0,0,1,6.361-6.361H41.644Z" fill="#6d8600"/><rect width="100.955" height="63.56" transform="translate(28.201 106.271)" fill="#74abff"/><path d="M129.156,106.271H28.2l6.65-4.534,1.663-1.129,12.675-8.627.376-.251,1.286-.894,1.381-.926,2.431-1.662,8.847-6.04,1.663-1.129,12.674-8.627.831-.565.832.565,4.439,3.027,8.235,5.6,1.663,1.129,8.862,6.04,2.432,1.662,1.38.926,1.663,1.145,12.674,8.627,1.663,1.129,3.216,2.2Z" fill="#92c7ff"/><g style="mix-blend-mode:screen;isolation:isolate"><g clip-path="url(#d)"><path d="M125.736,103.934l-.69,2.337-18.98,63.56h-24.8l18.98-63.56,4.894-16.36,1.381.925,1.662,1.145,12.674,8.627,1.663,1.13Z" fill="#2578ff"/></g></g><g style="mix-blend-mode:screen;isolation:isolate"><g clip-path="url(#e)"><path d="M83.948,75.479l-9.192,30.792-18.98,63.56H28.2v-6.6l17.019-56.956L49.564,91.73l1.287-.894,1.38-.926,2.431-1.662,8.847-6.04,1.663-1.129,12.674-8.627.832-.565.831.565Z" fill="#2578ff"/></g></g><rect width="100.961" height="1.662" transform="translate(28.2 106.265)" fill="#5f9696"/><path d="M105.141,89.9H52.224l2.437-1.661H102.7Z" fill="#5f9696"/><rect width="100.961" height="1.662" transform="translate(28.2 126.104)" fill="#5f9696"/><rect width="90.741" height="1.494" transform="translate(28.201 150.508)" fill="#5f9696"/><path d="M36.509,100.605v69.226H34.848v-68.1Z" fill="#5f9696"/><path d="M50.843,90.843v78.989H49.182V91.974Z" fill="#5f9696"/><path d="M65.177,81.083v88.749H63.516V82.214Z" fill="#5f9696"/><path d="M79.511,72.449v97.383H77.85V72.452l.832-.567Z" fill="#5f9696"/><path d="M93.845,82.211v87.621H92.184V81.08Z" fill="#5f9696"/><path d="M108.179,91.974v77.858h-1.661V90.843Z" fill="#5f9696"/><path d="M122.513,101.736v68.1h-1.661V100.605Z" fill="#5f9696"/><rect width="90.74" height="3.827" transform="translate(28.202 166.005)" fill="#5f9696"/><rect width="20.404" height="31.784" transform="translate(68.48 138.048)" fill="#5f9696"/><rect width="17.743" height="30.64" transform="translate(69.811 139.192)" fill="#477086"/><rect width="103.869" height="70.008" transform="translate(134.68 88.037)" fill="#d9b791"/><g style="mix-blend-mode:multiply;isolation:isolate"><g clip-path="url(#f)"><rect width="103.869" height="7.857" transform="translate(134.68 88.037)" fill="#e2babe"/></g></g><path d="M244.989,88.037H128.24l1.454-20.254L136.159,52H237.071l6.464,15.785Z" fill="#00aa9e"/><path d="M136.159,52l-6.464,15.785h113.84L237.071,52Z" fill="#2ab8ae"/><rect width="20.566" height="38.639" transform="translate(204.272 36.518)" fill="#cda16f"/><rect width="20.566" height="1.273" transform="translate(204.272 36.518)" fill="#e9d6c0"/><path d="M220.7,61.007h-5.617a1.961,1.961,0,0,0-1.961,1.961v1.319a1.961,1.961,0,0,0,1.961,1.961H220.7a1.961,1.961,0,0,0,1.961-1.961V62.968a1.961,1.961,0,0,0-1.961-1.961" fill="#bd8341"/><path d="M209.877,52h-3.2a1.665,1.665,0,0,0-1.665,1.666v1.12a1.665,1.665,0,0,0,1.665,1.666h3.2a1.666,1.666,0,0,0,1.666-1.666v-1.12A1.666,1.666,0,0,0,209.877,52" fill="#bd8341"/><path d="M222.749,40.561h-3.2a1.665,1.665,0,0,0-1.665,1.666v1.12a1.665,1.665,0,0,0,1.665,1.666h3.2a1.666,1.666,0,0,0,1.666-1.666v-1.12a1.666,1.666,0,0,0-1.666-1.666" fill="#bd8341"/><path d="M176.839,67.782H157.127l-8.113,14.623,1.662.75,7.374-13.919h17.866l7.375,13.919,1.661-.75Z" fill="#cbe8eb"/><path d="M175.916,69.236H157.958l-7.282,13.919,2.077,2.492h28.368l2.17-2.492Z" fill="#008d8e"/><rect width="14.853" height="10.364" transform="translate(159.511 71.025)" fill="#f5a44f"/><rect width="12.375" height="7.894" transform="translate(160.749 72.26)" fill="#3b3944"/><rect width="10.655" height="6.743" transform="translate(160.75 73.411)" fill="#5f5e67"/><rect width="12.375" height="0.689" transform="translate(160.749 76.552)" fill="#3b3944"/><rect width="0.689" height="7.894" transform="translate(166.593 72.26)" fill="#f5a44f"/><rect width="0.69" height="7.894" transform="translate(165.902 72.26)" fill="#3b3944"/><rect width="12.375" height="0.69" transform="translate(160.749 75.862)" fill="#f5a44f"/><path d="M149.014,82.405l7.167-18.778,10.8-5.868,10.387,5.868,7.582,18.778-8.113-14.623H157.127Z" fill="#51c5bd"/><rect width="36.175" height="4.341" transform="translate(152.492 155.643)" fill="#f7efe7"/><path d="M188.672,111.1h-4.115a12.061,12.061,0,0,0-12.044,11.416l-1.687,31.534H202.4l-1.687-31.534A12.06,12.06,0,0,0,188.672,111.1" fill="#edddcb"/><path d="M199.413,154.051h-25.6l1.443-30.745a10.762,10.762,0,0,1,2.353-6.211,9.44,9.44,0,0,1,2.949-2.416,8.585,8.585,0,0,1,3.953-1.051,1.166,1.166,0,0,1,.235-.016h3.734a8.74,8.74,0,0,1,2.933.5,9.392,9.392,0,0,1,2.933,1.679,10.52,10.52,0,0,1,3.624,7.513l.345,7.357Z" fill="#f5a44f"/><path d="M177.61,117.094V154.05h-3.8l1.443-30.744a10.758,10.758,0,0,1,2.353-6.212" fill="#de903e"/><path d="M184.512,113.628v40.423h-3.953V114.679a8.582,8.582,0,0,1,3.953-1.051" fill="#de903e"/><path d="M191.413,114.114v39.937h-3.968V113.612h1.035a8.715,8.715,0,0,1,2.933.5" fill="#de903e"/><path d="M198.316,130.663v23.388h-3.97V115.793a10.519,10.519,0,0,1,3.625,7.513Z" fill="#de903e"/><g style="mix-blend-mode:multiply;isolation:isolate"><g clip-path="url(#g)"><path d="M152.442,109.849l-1.886,2.96H144.6l-2.476,3.792v1.793h2.265v27.7h15.627l2.82-2.276-2.133-21.5,1.421-4.167,2.055-2.691-3.624-.1-6.243-1.749Z" fill="#e2babe"/></g></g><rect width="16.411" height="26.071" transform="translate(146.106 115.458)" fill="#f5a44f"/><rect width="13.918" height="23.786" transform="translate(147.352 116.6)" fill="#3b3944"/><rect width="12.255" height="21.551" transform="translate(147.352 118.835)" fill="#5f5e67"/><rect width="13.918" height="1.35" transform="translate(147.327 129.169)" fill="#3b3944"/><rect width="0.857" height="23.786" transform="translate(153.026 116.6)" fill="#3b3944"/><rect width="13.918" height="1.35" transform="translate(147.352 127.819)" fill="#f5a44f"/><rect width="0.857" height="23.786" transform="translate(153.883 116.6)" fill="#f5a44f"/><g style="mix-blend-mode:multiply;isolation:isolate"><g clip-path="url(#h)"><path d="M217.957,109.849l-1.886,2.96h-5.956l-2.476,3.792v1.793H209.9v27.7h15.627l2.82-2.276-2.133-21.5,1.421-4.167,2.055-2.691-3.624-.1-6.243-1.749Z" fill="#e2babe"/></g></g><rect width="16.411" height="26.071" transform="translate(211.699 115.458)" fill="#f5a44f"/><rect width="13.918" height="23.786" transform="translate(212.945 116.6)" fill="#3b3944"/><rect width="12.255" height="21.551" transform="translate(212.945 118.835)" fill="#5f5e67"/><rect width="13.918" height="1.35" transform="translate(212.945 129.169)" fill="#3b3944"/><rect width="0.857" height="23.786" transform="translate(218.644 116.6)" fill="#3b3944"/><rect width="13.918" height="1.35" transform="translate(212.945 127.819)" fill="#f5a44f"/><rect width="0.857" height="23.786" transform="translate(219.476 116.6)" fill="#f5a44f"/><rect width="19.579" height="2.649" transform="translate(144.6 112.809)" fill="#edddcb"/><rect width="16.892" height="2.285" transform="translate(145.943 141.529)" fill="#edddcb"/><rect width="16.892" height="2.285" transform="translate(211.459 141.529)" fill="#edddcb"/><path d="M155.662,114.783h-2.7l-.519-4.934h3.739Z" fill="#fbf7f3"/><rect width="19.579" height="2.649" transform="translate(210.115 112.809)" fill="#edddcb"/><path d="M221.177,114.783h-2.7l-.519-4.934H221.7Z" fill="#fbf7f3"/><path d="M247.274,107.85l-2.285,20.644-.623,28.773,9.036.778-2.8-29.551,6.8-8.466-6.514,4.727Z" fill="#845600"/><g style="mix-blend-mode:multiply;isolation:isolate"><g clip-path="url(#i)"><path d="M156.181,63.627l10.8-5.869-16.307,5.819-1.662,18.828Z" fill="#e4bfc3"/></g></g><path d="M150.676,83.155l2.077,2.493h28.368l2.17-2.493Z" fill="#51c5bd"/><path d="M179.355,178.374h-7.1V157.016l3.547-3.381,3.548,3.381Z" fill="#ede6bc"/><path d="M191.024,178.374h-7.1V157.016l3.548-3.381,3.547,3.381Z" fill="#ede6bc"/><path d="M202.693,178.374h-7.1V157.016l3.547-3.381,3.548,3.381Z" fill="#ede6bc"/><path d="M214.363,178.374h-7.1V157.016l3.547-3.381,3.548,3.381Z" fill="#ede6bc"/><path d="M226.032,178.374h-7.1V157.016l3.548-3.381,3.547,3.381Z" fill="#ede6bc"/><path d="M237.7,178.374h-7.1V157.016l3.547-3.381,3.548,3.381Z" fill="#ede6bc"/><path d="M249.371,178.374h-7.1V157.016l3.547-3.381,3.548,3.381Z" fill="#ede6bc"/><path d="M261.04,178.374h-7.1V157.016l3.548-3.381,3.547,3.381Z" fill="#ede6bc"/><path d="M272.71,178.374h-7.1V157.016l3.547-3.381,3.548,3.381Z" fill="#ede6bc"/><g style="mix-blend-mode:multiply;isolation:isolate"><g clip-path="url(#j)"><path d="M190.581,52l-1.957,11.625,15.648,11.534V52Z" fill="#e4bfc3"/></g></g><rect width="26.653" height="2.387" transform="translate(43.158 56.449)" fill="#dbe0db"/><rect width="8.693" height="2.387" transform="translate(43.158 56.449)" fill="#8c9c8c"/><rect width="26.653" height="2.387" transform="translate(43.158 68.043)" fill="#dbe0db"/><rect width="8.693" height="2.387" transform="translate(43.158 68.043)" fill="#8c9c8c"/><rect width="8.725" height="3.023" transform="translate(88.237 69.237)" fill="#cc9f6c"/><rect width="27.837" height="3.023" transform="translate(96.962 69.237)" fill="#dfc2a2"/><path d="M180.949,136.275v-4.839a5.657,5.657,0,1,1,11.314,0v4.839Z" fill="#f7efe7"/><path d="M186.606,126.476a4.96,4.96,0,0,0-4.96,4.96v4.142h9.92v-4.142a4.96,4.96,0,0,0-4.96-4.96" fill="#3b3944"/><path d="M186.606,126.476a4.94,4.94,0,0,0-4.222,2.388,4.945,4.945,0,0,1,8.6,3.345v3.369h.581v-4.141a4.961,4.961,0,0,0-4.96-4.961" fill="#211f2c"/><path d="M176.512,119.5a9.446,9.446,0,0,1,2.949-2.416,8.593,8.593,0,0,1,3.953-1.05,1.162,1.162,0,0,1,.235-.016h3.734a8.72,8.72,0,0,1,2.933.5,9.4,9.4,0,0,1,2.933,1.678,10.526,10.526,0,0,1,3.624,7.514l.345,7.356.985,20.979h1.211l-1.1-23.388-.346-7.357a10.521,10.521,0,0,0-3.623-7.514,9.42,9.42,0,0,0-2.933-1.678,8.746,8.746,0,0,0-2.934-.5h-3.733a1.162,1.162,0,0,0-.235.016,8.593,8.593,0,0,0-3.953,1.05,9.445,9.445,0,0,0-2.949,2.416,10.556,10.556,0,0,0-1.822,3.464,10.278,10.278,0,0,1,.724-1.054" fill="#b06323"/><path d="M82.043,210.912V196.693h4.375a6.649,6.649,0,0,1,3.355.844,5.9,5.9,0,0,1,2.309,2.4,7.407,7.407,0,0,1,.83,3.541v.654a7.446,7.446,0,0,1-.815,3.526,5.84,5.84,0,0,1-2.3,2.392,6.7,6.7,0,0,1-3.349.86Zm2.93-11.846v9.492h1.416a3.183,3.183,0,0,0,2.627-1.123,5.081,5.081,0,0,0,.928-3.213v-.752a5.16,5.16,0,0,0-.9-3.287,3.173,3.173,0,0,0-2.627-1.117Z" fill="#12263f"/><path d="M94.417,205.531a6.259,6.259,0,0,1,.605-2.8,4.437,4.437,0,0,1,1.743-1.9,5.092,5.092,0,0,1,2.642-.674,4.8,4.8,0,0,1,3.491,1.309,5.244,5.244,0,0,1,1.509,3.554l.019.723a5.516,5.516,0,0,1-1.357,3.9,5.259,5.259,0,0,1-7.29.006,5.62,5.62,0,0,1-1.362-3.984Zm2.822.2a3.962,3.962,0,0,0,.566,2.305,2.035,2.035,0,0,0,3.223.009,4.325,4.325,0,0,0,.576-2.519,3.913,3.913,0,0,0-.576-2.289,1.872,1.872,0,0,0-1.621-.811,1.841,1.841,0,0,0-1.6.807,4.4,4.4,0,0,0-.566,2.5" fill="#12263f"/><path d="M110.559,208.832a1.86,1.86,0,0,0,1.27-.43,1.508,1.508,0,0,0,.507-1.142h2.647a3.626,3.626,0,0,1-.586,1.967,3.865,3.865,0,0,1-1.577,1.386,4.924,4.924,0,0,1-2.212.494,4.585,4.585,0,0,1-3.574-1.441,5.7,5.7,0,0,1-1.309-3.979V205.5a5.632,5.632,0,0,1,1.3-3.9,4.534,4.534,0,0,1,3.564-1.455,4.443,4.443,0,0,1,3.179,1.127,4,4,0,0,1,1.216,3h-2.647a1.939,1.939,0,0,0-.507-1.34,1.889,1.889,0,0,0-2.779.2,4.161,4.161,0,0,0-.5,2.332v.292a4.215,4.215,0,0,0,.5,2.348,1.72,1.72,0,0,0,1.514.715" fill="#12263f"/><path d="M122.923,209.838a3.541,3.541,0,0,1-2.891,1.27,3.34,3.34,0,0,1-2.592-.977,4.169,4.169,0,0,1-.913-2.861v-6.924h2.822v6.834q0,1.652,1.5,1.652a2.035,2.035,0,0,0,1.972-1v-7.488h2.832v10.566H123Z" fill="#12263f"/><path d="M130.432,200.345l.088,1.182a3.712,3.712,0,0,1,3.037-1.377,2.818,2.818,0,0,1,2.8,1.611,3.628,3.628,0,0,1,3.174-1.611,3.154,3.154,0,0,1,2.558,1,4.6,4.6,0,0,1,.84,3.013v6.748H140.1v-6.738a2.01,2.01,0,0,0-.352-1.314,1.56,1.56,0,0,0-1.24-.414,1.76,1.76,0,0,0-1.758,1.211l.01,7.255h-2.822v-6.728a1.99,1.99,0,0,0-.361-1.328,1.572,1.572,0,0,0-1.231-.41,1.828,1.828,0,0,0-1.738,1v7.47h-2.822V200.345Z" fill="#12263f"/><path d="M149.963,211.107a5.193,5.193,0,0,1-3.784-1.426,5.07,5.07,0,0,1-1.46-3.8v-.273a6.39,6.39,0,0,1,.615-2.848,4.529,4.529,0,0,1,1.744-1.934,4.9,4.9,0,0,1,2.573-.677,4.383,4.383,0,0,1,3.413,1.367,5.552,5.552,0,0,1,1.245,3.877v1.152H147.58a2.63,2.63,0,0,0,.826,1.66,2.5,2.5,0,0,0,1.743.625,3.048,3.048,0,0,0,2.549-1.181l1.386,1.552a4.234,4.234,0,0,1-1.718,1.4,5.633,5.633,0,0,1-2.4.5m-.322-8.682a1.763,1.763,0,0,0-1.362.568,2.942,2.942,0,0,0-.669,1.629h3.926V204.4a2.11,2.11,0,0,0-.508-1.457,1.825,1.825,0,0,0-1.387-.514" fill="#12263f"/><path d="M158.508,200.345l.088,1.221a3.683,3.683,0,0,1,3.037-1.416,3.064,3.064,0,0,1,2.5.986,4.6,4.6,0,0,1,.84,2.949v6.826h-2.822v-6.757a1.836,1.836,0,0,0-.391-1.305,1.748,1.748,0,0,0-1.3-.4,1.941,1.941,0,0,0-1.787,1.015v7.451h-2.822V200.345Z" fill="#12263f"/><path d="M170.491,197.748v2.6H172.3v2.07h-1.807v5.273a1.259,1.259,0,0,0,.225.84,1.133,1.133,0,0,0,.859.254,4.557,4.557,0,0,0,.83-.068v2.138a5.85,5.85,0,0,1-1.709.254q-2.969,0-3.027-3v-5.693h-1.543v-2.07h1.543v-2.6Z" fill="#12263f"/><path d="M179.993,210.912a3.156,3.156,0,0,1-.283-.947,3.417,3.417,0,0,1-2.666,1.142,3.76,3.76,0,0,1-2.573-.9,2.892,2.892,0,0,1-1.021-2.266,2.983,2.983,0,0,1,1.245-2.578,6.133,6.133,0,0,1,3.6-.908h1.3v-.606a1.746,1.746,0,0,0-.376-1.172,1.483,1.483,0,0,0-1.187-.439,1.675,1.675,0,0,0-1.118.342,1.157,1.157,0,0,0-.4.937h-2.823a2.828,2.828,0,0,1,.567-1.7,3.737,3.737,0,0,1,1.6-1.226,5.859,5.859,0,0,1,2.325-.444,4.611,4.611,0,0,1,3.1.981,3.436,3.436,0,0,1,1.147,2.759v4.58a5.06,5.06,0,0,0,.42,2.276v.166Zm-2.334-1.963a2.434,2.434,0,0,0,1.152-.279,1.835,1.835,0,0,0,.782-.746v-1.817h-1.055q-2.119,0-2.256,1.465l-.01.166a1.13,1.13,0,0,0,.371.869,1.447,1.447,0,0,0,1.016.342" fill="#12263f"/><path d="M188.988,208.832a1.861,1.861,0,0,0,1.269-.43,1.508,1.508,0,0,0,.507-1.142h2.647a3.625,3.625,0,0,1-.585,1.967,3.881,3.881,0,0,1-1.578,1.386,4.927,4.927,0,0,1-2.212.494,4.583,4.583,0,0,1-3.574-1.441,5.7,5.7,0,0,1-1.309-3.979V205.5a5.636,5.636,0,0,1,1.3-3.9,4.534,4.534,0,0,1,3.564-1.455,4.443,4.443,0,0,1,3.179,1.127,4,4,0,0,1,1.216,3h-2.647a1.939,1.939,0,0,0-.507-1.34,1.887,1.887,0,0,0-2.778.2,4.151,4.151,0,0,0-.5,2.332v.292a4.215,4.215,0,0,0,.5,2.348,1.72,1.72,0,0,0,1.515.715" fill="#12263f"/><path d="M195,197.611a1.389,1.389,0,0,1,.425-1.045,1.832,1.832,0,0,1,2.31,0,1.493,1.493,0,0,1-.005,2.1,1.811,1.811,0,0,1-2.295,0,1.386,1.386,0,0,1-.435-1.055m3,13.3h-2.832V200.346H198Z" fill="#12263f"/><path d="M199.886,205.531a6.249,6.249,0,0,1,.606-2.8,4.425,4.425,0,0,1,1.743-1.9,5.083,5.083,0,0,1,2.641-.674,4.813,4.813,0,0,1,3.492,1.309,5.25,5.25,0,0,1,1.508,3.555l.02.722a5.521,5.521,0,0,1-1.358,3.9,5.26,5.26,0,0,1-7.29.005,5.618,5.618,0,0,1-1.362-3.984Zm2.822.2a3.952,3.952,0,0,0,.567,2.305,2.034,2.034,0,0,0,3.222.01,4.328,4.328,0,0,0,.577-2.52,3.913,3.913,0,0,0-.577-2.289,1.871,1.871,0,0,0-1.621-.81,1.838,1.838,0,0,0-1.6.806,4.388,4.388,0,0,0-.567,2.5m2.725-9.818h3.076l-2.705,3.027h-2.295Z" fill="#12263f"/><path d="M214.232,200.345l.088,1.221a3.682,3.682,0,0,1,3.037-1.416,3.066,3.066,0,0,1,2.5.986,4.6,4.6,0,0,1,.84,2.949v6.826h-2.822v-6.757a1.836,1.836,0,0,0-.391-1.305,1.75,1.75,0,0,0-1.3-.4,1.939,1.939,0,0,0-1.787,1.015v7.451h-2.822V200.345Z" fill="#12263f"/><rect width="115.551" height="79.287" transform="translate(23.095 96.54) rotate(-1.733)" fill="#fc5954"/><path d="M92.819,170.825c.107,3.523-4.134,6.51-9.472,6.671s-9.751-2.563-9.858-6.086,4.135-6.51,9.472-6.671,9.751,2.563,9.858,6.086" fill="#fc5954"/><path d="M89.339,93.891a8.517,8.517,0,0,0-8.256,8.771l2.081,68.775c.322-2.912,3.625-5.637,8.344-5.845l44.763-1.354-2.17-71.7Z" fill="#f0e1d3"/><rect width="109.452" height="75.419" transform="matrix(1, -0.03, 0.03, 1, 26.158, 96.319)" fill="#dc1428"/><path d="M89.41,96.232A8.517,8.517,0,0,0,81.154,105l2.01,66.434c.322-2.912,6.113-3.369,8.415-3.5l44.763-1.354-2.17-71.7Z" fill="#d8c5b6"/><path d="M89.339,93.891a8.517,8.517,0,0,0-8.256,8.771l2.081,68.775c.322-2.912,3.625-5.637,8.344-5.845l44.763-1.354-2.17-71.7Z" fill="#f0e1d3"/><path d="M89.25,90.965a8.517,8.517,0,0,0-8.256,8.771l2.169,71.7a8.519,8.519,0,0,1,8.256-8.772l44.763-1.354-2.17-71.7Z" fill="#f4ede9"/><path d="M72.373,96.428a8.517,8.517,0,0,1,8.771,8.256l2.01,66.434c-.5-2.887-6.305-2.994-8.612-2.989L29.78,169.484l-2.169-71.7Z" fill="#d8c5b6"/><path d="M72.3,94.087a8.517,8.517,0,0,1,8.771,8.256l2.081,68.775c-.5-2.887-3.96-5.407-8.683-5.33l-44.762,1.355-2.169-71.7Z" fill="#f0e1d3"/><path d="M72.214,91.16a8.517,8.517,0,0,1,8.771,8.256l2.169,71.7a8.518,8.518,0,0,0-8.771-8.256l-44.762,1.355-2.169-71.7Z" fill="#fff"/><line y1="1.17" x2="38.681" transform="translate(88.909 98.28)" fill="none" stroke="#f0e1d3" stroke-miterlimit="10" stroke-width="1.757"/><line y1="1.17" x2="38.681" transform="translate(89.061 103.306)" fill="none" stroke="#f0e1d3" stroke-miterlimit="10" stroke-width="1.757"/><line y1="1.17" x2="38.681" transform="translate(89.213 108.332)" fill="none" stroke="#f0e1d3" stroke-miterlimit="10" stroke-width="1.757"/><line y1="1.17" x2="38.681" transform="translate(89.365 113.358)" fill="none" stroke="#f0e1d3" stroke-miterlimit="10" stroke-width="1.757"/><line y1="1.17" x2="38.681" transform="translate(89.517 118.383)" fill="none" stroke="#f0e1d3" stroke-miterlimit="10" stroke-width="1.757"/><line y1="1.17" x2="38.681" transform="translate(89.669 123.409)" fill="none" stroke="#f0e1d3" stroke-miterlimit="10" stroke-width="1.757"/><line y1="1.17" x2="38.681" transform="translate(89.821 128.435)" fill="none" stroke="#f0e1d3" stroke-miterlimit="10" stroke-width="1.757"/><line y1="1.17" x2="38.681" transform="translate(89.973 133.46)" fill="none" stroke="#f0e1d3" stroke-miterlimit="10" stroke-width="1.757"/><line y1="1.17" x2="38.681" transform="translate(90.125 138.486)" fill="none" stroke="#f0e1d3" stroke-miterlimit="10" stroke-width="1.757"/><line y1="1.17" x2="38.681" transform="translate(90.277 143.512)" fill="none" stroke="#f0e1d3" stroke-miterlimit="10" stroke-width="1.757"/><line y1="1.17" x2="38.681" transform="translate(90.429 148.537)" fill="none" stroke="#f0e1d3" stroke-miterlimit="10" stroke-width="1.757"/><line y1="1.17" x2="38.681" transform="translate(90.581 153.563)" fill="none" stroke="#f0e1d3" stroke-miterlimit="10" stroke-width="1.757"/><line y1="1.17" x2="38.681" transform="translate(35.015 99.911)" fill="none" stroke="#f0e1d3" stroke-miterlimit="10" stroke-width="1.757"/><line y1="1.17" x2="38.681" transform="translate(35.167 104.937)" fill="none" stroke="#f0e1d3" stroke-miterlimit="10" stroke-width="1.757"/><line y1="1.17" x2="38.681" transform="translate(35.319 109.962)" fill="none" stroke="#f0e1d3" stroke-miterlimit="10" stroke-width="1.757"/><line y1="1.17" x2="38.681" transform="translate(35.471 114.988)" fill="none" stroke="#f0e1d3" stroke-miterlimit="10" stroke-width="1.757"/><line y1="1.17" x2="38.681" transform="translate(35.623 120.014)" fill="none" stroke="#f0e1d3" stroke-miterlimit="10" stroke-width="1.757"/><line y1="0.387" x2="12.787" transform="translate(35.775 125.822)" fill="none" stroke="#f0e1d3" stroke-miterlimit="10" stroke-width="1.757"/><line y1="0.387" x2="12.787" transform="translate(35.927 130.848)" fill="none" stroke="#f0e1d3" stroke-miterlimit="10" stroke-width="1.757"/><line y1="0.387" x2="12.787" transform="translate(36.079 135.874)" fill="none" stroke="#f0e1d3" stroke-miterlimit="10" stroke-width="1.757"/><line y1="0.387" x2="12.787" transform="translate(36.231 140.899)" fill="none" stroke="#f0e1d3" stroke-miterlimit="10" stroke-width="1.757"/><line y1="0.387" x2="12.787" transform="translate(36.383 145.925)" fill="none" stroke="#f0e1d3" stroke-miterlimit="10" stroke-width="1.757"/><line y1="0.387" x2="12.787" transform="translate(36.535 150.951)" fill="none" stroke="#f0e1d3" stroke-miterlimit="10" stroke-width="1.757"/><line y1="0.387" x2="12.787" transform="translate(36.687 155.976)" fill="none" stroke="#f0e1d3" stroke-miterlimit="10" stroke-width="1.757"/><path d="M103.6,145.861l-4.874-3.37-4.662,3.658L92.39,90.869l9.536-.288Z" fill="#fac855"/><rect width="22.167" height="31.943" transform="matrix(1, -0.03, 0.03, 1, 52.273, 124.837)" fill="#f0e1d3"/></g></g></g></g></svg>