<svg xmlns="http://www.w3.org/2000/svg" xmlns:xlink="http://www.w3.org/1999/xlink" width="333" height="353" viewBox="0 0 333 353"><defs><clipPath id="a"><rect width="302.74" height="220.535" fill="none"/></clipPath><clipPath id="c"><rect width="22.318" height="113.54" transform="translate(4.68 35.808)" fill="none"/></clipPath><clipPath id="d"><rect width="22.318" height="113.54" transform="translate(53.161 7.148)" fill="none"/></clipPath><clipPath id="e"><rect width="28.214" height="143.557" transform="translate(23.325 3.089)" fill="none"/></clipPath><clipPath id="f"><rect width="100.417" height="51.962" transform="translate(139.049 37.146)" fill="none"/></clipPath><clipPath id="g"><rect width="20.176" height="47.543" transform="translate(222.828 115.496)" fill="none"/></clipPath><clipPath id="h"><rect width="3.527" height="46.62" transform="translate(186.288 113.456)" fill="none"/></clipPath><clipPath id="i"><rect width="40.837" height="44.58" transform="translate(167.958 115.496)" fill="none"/></clipPath><clipPath id="j"><rect width="107.282" height="68.42" transform="translate(135.616 94.619)" fill="none"/></clipPath><clipPath id="k"><rect width="124.343" height="121.513" transform="translate(51.319 36.782)" fill="none"/></clipPath></defs><g transform="translate(-285.5 -4997)"><rect width="333" height="353" rx="21" transform="translate(285.5 4997)" fill="#eff6e5"/><g transform="translate(300.5 5063)"><g clip-path="url(#a)"><g clip-path="url(#a)"><path d="M246.083,212.455H54.677a6.7,6.7,0,0,1-6.7-6.7V175.852a6.7,6.7,0,0,1,6.7-6.7H246.083a6.7,6.7,0,0,1,6.7,6.7v29.907a6.7,6.7,0,0,1-6.7,6.7" fill="#fff"/><rect width="2.93" height="14.219" transform="translate(88.76 200.316)" fill="#12263f"/><path d="M96.817,203.968l.088,1.221a3.683,3.683,0,0,1,3.037-1.416,3.064,3.064,0,0,1,2.5.986,4.6,4.6,0,0,1,.84,2.949v6.826H100.46v-6.757a1.836,1.836,0,0,0-.391-1.3,1.748,1.748,0,0,0-1.3-.4,1.941,1.941,0,0,0-1.787,1.015v7.451H94.161V203.968Z" fill="#12263f"/><path d="M111.143,211.615a.91.91,0,0,0-.513-.816,5.857,5.857,0,0,0-1.645-.532q-3.77-.79-3.77-3.2a2.906,2.906,0,0,1,1.167-2.349,4.716,4.716,0,0,1,3.052-.942,5.065,5.065,0,0,1,3.218.947,2.985,2.985,0,0,1,1.206,2.461h-2.822a1.37,1.37,0,0,0-.391-1,1.656,1.656,0,0,0-1.221-.394,1.686,1.686,0,0,0-1.1.322,1.016,1.016,0,0,0-.391.821.866.866,0,0,0,.444.755,4.487,4.487,0,0,0,1.5.5,12.321,12.321,0,0,1,1.778.475,2.92,2.92,0,0,1,2.236,2.842,2.755,2.755,0,0,1-1.24,2.338,5.356,5.356,0,0,1-3.2.894,5.589,5.589,0,0,1-2.359-.474,3.945,3.945,0,0,1-1.616-1.3,3.021,3.021,0,0,1-.586-1.781h2.676a1.474,1.474,0,0,0,.557,1.152,2.212,2.212,0,0,0,1.386.4,2.045,2.045,0,0,0,1.226-.308.955.955,0,0,0,.415-.8" fill="#12263f"/><path d="M119.082,201.371v2.6h1.807v2.07h-1.807v5.273a1.259,1.259,0,0,0,.225.84,1.133,1.133,0,0,0,.859.254,4.558,4.558,0,0,0,.83-.068v2.138a5.85,5.85,0,0,1-1.709.254q-2.969,0-3.027-3v-5.693h-1.543v-2.07h1.543v-2.6Z" fill="#12263f"/><path d="M128.584,214.535a3.128,3.128,0,0,1-.283-.947,3.417,3.417,0,0,1-2.666,1.142,3.76,3.76,0,0,1-2.573-.9,2.892,2.892,0,0,1-1.021-2.266,2.983,2.983,0,0,1,1.245-2.578,6.133,6.133,0,0,1,3.6-.908h1.3v-.606a1.745,1.745,0,0,0-.376-1.172,1.483,1.483,0,0,0-1.187-.439,1.675,1.675,0,0,0-1.118.342,1.157,1.157,0,0,0-.4.937h-2.823a2.828,2.828,0,0,1,.567-1.7,3.737,3.737,0,0,1,1.6-1.226,5.859,5.859,0,0,1,2.325-.444,4.606,4.606,0,0,1,3.1.981,3.434,3.434,0,0,1,1.148,2.759v4.58a5.046,5.046,0,0,0,.42,2.276v.166Zm-2.334-1.963a2.434,2.434,0,0,0,1.152-.279,1.835,1.835,0,0,0,.782-.746V209.73h-1.055q-2.119,0-2.256,1.465l-.01.166a1.13,1.13,0,0,0,.371.869,1.447,1.447,0,0,0,1.016.342" fill="#12263f"/><rect width="2.832" height="15" transform="translate(133.33 199.535)" fill="#12263f"/><path d="M144.61,214.535a3.128,3.128,0,0,1-.283-.947,3.417,3.417,0,0,1-2.666,1.142,3.76,3.76,0,0,1-2.573-.9,2.892,2.892,0,0,1-1.021-2.266,2.983,2.983,0,0,1,1.245-2.578,6.133,6.133,0,0,1,3.6-.908h1.3v-.606a1.745,1.745,0,0,0-.376-1.172,1.483,1.483,0,0,0-1.187-.439,1.675,1.675,0,0,0-1.118.342,1.157,1.157,0,0,0-.405.937H138.3a2.828,2.828,0,0,1,.567-1.7,3.737,3.737,0,0,1,1.6-1.226,5.86,5.86,0,0,1,2.325-.444,4.606,4.606,0,0,1,3.1.981,3.434,3.434,0,0,1,1.148,2.759v4.58a5.046,5.046,0,0,0,.42,2.276v.166Zm-2.334-1.963a2.434,2.434,0,0,0,1.152-.279,1.835,1.835,0,0,0,.782-.746V209.73h-1.055q-2.119,0-2.256,1.465l-.01.166a1.13,1.13,0,0,0,.371.869,1.447,1.447,0,0,0,1.016.342" fill="#12263f"/><path d="M153.6,212.455a1.86,1.86,0,0,0,1.27-.43,1.508,1.508,0,0,0,.507-1.142h2.647a3.626,3.626,0,0,1-.586,1.967,3.865,3.865,0,0,1-1.577,1.386,4.924,4.924,0,0,1-2.212.494,4.585,4.585,0,0,1-3.574-1.441,5.7,5.7,0,0,1-1.309-3.979v-.185a5.632,5.632,0,0,1,1.3-3.9,4.534,4.534,0,0,1,3.564-1.455,4.443,4.443,0,0,1,3.179,1.127,4,4,0,0,1,1.216,3h-2.647a1.939,1.939,0,0,0-.507-1.34,1.889,1.889,0,0,0-2.779.2,4.161,4.161,0,0,0-.5,2.332v.292a4.215,4.215,0,0,0,.5,2.348,1.72,1.72,0,0,0,1.514.715" fill="#12263f"/><path d="M159.619,201.234a1.389,1.389,0,0,1,.425-1.045,1.832,1.832,0,0,1,2.31,0,1.491,1.491,0,0,1-.005,2.1,1.811,1.811,0,0,1-2.295,0,1.386,1.386,0,0,1-.435-1.055m3,13.3h-2.832V203.969h2.832Z" fill="#12263f"/><path d="M164.5,209.154a6.259,6.259,0,0,1,.6-2.8,4.437,4.437,0,0,1,1.743-1.9,5.092,5.092,0,0,1,2.642-.674,4.8,4.8,0,0,1,3.491,1.309,5.244,5.244,0,0,1,1.509,3.554l.019.723a5.516,5.516,0,0,1-1.357,3.9,5.259,5.259,0,0,1-7.29.006,5.62,5.62,0,0,1-1.362-3.984Zm2.822.2a3.962,3.962,0,0,0,.566,2.305,2.035,2.035,0,0,0,3.223.009,4.325,4.325,0,0,0,.576-2.519,3.913,3.913,0,0,0-.576-2.289,1.872,1.872,0,0,0-1.621-.811,1.841,1.841,0,0,0-1.6.807,4.4,4.4,0,0,0-.566,2.5" fill="#12263f"/><path d="M178.848,203.968l.088,1.221a3.682,3.682,0,0,1,3.037-1.416,3.064,3.064,0,0,1,2.5.986,4.6,4.6,0,0,1,.84,2.949v6.826h-2.822v-6.757a1.836,1.836,0,0,0-.391-1.3,1.748,1.748,0,0,0-1.3-.4,1.941,1.941,0,0,0-1.787,1.015v7.451h-2.822V203.968Z" fill="#12263f"/><path d="M192.314,214.73a5.193,5.193,0,0,1-3.784-1.426,5.07,5.07,0,0,1-1.46-3.8v-.273a6.39,6.39,0,0,1,.615-2.848,4.529,4.529,0,0,1,1.744-1.934,4.9,4.9,0,0,1,2.573-.677,4.383,4.383,0,0,1,3.413,1.367,5.552,5.552,0,0,1,1.245,3.877v1.152h-6.729a2.63,2.63,0,0,0,.826,1.66,2.5,2.5,0,0,0,1.743.625,3.048,3.048,0,0,0,2.549-1.181l1.386,1.552a4.234,4.234,0,0,1-1.718,1.4,5.633,5.633,0,0,1-2.4.5m-.322-8.682a1.763,1.763,0,0,0-1.362.568,2.942,2.942,0,0,0-.669,1.629h3.926v-.226a2.11,2.11,0,0,0-.508-1.457,1.825,1.825,0,0,0-1.387-.514" fill="#12263f"/><path d="M203.985,211.615a.91.91,0,0,0-.513-.816,5.857,5.857,0,0,0-1.645-.532q-3.77-.79-3.77-3.2a2.906,2.906,0,0,1,1.167-2.349,4.716,4.716,0,0,1,3.052-.942,5.065,5.065,0,0,1,3.218.947,2.985,2.985,0,0,1,1.206,2.461h-2.822a1.37,1.37,0,0,0-.391-1,1.656,1.656,0,0,0-1.221-.394,1.686,1.686,0,0,0-1.1.322,1.016,1.016,0,0,0-.391.821.866.866,0,0,0,.444.755,4.487,4.487,0,0,0,1.5.5,12.32,12.32,0,0,1,1.778.475,2.92,2.92,0,0,1,2.236,2.842,2.755,2.755,0,0,1-1.24,2.338,5.356,5.356,0,0,1-3.2.894,5.589,5.589,0,0,1-2.359-.474,3.945,3.945,0,0,1-1.616-1.3,3.021,3.021,0,0,1-.586-1.781H200.4a1.474,1.474,0,0,0,.557,1.152,2.212,2.212,0,0,0,1.386.4,2.045,2.045,0,0,0,1.226-.308.955.955,0,0,0,.415-.8" fill="#12263f"/><path d="M289.867,173.252H5.817A5.816,5.816,0,0,1,0,167.436v-3.912a5.817,5.817,0,0,1,5.817-5.817h284.05a5.816,5.816,0,0,1,5.816,5.817v3.912a5.816,5.816,0,0,1-5.816,5.816" fill="#86a916"/><path d="M184.325,163.221l7.624.393v-.393Z" fill="#6f7500"/><path d="M219.324,161.243h35.27v3.067h-35.27l-4.269-1.089Z" fill="#6f7500"/><path d="M67.162,160.882H26.514l-6.277-3.174H67.263Z" fill="#6f7500"/><path d="M49.555,149.348H4.679l10.269-34.406H10.741l8.211-29.5H14.69L20.569,64.17h-2.7L27,35.808,36.366,64.17H33.629l5.915,21.272H35.337l8.156,29.5H39.415Z" fill="#6e871a"/><path d="M14.946,114.936,4.685,149.35H49.553L39.415,114.936Z" fill="#5e5900"/><path d="M18.951,85.433l-8.213,29.5H43.5l-8.168-29.5Z" fill="#5e6a00"/><path d="M20.572,64.175H33.622l5.923,21.258H14.692Z" fill="#607b03"/><g style="mix-blend-mode:multiply;isolation:isolate"><g clip-path="url(#c)"><path d="M27,35.808v113.54H4.68l10.268-34.406H10.742l8.211-29.5H14.691L20.569,64.17h-2.7Z" fill="#e2dddb"/></g></g><rect width="12.042" height="9.214" transform="translate(19.211 149.35)" fill="#54100b"/><rect width="15.225" height="11.649" transform="translate(41.69 146.646)" fill="#7c3620"/><path d="M275.78,172.62v4.268a6.338,6.338,0,0,1-6.34,6.34H29.79a6.349,6.349,0,0,1-6.352-6.34v-4.306a6.351,6.351,0,0,1,6.352-6.314H269.44a6.341,6.341,0,0,1,6.34,6.352" fill="#c25b25"/><path d="M132.182,170.492H110.466a1,1,0,1,1,0-2h21.716a1,1,0,1,1,0,2" fill="#d36825"/><path d="M81.257,179.476H59.541a1,1,0,1,1,0-1.995H81.257a1,1,0,1,1,0,1.995" fill="#d36825"/><path d="M209.392,179.229H191.436a1,1,0,0,1,0-2h17.956a1,1,0,1,1,0,2" fill="#d36825"/><path d="M177.214,171.393H155.5a1,1,0,1,1,0-2h21.716a1,1,0,1,1,0,2" fill="#d36825"/><path d="M242.183,181H220.467a1,1,0,1,1,0-1.995h21.716a1,1,0,1,1,0,1.995" fill="#d36825"/><path d="M144.038,174.923h-9.861a1,1,0,0,1,0-2h9.861a1,1,0,1,1,0,2" fill="#d36825"/><path d="M196.879,174.241h-9.861a1,1,0,0,1,0-1.995h9.861a1,1,0,1,1,0,1.995" fill="#d36825"/><path d="M41.585,181H31.724a1,1,0,0,1,0-1.995h9.861a1,1,0,1,1,0,1.995" fill="#d36825"/><path d="M121.81,176.236h-9.861a1,1,0,0,1,0-1.995h9.861a1,1,0,1,1,0,1.995" fill="#d36825"/><path d="M269.232,181h-9.861a1,1,0,0,1,0-1.995h9.861a1,1,0,1,1,0,1.995" fill="#d36825"/><path d="M181.706,180.473H167.113a1,1,0,0,1,0-2h14.593a1,1,0,1,1,0,2" fill="#d36825"/><path d="M136.7,180.473H122.105a1,1,0,1,1,0-2H136.7a1,1,0,1,1,0,2" fill="#d36825"/><path d="M102.977,172.052H88.384a1,1,0,1,1,0-1.995h14.593a1,1,0,1,1,0,1.995" fill="#d36825"/><path d="M260.154,174.241H245.561a1,1,0,1,1,0-1.995h14.593a1,1,0,0,1,0,1.995" fill="#d36825"/><path d="M232.093,176.236h-5.624a1,1,0,0,1,0-1.995h5.624a1,1,0,1,1,0,1.995" fill="#d36825"/><path d="M166.561,176.236h-5.624a1,1,0,0,1,0-1.995h5.624a1,1,0,1,1,0,1.995" fill="#d36825"/><path d="M98.976,180.473H93.352a1,1,0,0,1,0-2h5.624a1,1,0,1,1,0,2" fill="#d36825"/><path d="M152.421,179.229H146.8a1,1,0,0,1,0-2h5.624a1,1,0,1,1,0,2" fill="#d36825"/><path d="M275.785,168.485h-90.8l-1.234,1.342h92.035Z" fill="#9f6532"/><rect width="68.468" height="1.343" transform="translate(23.438 172.582)" fill="#9f6532"/><path d="M20.774,190.358H2.669A2.669,2.669,0,0,1,0,187.69V185.9a2.669,2.669,0,0,1,2.669-2.668H20.774a2.668,2.668,0,0,1,2.668,2.668v1.795a2.668,2.668,0,0,1-2.668,2.668" fill="#91c02c"/><path d="M300.072,183.227H286.631a2.669,2.669,0,0,1-2.669-2.668v-1.795a2.669,2.669,0,0,1,2.669-2.668h13.441a2.668,2.668,0,0,1,2.668,2.668v1.795a2.668,2.668,0,0,1-2.668,2.668" fill="#7b9700"/><path d="M187.694,194.366H146.977a2.834,2.834,0,0,1-2.834-2.834v-1.906a2.834,2.834,0,0,1,2.834-2.834h40.717a2.834,2.834,0,0,1,2.834,2.834v1.906a2.834,2.834,0,0,1-2.834,2.834" fill="#ace543"/><path d="M87.893,86.281h4.085l-8.168-29.5h4.215L82.1,35.519h2.747L75.48,7.148,66.347,35.519h2.7L63.17,56.777h4.259l-8.213,29.5h4.209L53.164,120.7H67.69v9.214H79.732V120.7h18.3Z" fill="#6e871a"/><path d="M69.05,35.52H82.1l5.923,21.258H63.17Z" fill="#5e7900"/><g style="mix-blend-mode:multiply;isolation:isolate"><g clip-path="url(#d)"><path d="M75.479,7.148v113.54H53.161L63.429,86.282H59.223l8.211-29.5H63.172L69.05,35.51h-2.7Z" fill="#e2dddb"/></g></g><path d="M80.051,146.646,67.233,103.137H72.4l-10.327-37.3H67.4L59.911,38.959h3.472L51.539,3.089,39.993,38.959h3.418L35.976,65.835h5.385l-10.384,37.3H36.3L23.325,146.646Z" fill="#65af37"/><path d="M36.3,103.137,23.325,146.646H80.05L67.233,103.137Z" fill="#3b7700"/><path d="M41.361,65.836l-10.384,37.3H72.4l-10.327-37.3Z" fill="#3b8b00"/><path d="M43.41,38.959,35.976,65.836H67.4L59.911,38.959Z" fill="#4aa114"/><g style="mix-blend-mode:multiply;isolation:isolate"><g clip-path="url(#e)"><path d="M51.539,3.089V146.646H23.325l12.981-43.5H30.988l10.38-37.3H35.98l7.431-26.9H40Z" fill="#e2dddb"/></g></g><rect width="102.174" height="67.873" transform="translate(51.687 90.422)" fill="#ea463a"/><rect width="6.923" height="63.607" transform="translate(53.753 94.619)" fill="#d4291e"/><rect width="6.923" height="63.607" transform="translate(68.316 94.619)" fill="#d4291e"/><rect width="6.923" height="63.607" transform="translate(82.879 94.619)" fill="#d4291e"/><rect width="6.923" height="63.607" transform="translate(97.442 94.619)" fill="#d4291e"/><rect width="6.923" height="63.607" transform="translate(112.004 94.619)" fill="#d4291e"/><rect width="6.923" height="63.607" transform="translate(126.567 94.619)" fill="#d4291e"/><path d="M185.615,36.782l-31.76,57.844H45.238L56.425,57.392,61.789,50.1l4.9-6.65,4.9-6.668Z" fill="#6a463a"/><path d="M84.873,36.782,80.3,43.441H70.953l4.9-6.659Z" fill="#7e6056"/><path d="M102.768,36.782,98.2,43.441H88.848l4.9-6.659Z" fill="#7e6056"/><path d="M88.848,43.441,84.275,50.1H74.928l4.9-6.659Z" fill="#7d5648"/><path d="M74.928,50.1,69.9,57.37H60.555L65.91,50.1Z" fill="#734f42"/><path d="M93.293,50.1l-5.026,7.27H78.92l5.355-7.27Z" fill="#734f42"/><path d="M111.658,50.1l-5.026,7.27H97.285l5.355-7.27Z" fill="#734f42"/><path d="M130.023,50.1,125,57.37H115.65L121,50.1Z" fill="#734f42"/><path d="M148.388,50.1l-5.026,7.27h-9.347l5.355-7.27Z" fill="#734f42"/><path d="M107.213,43.441,102.64,50.1H93.293l4.9-6.659Z" fill="#7d5648"/><path d="M125.578,43.441,121,50.1h-9.347l4.9-6.659Z" fill="#7d5648"/><path d="M143.18,43.441,138.43,50.1h-9.346l4.9-6.659Z" fill="#7d5648"/><path d="M161.545,43.441,156.972,50.1h-9.347l4.9-6.659Z" fill="#7d5648"/><path d="M70.955,43.45,66.381,50.1H61.789l4.9-6.65Z" fill="#7d5648"/><path d="M120.663,36.782l-4.574,6.659h-9.346l4.9-6.659Z" fill="#7e6056"/><path d="M138.559,36.782l-4.573,6.659h-9.347l4.9-6.659Z" fill="#7e6056"/><path d="M157.1,36.782l-4.574,6.659H143.18l4.9-6.659Z" fill="#7e6056"/><path d="M175.641,36.782l-4.573,6.659h-9.347l4.9-6.659Z" fill="#7e6056"/><path d="M148.032,57.392,130.324,94.626H45.238L46.8,89.464l2.388-7.954,2.369-7.9,2.37-7.9,2.5-8.321Z" fill="#5e382c"/><path d="M78.921,57.37l-1.832,8.466H67.4l2.5-8.466Z" fill="#633f34"/><path d="M67.4,65.836l-1.848,7.836H56.367l2.005-7.958Z" fill="#633f34"/><path d="M56.37,73.667,54.519,81.51H49.188l2.369-7.9Z" fill="#633f34"/><path d="M74.578,73.671,72.73,81.507H63.546l2.005-7.958Z" fill="#633f34"/><path d="M63.546,81.507,61.7,89.468H52.514l2.005-7.958Z" fill="#633f34"/><path d="M52.513,89.465l-1.194,5.162h-6.08L46.8,89.465Z" fill="#633f34"/><path d="M70.716,89.465l-1.194,5.162H60.393l1.3-5.162Z" fill="#633f34"/><path d="M88.939,89.465l-1.194,5.162H78.6l1.3-5.162Z" fill="#633f34"/><path d="M107.142,89.465l-1.194,5.162h-9.13l1.305-5.162Z" fill="#633f34"/><path d="M125.364,89.465l-1.194,5.162h-9.148l1.305-5.162Z" fill="#633f34"/><path d="M81.757,81.507l-1.848,7.961H70.725L72.73,81.51Z" fill="#633f34"/><path d="M99.969,81.507l-1.848,7.961H88.937l2.005-7.958Z" fill="#633f34"/><path d="M118.18,81.507l-1.848,7.961h-9.184l2.005-7.958Z" fill="#633f34"/><path d="M136.392,81.507l-1.848,7.961H125.36l2.005-7.958Z" fill="#633f34"/><path d="M92.612,73.671l-1.848,7.836H81.58l2.005-7.958Z" fill="#633f34"/><path d="M111.053,73.549l-1.882,7.958H99.987l2-7.958Z" fill="#633f34"/><path d="M129.427,73.671l-1.848,7.836h-9.184l2.005-7.958Z" fill="#633f34"/><path d="M147.834,73.671l-1.848,7.836H136.8l1.886-7.836Z" fill="#633f34"/><path d="M86.107,65.836l-2.182,7.836H74.578l2.511-7.836Z" fill="#633f34"/><path d="M104.328,65.836l-2.369,7.836H92.613l2.7-7.836Z" fill="#633f34"/><path d="M122.494,65.836,120.4,73.55h-9.346l2.422-7.714Z" fill="#633f34"/><path d="M140.859,65.836l-2.17,7.836h-9.347l2.5-7.836Z" fill="#633f34"/><path d="M60.558,57.392l-2.186,8.321H53.927l2.5-8.321Z" fill="#633f34"/><path d="M97.628,57.37l-2.319,8.466h-9.2l2.5-8.466Z" fill="#633f34"/><path d="M115.65,57.37,113.475,65.7h-9.346l2.5-8.334Z" fill="#633f34"/><path d="M134.015,57.37,131.84,65.7h-9.346L125,57.37Z" fill="#633f34"/><path d="M152.39,57.37,150.2,65.836h-9.346l2.513-8.466Z" fill="#633f34"/><path d="M225.018,45.9,189.257,31.186,153.5,45.9,130.325,94.619H248.19Z" fill="#ede6bc"/><path d="M153.5,46.823,189.257,32.1l35.762,14.718,22.734,47.8h.437L225.019,45.9,189.257,31.187,153.5,45.9,130.325,94.619h.437Z" fill="#fcfbf4"/><path d="M239.473,89.116H139.049l6.87-14.438L154.608,56.4l2.957-6.208,3.95-1.617,8.688-3.582,6.925-2.847,8.67-3.582,3.454-1.414,3.472,1.432,8.67,3.564,6.925,2.847,8.67,3.564,3.968,1.635,2.957,6.208L232.6,74.678Z" fill="#eb564b"/><path d="M145.919,74.677V89.115h-6.87Z" fill="#db4439"/><path d="M161.515,48.575V89.116h-6.907V56.4l2.957-6.209Z" fill="#db4439"/><path d="M177.129,42.146v46.97H170.2V44.993Z" fill="#db4439"/><path d="M192.724,38.582V89.116H185.8V38.564l3.453-1.415Z" fill="#db4439"/><path d="M208.319,44.993V89.116h-6.925V42.146Z" fill="#db4439"/><path d="M223.915,56.4V89.116H216.99V48.556l3.968,1.635Z" fill="#db4439"/><path d="M239.473,89.116H232.6V74.678Z" fill="#db4439"/><g style="mix-blend-mode:multiply;isolation:isolate"><g clip-path="url(#f)"><path d="M155.8,54.018l31.7-13.046,31.7,13.046,16.691,35.09h3.584L220.956,50.191l-31.7-13.046-31.7,13.046L139.048,89.108h.056Z" fill="#e2bbbe"/></g></g><path d="M163.075,79.658h52.364l-1.177-13.319L207.5,57.4h-36.49l-6.533,8.3Z" fill="#472f21"/><rect width="107.282" height="68.42" transform="translate(135.616 94.619)" fill="#eb4b40"/><rect width="6.923" height="68.42" transform="translate(139.001 94.619)" fill="#e62e22"/><rect width="6.923" height="68.42" transform="translate(154.6 94.619)" fill="#e62e22"/><rect width="6.923" height="68.42" transform="translate(170.199 94.619)" fill="#e62e22"/><rect width="6.924" height="68.42" transform="translate(185.797 94.619)" fill="#e62e22"/><rect width="6.923" height="68.42" transform="translate(201.397 94.619)" fill="#e62e22"/><rect width="6.923" height="68.42" transform="translate(216.996 94.619)" fill="#e62e22"/><rect width="6.924" height="68.42" transform="translate(232.594 94.619)" fill="#e62e22"/><g style="mix-blend-mode:multiply;isolation:isolate"><g clip-path="url(#g)"><path d="M242.9,120.227s-2.318-2.474-2.849-2.232,1.424-2.5,1.424-2.5l-3.261,3.066a34.87,34.87,0,0,0-7.3,6.257c-3.109,3.674-4.869,6.235-4.869,6.235l3.291-1.893s-3.31,2.353-4.363,9.185-2.142,24.693-2.142,24.693h15.46L243,123.288Z" fill="#d09094"/></g></g><path d="M265.5,128.722a24.424,24.424,0,0,0-8.741-9.229h4.136l-6.818-1.456c-.542-.254-1.009-.452-1.391-.6l2.23-3.562-3.268,3.193-.018-.005a25.687,25.687,0,0,0-11.823,7.748l.01-.043-4.668,4.721,2.387-1.108a17.514,17.514,0,0,0-1.494,4.615c-1.449,8.292-2.057,30.62-2.057,30.62h34.985s3.465-21.843-3.47-34.892" fill="#febb0a"/><path d="M267.726,154.427l.554,9.65,1.894-1.515,1.545,1.749.525-10.4Z" fill="#e4d499"/><path d="M287.54,156.091l.408,7.811,1.312-1.166,1.428,1.574.32-9.093Z" fill="#e4d499"/><path d="M286.39,155.916h-8.505a3.309,3.309,0,0,0,1.081,3.03l-.278.182a.3.3,0,1,0,.329.5l.515-.338a3.99,3.99,0,0,0,.724.27l-.3.566a.3.3,0,1,0,.529.282l.386-.726c.16.023.328.041.506.053v.955a.3.3,0,0,0,.6,0v-.929a7.667,7.667,0,0,0,.878-.055l.2.649a.3.3,0,1,0,.574-.176l-.177-.576a4.711,4.711,0,0,0,.868-.276l.459.3a.3.3,0,1,0,.329-.5l-.188-.123a3.484,3.484,0,0,0,1.474-3.089" fill="#deab9f"/><path d="M292.043,150.479s.389-8.729-4.858-8.534-16.594-.551-18.5,0-2.992,2.3-3.187,6.338-.5,7.734,2.08,8.433,21.27,2.269,23.062-.3a12.375,12.375,0,0,0,1.4-5.935" fill="#e4d499"/><path d="M295.4,153.545l-.619-.1a16.074,16.074,0,0,0-.7-3.993c-.735-3.055-2.944-2.808-3.034-2.8l-.085-.622c.028,0,2.856-.352,3.729,3.272.808,3.353.717,4.159.7,4.239" fill="#e4d499"/><path d="M273.157,141.945s.622-5.946-4.547-6.218-12.047-1.127-13.407,3.537-2.565,8.627,2.332,9.249a97.163,97.163,0,0,0,12.435.855c2.332-.078,2.915-2.41,3.187-7.423" fill="#ece1b8"/><path d="M257.806,142.956s7.112.039,7.733,2.371,1.244,7.189-2.526,6.956-8.182.2-10.1-2.41c-1.143-1.554-.816-6.761,1.594-6.917a16.5,16.5,0,0,1,3.3,0" fill="#deab9f"/><path d="M269,141.4c-.2-.769-.523-1.229-.975-1.368-.853-.261-1.9.66-1.915.669l-.209-.234c.049-.043,1.2-1.047,2.216-.735a1.987,1.987,0,0,1,1.187,1.591Z" fill="#815c42"/><path d="M258.389,140.619l-.31-.045c.007-.052.193-1.273,1.078-1.622.62-.243,1.4.011,2.323.756l-.2.244c-.828-.669-1.506-.9-2.011-.708-.714.28-.881,1.364-.883,1.375" fill="#815c42"/><path d="M255.451,145.73c-.113.5.075.973.421,1.051s.717-.267.83-.77-.075-.973-.421-1.05-.717.266-.83.769" fill="#c8725e"/><path d="M259.182,146.205c-.113.5.075.973.421,1.051s.717-.267.83-.77-.075-.973-.421-1.05-.717.266-.83.769" fill="#c8725e"/><path d="M260.068,151.736a18.149,18.149,0,0,1-2.2-.153c-3.1-.383-3.954-1.492-3.989-1.539l.253-.187c.007.01.829,1.051,3.774,1.414,2.549.315,4.227.13,4.993-.547a1.684,1.684,0,0,0,.539-1.345h.313a1.983,1.983,0,0,1-.644,1.58,4.582,4.582,0,0,1-3.036.777" fill="#c8725e"/><path d="M256.735,151.233a25.275,25.275,0,0,0-7.479,1.749l-3.73,1.555,3.342-1.157s2.943-.889,3.279-1.089,5.061-.964,5.061-.964Z" fill="#ffe85c"/><path d="M260.874,135.872a3.791,3.791,0,0,0-2.33-1.932c-1.748-.544-4.231-1.555-3.126-3.5l1.106-1.943A7.01,7.01,0,0,0,254,132.327c-.315,2.157.307,2.8,1.744,3.16a4.921,4.921,0,0,1,2.017.886,8.158,8.158,0,0,0,3.111-.5" fill="#cdc96e"/><path d="M272.846,129.16s1.244,5.246-2.759,4.726c-2.481-.323-3.625.505-3.944,1.148a1.682,1.682,0,0,0-.267.906,13.417,13.417,0,0,0,2.472.546c.544.062,1.342-.6,1.342-.6s2.746.362,3.731-.7c1.821-1.962-.575-6.023-.575-6.023" fill="#cdc96e"/><path d="M246.619,154.081a2.256,2.256,0,0,1-1.676,0l-.777-.38s1.933-.464,2.453.38" fill="#ffe85c"/><path d="M247.215,153.833a1.5,1.5,0,0,0-.6.9,1.786,1.786,0,0,0,0,1.185s.866-1.193.6-2.083" fill="#ffe85c"/><path d="M245.789,154.427s.222.142-.264.745a2.458,2.458,0,0,1-1.36.744s.586-1.317,1.624-1.489" fill="#ffe85c"/><path d="M252.782,151.854a6.743,6.743,0,0,1-3.263.616,12.974,12.974,0,0,1-2.625-1.238,9.411,9.411,0,0,0,2.159.826,11.4,11.4,0,0,0,3.729-.2" fill="#ffe85c"/><path d="M269.834,136.893s2.778-1.154,5.309,4.026c.873,1.789-.335,2.041-.8,2.313a.856.856,0,0,1-.874,0s-1.225-1.266-3.634-6.339" fill="#f3eed1"/><path d="M259.594,157.121s-.233-2.767,1.593-3.288a2.712,2.712,0,0,1,3.556,2.763l-.194,1.963-3.711.552-1.079-.3Z" fill="#febb0a"/><path d="M265.617,159.111s.155-.9-2.235-1.174-4.2.425-4.586,1.174,5.072,1.757,6.821,0" fill="#fe9500"/><path d="M264.755,159.3s.116-.469-1.671-.61-3.139.22-3.429.61,3.792.914,5.1,0" fill="#cc6000"/><path d="M262.1,159.3a2.162,2.162,0,0,0-.707,1.512c-.025.954.915.979,1,.776s.371-2.25-.3-2.288" fill="#ede6bc"/><path d="M261.1,154.007s-.015-.036-.034-.1c-.082-.253-.246-.933.33-1.027a.759.759,0,0,1,.807,1.027c-.141.4-1.1.1-1.1.1" fill="#ede6bc"/><path d="M263.606,154.821c-.227-.343-1.324-.94-.923.372.228.749.529,1.284,1.172.96.28-.141.212-.636-.249-1.332" fill="#ffe85c"/><path d="M261.914,153.72a12.763,12.763,0,0,0,6.968-4.341c2.526-3.431,1.982-3.955,1.982-3.955l-2.837,3.477s-3.894,3.615-6.067,4.12-4.752-3.926-4.752-3.926,1.217,4.78,4.706,4.625" fill="#ec4f36"/><path d="M277.811,149.892s-4.255-.454-5.13,0a2.982,2.982,0,0,0-1.69,2.281c.058.8-.758,2.677,1.69,3.019s3.44-.668,5.13-.338,3.789.428,3.876,0,.962-3.548-.845-4.057-3.031-.9-3.031-.9" fill="#815c42"/><path d="M283.027,142.886a2.342,2.342,0,0,0-1.837,2.063,3.566,3.566,0,0,0,1.371,3.388c.466.234,4.751-.932,5.61,0s3.7-.937,3.56-1.546-.661-3.209-1.825-3.9-6.879,0-6.879,0" fill="#815c42"/><rect width="48.897" height="52.546" transform="translate(164.809 110.493)" fill="#ede6bc"/><rect width="48.897" height="0.645" transform="translate(164.809 110.493)" fill="#f1eccc"/><rect width="42.603" height="46.62" transform="translate(167.957 113.456)" fill="#ea463a"/><g style="mix-blend-mode:multiply;isolation:isolate"><g clip-path="url(#h)"><rect width="3.527" height="46.62" transform="translate(186.288 113.456)" fill="#e2bbbe"/></g></g><g style="mix-blend-mode:multiply;isolation:isolate"><g clip-path="url(#i)"><path d="M208.795,156.4v3.681h-3.809l-37.028-36.941V115.5Z" fill="#e2bbbe"/></g></g><rect width="34.058" height="6.933" transform="translate(63.973 107.026)" fill="#6a463a"/><rect width="25.057" height="6.933" transform="translate(110.559 107.026)" fill="#6a463a"/><path d="M124.723,163.221l-43.745-3.242h43.745Z" fill="#6f7500"/><path d="M210.56,155.511v4.565h-2.923l-39.68-39.68v-6.941h.548Z" fill="#ede6bc"/><path d="M210.56,113.456v6.937l-39.683,39.683h-2.92v-4.568l42.052-42.052Z" fill="#ede6bc"/><rect width="3.527" height="46.62" transform="translate(187.494 113.456)" fill="#ede6bc"/><path d="M34.613,159.932l-3.346-9.05-3.346,9.05V173.9h6.692Z" fill="#ede6bc"/><path d="M91.9,159.932l-3.346-9.05-3.346,9.05V173.9H91.9Z" fill="#ede6bc"/><path d="M88.556,150.882l2.352,9.18V173.9H91.9V159.932Z" fill="#f3eed1"/><rect width="50.598" height="1.995" transform="translate(34.613 168.708)" fill="#d7c769"/><rect width="50.598" height="1.995" transform="translate(34.613 159.953)" fill="#d7c769"/><path d="M46.071,159.932l-3.346-9.05-3.346,9.05V173.9h6.692Z" fill="#ede6bc"/><path d="M57.529,159.932l-3.346-9.05-3.346,9.05V173.9h6.692Z" fill="#ede6bc"/><path d="M68.987,159.932l-3.346-9.05-3.346,9.05V173.9h6.692Z" fill="#ede6bc"/><path d="M80.445,159.932l-3.346-9.05-3.346,9.05V173.9h6.692Z" fill="#ede6bc"/><path d="M193.242,160.488l-2.484-6.718-2.483,6.718v9.34h4.967Z" fill="#ede6bc"/><path d="M235.768,160.488l-2.484-6.718-2.483,6.718v9.34h4.967Z" fill="#ede6bc"/><rect width="37.559" height="1.481" transform="translate(193.242 165.971)" fill="#d7c769"/><rect width="37.559" height="1.481" transform="translate(193.242 160.503)" fill="#d7c769"/><path d="M235.768,160.488l-2.484-6.718-2.483,6.718v9.34h4.967Z" fill="#ede6bc"/><path d="M278.295,160.488l-2.484-6.718-2.483,6.718v9.34h4.967Z" fill="#ede6bc"/><rect width="37.559" height="1.481" transform="translate(235.768 165.971)" fill="#d7c769"/><rect width="37.559" height="1.481" transform="translate(235.768 160.503)" fill="#d7c769"/><path d="M201.747,160.488l-2.484-6.718-2.483,6.718v9.34h4.967Z" fill="#ede6bc"/><path d="M210.253,160.488l-2.484-6.718-2.483,6.718v9.34h4.967Z" fill="#ede6bc"/><path d="M218.758,160.488l-2.484-6.718-2.483,6.718v9.34h4.967Z" fill="#ede6bc"/><path d="M227.263,160.488l-2.484-6.718-2.483,6.718v9.34h4.967Z" fill="#ede6bc"/><path d="M244.274,160.488l-2.484-6.718-2.483,6.718v9.34h4.967Z" fill="#ede6bc"/><path d="M252.779,160.488l-2.484-6.718-2.483,6.718v9.34h4.967Z" fill="#ede6bc"/><path d="M261.284,160.488,258.8,153.77l-2.483,6.718v9.34h4.967Z" fill="#ede6bc"/><path d="M269.789,160.488l-2.484-6.718-2.483,6.718v9.34h4.967Z" fill="#ede6bc"/><g style="mix-blend-mode:multiply;isolation:isolate"><g clip-path="url(#j)"><path d="M135.616,94.619v68.42h33.828L242.9,94.619Z" fill="#d09094"/></g></g><path d="M87.387,160.882a.352.352,0,1,1-.352-.352.353.353,0,0,1,.352.352" fill="#bab89e"/><path d="M90.039,160.882a.352.352,0,1,1-.352-.352.353.353,0,0,1,.352.352" fill="#bab89e"/><path d="M87.387,169.705a.352.352,0,1,1-.352-.352.353.353,0,0,1,.352.352" fill="#bab89e"/><path d="M90.039,169.705a.352.352,0,1,1-.352-.352.353.353,0,0,1,.352.352" fill="#bab89e"/><path d="M190.091,160.9a.242.242,0,1,1-.241-.241.241.241,0,0,1,.241.241" fill="#bab89e"/><path d="M191.909,160.9a.242.242,0,1,1-.241-.241.241.241,0,0,1,.241.241" fill="#bab89e"/><path d="M190.091,166.95a.242.242,0,1,1-.241-.241.241.241,0,0,1,.241.241" fill="#bab89e"/><path d="M191.909,166.95a.242.242,0,1,1-.241-.241.241.241,0,0,1,.241.241" fill="#bab89e"/><path d="M198.6,160.9a.241.241,0,1,1-.241-.241.241.241,0,0,1,.241.241" fill="#bab89e"/><path d="M200.414,160.9a.242.242,0,1,1-.241-.241.241.241,0,0,1,.241.241" fill="#bab89e"/><path d="M198.6,166.95a.241.241,0,1,1-.241-.241.241.241,0,0,1,.241.241" fill="#bab89e"/><path d="M200.414,166.95a.242.242,0,1,1-.241-.241.241.241,0,0,1,.241.241" fill="#bab89e"/><path d="M207.1,160.9a.242.242,0,1,1-.241-.241.241.241,0,0,1,.241.241" fill="#bab89e"/><path d="M208.919,160.9a.242.242,0,1,1-.241-.241.241.241,0,0,1,.241.241" fill="#bab89e"/><path d="M207.1,166.95a.242.242,0,1,1-.241-.241.241.241,0,0,1,.241.241" fill="#bab89e"/><path d="M208.919,166.95a.242.242,0,1,1-.241-.241.241.241,0,0,1,.241.241" fill="#bab89e"/><path d="M215.782,160.9a.242.242,0,1,1-.241-.241.241.241,0,0,1,.241.241" fill="#bab89e"/><path d="M217.6,160.9a.242.242,0,1,1-.241-.241.241.241,0,0,1,.241.241" fill="#bab89e"/><path d="M215.782,166.95a.242.242,0,1,1-.241-.241.241.241,0,0,1,.241.241" fill="#bab89e"/><path d="M217.6,166.95a.242.242,0,1,1-.241-.241.241.241,0,0,1,.241.241" fill="#bab89e"/><path d="M224.112,160.9a.242.242,0,1,1-.241-.241.241.241,0,0,1,.241.241" fill="#bab89e"/><path d="M225.93,160.9a.241.241,0,1,1-.241-.241.241.241,0,0,1,.241.241" fill="#bab89e"/><path d="M224.112,166.95a.242.242,0,1,1-.241-.241.241.241,0,0,1,.241.241" fill="#bab89e"/><path d="M225.93,166.95a.241.241,0,1,1-.241-.241.241.241,0,0,1,.241.241" fill="#bab89e"/><path d="M232.617,160.9a.242.242,0,1,1-.241-.241.241.241,0,0,1,.241.241" fill="#bab89e"/><path d="M234.435,160.9a.242.242,0,1,1-.241-.241.241.241,0,0,1,.241.241" fill="#bab89e"/><path d="M232.617,166.95a.242.242,0,1,1-.241-.241.241.241,0,0,1,.241.241" fill="#bab89e"/><path d="M234.435,166.95a.242.242,0,1,1-.241-.241.241.241,0,0,1,.241.241" fill="#bab89e"/><path d="M241.122,160.9a.241.241,0,1,1-.241-.241.241.241,0,0,1,.241.241" fill="#bab89e"/><path d="M242.94,160.9a.242.242,0,1,1-.241-.241.241.241,0,0,1,.241.241" fill="#bab89e"/><path d="M241.122,166.95a.241.241,0,1,1-.241-.241.241.241,0,0,1,.241.241" fill="#bab89e"/><path d="M242.94,166.95a.242.242,0,1,1-.241-.241.241.241,0,0,1,.241.241" fill="#bab89e"/><path d="M249.628,160.9a.242.242,0,1,1-.242-.241.241.241,0,0,1,.242.241" fill="#bab89e"/><path d="M251.445,160.9a.242.242,0,1,1-.241-.241.241.241,0,0,1,.241.241" fill="#bab89e"/><path d="M249.628,166.95a.242.242,0,1,1-.242-.241.241.241,0,0,1,.242.241" fill="#bab89e"/><path d="M251.445,166.95a.242.242,0,1,1-.241-.241.241.241,0,0,1,.241.241" fill="#bab89e"/><path d="M258.133,160.9a.242.242,0,1,1-.241-.241.241.241,0,0,1,.241.241" fill="#bab89e"/><path d="M259.951,160.9a.242.242,0,1,1-.241-.241.241.241,0,0,1,.241.241" fill="#bab89e"/><path d="M258.133,166.95a.242.242,0,1,1-.241-.241.241.241,0,0,1,.241.241" fill="#bab89e"/><path d="M259.951,166.95a.242.242,0,1,1-.241-.241.241.241,0,0,1,.241.241" fill="#bab89e"/><path d="M266.638,160.9a.242.242,0,1,1-.241-.241.241.241,0,0,1,.241.241" fill="#bab89e"/><path d="M268.456,160.9a.242.242,0,1,1-.241-.241.241.241,0,0,1,.241.241" fill="#bab89e"/><path d="M266.638,166.95a.242.242,0,1,1-.241-.241.241.241,0,0,1,.241.241" fill="#bab89e"/><path d="M268.456,166.95a.242.242,0,1,1-.241-.241.241.241,0,0,1,.241.241" fill="#bab89e"/><path d="M275.143,160.9a.242.242,0,1,1-.241-.241.241.241,0,0,1,.241.241" fill="#bab89e"/><path d="M276.961,160.9a.242.242,0,1,1-.241-.241.241.241,0,0,1,.241.241" fill="#bab89e"/><path d="M275.143,166.95a.242.242,0,1,1-.241-.241.241.241,0,0,1,.241.241" fill="#bab89e"/><path d="M276.961,166.95a.242.242,0,1,1-.241-.241.241.241,0,0,1,.241.241" fill="#bab89e"/><path d="M76.124,160.882a.352.352,0,1,1-.352-.352.353.353,0,0,1,.352.352" fill="#bab89e"/><path d="M78.777,160.882a.352.352,0,1,1-.352-.352.353.353,0,0,1,.352.352" fill="#bab89e"/><path d="M76.124,169.705a.352.352,0,1,1-.352-.352.353.353,0,0,1,.352.352" fill="#bab89e"/><path d="M78.777,169.705a.352.352,0,1,1-.352-.352.353.353,0,0,1,.352.352" fill="#bab89e"/><path d="M64.862,160.882a.352.352,0,1,1-.352-.352.353.353,0,0,1,.352.352" fill="#bab89e"/><path d="M67.515,160.882a.352.352,0,1,1-.352-.352.353.353,0,0,1,.352.352" fill="#bab89e"/><path d="M64.862,169.705a.352.352,0,1,1-.352-.352.353.353,0,0,1,.352.352" fill="#bab89e"/><path d="M67.515,169.705a.352.352,0,1,1-.352-.352.353.353,0,0,1,.352.352" fill="#bab89e"/><path d="M53.248,160.882a.352.352,0,1,1-.352-.352.353.353,0,0,1,.352.352" fill="#bab89e"/><path d="M55.9,160.882a.352.352,0,1,1-.352-.352.353.353,0,0,1,.352.352" fill="#bab89e"/><path d="M53.248,169.705a.352.352,0,1,1-.352-.352.353.353,0,0,1,.352.352" fill="#bab89e"/><path d="M55.9,169.705a.352.352,0,1,1-.352-.352.353.353,0,0,1,.352.352" fill="#bab89e"/><path d="M41.751,160.882a.352.352,0,1,1-.352-.352.353.353,0,0,1,.352.352" fill="#bab89e"/><path d="M44.4,160.882a.352.352,0,1,1-.352-.352.353.353,0,0,1,.352.352" fill="#bab89e"/><path d="M41.751,169.705a.352.352,0,1,1-.352-.352.353.353,0,0,1,.352.352" fill="#bab89e"/><path d="M44.4,169.705a.352.352,0,1,1-.352-.352.353.353,0,0,1,.352.352" fill="#bab89e"/><path d="M30.293,160.882a.352.352,0,1,1-.352-.352.353.353,0,0,1,.352.352" fill="#bab89e"/><path d="M32.945,160.882a.352.352,0,1,1-.352-.352.353.353,0,0,1,.352.352" fill="#bab89e"/><path d="M30.293,169.705a.352.352,0,1,1-.352-.352.353.353,0,0,1,.352.352" fill="#bab89e"/><path d="M32.945,169.705a.352.352,0,1,1-.352-.352.353.353,0,0,1,.352.352" fill="#bab89e"/><path d="M139.049,89.108l-.642,1.077H240.24l-.774-1.077Z" fill="#fcfbf4"/><g style="mix-blend-mode:multiply;isolation:isolate"><g clip-path="url(#k)"><path d="M175.662,36.782H144.738L107.518,65.7,90,94.619l0,.008H51.318v9.833H86.24l-.981,2.566L71.606,158.3h64.01V94.619h-5.292L153.5,45.9Z" fill="#b7575d"/></g></g></g></g></g></g></svg>