<svg xmlns="http://www.w3.org/2000/svg" xmlns:xlink="http://www.w3.org/1999/xlink" width="333" height="353" viewBox="0 0 333 353"><defs><clipPath id="a"><rect width="302.74" height="220.535" fill="none"/></clipPath><clipPath id="c"><rect width="105.405" height="6.041" transform="translate(31.471 142.477)" fill="none"/></clipPath><clipPath id="d"><rect width="129.07" height="8.456" transform="translate(53.893 153.558)" fill="none"/></clipPath><clipPath id="e"><rect width="108.662" height="6.001" transform="translate(128.195 59.781)" fill="none"/></clipPath><clipPath id="f"><rect width="110.562" height="45.932" transform="translate(127.245 9.476)" fill="none"/></clipPath><clipPath id="g"><rect width="40.748" height="28.629" transform="translate(160.202 21.227)" fill="none"/></clipPath><clipPath id="h"><rect width="11.608" height="46.405" transform="translate(148.797 81.354)" fill="none"/></clipPath><clipPath id="i"><rect width="11.608" height="46.405" transform="translate(173.472 81.354)" fill="none"/></clipPath><clipPath id="j"><rect width="47.408" height="37.281" transform="translate(76.964 100.695)" fill="none"/></clipPath><clipPath id="k"><rect width="44.591" height="19.252" transform="translate(129.17 125.068)" fill="none"/></clipPath><clipPath id="l"><rect width="11.608" height="46.405" transform="translate(194.251 81.354)" fill="none"/></clipPath><clipPath id="m"><rect width="11.608" height="46.405" transform="translate(218.926 81.354)" fill="none"/></clipPath></defs><g transform="translate(-634.5 -4997)"><rect width="333" height="353" rx="21" transform="translate(634.5 4997)" fill="#eff6e5"/><g transform="translate(649.5 5063)"><g clip-path="url(#a)"><g clip-path="url(#a)"><path d="M259.814,212.455H68.408a6.7,6.7,0,0,1-6.7-6.7V175.852a6.7,6.7,0,0,1,6.7-6.7H259.814a6.7,6.7,0,0,1,6.7,6.7v29.907a6.7,6.7,0,0,1-6.7,6.7" fill="#fff"/><path d="M125.071,204.505h-5.625v3.809h6.6v2.353h-9.532V196.448h9.512v2.373h-6.582v3.389h5.625Z" fill="#12263f"/><path d="M126.956,205.287a6.316,6.316,0,0,1,1.108-3.936,3.62,3.62,0,0,1,3.042-1.445,3.24,3.24,0,0,1,2.705,1.3l.186-1.1h2.48V214.73h-2.832v-4.971a3.256,3.256,0,0,1-2.558,1.1,3.6,3.6,0,0,1-3.008-1.465,6.624,6.624,0,0,1-1.123-4.111m2.822.2a4.141,4.141,0,0,0,.532,2.309,1.7,1.7,0,0,0,1.5.793,1.9,1.9,0,0,0,1.836-1.038v-4.371a1.88,1.88,0,0,0-1.816-1,1.727,1.727,0,0,0-1.514.791,4.586,4.586,0,0,0-.537,2.514" fill="#12263f"/><path d="M145.022,209.593a3.541,3.541,0,0,1-2.891,1.27,3.34,3.34,0,0,1-2.592-.977,4.169,4.169,0,0,1-.913-2.861V200.1h2.822v6.834q0,1.651,1.5,1.652a2.035,2.035,0,0,0,1.972-1V200.1h2.832v10.566H145.1Z" fill="#12263f"/><path d="M149.866,197.367a1.389,1.389,0,0,1,.425-1.045,1.832,1.832,0,0,1,2.31,0,1.492,1.492,0,0,1-.005,2.1,1.807,1.807,0,0,1-2.295,0,1.384,1.384,0,0,1-.435-1.054m3,13.3h-2.832V200.1h2.832Z" fill="#12263f"/><path d="M164.7,205.482a6.331,6.331,0,0,1-1.108,3.91,3.552,3.552,0,0,1-2.993,1.471,3.293,3.293,0,0,1-2.588-1.113v4.98h-2.822V200.1h2.617l.1,1.035a3.319,3.319,0,0,1,2.676-1.23,3.573,3.573,0,0,1,3.037,1.445,6.5,6.5,0,0,1,1.084,3.985Zm-2.822-.205a4.156,4.156,0,0,0-.522-2.275,1.7,1.7,0,0,0-1.519-.8,1.848,1.848,0,0,0-1.826,1.015v4.327a1.882,1.882,0,0,0,1.846,1.045q2.021,0,2.021-3.311" fill="#12263f"/><path d="M166.009,205.287a6.26,6.26,0,0,1,.6-2.8,4.437,4.437,0,0,1,1.743-1.9,5.092,5.092,0,0,1,2.642-.674,4.8,4.8,0,0,1,3.491,1.309A5.244,5.244,0,0,1,176,204.769l.019.723a5.516,5.516,0,0,1-1.357,3.9,5.259,5.259,0,0,1-7.29.006,5.62,5.62,0,0,1-1.362-3.984Zm2.822.2a3.962,3.962,0,0,0,.566,2.305,2.035,2.035,0,0,0,3.223.009,4.325,4.325,0,0,0,.576-2.519,3.913,3.913,0,0,0-.576-2.289,1.872,1.872,0,0,0-1.621-.811,1.841,1.841,0,0,0-1.6.807,4.4,4.4,0,0,0-.566,2.5" fill="#12263f"/><path d="M183.479,207.748a.91.91,0,0,0-.513-.816,5.857,5.857,0,0,0-1.645-.532q-3.77-.79-3.77-3.2a2.906,2.906,0,0,1,1.167-2.349,4.716,4.716,0,0,1,3.052-.942,5.065,5.065,0,0,1,3.218.947,2.985,2.985,0,0,1,1.206,2.461h-2.822a1.37,1.37,0,0,0-.391-1,1.656,1.656,0,0,0-1.221-.394,1.686,1.686,0,0,0-1.1.322,1.016,1.016,0,0,0-.391.821.866.866,0,0,0,.444.755,4.487,4.487,0,0,0,1.5.5,12.323,12.323,0,0,1,1.778.475,2.92,2.92,0,0,1,2.236,2.842,2.755,2.755,0,0,1-1.24,2.338,5.356,5.356,0,0,1-3.2.894,5.589,5.589,0,0,1-2.359-.474,3.945,3.945,0,0,1-1.616-1.3,3.021,3.021,0,0,1-.586-1.781H179.9a1.474,1.474,0,0,0,.557,1.152,2.212,2.212,0,0,0,1.386.4,2.045,2.045,0,0,0,1.226-.308.955.955,0,0,0,.415-.8" fill="#12263f"/><path d="M274.953,164.1H29.331a8.106,8.106,0,0,1-8.106-8.106v-5.451a8.106,8.106,0,0,1,8.106-8.106H274.953a8.106,8.106,0,0,1,8.106,8.106v5.451a8.106,8.106,0,0,1-8.106,8.106" fill="#ec9800"/><path d="M246.485,178H62.735a8.842,8.842,0,0,1-8.842-8.842v-5.948a8.842,8.842,0,0,1,8.842-8.842h183.75a8.843,8.843,0,0,1,8.843,8.842v5.948A8.843,8.843,0,0,1,246.485,178" fill="#c25b25"/><path d="M50.174,187.938H24.942a3.719,3.719,0,0,1-3.718-3.718v-2.5A3.719,3.719,0,0,1,24.942,178H50.174a3.718,3.718,0,0,1,3.718,3.719v2.5a3.718,3.718,0,0,1-3.718,3.718" fill="#cf7e54"/><path d="M289.174,178H270.442a3.719,3.719,0,0,1-3.718-3.718v-2.5a3.718,3.718,0,0,1,3.718-3.718h18.732a3.718,3.718,0,0,1,3.719,3.718v2.5A3.719,3.719,0,0,1,289.174,178" fill="#c96d3d"/><path d="M203.107,193.524H146.364a3.949,3.949,0,0,1-3.949-3.949v-2.656a3.949,3.949,0,0,1,3.949-3.95h56.743a3.949,3.949,0,0,1,3.949,3.95v2.656a3.949,3.949,0,0,1-3.949,3.949" fill="#d38861"/><g style="mix-blend-mode:multiply;isolation:isolate"><g clip-path="url(#c)"><path d="M124.372,148.518H59.04l-27.569-6.041h105.4Z" fill="#d49c3c"/></g></g><g style="mix-blend-mode:multiply;isolation:isolate"><g clip-path="url(#d)"><path d="M178.735,162.014H58.121a4.228,4.228,0,0,1,0-8.456H178.735a4.228,4.228,0,0,1,0,8.456" fill="#d49c3c"/></g></g><path d="M64.075,16.745h0A15.991,15.991,0,0,0,48.116,31.719s-2.4,30.694-2.612,40.95c-.208,10.074.907,40.293.907,40.293A15.991,15.991,0,0,0,62.4,128.593h3.354a15.991,15.991,0,0,0,15.987-15.631s1.115-30.219.907-40.293c-.211-10.256-2.612-40.95-2.612-40.95A15.991,15.991,0,0,0,64.075,16.745" fill="#a7b816"/><path d="M64.075,38.054,59.04,148.518H69.11Z" fill="#845600"/><path d="M96.9,57.645h16.324a12.638,12.638,0,0,0,12.638-12.638v-8.5a12.638,12.638,0,0,0-12.638-12.638H96.9A12.638,12.638,0,0,0,84.265,36.507v8.5A12.638,12.638,0,0,0,96.9,57.645" fill="#789f00"/><path d="M97.7,38.054H87.235A15.566,15.566,0,0,0,71.67,53.62V85.97a15.566,15.566,0,0,0,15.565,15.566H97.7A15.566,15.566,0,0,0,113.27,85.97V53.62A15.566,15.566,0,0,0,97.7,38.054" fill="#7e8e0b"/><path d="M131.1,47.378H120.63a15.566,15.566,0,0,0-15.566,15.566v32.35A15.566,15.566,0,0,0,120.63,110.86H131.1a15.566,15.566,0,0,0,15.566-15.566V62.944A15.566,15.566,0,0,0,131.1,47.378" fill="#7e8e0b"/><path d="M101.663,74.724H91.1a15.519,15.519,0,0,0-15.519,15.52v10.437A15.519,15.519,0,0,0,91.1,116.2h10.562a15.519,15.519,0,0,0,15.519-15.519V90.244a15.519,15.519,0,0,0-15.519-15.52" fill="#788100"/><path d="M129.295,38.054a5.647,5.647,0,1,1-5.647-5.647,5.647,5.647,0,0,1,5.647,5.647" fill="#f2bc00"/><path d="M89.912,53.025a5.648,5.648,0,1,1-5.647-5.647,5.647,5.647,0,0,1,5.647,5.647" fill="#f2bc00"/><path d="M105.279,69.794a5.647,5.647,0,1,1-5.647-5.647,5.647,5.647,0,0,1,5.647,5.647" fill="#f2bc00"/><path d="M139.757,63.262a5.648,5.648,0,1,1-5.648-5.647,5.648,5.648,0,0,1,5.648,5.647" fill="#ff4a3b"/><path d="M89.912,89.815a5.648,5.648,0,1,1-5.647-5.647,5.647,5.647,0,0,1,5.647,5.647" fill="#f2bc00"/><rect width="108.663" height="88.737" transform="translate(128.195 59.781)" fill="#d9b791"/><g style="mix-blend-mode:multiply;isolation:isolate"><g clip-path="url(#e)"><rect width="108.663" height="6.001" transform="translate(128.195 59.781)" fill="#e9cacd"/></g></g><path d="M162.852,5.1H202.2l44.852,54.679H118Z" fill="#f9f8ee"/><path d="M237.8,55.408H127.237l7.417-9.045,6.6-8.047,8.257-10.06,6.6-8.047,8.257-10.06.56-.682h35.217l.542.665,8.258,10.077,6.6,8.03,8.258,10.077,6.595,8.047Z" fill="#fa493c"/><path d="M141.25,38.316V55.408h-6.6V46.364Z" fill="#e62e22"/><path d="M156.1,20.209v35.2h-6.6V28.257Z" fill="#e62e22"/><path d="M170.956,9.467V55.408h-6.6V10.149l.559-.682Z" fill="#e62e22"/><rect width="6.578" height="45.941" transform="translate(179.231 9.467)" fill="#e62e22"/><path d="M200.679,10.132V55.408h-6.6V9.467h6.052Z" fill="#e62e22"/><path d="M215.532,28.239V55.408h-6.6v-35.2Z" fill="#e62e22"/><path d="M230.385,46.363v9.045h-6.6V38.315Z" fill="#e62e22"/><g style="mix-blend-mode:multiply;isolation:isolate"><g clip-path="url(#f)"><path d="M163.362,15.088h35.211l33.072,40.32h6.162L200.131,9.476H164.92L127.244,55.408h3.045Z" fill="#cc776a"/></g></g><g style="mix-blend-mode:multiply;isolation:isolate"><g clip-path="url(#g)"><path d="M197.889,49.856H160.2V23.706l3.9-2.479,36.849,26.151Z" fill="#cc776a"/></g></g><rect width="36.848" height="26.15" transform="translate(164.102 21.228)" fill="#ede6bc"/><rect width="33.173" height="22.368" transform="translate(165.94 23.119)" fill="#ba0e00"/><rect width="33.17" height="20.154" transform="translate(165.935 25.334)" fill="#e62e22"/><path d="M199.1,24.215v1.749l-14.153,9.447-2.432,1.61-12.684,8.467h-3.9v-.647l14.153-9.43,2.432-1.627,12.666-8.45,1.68-1.119Z" fill="#ba0e00"/><path d="M199.1,44.841v.647h-3.884l-12.7-8.467-2.432-1.61-14.153-9.447V24.215h2.257l1.679,1.119,12.649,8.45,2.432,1.627Z" fill="#ba0e00"/><rect width="2.702" height="22.368" transform="translate(181.175 23.119)" fill="#ede6bc"/><path d="M199.113,23.118V24.86l-30.92,20.627H165.94V43.746l30.917-20.627Z" fill="#ede6bc"/><path d="M165.94,23.118V24.86l30.92,20.627h2.253V43.746L168.2,23.118Z" fill="#ede6bc"/><rect width="116.308" height="28.266" transform="translate(124.372 120.252)" fill="#e8d3bc"/><rect width="116.308" height="4.372" transform="translate(124.372 120.252)" fill="#f0e3d4"/><g style="mix-blend-mode:multiply;isolation:isolate"><g clip-path="url(#h)"><path d="M152.18,81.354,148.8,89.531v38.228h9.658l1.95-3.542Z" fill="#e7c7ca"/></g></g><rect width="16.45" height="42.863" transform="translate(160.405 81.354)" fill="#f5a44f"/><rect width="13.768" height="39.678" transform="translate(161.749 82.942)" fill="#3b3944"/><path d="M175.517,82.942v4.584l-13.768,26.312v-22.6l4.338-8.292Z" fill="#405166"/><path d="M175.517,101.644v15.972l-2.624,5h-8.345Z" fill="#405166"/><rect width="1.737" height="39.678" transform="translate(167.762 82.947)" fill="#c0742e"/><rect width="13.765" height="1.194" transform="translate(161.748 102.189)" fill="#f5a44f"/><rect width="13.765" height="1.194" transform="translate(161.748 113.599)" fill="#f5a44f"/><rect width="13.765" height="1.194" transform="translate(161.748 91.047)" fill="#f5a44f"/><rect width="8.225" height="42.863" transform="translate(152.18 81.354)" fill="#c0742e"/><rect width="6.075" height="40.334" transform="translate(153.255 82.619)" fill="#c4823a"/><rect width="6.075" height="0.765" transform="translate(153.255 82.619)" fill="#a55e00"/><rect width="6.075" height="0.765" transform="translate(153.255 86.008)" fill="#a55e00"/><rect width="6.075" height="0.383" transform="translate(153.255 85.625)" fill="#d4a470"/><rect width="6.075" height="0.765" transform="translate(153.255 88.766)" fill="#a55e00"/><rect width="6.075" height="0.383" transform="translate(153.255 88.384)" fill="#d4a470"/><rect width="6.075" height="0.765" transform="translate(153.255 91.524)" fill="#a55e00"/><rect width="6.075" height="0.383" transform="translate(153.255 91.142)" fill="#d4a470"/><rect width="6.075" height="0.765" transform="translate(153.255 94.282)" fill="#a55e00"/><rect width="6.075" height="0.383" transform="translate(153.255 93.899)" fill="#d4a470"/><rect width="6.075" height="0.765" transform="translate(153.255 97.04)" fill="#a55e00"/><rect width="6.075" height="0.383" transform="translate(153.255 96.657)" fill="#d4a470"/><rect width="6.075" height="0.765" transform="translate(153.255 99.798)" fill="#a55e00"/><rect width="6.075" height="0.383" transform="translate(153.255 99.415)" fill="#d4a470"/><rect width="6.075" height="0.765" transform="translate(153.255 102.556)" fill="#a55e00"/><rect width="6.075" height="0.383" transform="translate(153.255 102.173)" fill="#d4a470"/><rect width="6.075" height="0.765" transform="translate(153.255 105.314)" fill="#a55e00"/><rect width="6.075" height="0.383" transform="translate(153.255 104.931)" fill="#d4a470"/><rect width="6.075" height="0.765" transform="translate(153.255 108.072)" fill="#a55e00"/><rect width="6.075" height="0.383" transform="translate(153.255 107.689)" fill="#d4a470"/><rect width="6.075" height="0.765" transform="translate(153.255 110.83)" fill="#a55e00"/><rect width="6.075" height="0.383" transform="translate(153.255 110.447)" fill="#d4a470"/><rect width="6.075" height="0.765" transform="translate(153.255 113.588)" fill="#a55e00"/><rect width="6.075" height="0.383" transform="translate(153.255 113.205)" fill="#d4a470"/><rect width="6.075" height="0.765" transform="translate(153.255 116.346)" fill="#a55e00"/><rect width="6.075" height="0.383" transform="translate(153.255 115.963)" fill="#d4a470"/><rect width="6.075" height="0.765" transform="translate(153.255 119.104)" fill="#a55e00"/><rect width="6.075" height="0.383" transform="translate(153.255 118.721)" fill="#d4a470"/><rect width="6.075" height="0.765" transform="translate(153.255 121.862)" fill="#a55e00"/><rect width="6.075" height="0.383" transform="translate(153.255 121.479)" fill="#d4a470"/><g style="mix-blend-mode:multiply;isolation:isolate"><g clip-path="url(#i)"><path d="M176.855,81.354l-3.383,8.177v38.228h9.658l1.95-3.542Z" fill="#e7c7ca"/></g></g><rect width="8.225" height="42.863" transform="translate(176.855 81.354)" fill="#c0742e"/><rect width="6.075" height="40.334" transform="translate(177.93 82.619)" fill="#c4823a"/><rect width="6.075" height="0.765" transform="translate(177.93 82.619)" fill="#a55e00"/><rect width="6.075" height="0.765" transform="translate(177.93 86.008)" fill="#a55e00"/><rect width="6.075" height="0.383" transform="translate(177.93 85.625)" fill="#d4a470"/><rect width="6.075" height="0.765" transform="translate(177.93 88.766)" fill="#a55e00"/><rect width="6.075" height="0.383" transform="translate(177.93 88.384)" fill="#d4a470"/><rect width="6.075" height="0.765" transform="translate(177.93 91.524)" fill="#a55e00"/><rect width="6.075" height="0.383" transform="translate(177.93 91.142)" fill="#d4a470"/><rect width="6.075" height="0.765" transform="translate(177.93 94.282)" fill="#a55e00"/><rect width="6.075" height="0.383" transform="translate(177.93 93.899)" fill="#d4a470"/><rect width="6.075" height="0.765" transform="translate(177.93 97.04)" fill="#a55e00"/><rect width="6.075" height="0.383" transform="translate(177.93 96.657)" fill="#d4a470"/><rect width="6.075" height="0.765" transform="translate(177.93 99.798)" fill="#a55e00"/><rect width="6.075" height="0.383" transform="translate(177.93 99.415)" fill="#d4a470"/><rect width="6.075" height="0.765" transform="translate(177.93 102.556)" fill="#a55e00"/><rect width="6.075" height="0.383" transform="translate(177.93 102.173)" fill="#d4a470"/><rect width="6.075" height="0.765" transform="translate(177.93 105.314)" fill="#a55e00"/><rect width="6.075" height="0.383" transform="translate(177.93 104.931)" fill="#d4a470"/><rect width="6.075" height="0.765" transform="translate(177.93 108.072)" fill="#a55e00"/><rect width="6.075" height="0.383" transform="translate(177.93 107.689)" fill="#d4a470"/><rect width="6.075" height="0.765" transform="translate(177.93 110.83)" fill="#a55e00"/><rect width="6.075" height="0.383" transform="translate(177.93 110.447)" fill="#d4a470"/><rect width="6.075" height="0.765" transform="translate(177.93 113.588)" fill="#a55e00"/><rect width="6.075" height="0.383" transform="translate(177.93 113.205)" fill="#d4a470"/><rect width="6.075" height="0.765" transform="translate(177.93 116.346)" fill="#a55e00"/><rect width="6.075" height="0.383" transform="translate(177.93 115.963)" fill="#d4a470"/><rect width="6.075" height="0.765" transform="translate(177.93 119.104)" fill="#a55e00"/><rect width="6.075" height="0.383" transform="translate(177.93 118.721)" fill="#d4a470"/><rect width="6.075" height="0.765" transform="translate(177.93 121.862)" fill="#a55e00"/><rect width="6.075" height="0.383" transform="translate(177.93 121.479)" fill="#d4a470"/><path d="M174.883,141.765l4.782-10.116.815-19.356-3.884-6.259-33.458-4.5L115.354,92.95l-24-.27S76.855,97.1,77.3,97.372c.1.06-.866,14.4,1.319,15.929,7.705,5.379,29.359,5.5,29.359,5.5s14.41,24.353,14.757,25.048,23.93.613,23.93.613Z" fill="#de3d2c"/><g style="mix-blend-mode:multiply;isolation:isolate"><g clip-path="url(#j)"><path d="M124.372,131.779l-5.071,6.2-9.437-15.984-1.887-3.19-29.9-6.426-.487-3.185s-1.056-6.274-.416-7.655,25.878-.9,27.9.289,4.476,7.968,4.476,7.968Z" fill="#c4271b"/></g></g><path d="M144.9,132.447H116.041l6.949,12.019,17.417.29Z" fill="#a9211a"/><path d="M171.654,110.375,169.1,123.1l1.279,8.428,3.386,7.4L177.134,137l2.532-5.356.814-19.355-.814-1.313Z" fill="#e04737"/><path d="M143.949,103.791l-3.542,25.953,5.668-5.623.179-1.667,4.1-14.743Z" fill="#e04737"/><path d="M161.492,117.581s-5.427,4.474-5.427,5.149v1.293h8.529l3.788-1.569Z" fill="#c4271b"/><g style="mix-blend-mode:multiply;isolation:isolate"><g clip-path="url(#k)"><path d="M133.742,136.709l-4.572,7.612h44.591l-.861-4.475s-4.533-10.9-6.611-12.439-11.262-2.338-11.262-2.338l-10.351,2.26Z" fill="#c4271b"/></g></g><rect width="10.515" height="8.01" transform="translate(171.524 135.841)" fill="#ff5e45"/><path d="M180.3,116.641l-7.34-.244-1.3,6,5.628,8.752,2.383.5Z" fill="#424261"/><path d="M177.738,130.984l-5.628-8.753,1.265-5.82-.418-.014-1.3,6,5.628,8.753,2.384.5.01-.255Z" fill="#ff8470"/><path d="M179.963,124.574l-.052,1.233-6.219-.244-.793-1.233Zm-.248,5.909.052-1.233-3.861-.245.793,1.234Zm-5.312-3.816.793,1.234,4.617.244.052-1.233Zm-2.662-4.675-.087.4.535.833,7.821.244.052-1.233Zm1.016-4.676-.268,1.233,7.718.244.052-1.233Zm-.508,2.338-.268,1.233,8.127.244.052-1.233Z" fill="#ff5e45"/><path d="M176.138,129.366l3.614.229.014-.345-3.86-.245Z" fill="#ff8470"/><path d="M172.757,117.662l7.487.244.014-.346-7.5-.244-.268,1.233.075,0Z" fill="#ff8470"/><path d="M174.632,127.024l5.218.233.015-.345-5.462-.244Z" fill="#ff8470"/><path d="M171.981,120.887l.075,0,.193-.889,7.9.243.015-.345-7.911-.244Z" fill="#ff8470"/><path d="M173.127,124.684l6.822.236.014-.346-7.063-.244Z" fill="#ff8470"/><path d="M171.654,122.392l.056.087.031-.142,8.306.244.015-.345-8.321-.245Z" fill="#ff8470"/><path d="M136.117,138.928l-2.464-2.484,12.422-12.323h20.367l7.938,12.634-2.962,1.862-6.91-11H147.516Z" fill="#ff5e45"/><path d="M122.878,133.557l-18.461-30.323L79.4,101.928,65.192,113.721l-2.235-2.693L78.22,98.363l28.225,1.473,19.421,31.9Z" fill="#ff5e45"/><path d="M145.455,125.728h20.367l7.391,11.762,1.168-.734-7.939-12.635H146.075l-12.422,12.324.5.5Z" fill="#ff8470"/><path d="M77.6,99.969l28.225,1.474,18.875,31,1.166-.709-19.422-31.9L78.221,98.363,62.957,111.028l.537.647Z" fill="#ff8470"/><path d="M143.139,101.535s0,4.352,7.211,6.176,29.316,3.27,29.316,3.27l-3.07-4.947Z" fill="#ff8470"/><path d="M167.507,122.454h-3.879a2.819,2.819,0,0,1-2.7-3.627l.1-.35a2.822,2.822,0,0,1,2.465-2l4.077.145a.874.874,0,0,1,.809.872v4.087a.875.875,0,0,1-.875.875" fill="#ff745e"/><path d="M165.46,121.363a2.82,2.82,0,0,1-2.7-3.627l.105-.349a2.754,2.754,0,0,1,.455-.869,2.805,2.805,0,0,0-2.287,1.959l-.1.35a2.819,2.819,0,0,0,2.7,3.627h3.879a.875.875,0,0,0,.875-.875v-.216Z" fill="#ff5135"/><path d="M143.139,101.536l-3.938,10.84h-9.755L115.353,92.951l-18.919-.027,5.929-26.917.924-3.53H111c9.327.768,22.489,1.991,23.889,2.863,3.156,1.971,8.254,36.2,8.254,36.2" fill="#5baba2"/><path d="M114.118,69h-8.456l-3.93,20.821h12.527Z" fill="#a9e7cf"/><path d="M132.372,69H116.326l.205,19.526h12.107l4.317,8.4h5.356s-1.663-12.649-3.064-18.986A48.184,48.184,0,0,0,132.372,69" fill="#a9e7cf"/><path d="M140.236,99.423h-6.127l-4.939-9.608H115.32l-.235-22.338h19.024V65.071H104.89l.175-.924-2.588,1.325L96.433,92.924l3.2.007h14.65v.02h1.072l14.093,19.424H139.2l2.047-5.635Zm-40.3-8.128,4.5-23.818h9.673l.161,23.818Z" fill="#424261"/><path d="M132.721,65.954A50.192,50.192,0,0,1,136.73,77.7c1.6,7.249,4.518,29.036,4.518,29.036l1.891-5.2S140.09,81.168,138.6,75.185a58.51,58.51,0,0,0-3.171-9.594Z" fill="#de3d2c"/><path d="M137.353,62.154,113.27,60.807l-11.739.715-1.9,4.094,38.679.338Z" fill="#ff5e45"/><path d="M115.353,134.331A27.683,27.683,0,1,0,87.67,162.014a27.683,27.683,0,0,0,27.683-27.683" fill="#727289"/><path d="M113.27,134.331a25.6,25.6,0,1,0-25.6,25.6,25.6,25.6,0,0,0,25.6-25.6" fill="#424261"/><path d="M105.064,134.331A17.395,17.395,0,1,0,87.67,151.725a17.394,17.394,0,0,0,17.394-17.394" fill="#2a2a4d"/><path d="M170.448,145.767A16.247,16.247,0,1,0,154.2,162.014a16.247,16.247,0,0,0,16.247-16.247" fill="#727289"/><path d="M169.1,145.767A14.894,14.894,0,1,0,154.2,160.661,14.894,14.894,0,0,0,169.1,145.767" fill="#424261"/><path d="M163.774,145.767a9.573,9.573,0,1,0-9.573,9.573,9.573,9.573,0,0,0,9.573-9.573" fill="#2a2a4d"/><path d="M102.941,134.331A15.271,15.271,0,1,0,87.67,149.6a15.271,15.271,0,0,0,15.271-15.271" fill="#cd9000"/><path d="M85.383,123.179a2.663,2.663,0,1,0-1.288,3.539,2.663,2.663,0,0,0,1.288-3.539" fill="#2e2b27"/><path d="M77.616,128.934A2.663,2.663,0,1,0,79.5,132.2a2.661,2.661,0,0,0-1.883-3.262" fill="#2e2b27"/><path d="M77.032,138.583a2.663,2.663,0,1,0,3.709.654,2.662,2.662,0,0,0-3.709-.654" fill="#2e2b27"/><path d="M84.048,145.233a2.663,2.663,0,1,0,2.885-2.421,2.663,2.663,0,0,0-2.885,2.421" fill="#2e2b27"/><path d="M93.652,144.133a2.663,2.663,0,1,0,0-3.766,2.663,2.663,0,0,0,0,3.766" fill="#2e2b27"/><path d="M98.982,136.068a2.663,2.663,0,1,0-2.885-2.421,2.663,2.663,0,0,0,2.885,2.421" fill="#2e2b27"/><path d="M96.231,126.8a2.663,2.663,0,1,0-3.709.654,2.663,2.663,0,0,0,3.709-.654" fill="#2e2b27"/><path d="M98.041,134.385A10.371,10.371,0,1,0,87.67,144.756a10.371,10.371,0,0,0,10.371-10.371" fill="#f2c028"/><path d="M94.05,134.385a6.38,6.38,0,1,0-6.38,6.38,6.38,6.38,0,0,0,6.38-6.38" fill="#cd9000"/><path d="M90.333,134.385a2.663,2.663,0,1,0-2.663,2.663,2.663,2.663,0,0,0,2.663-2.663" fill="#ffcb2e"/><path d="M85.265,131.507a.814.814,0,1,0,.1,1.147.815.815,0,0,0-.1-1.147" fill="#2e2b27"/><path d="M83.919,134.377a.814.814,0,1,0,.943.66.813.813,0,0,0-.943-.66" fill="#2e2b27"/><path d="M85.253,137.254a.814.814,0,1,0,1.112-.3.813.813,0,0,0-1.112.3" fill="#2e2b27"/><path d="M88.314,138.081a.814.814,0,1,0,.487-1.044.815.815,0,0,0-.487,1.044" fill="#2e2b27"/><path d="M90.915,136.267a.814.814,0,1,0-.487-1.044.815.815,0,0,0,.487,1.044" fill="#2e2b27"/><path d="M91.2,133.109a.814.814,0,1,0-1.112-.3.814.814,0,0,0,1.112.3" fill="#2e2b27"/><path d="M88.96,130.863a.814.814,0,1,0-.943.66.814.814,0,0,0,.943-.66" fill="#2e2b27"/><path d="M161.992,145.767a7.791,7.791,0,1,0-7.791,7.791,7.791,7.791,0,0,0,7.791-7.791" fill="#cd9000"/><rect width="1.75" height="5.979" transform="translate(166.632 116.475)" fill="#ded9cb"/><rect width="0.875" height="5.979" transform="translate(166.632 116.475)" fill="#9db397"/><path d="M164.594,124.245H162.41l1.218-1.791h2.184Z" fill="#ff5e45"/><g style="mix-blend-mode:multiply;isolation:isolate"><g clip-path="url(#l)"><path d="M197.634,81.354l-3.383,8.177v38.228h9.658l1.95-3.542Z" fill="#e7c7ca"/></g></g><rect width="16.45" height="42.863" transform="translate(205.859 81.354)" fill="#f5a44f"/><rect width="13.768" height="39.678" transform="translate(207.203 82.942)" fill="#3b3944"/><path d="M220.971,82.942v4.584L207.2,113.838v-22.6l4.338-8.292Z" fill="#405166"/><path d="M220.971,101.644v15.972l-2.624,5H210Z" fill="#405166"/><rect width="1.737" height="39.678" transform="translate(213.216 82.947)" fill="#c0742e"/><rect width="13.765" height="1.194" transform="translate(207.202 102.189)" fill="#f5a44f"/><rect width="13.765" height="1.194" transform="translate(207.202 113.599)" fill="#f5a44f"/><rect width="13.765" height="1.194" transform="translate(207.202 91.047)" fill="#f5a44f"/><rect width="8.225" height="42.863" transform="translate(197.634 81.354)" fill="#c0742e"/><rect width="6.075" height="40.334" transform="translate(198.709 82.619)" fill="#c4823a"/><rect width="6.075" height="0.765" transform="translate(198.709 82.619)" fill="#a55e00"/><rect width="6.075" height="0.765" transform="translate(198.709 86.008)" fill="#a55e00"/><rect width="6.075" height="0.383" transform="translate(198.709 85.625)" fill="#d4a470"/><rect width="6.075" height="0.765" transform="translate(198.709 88.766)" fill="#a55e00"/><rect width="6.075" height="0.383" transform="translate(198.709 88.384)" fill="#d4a470"/><rect width="6.075" height="0.765" transform="translate(198.709 91.524)" fill="#a55e00"/><rect width="6.075" height="0.383" transform="translate(198.709 91.142)" fill="#d4a470"/><rect width="6.075" height="0.765" transform="translate(198.709 94.282)" fill="#a55e00"/><rect width="6.075" height="0.383" transform="translate(198.709 93.899)" fill="#d4a470"/><rect width="6.075" height="0.765" transform="translate(198.709 97.04)" fill="#a55e00"/><rect width="6.075" height="0.383" transform="translate(198.709 96.657)" fill="#d4a470"/><rect width="6.075" height="0.765" transform="translate(198.709 99.798)" fill="#a55e00"/><rect width="6.075" height="0.383" transform="translate(198.709 99.415)" fill="#d4a470"/><rect width="6.075" height="0.765" transform="translate(198.709 102.556)" fill="#a55e00"/><rect width="6.075" height="0.383" transform="translate(198.709 102.173)" fill="#d4a470"/><rect width="6.075" height="0.765" transform="translate(198.709 105.314)" fill="#a55e00"/><rect width="6.075" height="0.383" transform="translate(198.709 104.931)" fill="#d4a470"/><rect width="6.075" height="0.765" transform="translate(198.709 108.072)" fill="#a55e00"/><rect width="6.075" height="0.383" transform="translate(198.709 107.689)" fill="#d4a470"/><rect width="6.075" height="0.765" transform="translate(198.709 110.83)" fill="#a55e00"/><rect width="6.075" height="0.383" transform="translate(198.709 110.447)" fill="#d4a470"/><rect width="6.075" height="0.765" transform="translate(198.709 113.588)" fill="#a55e00"/><rect width="6.075" height="0.383" transform="translate(198.709 113.205)" fill="#d4a470"/><rect width="6.075" height="0.765" transform="translate(198.709 116.346)" fill="#a55e00"/><rect width="6.075" height="0.383" transform="translate(198.709 115.963)" fill="#d4a470"/><rect width="6.075" height="0.765" transform="translate(198.709 119.104)" fill="#a55e00"/><rect width="6.075" height="0.383" transform="translate(198.709 118.721)" fill="#d4a470"/><rect width="6.075" height="0.765" transform="translate(198.709 121.862)" fill="#a55e00"/><rect width="6.075" height="0.383" transform="translate(198.709 121.479)" fill="#d4a470"/><g style="mix-blend-mode:multiply;isolation:isolate"><g clip-path="url(#m)"><path d="M222.309,81.354l-3.383,8.177v38.228h9.658l1.95-3.542Z" fill="#e7c7ca"/></g></g><rect width="8.225" height="42.863" transform="translate(222.309 81.354)" fill="#c0742e"/><rect width="6.075" height="40.334" transform="translate(223.384 82.619)" fill="#c4823a"/><rect width="6.075" height="0.765" transform="translate(223.384 82.619)" fill="#a55e00"/><rect width="6.075" height="0.765" transform="translate(223.384 86.008)" fill="#a55e00"/><rect width="6.075" height="0.383" transform="translate(223.384 85.625)" fill="#d4a470"/><rect width="6.075" height="0.765" transform="translate(223.384 88.766)" fill="#a55e00"/><rect width="6.075" height="0.383" transform="translate(223.384 88.384)" fill="#d4a470"/><rect width="6.075" height="0.765" transform="translate(223.384 91.524)" fill="#a55e00"/><rect width="6.075" height="0.383" transform="translate(223.384 91.142)" fill="#d4a470"/><rect width="6.075" height="0.765" transform="translate(223.384 94.282)" fill="#a55e00"/><rect width="6.075" height="0.383" transform="translate(223.384 93.899)" fill="#d4a470"/><rect width="6.075" height="0.765" transform="translate(223.384 97.04)" fill="#a55e00"/><rect width="6.075" height="0.383" transform="translate(223.384 96.657)" fill="#d4a470"/><rect width="6.075" height="0.765" transform="translate(223.384 99.798)" fill="#a55e00"/><rect width="6.075" height="0.383" transform="translate(223.384 99.415)" fill="#d4a470"/><rect width="6.075" height="0.765" transform="translate(223.384 102.556)" fill="#a55e00"/><rect width="6.075" height="0.383" transform="translate(223.384 102.173)" fill="#d4a470"/><rect width="6.075" height="0.765" transform="translate(223.384 105.314)" fill="#a55e00"/><rect width="6.075" height="0.383" transform="translate(223.384 104.931)" fill="#d4a470"/><rect width="6.075" height="0.765" transform="translate(223.384 108.072)" fill="#a55e00"/><rect width="6.075" height="0.383" transform="translate(223.384 107.689)" fill="#d4a470"/><rect width="6.075" height="0.765" transform="translate(223.384 110.83)" fill="#a55e00"/><rect width="6.075" height="0.383" transform="translate(223.384 110.447)" fill="#d4a470"/><rect width="6.075" height="0.765" transform="translate(223.384 113.588)" fill="#a55e00"/><rect width="6.075" height="0.383" transform="translate(223.384 113.205)" fill="#d4a470"/><rect width="6.075" height="0.765" transform="translate(223.384 116.346)" fill="#a55e00"/><rect width="6.075" height="0.383" transform="translate(223.384 115.963)" fill="#d4a470"/><rect width="6.075" height="0.765" transform="translate(223.384 119.104)" fill="#a55e00"/><rect width="6.075" height="0.383" transform="translate(223.384 118.721)" fill="#d4a470"/><rect width="6.075" height="0.765" transform="translate(223.384 121.862)" fill="#a55e00"/><rect width="6.075" height="0.383" transform="translate(223.384 121.479)" fill="#d4a470"/><path d="M152.964,140.08a1.342,1.342,0,1,0-.649,1.783,1.341,1.341,0,0,0,.649-1.783" fill="#2e2b27"/><path d="M149.051,142.979a1.342,1.342,0,1,0,.949,1.643,1.341,1.341,0,0,0-.949-1.643" fill="#2e2b27"/><path d="M148.757,147.841a1.342,1.342,0,1,0,1.869.329,1.34,1.34,0,0,0-1.869-.329" fill="#2e2b27"/><path d="M152.292,151.191a1.342,1.342,0,1,0,1.453-1.22,1.342,1.342,0,0,0-1.453,1.22" fill="#2e2b27"/><path d="M157.13,150.637a1.341,1.341,0,1,0,0-1.9,1.341,1.341,0,0,0,0,1.9" fill="#2e2b27"/><path d="M159.816,146.574a1.342,1.342,0,1,0-1.453-1.22,1.342,1.342,0,0,0,1.453,1.22" fill="#2e2b27"/><path d="M158.43,141.9a1.342,1.342,0,1,0-1.869.33,1.342,1.342,0,0,0,1.869-.33" fill="#2e2b27"/><path d="M159.342,145.725a5.225,5.225,0,1,0-5.225,5.225,5.225,5.225,0,0,0,5.225-5.225" fill="#f2c028"/><path d="M157.331,145.725a3.214,3.214,0,1,0-3.214,3.214,3.214,3.214,0,0,0,3.214-3.214" fill="#cd9000"/><path d="M155.458,145.725a1.341,1.341,0,1,0-1.342,1.342,1.342,1.342,0,0,0,1.342-1.342" fill="#ffcb2e"/><path d="M152.9,144.275a.41.41,0,1,0,.051.578.41.41,0,0,0-.051-.578" fill="#2e2b27"/><path d="M152.227,145.722a.41.41,0,1,0,.474.333.41.41,0,0,0-.474-.333" fill="#2e2b27"/><path d="M152.9,147.171a.41.41,0,1,0,.56-.15.41.41,0,0,0-.56.15" fill="#2e2b27"/><path d="M154.441,147.587a.41.41,0,1,0,.245-.526.41.41,0,0,0-.245.526" fill="#2e2b27"/><path d="M155.751,146.674a.41.41,0,1,0-.245-.526.411.411,0,0,0,.245.526" fill="#2e2b27"/><path d="M155.894,145.083a.41.41,0,1,0-.56-.15.41.41,0,0,0,.56.15" fill="#2e2b27"/><path d="M154.766,143.951a.41.41,0,1,0-.475.333.41.41,0,0,0,.475-.333" fill="#2e2b27"/></g></g></g></g></svg>