<svg xmlns="http://www.w3.org/2000/svg" xmlns:xlink="http://www.w3.org/1999/xlink" width="400.5" height="261" viewBox="0 0 400.5 261"><defs><clipPath id="a"><rect width="400" height="229.652" fill="none"/></clipPath><clipPath id="b"><path d="M1293.375,522.968s5.845,2.168,7.453,7.179c0,0-14.25.169-16.144.51a.013.013,0,0,1-.006.009c-.257.173-7.113,4.983-9.849,7.834a55.373,55.373,0,0,1,8.522-8.24c-.544.137-17.962,4.632-25,8.14a59.455,59.455,0,0,1,7.7-1.367s-6.208,2.678-10.229,3.986a30.552,30.552,0,0,0-6.283,2.733s-1.385-1.653-5.044-1.594l-.655,1.367s3.577-1.367,5.19.77a59.523,59.523,0,0,0-5.289,3.444c-1.532,1.253-5.015,4.61-5.015,4.61s-3.875-3.357-3.431-5.693a8.275,8.275,0,0,0-3.367,2.961s3.2,3.233,6.406,4.268a9.1,9.1,0,0,0-5.5.97s-.391.569,1.216,1.571a17.874,17.874,0,0,1,5.553-1.854s-4.869,3.758-6.769,5.238a117.6,117.6,0,0,1-10.8,7.442,42.681,42.681,0,0,1,5.722-3.794,16.6,16.6,0,0,0-8.949,5.233h1.946a50.028,50.028,0,0,0-5.944,7.857h38.577s4.454-7.256,10.848-9.26a19.458,19.458,0,0,0-8.9,9.26h21.042s4.477-2.619,6.231-2.619a12.5,12.5,0,0,0-3.308,2.619h62.15a17.636,17.636,0,0,0-6.02-3.926,26.815,26.815,0,0,1,10.5,3.926h14.806s-7.99-9.374-10.714-10.7-16.173-8.162-16.173-8.162,8.475-3.644,14.127-3.188l.292-1.667a36.6,36.6,0,0,0-15.291,4.167c.2-.191,6.622-6.345,6.815-9.633h-1.853s.1,4.323-6.032,9.479l.017-.027c.222-.373,2.022-3.48,2.022-4.974,0,0-10.813-12.3-14.127-13.209s-5.652-1.672-5.652-1.672a17.351,17.351,0,0,1,8.476-.683l.491-1.289s-3.413-.761-8.768,1.061c0,0-.783-4.4-3.413-5.311a8.619,8.619,0,0,1,.491,2.961s-3.314-3.493-7.306-3.644c0,0,14.9-5.466,20.066-5.315l-.584-1.672s-11.836,1.161-20.312,6.682c0,0,2.046-4.728,5.044-7.06,0,0-4.676-.966-7.166,1.193a20.534,20.534,0,0,1,.66,5.867s-2.484-6.778-6.868-8.768Z" transform="translate(-1214.806 -520.978)" fill="none"/></clipPath><linearGradient id="c" x1="-4.017" y1="1.14" x2="-4.014" y2="1.14" gradientUnits="objectBoundingBox"><stop offset="0" stop-color="#ffd64c"/><stop offset="1" stop-color="#ff9824"/></linearGradient><clipPath id="d"><path d="M1258.352,575.062a59.455,59.455,0,0,1,7.7-1.367s-6.208,2.678-10.229,3.986a30.548,30.548,0,0,0-6.283,2.733s-1.385-1.653-5.044-1.594l-.655,1.367s3.577-1.367,5.19.77a59.523,59.523,0,0,0-5.289,3.444c-1.532,1.253-5.015,4.61-5.015,4.61s-3.875-3.357-3.431-5.694a8.275,8.275,0,0,0-3.367,2.961s3.2,3.233,6.406,4.268a9.1,9.1,0,0,0-5.5.97s-.391.569,1.216,1.571a17.873,17.873,0,0,1,5.553-1.854s-4.869,3.758-6.769,5.238a117.591,117.591,0,0,1-10.8,7.442,42.689,42.689,0,0,1,5.722-3.794,16.6,16.6,0,0,0-8.949,5.233h1.946a50.028,50.028,0,0,0-5.944,7.857h38.577s4.478-7.292,10.9-9.278a19.339,19.339,0,0,0-8.943,9.278h21.042s4.477-2.619,6.231-2.619a12.5,12.5,0,0,0-3.308,2.619h59.958l-14.612-1.48a149.376,149.376,0,0,0-15.525-2.446,17.136,17.136,0,0,1,5.734,1.649c-7.306,0-18.7-.569-18.7-.569a62.783,62.783,0,0,1,12.129-3.53c-8.622-.341-18.558,3.53-18.558,3.53-2.192-.683-7.891-7.06-7.891-7.06-1.847-.442-4.828,1.908-5,2.045.841-1.708,3.536-3.412,3.536-3.412-2.157-.674-11.111-7.525-11.392-7.739a35.873,35.873,0,0,0,14.461.929c-5.407-.66-14.466-5.944-14.466-5.944,6.283-6.377,13.151-12.394,13.151-12.394a28.839,28.839,0,0,0-6.576,4.168c1.292-2.491,8.89-13.291,9.13-13.628-.257.173-7.113,4.983-9.849,7.834a55.374,55.374,0,0,1,8.522-8.24c-.544.137-17.962,4.632-25,8.14" transform="translate(-1214.806 -566.922)" fill="none"/></clipPath><linearGradient id="e" x1="-2.142" y1="1.24" x2="-2.14" y2="1.24" gradientUnits="objectBoundingBox"><stop offset="0" stop-color="#f36830"/><stop offset="1" stop-color="#faa42c"/></linearGradient><clipPath id="f"><path d="M1688.182,676.141a37.94,37.94,0,0,0,8.282.988s-8.692,4.568-14.414,5.124c3.121-.232,18.769-1.5,22.7-3.539l.017-.027c.222-.373,2.022-3.48,2.022-4.974,0,0-13.058,2.961-18.611,2.428" transform="translate(-1682.05 -673.713)" fill="none"/></clipPath><linearGradient id="g" x1="-21.806" y1="3.911" x2="-21.793" y2="3.911" xlink:href="#e"/><clipPath id="h"><path d="M1575.367,664.987a29.518,29.518,0,0,0,8.573.531,40.185,40.185,0,0,1-17.146-7.022s3.8,5.5,8.573,6.491" transform="translate(-1566.794 -658.496)" fill="none"/></clipPath><linearGradient id="i" x1="-25.668" y1="5.488" x2="-25.652" y2="5.488" xlink:href="#e"/><clipPath id="j"><path d="M1628.229,623.711a65.37,65.37,0,0,0,13.152,1.063s-18.12-3.416-23.478-5.542a25.489,25.489,0,0,0,10.326,4.479" transform="translate(-1617.903 -619.232)" fill="none"/></clipPath><linearGradient id="k" x1="-26.03" y1="4.716" x2="-26.014" y2="4.716" xlink:href="#e"/><clipPath id="l"><path d="M1734.1,741.107c5.943-.835,11.4-6.149,11.4-6.149-5.358,3.113-11.4,6.149-11.4,6.149" transform="translate(-1734.105 -734.958)" fill="none"/></clipPath><linearGradient id="m" x1="-37.461" y1="6.628" x2="-37.439" y2="6.628" xlink:href="#e"/><clipPath id="n"><path d="M1652.884,725.368l-17.354,65.515-2.459,9.281h46.672s12.293-32,21.708-65l.005,0c.568-1.986,1.122-3.982,1.666-5.968,0,0-25.63-3.876-46.134-3.876-1.394,0-2.767.018-4.1.056" transform="translate(-1633.071 -725.312)" fill="none"/></clipPath><linearGradient id="o" x1="-4.71" y1="1.11" x2="-4.707" y2="1.11" gradientUnits="objectBoundingBox"><stop offset="0" stop-color="#f58d2f"/><stop offset="1" stop-color="#f26e3f"/></linearGradient><clipPath id="p"><rect width="400" height="229.651" fill="none"/></clipPath><clipPath id="q"><rect width="68.379" height="65.004" fill="none"/></clipPath><clipPath id="r"><path d="M1701.45,774.053c-9.414,33.008-21.708,65-21.708,65h-46.672l2.459-9.281,2.354-3.242s21.966.21,28.649,0c0,0,28.778-39.191,34.917-52.482" transform="translate(-1633.071 -774.053)" fill="none"/></clipPath><linearGradient id="s" x1="-4.825" y1="1.127" x2="-4.822" y2="1.127" xlink:href="#o"/><clipPath id="t"><rect width="50.238" height="3.876" fill="none"/></clipPath><clipPath id="u"><path d="M1781.37,729.188h-17.807l-32.43-3.819c21-.6,50.238,3.819,50.238,3.819" transform="translate(-1731.132 -725.312)" fill="none"/></clipPath><linearGradient id="v" x1="-6.962" y1="18.923" x2="-6.958" y2="18.923" xlink:href="#o"/><clipPath id="w"><path d="M1187.69,726.029l-.023.129-4.421,9.219v-9.219l-113.9,3.251c.664,3.681,1.384,7.362,2.144,11,.988,4.755,2.043,9.448,3.117,13.983.229.974.458,1.934.692,2.888,1.437,5.915,2.893,11.525,4.278,16.624q.336,1.231.664,2.42c.859,3.136,1.685,6.049,2.449,8.684l0,0c2.726,9.434,4.669,15.373,4.669,15.373h95.878a144.872,144.872,0,0,0,5.7-15.229c.988-3.07,1.939-6.264,2.85-9.5.344-1.213.678-2.435,1.007-3.657,1.618-6,3.1-12.059,4.4-17.731.306-1.322.6-2.626.883-3.9,3.108-14,4.975-24.777,4.975-24.777Z" transform="translate(-1069.35 -725.59)" fill="none"/></clipPath><linearGradient id="x" x1="-1.616" y1="1.11" x2="-1.614" y2="1.11" gradientUnits="objectBoundingBox"><stop offset="0" stop-color="#8c2a00"/><stop offset="1" stop-color="#b0382c"/></linearGradient><clipPath id="z"><rect width="59.7" height="2.42" fill="none"/></clipPath><clipPath id="aa"><path d="M1179.688,966.532l-59.036.606q-.329-1.189-.664-2.42Z" transform="translate(-1119.988 -964.718)" fill="none"/></clipPath><linearGradient id="ab" x1="-3.79" y1="14.353" x2="-3.787" y2="14.353" xlink:href="#x"/><clipPath id="ac"><rect width="42.615" height="3.657" fill="none"/></clipPath><clipPath id="ad"><path d="M1512.076,955.289c-.33,1.222-.664,2.444-1.007,3.657l-41.606-.525Z" transform="translate(-1469.463 -955.289)" fill="none"/></clipPath><linearGradient id="ae" x1="-6.967" y1="10.02" x2="-6.962" y2="10.02" xlink:href="#x"/><clipPath id="af"><rect width="17.812" height="3.024" fill="none"/></clipPath><clipPath id="ag"><path d="M1113.2,867.809s-9.94,1.666-17.12,2.688c-.234-.955-.463-1.914-.692-2.888,4.683-.4,17.812.2,17.812.2" transform="translate(-1095.39 -867.473)" fill="none"/></clipPath><linearGradient id="ah" x1="-12.425" y1="16.638" x2="-12.414" y2="16.638" xlink:href="#o"/><clipPath id="ai"><path d="M1633.071,728.4v9.219l3-6.266.1-2.953Z" transform="translate(-1633.071 -728.402)" fill="none"/></clipPath><linearGradient id="aj" x1="-106.168" y1="8.947" x2="-106.103" y2="8.947" gradientUnits="objectBoundingBox"><stop offset="0" stop-color="#77142b"/><stop offset="1" stop-color="#4d031a"/></linearGradient><clipPath id="al"><rect width="106.246" height="15.373" fill="none"/></clipPath><clipPath id="am"><path d="M1241.665,1019.845a144.942,144.942,0,0,1-5.7,15.229h-95.878s-1.943-5.939-4.669-15.373c.42.191,22.849,10.517,47.679,10.517,0,0-9.31-2.315-15.277-3.428,0,0,52.888-2.516,73.846-6.946" transform="translate(-1135.417 -1019.702)" fill="none"/></clipPath><linearGradient id="an" x1="-2.159" y1="1.537" x2="-2.157" y2="1.537" xlink:href="#x"/><clipPath id="ao"><rect width="113.895" height="9.219" fill="none"/></clipPath><clipPath id="ap"><path d="M1069.6,733.011h85.525l24.984-2.313,3.138,6.922V728.4l-113.9,3.251Z" transform="translate(-1069.35 -728.402)" fill="none"/></clipPath><linearGradient id="aq" x1="-1.891" y1="6.299" x2="-1.89" y2="6.299" xlink:href="#o"/><clipPath id="ar"><rect width="126.59" height="14.184" fill="none"/></clipPath><clipPath id="as"><path d="M1206.55,808.894c-.282,1.275-.578,2.578-.883,3.9l-104.777.325-17.812-.2c-1.074-4.535-2.129-9.228-3.118-13.983l15.439,8.574c12.747,1.962,94.26,1.518,111.151,1.384" transform="translate(-1079.96 -798.935)" fill="none"/></clipPath><linearGradient id="at" x1="-1.724" y1="4.811" x2="-1.722" y2="4.811" xlink:href="#x"/><clipPath id="au"><rect width="41.633" height="3.903" fill="none"/></clipPath><clipPath id="av"><path d="M1703.021,848.216s41.223.111,40.745,0-41.629,3.9-41.629,3.9Z" transform="translate(-1702.138 -848.214)" fill="none"/></clipPath><linearGradient id="aw" x1="-8.168" y1="14.554" x2="-8.163" y2="14.554" xlink:href="#o"/><clipPath id="ax"><rect width="12.939" height="3.657" fill="none"/></clipPath><clipPath id="ay"><path d="M1676.4,955.289l11.93,1.093-12.938,2.564Z" transform="translate(-1675.39 -955.289)" fill="none"/></clipPath><linearGradient id="az" x1="-26.164" y1="10.02" x2="-26.148" y2="10.02" xlink:href="#o"/><clipPath id="ba"><rect width="36.412" height="1.413" fill="none"/></clipPath><clipPath id="bb"><path d="M1766.907,964.339h-26.938l-8.837,1.413h35.775l.638-1.413Z" transform="translate(-1731.132 -964.339)" fill="none"/></clipPath><linearGradient id="bc" x1="-9.606" y1="24.637" x2="-9.6" y2="24.637" xlink:href="#o"/><clipPath id="bd"><path d="M.288,795.812c-.2.137-.285.5-.288,1.025v.042a16.849,16.849,0,0,0,.57,3.52c0,.006,0,.006.006.012,1.095,4.434,3.481,10.6,4.785,11.7,0,0,4.151-5.172,5.264-6.666-.658,1.427-3.9,8.56-4.034,10.356,0,0,5.227,4.92,7.995,6.3,0,0,7.994-20.909,9.224-27.674a35.76,35.76,0,0,0,.572-5.99v-.018a30.21,30.21,0,0,0-.467-6.033s-2.208-3.591-3.69-3.69H20.2c-1.565,0-12.723,12.064-19.917,17.115" transform="translate(0 -778.697)" fill="none"/></clipPath><linearGradient id="be" y1="1.666" x2="0.008" y2="1.666" gradientUnits="objectBoundingBox"><stop offset="0" stop-color="#ff995b"/><stop offset="1" stop-color="#e84e2f"/></linearGradient><clipPath id="bg"><rect width="23.805" height="33.663" fill="none"/></clipPath><clipPath id="bh"><path d="M26.658,826.912a35.783,35.783,0,0,1-.572,5.99c-1.23,6.765-9.224,27.673-9.224,27.673-2.767-1.384-7.994-6.3-7.994-6.3.135-1.8,3.376-8.929,4.034-10.356-1.113,1.494-5.264,6.666-5.264,6.666-1.3-1.1-3.69-7.263-4.785-11.7.185.492,4.969,5.11,8.936,2.8,4-2.331,7.072-7.25,7.072-7.25s-.308,5.836-2.146,9.526c.271-.234,8.843-7.749,9.944-17.053" transform="translate(-2.853 -826.912)" fill="none"/></clipPath><linearGradient id="bi" x1="-0.024" y1="1.859" x2="-0.016" y2="1.859" gradientUnits="objectBoundingBox"><stop offset="0" stop-color="#ffaa92"/><stop offset="1" stop-color="#a344a0"/></linearGradient><clipPath id="bj"><path d="M100.091,654.013s.205,3.69,3.69,3.69c0,0,9.634-20.089,12.914-32.388l-3.075-2.87s-5.74,18.859-13.529,31.568" transform="translate(-100.091 -622.445)" fill="none"/></clipPath><linearGradient id="bk" x1="-1.218" y1="2.947" x2="-1.206" y2="2.947" gradientUnits="objectBoundingBox"><stop offset="0" stop-color="#9a4d3b"/><stop offset="1" stop-color="#5a1f0f"/></linearGradient><clipPath id="bl"><path d="M1039.334,742.6s4.92,16.3,6,18.6c0,0-3.382,7.687-3.229,9.532s5.688,7.072,6,9.224c0,0-3.844,3.536-4,5.381a5.222,5.222,0,0,0,2.767-.769s-2.614,6.777-3.536,10c0,0,16.872.388,22.6,0,4.026-.273,16.143,0,16.143,0s-5.689-9.077-11.069-11.383l1.537-.307s-5.688-4.92-11.531-6.15c0,0-1.537-3.075-1.384-4.766,0,0,3.382-2.921,3.382-4.151s-3.075-10.762-3.075-12.607,11.426-32.027,13.48-34.9c1.919-2.694,4.508-6.562,4.508-6.562Z" transform="translate(-1039.334 -713.747)" fill="none"/></clipPath><linearGradient id="bm" x1="-4.913" y1="1.052" x2="-4.908" y2="1.052" gradientUnits="objectBoundingBox"><stop offset="0" stop-color="#350012"/><stop offset="1" stop-color="#680013"/></linearGradient><clipPath id="bn"><path d="M521.14,811.938c0,3.843,13.324,21.985,13.324,21.985a32.172,32.172,0,0,0-3.69,9.021l2.46-2.684c-1.64,4.492-3.69,15.039-3.69,15.039,6.969.057,44.892,0,44.892,0s-4.51-8.872-6.56-12.354-17.629-13.121-18.654-15.786,4.1-27.673,4.1-27.673L527.7,789.85s-6.56,18.244-6.56,22.088" transform="translate(-521.14 -789.85)" fill="none"/></clipPath><linearGradient id="bo" x1="-1.976" y1="1.07" x2="-1.972" y2="1.07" xlink:href="#bm"/><clipPath id="bp"><path d="M403.727,927.57c5.842,2.665,14.247-13.529,14.247-13.529L406.8,910.549s-8.917,14.356-3.075,17.021" transform="translate(-401.743 -910.549)" fill="none"/></clipPath><linearGradient id="bq" x1="-2.678" y1="1.798" x2="-2.67" y2="1.798" gradientUnits="objectBoundingBox"><stop offset="0" stop-color="#a53a4a"/><stop offset="1" stop-color="#d8514b"/></linearGradient><clipPath id="br"><path d="M362.866,824.32a29.855,29.855,0,0,0,14.353,15.774h.006a33.911,33.911,0,0,0,12.084,3.437s-1.07,6.7.67,9.514a2.334,2.334,0,0,0,1.79,1.205c4.1.412,9.667-9.04,9.667-9.04l.006-.006c.32-.111,10.448-3.69,13.584-5.91.006,0,.006.006.012.006.418.086,10.412,2.2,13.216-.006,1.033-.812.449-2.214-.726-3.672a36.076,36.076,0,0,0-6.039-5.381s5.172-4.077,7.607-9.4a99.99,99.99,0,0,0-30.558-4.744c-11.027,0-23.711,1.925-35.673,8.225" transform="translate(-362.866 -816.095)" fill="none"/></clipPath><linearGradient id="bs" x1="-2.179" y1="1.178" x2="-2.174" y2="1.178" xlink:href="#bq"/><clipPath id="bu"><rect width="13.32" height="16.617" fill="none"/></clipPath><clipPath id="bv"><path d="M510.335,922.76c.4,1.414-1.753,7.392-1.808,7.558l-.006.006s-5.565,9.452-9.667,9.04a2.335,2.335,0,0,1-1.789-1.205h.006c7.539-2.54,13.265-15.4,13.265-15.4" transform="translate(-497.064 -922.76)" fill="none"/></clipPath><linearGradient id="bw" x1="-7.346" y1="2.54" x2="-7.332" y2="2.54" xlink:href="#bi"/><clipPath id="bx"><rect width="66.232" height="23.998" fill="none"/></clipPath><clipPath id="by"><path d="M377.225,840.093h-.006a29.854,29.854,0,0,1-14.353-15.774c30.748-16.192,66.232-3.481,66.232-3.481-2.435,5.326-7.607,9.4-7.607,9.4-17.4-3.585-43.9,9.667-44.265,9.852" transform="translate(-362.866 -816.095)" fill="none"/></clipPath><linearGradient id="bz" x1="-1.107" y1="2.276" x2="-1.104" y2="2.276" xlink:href="#bi"/><clipPath id="ca"><rect width="17.852" height="4.698" fill="none"/></clipPath><clipPath id="cb"><path d="M617.386,912.649c1.175,1.458,1.759,2.86.726,3.671-2.8,2.208-12.8.092-13.216.006-.006,0-.006-.006-.012-.006a19.447,19.447,0,0,1-4.09-3.7c12.914,5.123,16.592.025,16.592.025" transform="translate(-600.794 -912.624)" fill="none"/></clipPath><linearGradient id="cc" x1="-6.615" y1="7.666" x2="-6.604" y2="7.666" xlink:href="#bi"/><clipPath id="cd"><path d="M295.738,256.018c-5.436,3.825-11.949,7.841-17.649,9.79-12.607,4.3-20.909,6.15-27.366,6.457s-42.74-2.767-51.349-5.227-16-13.947-21.069-13.738c-3.567.147-15.214,19.273-18.289,32.187-1.082,4.557-2.823,10.3-4.477,16.044-3.038,10.528-5.818,21.05-3.825,24.236,3.075,4.92,25.816,38.435,26.591,41.817s-9.987,9.021-8.142,14.347a12.664,12.664,0,0,0,1.113,2.263c3.468,5.787,12.336,14.79,11.8,17.213a72.431,72.431,0,0,0-11.377,8.406,19.553,19.553,0,0,0,5.381-1.23s-6.408,7.7-7.638,13.585H197.43a57.622,57.622,0,0,0-1.746-8.874,22.633,22.633,0,0,1,4.92,8.874h14.347a19.241,19.241,0,0,0-11.069-12.354s-5.9-16.813-9.1-21.118l40.87-22.342s1.187.363,3.192.959c9.673,2.909,38.46,11.4,45.083,11.648a36.484,36.484,0,0,0,14.605-2.7l.154-.067s-7.293,7.38-4.262,10.147,6.721,11.377,5.8,14.144a51.3,51.3,0,0,1-3.69,7.38s-3.69,1.076-5.381,2.767a9.542,9.542,0,0,0,4,.154s-5.688,8.929-6.15,11.383c0,0,10.666,4.606,15.251,4.62h.036c.137,0,.269,0,.394-.014,4.3-.307,10.454-.615,10.454-.615a77.449,77.449,0,0,0-.923-8.917s4.766,4.92,5.535,7.994c0,0,8.456.154,11.377-1.076,0,0-4.3-9.071-7.687-12.146h1.537s-7.072-10.762-10.3-13.375c0,0,8.456-11.377,8.456-12.914s-.923-6.918-.923-6.918,4.547-3.426,8.917-7.072c5.839-4.872,21.447-15.989,24.752-17.68,2.211-1.131,13.222-12.711,13.222-12.711a128.057,128.057,0,0,0-4.225-23.19v-.006a48.682,48.682,0,0,0-3.77-9.4l-15.682-35.563L307.3,247.052s-4.981,4.335-11.561,8.966" transform="translate(-151.041 -247.052)" fill="none"/></clipPath><linearGradient id="ce" x1="-0.231" y1="0.895" x2="-0.23" y2="0.895" xlink:href="#bk"/><clipPath id="cg"><rect width="73.365" height="96.398" fill="none"/></clipPath><clipPath id="ch"><path d="M940.577,341.344c-4.92,4.3-18.449,3.487-40.557-16.758s-32.808-68.568-32.808-68.568c6.58-4.631,11.561-8.966,11.561-8.966L916.9,273.188l15.682,35.563a48.692,48.692,0,0,1,3.77,9.4v.006a128.069,128.069,0,0,1,4.225,23.19" transform="translate(-867.212 -247.052)" fill="none"/></clipPath><linearGradient id="ci" x1="-1.279" y1="1.562" x2="-1.278" y2="1.562" gradientUnits="objectBoundingBox"><stop offset="0" stop-color="#662d8e"/><stop offset="1" stop-color="#ee5a29"/></linearGradient><clipPath id="cj"><path d="M359.973,1071.256h6.248l-6.251-9.384-5.23-1.384Z" transform="translate(-354.74 -1060.488)" fill="none"/></clipPath><linearGradient id="ck" x1="-6.243" y1="1.429" x2="-6.225" y2="1.429" gradientUnits="objectBoundingBox"><stop offset="0" stop-color="#35051a"/><stop offset="1" stop-color="#4d031a"/></linearGradient><clipPath id="cl"><path d="M946.5,1076.566l3.382,11.511,4.612-.923-2.306-10.588Z" transform="translate(-946.501 -1076.566)" fill="none"/></clipPath><linearGradient id="cm" x1="-23.92" y1="1.055" x2="-23.895" y2="1.055" xlink:href="#ck"/><clipPath id="co"><rect width="100.052" height="120.637" fill="none"/></clipPath><clipPath id="cp"><path d="M249.285,585.561c-2-.6-13.628-4.042-13.628-4.042l-40.87,22.342c3.2,4.3,9.1,21.118,9.1,21.118a19.242,19.242,0,0,1,11.07,12.354H200.6a22.633,22.633,0,0,0-4.92-8.874,57.62,57.62,0,0,1,1.746,8.874H169.443c1.23-5.885,7.638-13.584,7.638-13.584a19.559,19.559,0,0,1-5.381,1.23,72.446,72.446,0,0,1,11.377-8.406c.535-2.423-8.333-11.426-11.8-17.213,0,0,8.216,6.347,13.338,7.374s-2.577-21.727-6.309-23.983c-.775-3.382-23.516-36.9-26.591-41.818-1.993-3.186.787-13.708,3.825-24.236-1.469,9.274,8.782,30.963,13.087,35.391s37.31,21.026,48.994,22.255c11.61,1.224-13.006-51.356-13.314-52.019.6.559,44.09,37.361,46.531,49.562.664,3.321,0,7.579-1.552,13.676" transform="translate(-151.041 -516.696)" fill="none"/></clipPath><linearGradient id="cq" x1="-0.031" y1="0.96" x2="-0.029" y2="0.96" xlink:href="#ci"/><clipPath id="cr"><rect width="126.83" height="119.636" fill="none"/></clipPath><clipPath id="cs"><path d="M533.782,649.379h1.537s-7.072-10.762-10.3-13.375c0,0,8.456-11.377,8.456-12.914,0,0-14.913,6.254-16.346,2.767s-1.23-14.144-1.23-14.144C511.859,609.9,502.812,589.63,502.53,589l0,.008c-1.374-3.988-2.419-6.809-2.419-6.809s.923,11.992-22.446,2.81c-23.184-9.1-62.413-40.01-63.028-40.489.554.6,35.994,38.958,39.044,45.058,3.075,6.149.308,9.224-7.687,14.144,0,0,40.28,12.3,48.275,12.607a36.311,36.311,0,0,0,14.741-2.761l.018-.006s-7.293,7.38-4.262,10.147,6.722,11.377,5.8,14.144a51.329,51.329,0,0,1-3.69,7.38S503.188,646.3,501.5,648a9.655,9.655,0,0,0,3.985.16c.006-.006.006-.006.012-.006l-.006.006c-.172.271-5.688,8.96-6.143,11.377,0,0,11.377,4.914,15.682,4.606s10.454-.615,10.454-.615a77.454,77.454,0,0,0-.922-8.917s4.766,4.92,5.535,7.995c0,0,8.456.154,11.377-1.076,0,0-4.3-9.07-7.687-12.145" transform="translate(-414.639 -544.516)" fill="none"/></clipPath><linearGradient id="ct" x1="-0.343" y1="0.842" x2="-0.342" y2="0.842" xlink:href="#ci"/><clipPath id="cu"><rect width="46.891" height="60.654" fill="none"/></clipPath><clipPath id="cv"><path d="M1045.135,622.158a.231.231,0,0,0-.03.043c-.591.639-9.329,10.294-13.191,12.668-4,2.46-19.783,13.222-24.752,17.68a82.057,82.057,0,0,1-8.917,7.072s2.306-19.525,6-23.215c0,0,3.69-22.446,0-31.978,0,0,25.521,12.773,30.748,13.308,5.172.523,5.9-18.357,5.922-18.769a128.062,128.062,0,0,1,4.225,23.19" transform="translate(-998.244 -598.968)" fill="none"/></clipPath><linearGradient id="cw" x1="-3.151" y1="2.125" x2="-3.148" y2="2.125" xlink:href="#bk"/><clipPath id="cx"><path d="M249.76,1040.8s-6.408,7.7-7.638,13.584h27.987a57.618,57.618,0,0,0-1.746-8.874,22.633,22.633,0,0,1,4.92,8.874h14.347a19.242,19.242,0,0,0-11.069-12.354l1.027,4.2c-2.306.154-13.529-4.2-13.529-4.2-1.076,2.1-6,4.2-6,4.2-1.384-2.767,0-6.765,0-6.765a5.9,5.9,0,0,0-1.264-.12,26.806,26.806,0,0,0-7.038,1.454" transform="translate(-242.122 -1039.349)" fill="none"/></clipPath><linearGradient id="cy" x1="-1.075" y1="1.307" x2="-1.071" y2="1.307" gradientUnits="objectBoundingBox"><stop offset="0" stop-color="#8c4d60"/><stop offset="1" stop-color="#52385e"/></linearGradient><clipPath id="cz"><path d="M854.33,1053.413c-2.613-.6-7.226-5.86-7.226-5.86a45.315,45.315,0,0,0-7.072,2l-.006.006c-.173.271-5.689,8.96-6.144,11.377,0,0,10.666,4.607,15.251,4.62h.036c.137,0,.269,0,.394-.014,4.3-.307,10.454-.615,10.454-.615a77.455,77.455,0,0,0-.922-8.917s4.766,4.92,5.535,7.995c0,0,8.456.154,11.377-1.076,0,0-4.3-9.071-7.687-12.146-2.614-1.691-11.531-3.229-11.531-3.229,0,1.384-2.46,5.86-2.46,5.86" transform="translate(-833.883 -1047.553)" fill="none"/></clipPath><linearGradient id="da" x1="-4" y1="1" x2="-3.995" y2="1" xlink:href="#cy"/><clipPath id="db"><path d="M1196.734,55.525l1.085,2.559s27.383,8.656,31.3-6.517c3.836-14.837-7.552-24.145-8.063-24.546a.033.033,0,0,0-.014-.017c-6.739,14.825-24.31,28.521-24.31,28.521" transform="translate(-1196.734 -27.004)" fill="none"/></clipPath><linearGradient id="dc" x1="-6.675" y1="5.642" x2="-6.669" y2="5.642" xlink:href="#be"/><clipPath id="dd"><path d="M1196.734,55.525l1.085,2.559c2.894-.262,14.827-3.279,21.3-13.95,4.817-7.936,2.193-16.868,1.934-17.113a.033.033,0,0,0-.014-.017c-6.739,14.825-24.31,28.521-24.31,28.521" transform="translate(-1196.734 -27.004)" fill="none"/></clipPath><linearGradient id="de" x1="-8.887" y1="7.213" x2="-8.88" y2="7.213" xlink:href="#bk"/><clipPath id="df"><path d="M1474.588,392.537l2,.923,14.759-10.608s8.917,2,11.531,5.3c0,0,3.536-4.074,3.382-6.688l-15.989-3.536Z" transform="translate(-1474.588 -377.932)" fill="none"/></clipPath><linearGradient id="dg" x1="-9.362" y1="9.872" x2="-9.355" y2="9.872" gradientUnits="objectBoundingBox"><stop offset="0" stop-color="#ff9824"/><stop offset="1" stop-color="#ffd64c"/></linearGradient><clipPath id="dh"><path d="M1488.28,335.482a122.477,122.477,0,0,0-10.79,23.369h1.412s9.714-17.726,11.684-20.755l17.992-2.46-1.388-1.076s-13.837.154-18.91.923" transform="translate(-1477.49 -334.559)" fill="none"/></clipPath><linearGradient id="di" x1="-9.602" y1="6.671" x2="-9.596" y2="6.671" xlink:href="#dg"/><clipPath id="dj"><path d="M1161.047,17.462c-1.3,3.333-4.225,7.331-6.709,10.368-2.251,2.767-4.151,4.748-4.151,4.748.1,8.142,10.018,10.989,10.018,10.989,2.165-4.963,2.558-12.435,2.306-18.154-.206-4.664-.84-8.153-1.291-8.152-.061,0-.12.065-.173.2" transform="translate(-1150.187 -17.261)" fill="none"/></clipPath><linearGradient id="dk" x1="-18.479" y1="8.597" x2="-18.463" y2="8.597" gradientUnits="objectBoundingBox"><stop offset="0" stop-color="#ffb787"/><stop offset="1" stop-color="#f46e4d"/></linearGradient><clipPath id="dm"><rect width="12.391" height="18.154" fill="none"/></clipPath><clipPath id="dn"><path d="M1160.2,75.764s-9.919-2.847-10.018-10.989c0,0,1.9-1.98,4.151-4.748.9,1.341,2.411,2.023,4.975.394a15.475,15.475,0,0,0,3.2-2.811c.252,5.719-.141,13.191-2.306,18.154" transform="translate(-1150.187 -57.61)" fill="none"/></clipPath><linearGradient id="do" x1="-18.478" y1="12.009" x2="-18.462" y2="12.009" xlink:href="#bi"/><clipPath id="dp"><path d="M1260.631,443.2c-9.839,4.3-47.561,15.577-47.561,15.577.147.572,1.587,6.02,7.9,10.239a29.138,29.138,0,0,0,11.161,4.286c15.989,2.9,43.871-15.7,43.871-22.9a10.274,10.274,0,0,0-1.285-5.252,7.6,7.6,0,0,0-6.969-3.665,18.055,18.055,0,0,0-7.12,1.716" transform="translate(-1213.07 -441.484)" fill="none"/></clipPath><linearGradient id="dq" x1="-3.501" y1="3.065" x2="-3.498" y2="3.065" gradientUnits="objectBoundingBox"><stop offset="0" stop-color="#c44e54"/><stop offset="1" stop-color="#f76555"/></linearGradient><clipPath id="ds"><rect width="61.649" height="27.532" fill="none"/></clipPath><clipPath id="dt"><path d="M1274.721,445.149c-2.325,3.444-10.528,7.213-25.982,11.531-15.946,4.452-24.525,9.926-27.766,12.336-6.316-4.219-7.755-9.667-7.9-10.239,0,0,37.722-11.272,47.561-15.577,7.078-3.093,11.93-1.74,14.089,1.95" transform="translate(-1213.071 -441.484)" fill="none"/></clipPath><linearGradient id="du" x1="-3.976" y1="4.906" x2="-3.972" y2="4.906" gradientUnits="objectBoundingBox"><stop offset="0" stop-color="#ffb9a2"/><stop offset="1" stop-color="#b5494f"/></linearGradient><clipPath id="dv"><path d="M941.547,93.43c-9.224.818-33,6.765-37.513,13.941a8.173,8.173,0,0,0-.553,1.039c-4.268,9.311-3.069,39.45-1.495,42.211,1.642,2.872,18.037,6.562,35.256,4.92,0,0,9.636,18.972,11.893,23.117s10.042,7.017,20.294,3.53,15.989-7.995,30.951-7.995,19.679-11.475,19.267-15.989-2.46-11.475-1.636-17.219-.615-24.8-19.064-15.577l-22.963-5.738a24.3,24.3,0,0,0-4.661-13.019c-4.151-5.842-8.2-7.245-12.964-7.484l-3.69-5.738a30.979,30.979,0,0,0-5.621-.363c-1.944,0-4.428.091-7.5.363" transform="translate(-900.541 -93.067)" fill="none"/></clipPath><linearGradient id="dw" x1="-1.953" y1="1.815" x2="-1.951" y2="1.815" xlink:href="#bk"/><clipPath id="dx"><path d="M953.156,93.43c-9.224.818-33,6.765-37.513,13.941a8.181,8.181,0,0,0-.553,1.039s5.744-5.547,9.144-5.344,32.513,9.839,43.785,22.446,11.832,13.123,11.832,13.123,29.567.283,28.5-11.444c0,0-20.355-.855-30.853-8.136S965.873,96.61,966.279,93.43a30.979,30.979,0,0,0-5.621-.363c-1.944,0-4.428.091-7.5.363" transform="translate(-915.09 -93.067)" fill="none"/></clipPath><linearGradient id="dy" x1="-1.96" y1="4.598" x2="-1.958" y2="4.598" gradientUnits="objectBoundingBox"><stop offset="0" stop-color="#ffd3b4"/><stop offset="1" stop-color="#fc7749"/></linearGradient><clipPath id="dz"><path d="M1195.695,240.871c-.154.006-.307.018-.467.031a13.522,13.522,0,0,0-1.488.191,18.041,18.041,0,0,0-2.152.535,28.4,28.4,0,0,0-4.194,1.716c-6.15,4.717-7.792,8.2-16.2,8.2-4.526,0-10.245-.418-15.134.037-4.188.381-7.761,1.4-9.464,3.862-3.69,5.326.006,21.223-3.893,24.8s-7.791,9.538-5.123,16.352c2.251,4.145,10.042,7.017,20.294,3.53,1.543-.523,2.989-1.07,4.373-1.624,7.816-3.118,13.873-6.371,26.578-6.371,14.962,0,19.679-11.475,19.267-15.989s-2.46-11.475-1.636-17.219c.609-4.286-.031-16-8.08-17.816a9.246,9.246,0,0,0-1.286-.2c-.309-.03-.631-.045-.962-.045q-.214,0-.434.008" transform="translate(-1136.701 -240.863)" fill="none"/></clipPath><linearGradient id="ea" x1="-2.894" y1="2.701" x2="-2.891" y2="2.701" xlink:href="#bq"/><clipPath id="ec"><rect width="45.87" height="57.636" fill="none"/></clipPath><clipPath id="ed"><path d="M1289.72,292.128c-12.705,0-18.762,3.253-26.578,6.371,40.581-33.884,29.34-56.872,29.34-56.872a17.963,17.963,0,0,1,2.152-.535,13.593,13.593,0,0,1,1.488-.191c.16-.012.314-.024.467-.031a10.367,10.367,0,0,1,1.4.037,9.217,9.217,0,0,1,1.286.2c8.05,1.82,8.689,13.529,8.08,17.816-.824,5.744,1.23,12.711,1.636,17.219s-4.3,15.989-19.267,15.989" transform="translate(-1263.141 -240.863)" fill="none"/></clipPath><linearGradient id="ee" x1="-5.517" y1="3.14" x2="-5.513" y2="3.14" xlink:href="#bi"/><clipPath id="ef"><rect width="71.416" height="60.579" fill="none"/></clipPath><clipPath id="eg"><path d="M1188.825,293.084c-14.962,0-20.706,4.514-30.951,7.994s-18.043.615-20.294-3.53c-2.669-6.814,1.224-12.773,5.122-16.352s.2-19.476,3.893-24.8c1.7-2.46,5.277-3.481,9.464-3.862-3.85,1.347-7.509,2.051-8.9,7.586-1.985,7.911,1.384,10.93-.461,18s1.674,15.1,6.918,15.835c8.745,1.23,15.989-6.611,31.056-6.15s21.985-11.377,20.294-16.911c-1.556-5.1,3.413-26.308-6.592-28.836,8.05,1.82,8.689,13.529,8.08,17.816-.824,5.744,1.23,12.711,1.636,17.219s-4.3,15.989-19.267,15.989" transform="translate(-1136.7 -242.06)" fill="none"/></clipPath><linearGradient id="eh" x1="-3.096" y1="2.892" x2="-3.094" y2="2.892" xlink:href="#bi"/><clipPath id="ei"><rect width="37.051" height="16.585" fill="none"/></clipPath><clipPath id="ej"><path d="M1216.451,307.217c-12.27,7.454,10.147,17.812,27.981,10.367s-11.531-20.36-27.981-10.367" transform="translate(-1212.937 -303.569)" fill="none"/></clipPath><linearGradient id="ek" x1="-4.068" y1="6.282" x2="-4.065" y2="6.282" gradientUnits="objectBoundingBox"><stop offset="0" stop-color="#fff"/><stop offset="1"/></linearGradient><clipPath id="el"><path d="M1217.5,331.005a9.6,9.6,0,0,0-1.533,1.264c-5,4.985-1.361,15.263,3.5,15.831,1.863.216,3.9-.994,5.7-4.47,3.4-6.555.3-13.709-4.422-13.708a5.851,5.851,0,0,0-3.243,1.083" transform="translate(-1213.571 -329.922)" fill="none"/></clipPath><linearGradient id="em" x1="-10.85" y1="7.28" x2="-10.841" y2="7.28" gradientUnits="objectBoundingBox"><stop offset="0" stop-color="#8f1d32"/><stop offset="1" stop-color="#510931"/></linearGradient><clipPath id="en"><path d="M1233.015,331.005a3.142,3.142,0,0,0,1.018-.223c3.252-1.273,5.625,2.347,5.583,9.315-.024,3.655-2.392,6.307-4.637,8,1.863.216,3.9-.994,5.7-4.47,3.4-6.555.3-13.709-4.422-13.708a5.852,5.852,0,0,0-3.243,1.083" transform="translate(-1233.015 -329.922)" fill="none"/></clipPath><linearGradient id="eo" x1="-15.405" y1="7.766" x2="-15.392" y2="7.766" xlink:href="#ck"/><clipPath id="ep"><path d="M1394.084,280.314a3.9,3.9,0,0,0-2.115,2.478c-1.759,4.588,4.508,15.719,8.911,16.094,1.088.1,2.06-.467,2.773-1.949,2.829-5.9-3.974-16.787-8.631-16.786a2.683,2.683,0,0,0-.938.164" transform="translate(-1391.665 -280.15)" fill="none"/></clipPath><linearGradient id="eq" x1="-17.191" y1="9.188" x2="-17.178" y2="9.188" xlink:href="#em"/><clipPath id="er"><path d="M1403.638,280.314a13.22,13.22,0,0,1,6.389,7.379c2.977,7.5,2.755,9.864.406,11.192,1.088.1,2.06-.467,2.773-1.949,2.829-5.9-3.974-16.787-8.631-16.786a2.683,2.683,0,0,0-.938.164" transform="translate(-1403.638 -280.15)" fill="none"/></clipPath><linearGradient id="es" x1="-22.875" y1="9.188" x2="-22.859" y2="9.188" xlink:href="#ck"/><clipPath id="et"><path d="M1015.827,8.2c-2.383,4-2.645,14.843-2.645,14.843a27.814,27.814,0,0,0,20.812-4.24l1.64-6.5a42.5,42.5,0,0,0-4.833,4.715s.63-6.252,1.143-7.379,3.69-4.407,3.69-4.407a36.384,36.384,0,0,0-5.535,2.46c-2.255,1.332-6.867,11.116-6.867,11.116s-4.919-8.041-4.572-9.578,5.8-9.224,5.8-9.224-6.252,4.2-8.635,8.2" transform="translate(-1013.182 -0.003)" fill="none"/></clipPath><linearGradient id="eu" x1="-9.118" y1="9.048" x2="-9.109" y2="9.048" xlink:href="#bk"/><clipPath id="ev"><path d="M844.615,98.78a29.714,29.714,0,0,0,2.644,8.954,19.8,19.8,0,0,0,15.141,11.34,12.271,12.271,0,0,0,5.565-12.3A48.522,48.522,0,0,1,857,104.056c-7.283-2.772-10.973-6.344-12.069-6.343-.327,0-.423.317-.316,1.067" transform="translate(-844.573 -97.713)" fill="none"/></clipPath><linearGradient id="ew" x1="-6.819" y1="9.827" x2="-6.811" y2="9.827" xlink:href="#dk"/><clipPath id="ey"><rect width="20.85" height="15.017" fill="none"/></clipPath><clipPath id="ez"><path d="M873.008,144.125a19.8,19.8,0,0,1-15.141-11.34,14.12,14.12,0,0,0,6.224,1.181c4.618-.2,4.514-2.693,3.517-4.858a48.535,48.535,0,0,0,10.965,2.718,12.271,12.271,0,0,1-5.565,12.3" transform="translate(-857.867 -129.108)" fill="none"/></clipPath><linearGradient id="fa" x1="-7.786" y1="13.556" x2="-7.777" y2="13.556" xlink:href="#bi"/><clipPath id="fb"><path d="M740.933,136.735c-.314.492-7.165,11.752,2.158,22.274,9.532,10.762,31.363-5.381,31.363-5.381v-2.4s-21.524-4.975-33.515-14.507a.027.027,0,0,0-.006.018" transform="translate(-738.213 -136.717)" fill="none"/></clipPath><linearGradient id="fc" x1="-3.557" y1="6.111" x2="-3.552" y2="6.111" xlink:href="#be"/><clipPath id="fd"><path d="M751.627,136.735c-.142.283.928,8.284,8.462,12.978,10.13,6.312,22.293,4.684,25.06,3.915v-2.4s-21.524-4.975-33.515-14.507a.027.027,0,0,0-.006.018" transform="translate(-751.616 -136.717)" fill="none"/></clipPath><linearGradient id="fe" x1="-4.507" y1="10.463" x2="-4.501" y2="10.463" xlink:href="#bk"/><clipPath id="ff"><path d="M1176.471,122.719s-6.254.108.664,11.56,16.549,15.043,16.961,8.943c.391-5.783-4.929-20.639-15.788-20.641a12.478,12.478,0,0,0-1.837.138" transform="translate(-1173.879 -122.581)" fill="none"/></clipPath><linearGradient id="fg" x1="-9.622" y1="7.661" x2="-9.613" y2="7.661" gradientUnits="objectBoundingBox"><stop offset="0" stop-color="#dee5f3"/><stop offset="1" stop-color="#fff"/></linearGradient><clipPath id="fh"><path d="M1201.939,159.484c-5.432,2.33.484,13.43,4.817,9.744,2.785-2.369-.346-9.947-3.843-9.948a2.447,2.447,0,0,0-.974.2" transform="translate(-1199.76 -159.28)" fill="none"/></clipPath><linearGradient id="fi" x1="-18.347" y1="14.481" x2="-18.331" y2="14.481" xlink:href="#ck"/><clipPath id="fj"><path d="M1176.234,129.058s12.463-.68,15.366-1.807c0,0-4.375-9.467-13.366-10.608a8.648,8.648,0,0,0-1.087-.074c-7.665,0-.912,12.488-.912,12.488" transform="translate(-1173.486 -116.57)" fill="none"/></clipPath><linearGradient id="fk" x1="-9.615" y1="12.55" x2="-9.606" y2="12.55" xlink:href="#bk"/><clipPath id="fl"><path d="M1187.088,164.768l.66,1.213s10.843-.56,12.227-1.213c2.779-1.311,7.328.424,7.328.424a5.619,5.619,0,0,0,3.533-2.148c-2.309.186-7.018,0-7.018,0l2.167-.723.6-1c-5.535,1.435-19.5,3.447-19.5,3.447" transform="translate(-1187.088 -161.321)" fill="none"/></clipPath><linearGradient id="fm" x1="-10.099" y1="42.288" x2="-10.091" y2="42.288" xlink:href="#ck"/><clipPath id="fo"><rect width="29.877" height="37.479" fill="none"/></clipPath><clipPath id="fp"><path d="M973.707,194.8c-3.671,10.894-1.025,23.061,11.377,24.189S1002.713,205.1,1002,196.13s-7.372-16.832-16.052-13.962-10.544,7.608-12.237,12.63" transform="translate(-972.183 -181.567)" fill="none"/></clipPath><linearGradient id="fq" x1="-5.945" y1="4.783" x2="-5.939" y2="4.783" xlink:href="#bk"/><clipPath id="fr"><path d="M991.953,191.8c-11.757,4.273-13.17,28.569,3.024,31,7.519,1.127,12.972-7.5,14.071-16.122,1.034-8.11-1.783-16.221-10.351-16.222a19.914,19.914,0,0,0-6.744,1.348" transform="translate(-982.974 -190.455)" fill="none"/></clipPath><linearGradient id="fs" x1="-6.211" y1="5.711" x2="-6.205" y2="5.711" xlink:href="#fg"/><clipPath id="ft"><path d="M1047.795,213.648c-2.092,12.843,9.78,9.047,10.342,3.941.652-5.924-2.47-9.073-5.473-9.073-2.183,0-4.3,1.663-4.869,5.131" transform="translate(-1047.547 -208.517)" fill="none"/></clipPath><linearGradient id="fu" x1="-16.033" y1="10.431" x2="-16.018" y2="10.431" xlink:href="#ck"/><clipPath id="fv"><path d="M982.671,153.88c-10.089,5.765-13.068,14.554-15.118,22.139,0,0,28.448-6.15,29.393-10.249,0,0-5.253-12.616-11.666-12.617a5.192,5.192,0,0,0-2.609.728" transform="translate(-967.553 -153.152)" fill="none"/></clipPath><linearGradient id="fw" x1="-5.811" y1="7.145" x2="-5.804" y2="7.145" xlink:href="#bk"/><clipPath id="fx"><path d="M959.452,214.435a150.869,150.869,0,0,1-25.572,6.355l1.742,1.9,5.791-1.23s-5.073,3.023-8.609,3.228a19.409,19.409,0,0,0,4.356,2.511s7.994-4.92,10.711-6.765c0,0,15.682-3.126,22.7-10.3l-.717-.871a53.051,53.051,0,0,1-10.4,5.176" transform="translate(-932.804 -209.259)" fill="none"/></clipPath><linearGradient id="fy" x1="-4.99" y1="10.446" x2="-4.985" y2="10.446" xlink:href="#ck"/></defs><g transform="translate(-180 -6781)"><rect width="400" height="261" transform="translate(180.5 6781)" fill="#fff"/><rect width="400" height="33" rx="16.5" transform="translate(180.5 7004)" fill="#78b62e"/><g transform="translate(180 6796.674)"><g clip-path="url(#a)"><g transform="translate(245.443 105.26)"><g clip-path="url(#b)"><rect width="70.496" height="150.936" transform="translate(-5.768 54.964) rotate(-84.009)" fill="url(#c)"/></g></g><g transform="translate(245.443 114.542)"><g clip-path="url(#d)"><rect width="116.445" height="124.392" transform="matrix(0.654, -0.756, 0.756, 0.654, -22.904, 26.462)" fill="url(#e)"/></g></g><g transform="translate(339.846 136.119)"><g clip-path="url(#f)"><rect width="15.79" height="26.171" transform="matrix(0.31, -0.951, 0.951, 0.31, -2.517, 7.72)" fill="url(#g)"/></g></g><g transform="translate(316.559 133.044)"><g clip-path="url(#h)"><rect width="12.425" height="18.619" transform="translate(-2.204 6.759) rotate(-71.939)" fill="url(#i)"/></g></g><g transform="translate(326.885 125.111)"><g clip-path="url(#j)"><rect width="12.764" height="24.11" transform="matrix(0.31, -0.951, 0.951, 0.31, -1.701, 5.215)" fill="url(#k)"/></g></g><g transform="translate(350.363 148.493)"><g clip-path="url(#l)"><rect width="9.38" height="12.743" transform="translate(-1.812 5.558) rotate(-71.939)" fill="url(#m)"/></g></g><g transform="translate(329.95 146.544)"><g clip-path="url(#n)"><rect width="70.05" height="74.852" transform="translate(0 0)" fill="url(#o)"/></g></g><g transform="translate(0 0.001)"><g clip-path="url(#p)"><g transform="translate(329.95 156.391)" opacity="0.5" style="mix-blend-mode:multiply;isolation:isolate"><g clip-path="url(#q)"><g transform="translate(0 0)"><g clip-path="url(#r)"><rect width="68.379" height="65.004" transform="translate(0 0)" fill="url(#s)"/></g></g></g></g><g transform="translate(349.762 146.543)" opacity="0.5" style="mix-blend-mode:screen;isolation:isolate"><g clip-path="url(#t)"><g transform="translate(0 0)"><g clip-path="url(#u)"><rect width="50.237" height="4.421" transform="translate(0 -0.545)" fill="url(#v)"/></g></g></g></g></g></g><g transform="translate(216.054 146.6)"><g clip-path="url(#w)"><rect width="133.708" height="74.796" transform="translate(0 0)" fill="url(#x)"/></g></g><g transform="translate(0 0.001)"><g clip-path="url(#p)"><g transform="translate(226.286 194.914)" opacity="0.5" style="mix-blend-mode:multiply;isolation:isolate"><g clip-path="url(#z)"><g transform="translate(0)"><g clip-path="url(#aa)"><rect width="59.7" height="2.42" transform="translate(0)" fill="url(#ab)"/></g></g></g></g><g transform="translate(296.894 193.009)" opacity="0.5" style="mix-blend-mode:multiply;isolation:isolate"><g clip-path="url(#ac)"><g transform="translate(0.001 0)"><g clip-path="url(#ad)"><rect width="42.613" height="3.657" transform="translate(0 0)" fill="url(#ae)"/></g></g></g></g><g transform="translate(221.316 175.266)" opacity="0.5" style="mix-blend-mode:screen;isolation:isolate"><g clip-path="url(#af)"><g transform="translate(0 0)"><g clip-path="url(#ag)"><rect width="17.812" height="3.284" transform="translate(0 -0.26)" fill="url(#ah)"/></g></g></g></g></g></g><g transform="translate(329.95 147.168)"><g clip-path="url(#ai)"><rect width="3.108" height="9.219" transform="translate(0)" fill="url(#aj)"/></g></g><g transform="translate(0 0.001)"><g clip-path="url(#p)"><g transform="translate(229.403 206.023)" opacity="0.5" style="mix-blend-mode:multiply;isolation:isolate"><g clip-path="url(#al)"><g transform="translate(-0.001)"><g clip-path="url(#am)"><rect width="106.248" height="15.373" fill="url(#an)"/></g></g></g></g><g transform="translate(216.054 147.168)" opacity="0.5" style="mix-blend-mode:screen;isolation:isolate"><g clip-path="url(#ao)"><g clip-path="url(#ap)"><rect width="114.159" height="13.428" transform="translate(-0.341 0.013) rotate(-2.121)" fill="url(#aq)"/></g></g></g><g transform="translate(218.198 161.418)" opacity="0.5" style="mix-blend-mode:multiply;isolation:isolate"><g clip-path="url(#ar)"><g transform="translate(0 0)"><g clip-path="url(#as)"><rect width="126.59" height="14.184" transform="translate(0 0)" fill="url(#at)"/></g></g></g></g><g transform="translate(343.905 171.375)" opacity="0.5" style="mix-blend-mode:multiply;isolation:isolate"><g clip-path="url(#au)"><g transform="translate(0 0)"><g clip-path="url(#av)"><rect width="42.106" height="4.012" transform="translate(0 -0.109)" fill="url(#aw)"/></g></g></g></g><g transform="translate(338.5 193.009)" opacity="0.5" style="mix-blend-mode:multiply;isolation:isolate"><g clip-path="url(#ax)"><g clip-path="url(#ay)"><rect width="12.938" height="3.657" fill="url(#az)"/></g></g></g><g transform="translate(349.762 194.837)" opacity="0.5" style="mix-blend-mode:multiply;isolation:isolate"><g clip-path="url(#ba)"><g transform="translate(0)"><g clip-path="url(#bb)"><rect width="36.412" height="1.413" transform="translate(0 0)" fill="url(#bc)"/></g></g></g></g></g></g><g transform="translate(0 157.33)"><g clip-path="url(#bd)"><rect width="24.425" height="43.405" fill="url(#be)"/></g></g><g transform="translate(0 0.001)"><g clip-path="url(#p)"><g transform="translate(0.576 167.071)" opacity="0.5" style="mix-blend-mode:multiply;isolation:isolate"><g clip-path="url(#bg)"><g transform="translate(0)"><g clip-path="url(#bh)"><rect width="23.805" height="33.663" transform="translate(0)" fill="url(#bi)"/></g></g></g></g></g></g><g transform="translate(20.223 125.76)"><g clip-path="url(#bj)"><rect width="16.604" height="35.258" transform="translate(0 0)" fill="url(#bk)"/></g></g><g transform="translate(209.99 144.207)"><g clip-path="url(#bl)"><rect width="42.74" height="81.213" transform="translate(0 0)" fill="url(#bm)"/></g></g><g transform="translate(105.293 159.583)"><g clip-path="url(#bn)"><rect width="53.297" height="65.505" transform="translate(0 0)" fill="url(#bo)"/></g></g><g transform="translate(81.169 183.97)"><g clip-path="url(#bp)"><rect width="27.49" height="27.605" transform="matrix(0.55, -0.835, 0.835, 0.55, -12.9, 13.731)" fill="url(#bq)"/></g></g><g transform="translate(73.314 164.886)"><g clip-path="url(#br)"><rect width="39.769" height="67.112" transform="translate(-0.701 38.554) rotate(-88.958)" fill="url(#bs)"/></g></g><g transform="translate(0 0.001)"><g clip-path="url(#p)"><g transform="translate(100.428 186.436)" opacity="0.5" style="mix-blend-mode:multiply;isolation:isolate"><g clip-path="url(#bu)"><g transform="translate(0 0)"><g clip-path="url(#bv)"><rect width="13.671" height="17.016" transform="translate(0 0)" fill="url(#bw)"/></g></g></g></g><g transform="translate(73.314 164.885)" opacity="0.5" style="mix-blend-mode:multiply;isolation:isolate"><g clip-path="url(#bx)"><g transform="translate(0 0)"><g clip-path="url(#by)"><rect width="66.232" height="31.966" transform="translate(0 -7.967)" fill="url(#bz)"/></g></g></g></g><g transform="translate(121.386 184.388)" opacity="0.5" style="mix-blend-mode:multiply;isolation:isolate"><g clip-path="url(#ca)"><g clip-path="url(#cb)"><rect width="18.35" height="5.904" transform="translate(0)" fill="url(#cc)"/></g></g></g></g></g><g transform="translate(30.517 49.915)"><g clip-path="url(#cd)"><rect width="189.968" height="227.683" transform="translate(-9.86 179.33) rotate(-87.274)" fill="url(#ce)"/></g></g><g transform="translate(0 0.001)"><g clip-path="url(#p)"><g transform="translate(175.214 49.914)" opacity="0.5" style="mix-blend-mode:multiply;isolation:isolate"><g clip-path="url(#cg)"><g clip-path="url(#ch)"><rect width="119.083" height="122.791" transform="matrix(0.777, -0.63, 0.63, 0.777, -48.234, 39.109)" fill="url(#ci)"/></g></g></g></g></g><g transform="translate(71.673 214.264)"><g clip-path="url(#cj)"><rect width="11.481" height="10.768" fill="url(#ck)"/></g></g><g transform="translate(191.234 217.512)"><g clip-path="url(#cl)"><rect width="7.995" height="11.511" fill="url(#cm)"/></g></g><g transform="translate(0 0.001)"><g clip-path="url(#p)"><g transform="translate(30.517 104.394)" opacity="0.5" style="mix-blend-mode:multiply;isolation:isolate"><g clip-path="url(#co)"><g transform="translate(0 0)"><g clip-path="url(#cp)"><rect width="150.951" height="141.033" transform="translate(-44.954 101.965) rotate(-66.833)" fill="url(#cq)"/></g></g></g></g><g transform="translate(83.775 110.015)" opacity="0.5" style="mix-blend-mode:multiply;isolation:isolate"><g clip-path="url(#cr)"><g transform="translate(0 0)"><g clip-path="url(#cs)"><rect width="174.511" height="174.455" transform="matrix(0.711, -0.703, 0.703, 0.711, -59.961, 59.28)" fill="url(#ct)"/></g></g></g></g><g transform="translate(201.688 121.016)" opacity="0.5" style="mix-blend-mode:multiply;isolation:isolate"><g clip-path="url(#cu)"><g clip-path="url(#cv)"><rect width="61.659" height="48.198" transform="matrix(0.022, -1, 1, 0.022, -1.318, 60.625)" fill="url(#cw)"/></g></g></g></g></g><g transform="translate(48.919 209.993)"><g clip-path="url(#cx)"><rect width="45.507" height="15.039" transform="translate(0)" fill="url(#cy)"/></g></g><g transform="translate(168.48 211.65)"><g clip-path="url(#cz)"><rect width="42.125" height="18.001" fill="url(#da)"/></g></g><g transform="translate(241.791 5.456)"><g clip-path="url(#db)"><rect width="36.223" height="39.737" transform="translate(0 0)" fill="url(#dc)"/></g></g><g transform="translate(241.791 5.456)"><g clip-path="url(#dd)"><rect width="27.207" height="31.08" transform="translate(0 0)" fill="url(#de)"/></g></g><g transform="translate(297.93 76.358)"><g clip-path="url(#df)"><rect width="31.824" height="15.528" fill="url(#dg)"/></g></g><g transform="translate(298.516 67.595)"><g clip-path="url(#dh)"><rect width="31.089" height="24.291" transform="translate(0 0)" fill="url(#di)"/></g></g><g transform="translate(232.387 3.487)"><g clip-path="url(#dj)"><rect width="12.576" height="26.307" transform="translate(0 -0.001)" fill="url(#dk)"/></g></g><g transform="translate(0 0.001)"><g clip-path="url(#p)"><g transform="translate(232.387 11.639)" opacity="0.5" style="mix-blend-mode:multiply;isolation:isolate"><g clip-path="url(#dm)"><g transform="translate(-0.001 0)"><g clip-path="url(#dn)"><rect width="12.576" height="18.154" transform="translate(0 0)" fill="url(#do)"/></g></g></g></g></g></g><g transform="translate(245.092 89.199)"><g clip-path="url(#dp)"><rect width="69.13" height="47.978" transform="matrix(0.974, -0.225, 0.225, 0.974, -7.606, 1.755)" fill="url(#dq)"/></g></g><g transform="translate(0 0.001)"><g clip-path="url(#p)"><g transform="translate(245.092 89.198)" opacity="0.5" style="mix-blend-mode:multiply;isolation:isolate"><g clip-path="url(#ds)"><g transform="translate(0 0)"><g clip-path="url(#dt)"><rect width="61.65" height="28.909" transform="translate(0 -1.377)" fill="url(#du)"/></g></g></g></g></g></g><g transform="translate(181.948 18.804)"><g clip-path="url(#dv)"><rect width="98.251" height="125.114" transform="translate(-5.728 92.398) rotate(-87.274)" fill="url(#dw)"/></g></g><g transform="translate(184.887 18.804)"><g clip-path="url(#dx)"><rect width="94.329" height="45.852" transform="translate(0 0)" fill="url(#dy)"/></g></g><g transform="translate(229.662 48.665)"><g clip-path="url(#dz)"><rect width="77.984" height="67.961" transform="translate(-6.366 0.336) rotate(-4.194)" fill="url(#ea)"/></g></g><g transform="translate(0 0.001)"><g clip-path="url(#p)"><g transform="translate(255.208 48.664)" opacity="0.5" style="mix-blend-mode:multiply;isolation:isolate"><g clip-path="url(#ec)"><g transform="translate(0 0)"><g clip-path="url(#ed)"><rect width="46.257" height="57.646" transform="translate(0 -0.01)" fill="url(#ee)"/></g></g></g></g><g transform="translate(229.662 48.906)" opacity="0.5" style="mix-blend-mode:multiply;isolation:isolate"><g clip-path="url(#ef)"><g transform="translate(0)"><g clip-path="url(#eg)"><rect width="73.593" height="62.505" transform="translate(-1.789 0)" fill="url(#eh)"/></g></g></g></g><g transform="translate(245.066 61.333)" opacity="0.5" style="mix-blend-mode:screen;isolation:isolate"><g clip-path="url(#ei)"><g transform="translate(-0.001 0)"><g clip-path="url(#ej)"><rect width="58.085" height="27.806" transform="translate(-8.756 -6.345)" fill="url(#ek)"/></g></g></g></g></g></g><g transform="translate(245.193 66.658)"><g clip-path="url(#el)"><rect width="22.148" height="22.684" transform="translate(-7.679 1.526) rotate(-16.744)" fill="url(#em)"/></g></g><g transform="translate(249.122 66.658)"><g clip-path="url(#en)"><rect width="16.011" height="21.197" transform="translate(-5.189 1.148) rotate(-16.744)" fill="url(#eo)"/></g></g><g transform="translate(281.176 56.602)"><g clip-path="url(#ep)"><rect width="16.272" height="18.835" transform="translate(-1.455 -0.001)" fill="url(#eq)"/></g></g><g transform="translate(283.595 56.602)"><g clip-path="url(#er)"><rect width="12.398" height="18.835" transform="translate(0 -0.001)" fill="url(#es)"/></g></g><g transform="translate(204.706 0.001)"><g clip-path="url(#et)"><rect width="22.452" height="25.382" transform="translate(0 0)" fill="url(#eu)"/></g></g><g transform="translate(170.64 19.742)"><g clip-path="url(#ev)"><rect width="25.013" height="21.361" transform="translate(-0.065 0)" fill="url(#ew)"/></g></g><g transform="translate(0 0.001)"><g clip-path="url(#p)"><g transform="translate(173.326 26.085)" opacity="0.5" style="mix-blend-mode:multiply;isolation:isolate"><g clip-path="url(#ey)"><g transform="translate(0 0)"><g clip-path="url(#ez)"><rect width="22.262" height="15.017" transform="translate(0 0)" fill="url(#fa)"/></g></g></g></g></g></g><g transform="translate(149.151 27.623)"><g clip-path="url(#fb)"><rect width="40.686" height="33.054" transform="translate(-4.445 0)" fill="url(#fc)"/></g></g><g transform="translate(151.858 27.623)"><g clip-path="url(#fd)"><rect width="33.663" height="19.308" transform="translate(-0.13 0)" fill="url(#fe)"/></g></g><g transform="translate(237.174 24.767)"><g clip-path="url(#ff)"><rect width="24.27" height="26.741" transform="translate(-3.661 0)" fill="url(#fg)"/></g></g><g transform="translate(242.403 32.181)"><g clip-path="url(#fh)"><rect width="13.035" height="13.634" transform="translate(-3.254 0)" fill="url(#fi)"/></g></g><g transform="translate(237.094 23.552)"><g clip-path="url(#fj)"><rect width="24.138" height="16.584" transform="translate(-6.406 0.48) rotate(-11.31)" fill="url(#fk)"/></g></g><g transform="translate(239.842 32.594)"><g clip-path="url(#fl)"><rect width="23.748" height="4.66" transform="translate(0 0)" fill="url(#fm)"/></g></g><g transform="translate(0 0.001)"><g clip-path="url(#p)"><g transform="translate(196.422 36.684)" opacity="0.5" style="mix-blend-mode:multiply;isolation:isolate"><g clip-path="url(#fo)"><g transform="translate(0 0)"><g clip-path="url(#fp)"><rect width="32.677" height="40.816" transform="translate(-2.147 -2.269)" fill="url(#fq)"/></g></g></g></g></g></g><g transform="translate(198.603 38.48)"><g clip-path="url(#fr)"><rect width="31.299" height="33.471" transform="translate(-4.192 0)" fill="url(#fs)"/></g></g><g transform="translate(211.649 42.129)"><g clip-path="url(#ft)"><rect width="13.086" height="17.974" transform="translate(-1.845 0)" fill="url(#fu)"/></g></g><g transform="translate(195.487 30.943)"><g clip-path="url(#fv)"><rect width="33.307" height="28.187" transform="matrix(0.981, -0.196, 0.196, 0.981, -4.397, 0.879)" fill="url(#fw)"/></g></g><g transform="translate(188.466 42.279)"><g clip-path="url(#fx)"><rect width="37.769" height="17.937" transform="translate(0 0)" fill="url(#fy)"/></g></g></g></g></g></svg>