<svg xmlns="http://www.w3.org/2000/svg" xmlns:xlink="http://www.w3.org/1999/xlink" width="190" height="221" viewBox="0 0 190 221"><defs><clipPath id="a"><rect width="160.508" height="186.911" fill="none"/></clipPath><clipPath id="c"><rect width="129.584" height="179.378" fill="none"/></clipPath><clipPath id="d"><path d="M37.772,116.84c0,34.539,29.008,62.538,64.792,62.538s64.792-28,64.792-62.538S102.564,0,102.564,0,37.772,82.3,37.772,116.84" transform="translate(-37.772)" fill="none"/></clipPath><radialGradient id="e" cx="0.5" cy="0.5" r="0.431" gradientTransform="matrix(1.434, 0, 0, -1, 0.058, 2.084)" gradientUnits="objectBoundingBox"><stop offset="0" stop-color="#fff"/><stop offset="1" stop-color="#222221"/></radialGradient><clipPath id="f"><rect width="47.494" height="22.837" fill="none"/></clipPath><clipPath id="g"><rect width="88.555" height="61.248" fill="none"/></clipPath><clipPath id="h"><path d="M37.774,263.193c0,.07,0,.138,0,.208,0,34.539,29.008,62.539,64.792,62.539s64.792-28,64.792-62.539c0-.07,0-.138,0-.208Z" transform="translate(-37.772 -263.193)" fill="none"/></clipPath><clipPath id="j"><rect width="81.535" height="8.886" fill="none"/></clipPath><clipPath id="k"><path d="M37.777,254.325c0,3.9,29.008,7.061,64.791,7.061s64.791-3.161,64.791-7.061-29.008-7.061-64.791-7.061-64.791,3.161-64.791,7.061" transform="translate(-37.777 -247.264)" fill="none"/></clipPath><clipPath id="m"><rect width="39.83" height="51.089" fill="none"/></clipPath><clipPath id="n"><path d="M158.688,229.224c0,3.958,3.173,5.152,7.425,5.152s7.97-1.195,7.97-5.152-3.282-8.232-7.534-8.232-7.861,4.275-7.861,8.232" transform="translate(-158.688 -220.992)" fill="none"/></clipPath><clipPath id="p"><path d="M142.25,248.1c0,2.254,1.808,2.935,4.23,2.935s4.541-.681,4.541-2.935-1.87-4.69-4.292-4.69a4.857,4.857,0,0,0-4.479,4.69" transform="translate(-142.25 -243.411)" fill="none"/></clipPath><clipPath id="r"><path d="M274.256,225.033c0,3.958,3.173,5.152,7.425,5.152s7.97-1.195,7.97-5.152-3.282-8.232-7.534-8.232-7.861,4.274-7.861,8.232" transform="translate(-274.256 -216.801)" fill="none"/></clipPath><clipPath id="t"><path d="M266.656,244.381c0,2.489,2,3.24,4.669,3.24s5.012-.751,5.012-3.24-2.064-5.177-4.738-5.177-4.944,2.688-4.944,5.177" transform="translate(-266.656 -239.204)" fill="none"/></clipPath><clipPath id="v"><path d="M302.229,243.909c0,2.255,1.808,2.935,4.23,2.935s4.541-.681,4.541-2.935-1.87-4.689-4.292-4.689a4.857,4.857,0,0,0-4.479,4.689" transform="translate(-302.229 -239.22)" fill="none"/></clipPath><clipPath id="x"><rect width="50.031" height="55.438" fill="none"/></clipPath></defs><g transform="translate(-285.5 -10816)"><g transform="translate(285 10816)"><g transform="translate(14.746 17.172)" clip-path="url(#a)"><g clip-path="url(#a)"><path d="M42.672,185.258s-2.451-3.226-1.5-4.678,4.345-.807,4.735,2.258c0,0,1.783-2.473,3.565-1.882s.891,3.6.891,3.6,2.451-2.1,3.955-.807-.334,3.118-.334,3.118H38.216s-2.117-2.473.112-3.118,4.345,1.505,4.345,1.505" transform="translate(-20.179 -100.145)" fill="#fff"/><path d="M284.252,192.591s-2.451-3.226-1.5-4.678,4.345-.807,4.735,2.258c0,0,1.783-2.474,3.565-1.882s.891,3.6.891,3.6,2.451-2.1,3.955-.807-.334,3.118-.334,3.118H279.8s-2.116-2.473.112-3.118,4.345,1.505,4.345,1.505" transform="translate(-150.847 -104.228)" fill="#fff"/><path d="M37.772,116.84c0,34.539,29.008,62.539,64.792,62.539s64.792-28,64.792-62.539S102.564,0,102.564,0,37.772,82.3,37.772,116.84" transform="translate(-20.43 0)" fill="#52dcff"/><g transform="translate(17.341)" style="mix-blend-mode:overlay;isolation:isolate"><g clip-path="url(#c)"><g transform="translate(0)"><g clip-path="url(#d)"><rect width="129.584" height="179.378" transform="translate(0)" fill="url(#e)"/></g></g></g></g><path d="M37.775,263.193c0,.07,0,.138,0,.208,0,34.539,29.008,62.538,64.792,62.538s64.792-28,64.792-62.538c0-.07,0-.138,0-.208Z" transform="translate(-20.43 -146.561)" fill="#0095e5"/><g transform="translate(17.341 116.632)" opacity="0.5"><g clip-path="url(#f)"><path d="M85.266,263.193H37.775c0,.07,0,.138,0,.208a60.469,60.469,0,0,0,4.375,22.629c15.214-3.862,29.793-13.149,43.118-22.837" transform="translate(-37.772 -263.193)" fill="#4ad0ff"/></g></g><g transform="translate(36.476 116.632)" opacity="0.5"><g clip-path="url(#g)"><path d="M168,263.193h-30.58a68.882,68.882,0,0,1-21.034,29.054c-11.084,8.948-23.677,13.367-36.941,15.511a65.379,65.379,0,0,0,31.523,16.683,129.927,129.927,0,0,0,26.755-13.472c16.039-10.32,29.284-28.72,30.278-47.776" transform="translate(-79.448 -263.193)" fill="#4ad0ff"/></g></g><path d="M150.454,278.641s21.352,7.165,26.575,16.01-3.757,16.452-8.339,24.766-4.4,13.091-1.741,14.949l20.344-28.393,3.757-19.724Z" transform="translate(-81.379 -155.164)" fill="#0071a3"/></g><g transform="translate(17.342 116.632)"><g clip-path="url(#h)"><path d="M149.7,270.851S190,280.767,179,297.219s-18.877,30.427-6.415,36.442,69.645-31.842,57.182-68.991Z" transform="translate(-98.311 -264.015)" fill="#4ebc25"/><path d="M180.544,270.227s32.168,7.255,22.8,21.269-16.079,25.918-5.464,31.041,59.323-27.123,48.708-58.767Z" transform="translate(-114.996 -263.514)" fill="#89e85d"/><path d="M174.007,267.17c17.039,3,33.892,5.531,51.234,4.268,6.246-.4,13.205-1.153,18.425-5.208-.216-.866-1.583-2.557-1.874-3.423Z" transform="translate(-111.46 -262.978)" fill="#b4ff8d"/></g></g><g clip-path="url(#a)"><path d="M131.765,298.174a1.834,1.834,0,1,1-1.833-1.769,1.8,1.8,0,0,1,1.833,1.769" transform="translate(-69.287 -165.056)" fill="#0071a3"/><path d="M141.661,308.679a.619.619,0,1,1-.618-.6.608.608,0,0,1,.618.6" transform="translate(-75.954 -171.558)" fill="#0071a3"/><path d="M146.533,296.67a.585.585,0,1,1-.584-.564.574.574,0,0,1,.584.564" transform="translate(-78.626 -164.889)" fill="#0071a3"/><path d="M150.094,307.366a.344.344,0,1,1-.343-.331.338.338,0,0,1,.343.331" transform="translate(-80.813 -170.974)" fill="#0071a3"/><path d="M197.787,318.859a.413.413,0,1,1-.413-.4.406.406,0,0,1,.413.4" transform="translate(-106.535 -177.338)" fill="#0071a3"/><path d="M194.729,326.11a.481.481,0,1,1-.481-.464.473.473,0,0,1,.481.464" transform="translate(-104.806 -181.339)" fill="#0071a3"/><path d="M204.439,327.32a.6.6,0,1,1-.6-.575.586.586,0,0,1,.6.575" transform="translate(-109.935 -181.951)" fill="#0071a3"/><path d="M206.322,319.037a.39.39,0,1,1-.389-.376.383.383,0,0,1,.389.376" transform="translate(-111.176 -177.449)" fill="#0071a3"/><path d="M194.71,348.043a.871.871,0,1,1-.871-.84.856.856,0,0,1,.871.84" transform="translate(-104.375 -193.343)" fill="#0071a3"/><path d="M37.776,254.326c0,3.9,29.008,7.061,64.791,7.061s64.791-3.161,64.791-7.061-29.008-7.061-64.791-7.061-64.791,3.161-64.791,7.061" transform="translate(-20.433 -137.692)" fill="#0071a3"/><g transform="translate(24.597 111.846)" opacity="0.5"><g clip-path="url(#j)"><path d="M53.575,256.836c0,2.454,18.252,4.443,40.768,4.443s40.768-1.989,40.768-4.443-18.252-4.443-40.768-4.443-40.768,1.989-40.768,4.443" transform="translate(-53.575 -252.393)" fill="#4ad0ff"/></g></g></g><g transform="translate(17.344 109.573)"><g clip-path="url(#k)"><path d="M183.941,246.656c-.481,0-17.64-1.946-14.5,1.725,1.558,1.822,3.635,2.747-2.13,3.184-15.762,1.194-28.866,8.093-13.2,10.614s77.938-.133,77.8-4.246-10.172-9.553-12.234-9.818,7.56,1.327-4.124-.265-31.615-1.194-31.615-1.194" transform="translate(-96.884 -246.639)" fill="#2fab00"/><path d="M206.055,249.563c-.409,0-14.992-1.654-12.324,1.466,1.324,1.548,3.089,2.335-1.811,2.706-13.4,1.014-24.532,6.878-11.215,9.02s66.236-.113,66.12-3.608-8.645-8.118-10.4-8.344,6.425,1.127-3.5-.226-26.868-1.015-26.868-1.015" transform="translate(-111.84 -248.3)" fill="#71d33d"/></g></g><g clip-path="url(#a)"><path d="M252.974,271.769c0,.394,1.331.713,2.972.713s2.973-.319,2.973-.713-1.331-.713-2.973-.713-2.972.319-2.972.713" transform="translate(-136.831 -150.94)" fill="#4b973d"/><path d="M262.523,269.219c0,.2.671.359,1.5.359s1.5-.161,1.5-.359-.671-.359-1.5-.359-1.5.161-1.5.359" transform="translate(-141.996 -149.717)" fill="#4b973d"/><path d="M197.385,268.675c0,.394,1.331.713,2.973.713s2.972-.319,2.972-.713-1.331-.713-2.972-.713-2.973.319-2.973.713" transform="translate(-106.763 -149.217)" fill="#4b973d"/><path d="M258.56,259.113c0,.156.526.282,1.175.282s1.175-.126,1.175-.282-.526-.282-1.175-.282-1.175.126-1.175.282" transform="translate(-139.852 -144.132)" fill="#4b973d"/><g transform="translate(55.301 26.364)" style="mix-blend-mode:soft-light;isolation:isolate"><g clip-path="url(#m)"><path d="M124.021,77.981c-6.281,13.555-4.054,27.7,4.974,31.6s21.438-3.932,27.719-17.487,4.054-27.7-4.974-31.6S130.3,64.426,124.021,77.981" transform="translate(-120.452 -59.493)" fill="#fff"/></g></g><path d="M272.391,239.695s-4.032-5.307-2.474-7.7,7.148-1.327,7.789,3.715c0,0,2.932-4.068,5.865-3.1s1.466,5.926,1.466,5.926,4.032-3.449,6.506-1.327-.55,5.13-.55,5.13H265.06s-3.482-4.069.183-5.13,7.148,2.477,7.148,2.477" transform="translate(-142.56 -128.512)" fill="#fff"/><path d="M149.937,240.294s-4.032-5.307-2.474-7.7,7.147-1.327,7.789,3.715c0,0,2.932-4.068,5.865-3.1s1.466,5.926,1.466,5.926,4.032-3.449,6.506-1.327-.55,5.13-.55,5.13H142.606s-3.482-4.069.183-5.13,7.148,2.477,7.148,2.477" transform="translate(-76.325 -128.846)" fill="#fff"/><path d="M36.272,223.908s-4.856-6.391-2.98-9.267,8.608-1.6,9.381,4.474c0,0,3.531-4.9,7.063-3.728s1.766,7.137,1.766,7.137,4.856-4.154,7.836-1.6-.662,6.178-.662,6.178H27.443s-4.194-4.9.22-6.178,8.608,2.983,8.608,2.983" transform="translate(-13.87 -118.707)" fill="#fff"/><path d="M255.044,206.158s-3.869-5.093-2.375-7.385,6.86-1.273,7.475,3.565c0,0,2.814-3.9,5.628-2.971s1.407,5.687,1.407,5.687,3.869-3.31,6.243-1.273-.527,4.923-.527,4.923H248.009s-3.342-3.9.176-4.923,6.859,2.377,6.859,2.377" transform="translate(-133.37 -110.037)" fill="#fff"/><path d="M232.905,192.322s-1.4-1.847-.861-2.677,2.487-.461,2.71,1.293c0,0,1.02-1.415,2.04-1.077s.51,2.062.51,2.062,1.4-1.2,2.264-.461-.191,1.785-.191,1.785h-9.023s-1.211-1.415.063-1.785a2.9,2.9,0,0,1,2.487.861" transform="translate(-124.315 -105.369)" fill="#fff"/><path d="M80.4,202.025s-2.451-3.226-1.5-4.678,4.345-.807,4.735,2.258c0,0,1.783-2.473,3.565-1.882s.891,3.6.891,3.6,2.451-2.1,3.955-.807-.334,3.118-.334,3.118H75.94s-2.117-2.473.112-3.118,4.345,1.505,4.345,1.505" transform="translate(-40.584 -109.482)" fill="#fff"/><path d="M178.889,221.117s3.3-34.5,14.845-34.894c8.983-.31,17.609,35.255,17.609,35.255s-33-.362-32.454-.362" transform="translate(-96.755 -103.699)" fill="#4b973d"/><path d="M204.1,187.708a5.011,5.011,0,0,0-3.4-1.484c-3.827.132-6.748,4.012-8.943,9.139,5.212-.493,10-2.94,12.342-7.655" transform="translate(-103.717 -103.699)" fill="#b4ff8d"/><path d="M235.142,227.223s2.715-28.393,12.219-28.72c7.393-.255,14.493,29.018,14.493,29.018s-27.165-.3-26.712-.3" transform="translate(-127.183 -110.537)" fill="#4b973d"/><path d="M255.052,198.795a3.164,3.164,0,0,0-1.4-.292c-2.88.1-5.136,2.778-6.882,6.461,3.778-.656,7.128-2.383,8.279-6.169" transform="translate(-133.477 -110.537)" fill="#b4ff8d"/><path d="M158.688,229.225c0,3.958,3.173,5.152,7.425,5.152s7.971-1.195,7.971-5.152-3.283-8.232-7.534-8.232-7.861,4.274-7.861,8.232" transform="translate(-85.833 -123.062)" fill="#4ebc25"/><path d="M161.227,231.386c0,3.335,2.674,4.341,6.256,4.341s6.716-1.007,6.716-4.341-2.766-6.936-6.348-6.936-6.624,3.6-6.624,6.936" transform="translate(-87.206 -124.987)" fill="#68d33c"/><path d="M175.2,248.8h.5l-.143-17.115h-.183Z" transform="translate(-94.766 -129.016)" fill="#7a0500"/></g><g transform="translate(72.855 97.931)"><g clip-path="url(#n)"><path d="M157.391,231.26s-1.558-10,10.309-10.57c0,0-4.17-2.344-9.3,2.83s-1.008,7.739-1.008,7.739" transform="translate(-157.139 -220.529)" fill="#7cf445"/></g></g><g clip-path="url(#a)"><path d="M166.5,235.577s2.543,4.2,4.124,4.622v.42s-1.363-.027-4.141-4.9Z" transform="translate(-90.05 -131.183)" fill="#7a0500"/><path d="M180.04,235.577s-2.543,4.2-4.124,4.622v.42s1.363-.027,4.141-4.9Z" transform="translate(-95.151 -131.183)" fill="#7a0500"/><path d="M185.085,241.75c0,.543.323.984.722.984s.722-.441.722-.984-.323-.984-.722-.984-.722.441-.722.984" transform="translate(-100.111 -134.072)" fill="#7cf445"/><path d="M182.826,244.36c0,.428.254.774.567.774s.568-.346.568-.774-.254-.774-.568-.774-.567.347-.567.774" transform="translate(-98.889 -135.643)" fill="#7cf445"/><path d="M142.25,248.1c0,2.255,1.808,2.935,4.23,2.935s4.541-.681,4.541-2.935-1.87-4.689-4.292-4.689a4.856,4.856,0,0,0-4.479,4.689" transform="translate(-76.942 -135.546)" fill="#4ebc25"/><path d="M143.7,249.333c0,1.9,1.523,2.473,3.564,2.473s3.826-.573,3.826-2.473a3.953,3.953,0,0,0-3.616-3.951,4.092,4.092,0,0,0-3.773,3.951" transform="translate(-77.724 -136.642)" fill="#68d33c"/><path d="M151.66,259.253h.287l-.081-9.75h-.1Z" transform="translate(-82.031 -138.938)" fill="#7a0500"/></g><g transform="translate(65.308 107.866)"><g clip-path="url(#p)"><path d="M141.511,249.26s-.887-5.694,5.873-6.021c0,0-2.375-1.335-5.3,1.613s-.574,4.409-.574,4.409" transform="translate(-141.368 -243.147)" fill="#7cf445"/></g></g><g clip-path="url(#a)"><path d="M146.7,251.72s1.449,2.393,2.349,2.633v.239s-.777-.016-2.359-2.79Z" transform="translate(-79.344 -140.172)" fill="#7a0500"/><path d="M154.414,251.72s-1.448,2.393-2.349,2.633v.239s.777-.016,2.359-2.79Z" transform="translate(-82.25 -140.172)" fill="#7a0500"/><path d="M157.288,255.237c0,.31.184.561.411.561s.411-.251.411-.561-.184-.561-.411-.561-.411.251-.411.561" transform="translate(-85.075 -141.818)" fill="#7cf445"/><path d="M156,256.723c0,.243.145.441.323.441s.324-.2.324-.441-.145-.441-.324-.441-.323.2-.323.441" transform="translate(-84.379 -142.713)" fill="#7cf445"/><rect width="25.456" height="19.142" transform="translate(102.369 99.116)" fill="#e0a90e"/><rect width="25.456" height="2.16" transform="translate(102.369 99.116)" fill="#a37400"/><path d="M222.878,216.217h25.456l-4.736-5.928H222.8s-.037,6.036.074,5.928" transform="translate(-120.509 -117.101)" fill="#f4713d"/><path d="M204.1,228.546H188.157V203.5L196,198.052l8.1,5.445Z" transform="translate(-101.772 -110.287)" fill="#ffd137"/><rect width="6.068" height="5.857" transform="translate(106.55 105.402)" fill="#396379"/><rect width="6.068" height="5.857" transform="translate(117.724 105.402)" fill="#396379"/><path d="M0,0,.582.01.773,11.6l-.582-.01Z" transform="translate(94.165 87.757) rotate(-55.163)" fill="#f4713d"/><path d="M0,0,10.869.179l.01.582L.01.582Z" transform="translate(85.482 93.347) rotate(-34.838)" fill="#f4713d"/><rect width="6.734" height="10.714" transform="translate(90.722 107.544)" fill="#396379"/><rect width="5.819" height="9.774" transform="translate(91.637 108.485)" fill="#173644"/><path d="M198.491,225.629a2.962,2.962,0,1,0,2.96-2.857,2.91,2.91,0,0,0-2.96,2.857" transform="translate(-107.362 -124.052)" fill="#396379"/><path d="M200.265,226.772a2.33,2.33,0,1,0,2.329-2.248,2.289,2.289,0,0,0-2.329,2.248" transform="translate(-108.321 -125.028)" fill="#173644"/><rect width="5.33" height="5.144" transform="translate(107.288 106.114)" fill="#173644"/><rect width="5.462" height="5.272" transform="translate(118.331 105.987)" fill="#173644"/><path d="M246.925,211.393l-.883-1.105H227.315c5.654,3.5,13.185,3.355,19.61,1.105" transform="translate(-122.952 -117.101)" fill="#ff926c"/><path d="M288.507,252.916s-2.671-2.107-1.352-3.228,2.959,1.468,2.959,1.468-.828-3.242,1.37-3.3,1.8,2.849,1.8,2.849,1.933-2.3,3.033-1.168c1.176,1.209-1.9,3.074-1.9,3.074s3.267-.812,3.328.459c.042.891-3.046,1.94-3.046,1.94s3.972,1.149-3.031,1.36-2.936-1.36-2.936-1.36-4.053-1.256-3.6-2.122c.738-1.394,3.369.033,3.369.033" transform="translate(-154.208 -138.018)" fill="#4b973d"/><path d="M291.517,255.688s-1.9-1.5-.959-2.291,2.1,1.042,2.1,1.042-.587-2.3.973-2.345,1.278,2.022,1.278,2.022,1.372-1.632,2.152-.829c.835.858-1.349,2.181-1.349,2.181s2.318-.577,2.362.326c.03.632-2.162,1.376-2.162,1.376s2.819.815-2.151.966-2.083-.966-2.083-.966-2.877-.892-2.552-1.506c.523-.989,2.391.023,2.391.023" transform="translate(-156.371 -140.38)" fill="#67aa59"/><path d="M217.024,258.327s-2.5-1.97-1.264-3.019,2.768,1.373,2.768,1.373-.774-3.032,1.281-3.089,1.684,2.664,1.684,2.664,1.808-2.15,2.836-1.092c1.1,1.13-1.778,2.874-1.778,2.874s3.055-.76,3.112.429c.039.833-2.848,1.814-2.848,1.814s3.714,1.074-2.835,1.272-2.745-1.272-2.745-1.272-3.79-1.175-3.362-1.984c.69-1.3,3.151.031,3.151.031" transform="translate(-115.663 -141.214)" fill="#4b973d"/><path d="M219.839,260.921s-1.772-1.4-.9-2.143,1.964.974,1.964.974-.549-2.152.909-2.192,1.2,1.89,1.2,1.89,1.283-1.526,2.012-.775c.78.8-1.262,2.04-1.262,2.04s2.168-.539,2.208.3c.028.591-2.021,1.287-2.021,1.287s2.636.762-2.011.9-1.948-.9-1.948-.9-2.69-.834-2.386-1.408c.489-.925,2.236.022,2.236.022" transform="translate(-117.686 -143.424)" fill="#67aa59"/><path d="M163.719,260.717s-2.179-1.719-1.1-2.634,2.414,1.2,2.414,1.2-.675-2.646,1.118-2.7,1.47,2.324,1.47,2.324,1.577-1.875,2.475-.953c.959.986-1.552,2.508-1.552,2.508s2.666-.663,2.715.374c.034.727-2.485,1.583-2.485,1.583s3.24.937-2.473,1.11-2.4-1.11-2.4-1.11-3.307-1.025-2.934-1.731c.6-1.138,2.749.027,2.749.027" transform="translate(-87.051 -142.881)" fill="#4b973d"/><path d="M166.175,262.981s-1.546-1.22-.783-1.87,1.714.85,1.714.85-.479-1.878.793-1.913,1.043,1.649,1.043,1.649,1.119-1.331,1.756-.676c.681.7-1.1,1.78-1.1,1.78s1.892-.47,1.927.266c.024.515-1.764,1.123-1.764,1.123s2.3.665-1.755.788-1.7-.788-1.7-.788-2.347-.727-2.082-1.228c.427-.807,1.951.019,1.951.019" transform="translate(-88.815 -144.81)" fill="#67aa59"/><path d="M226.488,266.178s-1.743-1.375-.882-2.107,1.932.958,1.932.958-.54-2.116.894-2.156,1.175,1.859,1.175,1.859,1.262-1.5,1.98-.763c.768.789-1.241,2.006-1.241,2.006s2.133-.53,2.172.3c.028.581-1.988,1.266-1.988,1.266s2.592.749-1.978.888-1.915-.888-1.915-.888-2.646-.82-2.347-1.385c.482-.91,2.2.021,2.2.021" transform="translate(-121.303 -146.383)" fill="#89db63"/><path d="M228.537,267.944s-1.215-.959-.615-1.469,1.347.668,1.347.668-.377-1.476.623-1.5.82,1.3.82,1.3.88-1.046,1.38-.532c.535.55-.865,1.4-.865,1.4s1.487-.37,1.515.209c.019.405-1.386.883-1.386.883s1.808.523-1.38.62-1.336-.62-1.336-.62-1.845-.572-1.636-.966c.336-.635,1.533.015,1.533.015" transform="translate(-122.775 -147.923)" fill="#aae889"/><path d="M178.684,261.388s-1.743-1.375-.882-2.107,1.932.958,1.932.958-.54-2.116.894-2.156,1.175,1.859,1.175,1.859,1.262-1.5,1.98-.763c.767.789-1.241,2.006-1.241,2.006s2.133-.53,2.172.3c.028.581-1.988,1.267-1.988,1.267s2.592.749-1.978.888-1.916-.888-1.916-.888-2.645-.82-2.347-1.385c.482-.91,2.2.021,2.2.021" transform="translate(-95.446 -143.715)" fill="#89db63"/><path d="M180.733,263.154s-1.215-.959-.615-1.47,1.347.668,1.347.668-.377-1.476.623-1.5.82,1.3.82,1.3.88-1.046,1.38-.532c.535.55-.865,1.4-.865,1.4s1.487-.37,1.515.209c.019.405-1.386.883-1.386.883s1.808.523-1.38.62-1.336-.62-1.336-.62-1.845-.572-1.636-.966c.336-.635,1.533.015,1.533.015" transform="translate(-96.918 -145.256)" fill="#aae889"/><path d="M147.4,263.933s-1.743-1.375-.882-2.107,1.932.958,1.932.958-.54-2.116.894-2.156,1.175,1.859,1.175,1.859,1.262-1.5,1.98-.763c.767.789-1.241,2.006-1.241,2.006s2.133-.53,2.172.3c.028.581-1.988,1.267-1.988,1.267s2.592.749-1.978.888-1.916-.888-1.916-.888-2.645-.82-2.346-1.385c.482-.91,2.2.021,2.2.021" transform="translate(-78.523 -145.133)" fill="#89db63"/><path d="M149.445,265.7s-1.215-.959-.615-1.469,1.347.668,1.347.668-.377-1.476.623-1.5.82,1.3.82,1.3.88-1.046,1.38-.532c.535.55-.865,1.4-.865,1.4s1.487-.37,1.515.209c.019.405-1.386.883-1.386.883s1.808.523-1.38.62-1.336-.62-1.336-.62-1.845-.572-1.636-.966c.336-.635,1.533.015,1.533.015" transform="translate(-79.995 -146.673)" fill="#aae889"/><path d="M161,270.85s-1.286-1.015-.651-1.555,1.426.707,1.426.707-.4-1.562.66-1.591.868,1.372.868,1.372.931-1.107,1.461-.562c.567.582-.916,1.48-.916,1.48s1.574-.391,1.6.221c.021.429-1.467.935-1.467.935s1.913.553-1.46.655-1.414-.655-1.414-.655-1.953-.605-1.732-1.022c.355-.671,1.623.016,1.623.016" transform="translate(-86.194 -149.467)" fill="#89db63"/><path d="M162.507,272.154s-.9-.708-.454-1.084.994.493.994.493-.278-1.089.46-1.11.6.957.6.957.65-.772,1.019-.392c.395.406-.639,1.032-.639,1.032s1.1-.273,1.117.154c.014.3-1.023.651-1.023.651s1.334.386-1.018.457-.986-.457-.986-.457-1.361-.422-1.207-.713c.248-.468,1.132.011,1.132.011" transform="translate(-87.28 -150.604)" fill="#aae889"/><path d="M247.073,264.414s-1.286-1.015-.651-1.555,1.426.707,1.426.707-.4-1.562.66-1.591.868,1.372.868,1.372.931-1.107,1.461-.562c.567.582-.916,1.48-.916,1.48s1.574-.391,1.6.221c.021.429-1.467.935-1.467.935s1.913.553-1.46.655-1.414-.655-1.414-.655-1.953-.605-1.732-1.022c.355-.671,1.623.016,1.623.016" transform="translate(-132.752 -145.882)" fill="#89db63"/><path d="M248.584,265.717s-.9-.708-.454-1.084.994.493.994.493-.278-1.089.46-1.11.6.957.6.957.65-.772,1.019-.392c.395.406-.639,1.032-.639,1.032s1.1-.273,1.118.154c.014.3-1.023.651-1.023.651s1.334.386-1.018.457-.986-.457-.986-.457-1.361-.422-1.207-.713c.248-.468,1.132.011,1.132.011" transform="translate(-133.838 -147.02)" fill="#aae889"/><path d="M254.259,265.212s-1.286-1.015-.651-1.555,1.426.707,1.426.707-.4-1.562.66-1.591.868,1.372.868,1.372.931-1.107,1.461-.562c.567.582-.916,1.48-.916,1.48s1.574-.391,1.6.221c.021.429-1.467.935-1.467.935s1.913.553-1.46.655-1.414-.655-1.414-.655-1.953-.605-1.732-1.022c.355-.671,1.623.016,1.623.016" transform="translate(-136.639 -146.327)" fill="#89db63"/><path d="M255.77,266.515s-.9-.708-.454-1.084.994.493.994.493-.278-1.089.461-1.11.6.957.6.957.65-.772,1.019-.392c.395.406-.639,1.032-.639,1.032s1.1-.273,1.118.154c.014.3-1.023.651-1.023.651s1.334.386-1.018.457-.986-.457-.986-.457-1.361-.422-1.207-.713c.248-.468,1.132.011,1.132.011" transform="translate(-137.725 -147.464)" fill="#aae889"/><path d="M274.256,225.033c0,3.958,3.173,5.152,7.425,5.152s7.971-1.195,7.971-5.152-3.283-8.232-7.534-8.232-7.861,4.274-7.861,8.232" transform="translate(-148.342 -120.727)" fill="#4ebc25"/><path d="M276.795,227.194c0,3.335,2.674,4.341,6.256,4.341s6.716-1.007,6.716-4.341-2.766-6.936-6.348-6.936-6.624,3.6-6.624,6.936" transform="translate(-149.715 -122.652)" fill="#68d33c"/><path d="M290.773,244.609h.5l-.143-17.115h-.183Z" transform="translate(-157.276 -126.682)" fill="#7a0500"/></g><g transform="translate(125.914 96.074)"><g clip-path="url(#r)"><path d="M272.959,227.068s-1.558-10,10.309-10.57c0,0-4.17-2.344-9.3,2.83s-1.008,7.74-1.008,7.74" transform="translate(-272.707 -216.338)" fill="#7cf445"/></g></g><g clip-path="url(#a)"><path d="M282.07,231.386s2.543,4.2,4.124,4.622v.42s-1.363-.027-4.141-4.9Z" transform="translate(-152.559 -128.849)" fill="#7a0500"/><path d="M295.608,231.386s-2.543,4.2-4.124,4.622v.42s1.363-.027,4.141-4.9Z" transform="translate(-157.661 -128.849)" fill="#7a0500"/><path d="M300.653,237.56c0,.543.323.984.722.984s.722-.441.722-.984-.323-.984-.722-.984-.722.44-.722.984" transform="translate(-162.62 -131.739)" fill="#7cf445"/><path d="M298.394,240.168c0,.428.254.774.568.774s.568-.347.568-.774-.254-.774-.568-.774-.568.347-.568.774" transform="translate(-161.398 -133.308)" fill="#7cf445"/><path d="M266.656,244.381c0,2.489,2,3.24,4.669,3.24s5.013-.752,5.013-3.24-2.065-5.177-4.738-5.177-4.944,2.688-4.944,5.177" transform="translate(-144.231 -133.203)" fill="#4ebc25"/><path d="M268.253,245.74c0,2.1,1.682,2.73,3.934,2.73s4.223-.633,4.223-2.73-1.739-4.362-3.992-4.362a4.517,4.517,0,0,0-4.165,4.362" transform="translate(-145.095 -134.413)" fill="#68d33c"/><path d="M277.043,256.691h.317l-.09-10.763h-.115Z" transform="translate(-149.85 -136.947)" fill="#7a0500"/></g><g transform="translate(122.425 106.001)"><g clip-path="url(#t)"><path d="M265.84,245.661s-.98-6.286,6.483-6.647c0,0-2.622-1.474-5.849,1.78s-.634,4.867-.634,4.867" transform="translate(-265.682 -238.913)" fill="#7cf445"/></g></g><g clip-path="url(#a)"><path d="M271.571,248.376s1.6,2.642,2.593,2.907v.264s-.857-.017-2.6-3.08Z" transform="translate(-146.884 -138.31)" fill="#7a0500"/><path d="M280.084,248.376s-1.6,2.642-2.593,2.907v.264s.857-.017,2.6-3.08Z" transform="translate(-150.092 -138.31)" fill="#7a0500"/><path d="M283.257,252.259c0,.342.2.619.453.619s.454-.277.454-.619-.2-.619-.454-.619-.453.277-.453.619" transform="translate(-153.211 -140.128)" fill="#7cf445"/><path d="M281.836,253.9c0,.269.16.487.357.487s.357-.218.357-.487-.16-.487-.357-.487-.357.218-.357.487" transform="translate(-152.442 -141.115)" fill="#7cf445"/><path d="M283.046,259.869s-1.728-1.364-.875-2.089,1.915.95,1.915.95-.535-2.1.887-2.138,1.166,1.844,1.166,1.844,1.251-1.488,1.963-.756c.761.782-1.23,1.989-1.23,1.989s2.115-.526,2.154.3c.027.576-1.971,1.255-1.971,1.255s2.57.743-1.962.881-1.9-.881-1.9-.881-2.623-.813-2.327-1.373c.478-.9,2.181.021,2.181.021" transform="translate(-151.905 -142.885)" fill="#89db63"/><path d="M285.077,261.621s-1.205-.951-.61-1.457,1.335.663,1.335.663-.373-1.463.618-1.491.813,1.286.813,1.286.872-1.037,1.369-.527c.531.545-.858,1.387-.858,1.387s1.474-.367,1.5.207c.019.4-1.375.875-1.375.875s1.792.519-1.368.614-1.325-.614-1.325-.614-1.829-.567-1.622-.957c.333-.629,1.521.015,1.521.015" transform="translate(-153.364 -144.413)" fill="#aae889"/><path d="M270.375,265.4s-1.252-.988-.634-1.513,1.387.688,1.387.688-.388-1.52.642-1.548.844,1.335.844,1.335.906-1.077,1.422-.547c.551.566-.892,1.441-.892,1.441s1.532-.381,1.56.215c.02.417-1.428.909-1.428.909s1.862.538-1.421.638-1.376-.638-1.376-.638-1.9-.589-1.685-.994c.346-.653,1.579.015,1.579.015" transform="translate(-145.38 -146.466)" fill="#89db63"/><path d="M271.846,266.665s-.873-.689-.442-1.055.967.48.967.48-.271-1.06.448-1.08.589.931.589.931.632-.751.991-.382c.384.395-.621,1-.621,1s1.068-.266,1.088.15c.014.291-1,.634-1,.634s1.3.375-.99.445-.96-.445-.96-.445-1.325-.411-1.175-.693c.242-.456,1.1.011,1.1.011" transform="translate(-146.436 -147.573)" fill="#aae889"/><path d="M203.847,273.55c0,.22.492.4,1.1.4s1.1-.178,1.1-.4-.492-.4-1.1-.4-1.1.178-1.1.4" transform="translate(-110.259 -152.107)" fill="#fff"/><path d="M198.708,272.868c0,.147.292.265.653.265s.653-.119.653-.265-.292-.265-.653-.265-.653.119-.653.265" transform="translate(-107.479 -151.801)" fill="#fff"/><path d="M183.738,274.1c0,.2.477.354,1.065.354s1.066-.158,1.066-.354-.477-.354-1.066-.354-1.065.158-1.065.354" transform="translate(-99.382 -152.44)" fill="#fff"/><path d="M220.414,275.081c0,.183.374.332.836.332s.836-.149.836-.332-.375-.331-.836-.331-.836.148-.836.331" transform="translate(-119.22 -152.996)" fill="#fff"/><path d="M302.229,243.909c0,2.255,1.808,2.935,4.23,2.935s4.541-.681,4.541-2.935-1.87-4.69-4.292-4.69a4.857,4.857,0,0,0-4.479,4.69" transform="translate(-163.472 -133.211)" fill="#4ebc25"/><path d="M303.676,245.141c0,1.9,1.523,2.473,3.564,2.473s3.826-.573,3.826-2.473a3.953,3.953,0,0,0-3.616-3.952,4.092,4.092,0,0,0-3.773,3.952" transform="translate(-164.255 -134.308)" fill="#68d33c"/><path d="M311.638,255.062h.287l-.081-9.75h-.1Z" transform="translate(-168.562 -136.604)" fill="#7a0500"/></g><g transform="translate(138.757 106.008)"><g clip-path="url(#v)"><path d="M301.49,245.069s-.887-5.694,5.873-6.021c0,0-2.375-1.335-5.3,1.613s-.574,4.409-.574,4.409" transform="translate(-301.347 -238.956)" fill="#7cf445"/></g></g><g clip-path="url(#a)"><path d="M306.681,247.528s1.448,2.393,2.349,2.633v.239s-.776-.016-2.359-2.79Z" transform="translate(-165.875 -137.838)" fill="#7a0500"/><path d="M314.392,247.528s-1.448,2.393-2.349,2.633v.239s.777-.016,2.359-2.79Z" transform="translate(-168.781 -137.838)" fill="#7a0500"/><path d="M317.267,251.046c0,.31.184.561.411.561s.411-.251.411-.561-.184-.561-.411-.561-.411.251-.411.561" transform="translate(-171.606 -139.485)" fill="#7cf445"/><path d="M315.98,252.532c0,.243.145.441.323.441s.324-.2.324-.441-.145-.441-.324-.441-.323.2-.323.441" transform="translate(-170.91 -140.379)" fill="#7cf445"/><path d="M284.934,310.364c0,2.418,1.4,4.378,3.116,4.378s3.116-1.96,3.116-4.378-1.395-4.378-3.116-4.378-3.116,1.96-3.116,4.378" transform="translate(-154.118 -170.391)" fill="#b4ff8d"/><path d="M274.266,325.8c0,1.685.972,3.051,2.172,3.051s2.172-1.366,2.172-3.051-.972-3.051-2.172-3.051-2.172,1.366-2.172,3.051" transform="translate(-148.348 -179.727)" fill="#b4ff8d"/><g transform="translate(17.596 122.365)" style="mix-blend-mode:soft-light;isolation:isolate"><g clip-path="url(#x)"><path d="M38.326,276.131c2.472,27.243,23.036,49.478,50.031,55.438-13.6-3.268-48.128-33.363-50.031-55.438" transform="translate(-38.326 -276.131)" fill="#fff"/></g></g><path d="M58.162,164.524a1.3,1.3,0,1,1-1.3-1.256,1.279,1.279,0,0,1,1.3,1.256" transform="translate(-30.051 -90.917)" fill="#fff"/><path d="M67.867,156.275a.391.391,0,1,1-.39-.377.384.384,0,0,1,.39.377" transform="translate(-36.286 -86.813)" fill="#fff"/><path d="M55.246,149.575a.695.695,0,1,1-.694-.67.682.682,0,0,1,.694.67" transform="translate(-29.131 -82.919)" fill="#fff"/><path d="M82.623,139.561a.3.3,0,1,1-.3-.293.3.3,0,0,1,.3.293" transform="translate(-44.361 -77.553)" fill="#fff"/><path d="M44.347,206.5a.347.347,0,1,1-.347-.335.341.341,0,0,1,.347.335" transform="translate(-23.611 -114.805)" fill="#fff"/><path d="M27.324,213.01a.434.434,0,1,1-.434-.419.426.426,0,0,1,.434.419" transform="translate(-14.31 -118.383)" fill="#fff"/><path d="M23.57,250.8a.825.825,0,1,1-.824-.8.81.81,0,0,1,.824.8" transform="translate(-11.857 -139.219)" fill="#fff"/><path d="M21.844,262.71a.434.434,0,1,1-.434-.419.426.426,0,0,1,.434.419" transform="translate(-11.346 -146.059)" fill="#fff"/><path d="M21.782,277.03a.781.781,0,1,1-.781-.754.768.768,0,0,1,.781.754" transform="translate(-10.937 -153.847)" fill="#fff"/><path d="M1.476,245.051a.725.725,0,0,1-.737.712.712.712,0,1,1,0-1.423.725.725,0,0,1,.737.712" transform="translate(-0.001 -136.062)" fill="#fff"/><path d="M306.3,177.456a.456.456,0,1,1-.455-.44.448.448,0,0,1,.455.44" transform="translate(-165.18 -98.573)" fill="#fff"/><path d="M294.828,169.315a.391.391,0,1,1-.39-.377.384.384,0,0,1,.39.377" transform="translate(-159.047 -94.074)" fill="#fff"/><path d="M302.393,159.345a.488.488,0,1,1-.488-.471.48.48,0,0,1,.488.471" transform="translate(-163.033 -88.47)" fill="#fff"/><path d="M287.535,150.574a.358.358,0,1,1-.358-.346.352.352,0,0,1,.358.346" transform="translate(-155.137 -83.656)" fill="#fff"/><path d="M300.355,146.354a.391.391,0,1,1-.39-.377.384.384,0,0,1,.39.377" transform="translate(-162.036 -81.288)" fill="#fff"/><path d="M312.073,167.581a.651.651,0,1,1-.651-.628.64.64,0,0,1,.651.628" transform="translate(-168.093 -92.969)" fill="#fff"/><path d="M320.968,190.872a.846.846,0,1,1-.846-.816.832.832,0,0,1,.846.816" transform="translate(-172.693 -105.834)" fill="#fff"/><path d="M323.765,209.015a.26.26,0,1,1-.26-.251.256.256,0,0,1,.26.251" transform="translate(-174.839 -116.252)" fill="#fff"/><path d="M317.168,212.023a.293.293,0,1,1-.293-.283.288.288,0,0,1,.293.283" transform="translate(-171.236 -117.909)" fill="#fff"/><path d="M333.68,249.669a.825.825,0,1,1-.824-.8.81.81,0,0,1,.824.8" transform="translate(-179.592 -138.588)" fill="#fff"/><path d="M327.561,269.764a.695.695,0,1,1-.694-.67.682.682,0,0,1,.694.67" transform="translate(-176.424 -149.847)" fill="#fff"/><path d="M344.616,274.994a.434.434,0,1,1-.434-.419.426.426,0,0,1,.434.419" transform="translate(-185.93 -152.899)" fill="#fff"/><path d="M348.277,259.812a.564.564,0,1,1-.564-.544.554.554,0,0,1,.564.544" transform="translate(-187.769 -144.376)" fill="#fff"/></g></g></g><rect width="190" height="221" transform="translate(285.5 10816)" fill="none"/></g></svg>