<svg xmlns="http://www.w3.org/2000/svg" width="820" height="136" viewBox="0 0 820 136"><g transform="translate(15646 -3045)"><text transform="translate(-15358 3101)" fill="#12263f" font-size="20" font-family="Roboto-Bold, Roboto" font-weight="700"><tspan x="-42.935" y="21">Registros</tspan></text><rect width="820" height="136" transform="translate(-15646 3045)" fill="#fff4d9"/><path d="M12.771-7.554H5.459V0H1.65V-18.484H13.686V-15.4H5.459v4.773h7.313ZM14.815-7a8.146,8.146,0,0,1,.787-3.644,5.762,5.762,0,0,1,2.266-2.476A6.611,6.611,0,0,1,21.3-13.99a6.255,6.255,0,0,1,4.539,1.7A6.827,6.827,0,0,1,27.8-7.668l.025.939a7.18,7.18,0,0,1-1.765,5.072A6.134,6.134,0,0,1,21.328.254a6.164,6.164,0,0,1-4.742-1.9,7.306,7.306,0,0,1-1.771-5.18Zm3.669.267a5.121,5.121,0,0,0,.736,2.99A2.43,2.43,0,0,0,21.328-2.7,2.436,2.436,0,0,0,23.41-3.726,5.6,5.6,0,0,0,24.159-7a5.069,5.069,0,0,0-.749-2.971A2.436,2.436,0,0,0,21.3-11.02a2.4,2.4,0,0,0-2.082,1.047A5.7,5.7,0,0,0,18.484-6.729ZM37.807-10.3a9.967,9.967,0,0,0-1.32-.1,2.687,2.687,0,0,0-2.729,1.409V0H30.088V-13.736h3.466l.1,1.638a3.4,3.4,0,0,1,3.06-1.892,3.844,3.844,0,0,1,1.143.165Zm5.205-3.44.114,1.536a4.827,4.827,0,0,1,3.948-1.79A3.664,3.664,0,0,1,50.718-11.9a4.716,4.716,0,0,1,4.126-2.095,4.1,4.1,0,0,1,3.326,1.3,5.981,5.981,0,0,1,1.092,3.917V0H55.58V-8.76a2.616,2.616,0,0,0-.457-1.708,2.025,2.025,0,0,0-1.612-.54,2.29,2.29,0,0,0-2.285,1.574L51.238,0H47.569V-8.747a2.584,2.584,0,0,0-.47-1.727,2.045,2.045,0,0,0-1.6-.533,2.378,2.378,0,0,0-2.26,1.295V0H39.571V-13.736ZM70.04,0a4.074,4.074,0,0,1-.368-1.231A4.439,4.439,0,0,1,66.206.254,4.877,4.877,0,0,1,62.861-.914a3.756,3.756,0,0,1-1.327-2.945,3.882,3.882,0,0,1,1.619-3.352,7.987,7.987,0,0,1,4.678-1.181H69.52v-.787a2.264,2.264,0,0,0-.489-1.523,1.923,1.923,0,0,0-1.542-.571,2.186,2.186,0,0,0-1.454.444,1.509,1.509,0,0,0-.527,1.219H61.839a3.685,3.685,0,0,1,.736-2.209,4.867,4.867,0,0,1,2.082-1.593,7.588,7.588,0,0,1,3.021-.578,6,6,0,0,1,4.031,1.276A4.463,4.463,0,0,1,73.2-9.128v5.954a6.567,6.567,0,0,0,.546,2.958V0ZM67.006-2.552a3.16,3.16,0,0,0,1.5-.362,2.376,2.376,0,0,0,1.016-.971V-6.246H68.148q-2.755,0-2.933,1.9l-.013.216A1.469,1.469,0,0,0,65.686-3,1.874,1.874,0,0,0,67.006-2.552Zm19.068-9.687a4.579,4.579,0,0,1,3.669-1.752q4.469,0,4.532,5.192V0H90.606V-8.7a2.552,2.552,0,0,0-.508-1.746,2.177,2.177,0,0,0-1.688-.565,2.5,2.5,0,0,0-2.336,1.244V0H82.405V-19.5h3.669ZM100.915,0H97.233V-13.736h3.682Zm-3.9-17.291a1.807,1.807,0,0,1,.552-1.358,2.075,2.075,0,0,1,1.5-.533,2.079,2.079,0,0,1,1.5.533,1.8,1.8,0,0,1,.559,1.358,1.8,1.8,0,0,1-.565,1.371,2.084,2.084,0,0,1-1.492.533,2.084,2.084,0,0,1-1.492-.533A1.8,1.8,0,0,1,97.018-17.291ZM116.3-6.741a8.238,8.238,0,0,1-1.441,5.084A4.62,4.62,0,0,1,110.97.254a4.279,4.279,0,0,1-3.364-1.447V5.281h-3.669V-13.736h3.4l.127,1.346a4.312,4.312,0,0,1,3.479-1.6,4.651,4.651,0,0,1,3.948,1.879,8.461,8.461,0,0,1,1.409,5.18Zm-3.669-.267a5.406,5.406,0,0,0-.679-2.958,2.212,2.212,0,0,0-1.974-1.041,2.4,2.4,0,0,0-2.374,1.32v5.624A2.443,2.443,0,0,0,110-2.7Q112.633-2.7,112.633-7.008ZM124.9.254A6.743,6.743,0,0,1,119.977-1.6a6.588,6.588,0,0,1-1.9-4.938v-.355a8.3,8.3,0,0,1,.8-3.7,5.87,5.87,0,0,1,2.266-2.514,6.36,6.36,0,0,1,3.345-.882,5.7,5.7,0,0,1,4.437,1.777,7.222,7.222,0,0,1,1.619,5.04v1.5H121.8a3.408,3.408,0,0,0,1.073,2.158,3.243,3.243,0,0,0,2.266.813,3.96,3.96,0,0,0,3.313-1.536l1.8,2.019A5.508,5.508,0,0,1,128.02-.4,7.331,7.331,0,0,1,124.9.254Zm-.419-11.273a2.3,2.3,0,0,0-1.771.736,3.8,3.8,0,0,0-.87,2.107h5.1v-.292a2.712,2.712,0,0,0-.66-1.885A2.371,2.371,0,0,0,124.478-11.02Zm15.869.724a9.967,9.967,0,0,0-1.32-.1A2.687,2.687,0,0,0,136.3-8.988V0h-3.669V-13.736h3.466l.1,1.638a3.4,3.4,0,0,1,3.06-1.892,3.844,3.844,0,0,1,1.143.165ZM149.69,0a4.074,4.074,0,0,1-.368-1.231A4.439,4.439,0,0,1,145.856.254a4.877,4.877,0,0,1-3.345-1.168,3.756,3.756,0,0,1-1.327-2.945A3.882,3.882,0,0,1,142.8-7.211a7.987,7.987,0,0,1,4.678-1.181h1.688v-.787a2.264,2.264,0,0,0-.489-1.523,1.923,1.923,0,0,0-1.542-.571,2.186,2.186,0,0,0-1.454.444,1.509,1.509,0,0,0-.527,1.219h-3.669a3.685,3.685,0,0,1,.736-2.209,4.867,4.867,0,0,1,2.082-1.593,7.588,7.588,0,0,1,3.021-.578,6,6,0,0,1,4.031,1.276,4.463,4.463,0,0,1,1.492,3.586v5.954A6.567,6.567,0,0,0,153.4-.216V0Zm-3.034-2.552a3.16,3.16,0,0,0,1.5-.362,2.376,2.376,0,0,0,1.016-.971V-6.246H147.8q-2.755,0-2.933,1.9l-.013.216A1.469,1.469,0,0,0,145.336-3,1.874,1.874,0,0,0,146.656-2.552Zm8.48-4.418a8.05,8.05,0,0,1,1.5-5.091,4.875,4.875,0,0,1,4.056-1.93,4.275,4.275,0,0,1,3.517,1.549l.152-1.295h3.326V-.457a5.871,5.871,0,0,1-.819,3.136,5.259,5.259,0,0,1-2.3,2.031,8.1,8.1,0,0,1-3.479.7,7.532,7.532,0,0,1-2.945-.6,5.227,5.227,0,0,1-2.171-1.555L157.6,1.016a4.3,4.3,0,0,0,3.326,1.536,3.146,3.146,0,0,0,2.272-.781,2.928,2.928,0,0,0,.813-2.215v-.736A4.244,4.244,0,0,1,160.672.254a4.862,4.862,0,0,1-4.005-1.936,8.048,8.048,0,0,1-1.53-5.135Zm3.669.267a5,5,0,0,0,.749,2.926,2.384,2.384,0,0,0,2.057,1.06,2.549,2.549,0,0,0,2.4-1.257V-9.75a2.543,2.543,0,0,0-2.374-1.257,2.4,2.4,0,0,0-2.076,1.079A5.634,5.634,0,0,0,158.806-6.7ZM178.737-1.4a4.6,4.6,0,0,1-3.758,1.65,4.339,4.339,0,0,1-3.371-1.27,5.419,5.419,0,0,1-1.187-3.72v-9h3.669v8.874q0,2.146,1.955,2.146a2.65,2.65,0,0,0,2.564-1.295v-9.725h3.682V0h-3.453Zm5.751-5.573a8.278,8.278,0,0,1,1.441-5.116,4.675,4.675,0,0,1,3.942-1.9,4.207,4.207,0,0,1,3.313,1.5V-19.5h3.682V0h-3.313l-.178-1.46A4.318,4.318,0,0,1,189.846.254a4.663,4.663,0,0,1-3.891-1.911A8.545,8.545,0,0,1,184.488-6.97Zm3.669.267a5.408,5.408,0,0,0,.673,2.958,2.193,2.193,0,0,0,1.955,1.028,2.455,2.455,0,0,0,2.4-1.435V-9.572a2.42,2.42,0,0,0-2.374-1.435Q188.157-11.007,188.157-6.7ZM207.67,0a4.074,4.074,0,0,1-.368-1.231A4.439,4.439,0,0,1,203.836.254a4.877,4.877,0,0,1-3.345-1.168,3.756,3.756,0,0,1-1.327-2.945,3.882,3.882,0,0,1,1.619-3.352,7.987,7.987,0,0,1,4.678-1.181h1.688v-.787a2.264,2.264,0,0,0-.489-1.523,1.923,1.923,0,0,0-1.542-.571,2.186,2.186,0,0,0-1.454.444,1.509,1.509,0,0,0-.527,1.219h-3.669a3.685,3.685,0,0,1,.736-2.209,4.867,4.867,0,0,1,2.082-1.593,7.588,7.588,0,0,1,3.021-.578,6,6,0,0,1,4.031,1.276,4.463,4.463,0,0,1,1.492,3.586v5.954a6.567,6.567,0,0,0,.546,2.958V0Zm-3.034-2.552a3.16,3.16,0,0,0,1.5-.362,2.376,2.376,0,0,0,1.016-.971V-6.246h-1.371q-2.755,0-2.933,1.9l-.013.216A1.469,1.469,0,0,0,203.315-3,1.874,1.874,0,0,0,204.636-2.552Z" transform="translate(-15341 3122)"/></g></svg>