<svg xmlns="http://www.w3.org/2000/svg" width="820" height="136" viewBox="0 0 820 136"><g transform="translate(15646 -3343)"><text transform="translate(-15358 3399)" fill="#12263f" font-size="20" font-family="Roboto-Bold, Roboto" font-weight="700"><tspan x="-42.935" y="21">Registros</tspan></text><rect width="820" height="136" transform="translate(-15646 3343)" fill="#f7f7f7"/><path d="M12.771-7.554H5.459V0H1.65V-18.484H13.686V-15.4H5.459v4.773h7.313ZM14.815-7a8.146,8.146,0,0,1,.787-3.644,5.762,5.762,0,0,1,2.266-2.476A6.611,6.611,0,0,1,21.3-13.99a6.255,6.255,0,0,1,4.539,1.7A6.827,6.827,0,0,1,27.8-7.668l.025.939a7.18,7.18,0,0,1-1.765,5.072A6.134,6.134,0,0,1,21.328.254a6.164,6.164,0,0,1-4.742-1.9,7.306,7.306,0,0,1-1.771-5.18Zm3.669.267a5.121,5.121,0,0,0,.736,2.99A2.43,2.43,0,0,0,21.328-2.7,2.436,2.436,0,0,0,23.41-3.726,5.6,5.6,0,0,0,24.159-7a5.069,5.069,0,0,0-.749-2.971A2.436,2.436,0,0,0,21.3-11.02a2.4,2.4,0,0,0-2.082,1.047A5.7,5.7,0,0,0,18.484-6.729ZM37.807-10.3a9.967,9.967,0,0,0-1.32-.1,2.687,2.687,0,0,0-2.729,1.409V0H30.088V-13.736h3.466l.1,1.638a3.4,3.4,0,0,1,3.06-1.892,3.844,3.844,0,0,1,1.143.165Zm5.205-3.44.114,1.536a4.827,4.827,0,0,1,3.948-1.79A3.664,3.664,0,0,1,50.718-11.9a4.716,4.716,0,0,1,4.126-2.095,4.1,4.1,0,0,1,3.326,1.3,5.981,5.981,0,0,1,1.092,3.917V0H55.58V-8.76a2.616,2.616,0,0,0-.457-1.708,2.025,2.025,0,0,0-1.612-.54,2.29,2.29,0,0,0-2.285,1.574L51.238,0H47.569V-8.747a2.584,2.584,0,0,0-.47-1.727,2.045,2.045,0,0,0-1.6-.533,2.378,2.378,0,0,0-2.26,1.295V0H39.571V-13.736ZM70.04,0a4.074,4.074,0,0,1-.368-1.231A4.439,4.439,0,0,1,66.206.254,4.877,4.877,0,0,1,62.861-.914a3.756,3.756,0,0,1-1.327-2.945,3.882,3.882,0,0,1,1.619-3.352,7.987,7.987,0,0,1,4.678-1.181H69.52v-.787a2.264,2.264,0,0,0-.489-1.523,1.923,1.923,0,0,0-1.542-.571,2.186,2.186,0,0,0-1.454.444,1.509,1.509,0,0,0-.527,1.219H61.839a3.685,3.685,0,0,1,.736-2.209,4.867,4.867,0,0,1,2.082-1.593,7.588,7.588,0,0,1,3.021-.578,6,6,0,0,1,4.031,1.276A4.463,4.463,0,0,1,73.2-9.128v5.954a6.567,6.567,0,0,0,.546,2.958V0ZM67.006-2.552a3.16,3.16,0,0,0,1.5-.362,2.376,2.376,0,0,0,1.016-.971V-6.246H68.148q-2.755,0-2.933,1.9l-.013.216A1.469,1.469,0,0,0,65.686-3,1.874,1.874,0,0,0,67.006-2.552ZM89.934-3.8a1.182,1.182,0,0,0-.667-1.06,7.571,7.571,0,0,0-2.139-.692q-4.9-1.028-4.9-4.164a3.774,3.774,0,0,1,1.517-3.053,6.12,6.12,0,0,1,3.967-1.225A6.587,6.587,0,0,1,91.9-12.759a3.881,3.881,0,0,1,1.568,3.2H89.794a1.775,1.775,0,0,0-.508-1.3,2.149,2.149,0,0,0-1.587-.514,2.2,2.2,0,0,0-1.435.419,1.323,1.323,0,0,0-.508,1.066,1.13,1.13,0,0,0,.578.984,5.942,5.942,0,0,0,1.949.647,15.917,15.917,0,0,1,2.311.616Q93.5-6.576,93.5-3.948A3.583,3.583,0,0,1,91.889-.908,6.955,6.955,0,0,1,87.725.254a7.264,7.264,0,0,1-3.066-.616,5.144,5.144,0,0,1-2.1-1.688A3.923,3.923,0,0,1,81.8-4.367h3.479A1.915,1.915,0,0,0,86-2.869a2.87,2.87,0,0,0,1.8.521,2.657,2.657,0,0,0,1.593-.4A1.244,1.244,0,0,0,89.934-3.8Zm14.155,2.4a4.6,4.6,0,0,1-3.758,1.65,4.339,4.339,0,0,1-3.371-1.27,5.419,5.419,0,0,1-1.187-3.72v-9h3.669v8.874q0,2.146,1.955,2.146a2.65,2.65,0,0,0,2.564-1.295v-9.725h3.682V0H104.19Zm18.7-5.345a8.318,8.318,0,0,1-1.409,5.148A4.668,4.668,0,0,1,117.444.254a4.289,4.289,0,0,1-3.567-1.714L113.712,0h-3.3V-19.5h3.669v7a4.178,4.178,0,0,1,3.339-1.485,4.706,4.706,0,0,1,3.942,1.847,8.33,8.33,0,0,1,1.428,5.2Zm-3.669-.267a5.464,5.464,0,0,0-.66-3.041,2.232,2.232,0,0,0-1.968-.958,2.42,2.42,0,0,0-2.412,1.435v5.421A2.453,2.453,0,0,0,116.518-2.7a2.265,2.265,0,0,0,2.336-1.752A9.038,9.038,0,0,0,119.12-7.008ZM133.009,0a4.074,4.074,0,0,1-.368-1.231A4.439,4.439,0,0,1,129.175.254,4.877,4.877,0,0,1,125.83-.914,3.756,3.756,0,0,1,124.5-3.859a3.882,3.882,0,0,1,1.619-3.352A7.987,7.987,0,0,1,130.8-8.392h1.688v-.787A2.264,2.264,0,0,0,132-10.7a1.923,1.923,0,0,0-1.542-.571,2.186,2.186,0,0,0-1.454.444,1.509,1.509,0,0,0-.527,1.219h-3.669a3.686,3.686,0,0,1,.736-2.209,4.867,4.867,0,0,1,2.082-1.593,7.588,7.588,0,0,1,3.021-.578,6,6,0,0,1,4.031,1.276,4.463,4.463,0,0,1,1.492,3.586v5.954a6.567,6.567,0,0,0,.546,2.958V0Zm-3.034-2.552a3.16,3.16,0,0,0,1.5-.362,2.376,2.376,0,0,0,1.016-.971V-6.246h-1.371q-2.755,0-2.933,1.9l-.013.216A1.469,1.469,0,0,0,128.654-3,1.874,1.874,0,0,0,129.975-2.552Zm8.48-4.418a8.05,8.05,0,0,1,1.5-5.091,4.875,4.875,0,0,1,4.056-1.93,4.275,4.275,0,0,1,3.517,1.549l.152-1.295h3.326V-.457a5.871,5.871,0,0,1-.819,3.136,5.259,5.259,0,0,1-2.3,2.031,8.1,8.1,0,0,1-3.479.7,7.532,7.532,0,0,1-2.945-.6,5.227,5.227,0,0,1-2.171-1.555l1.625-2.234a4.3,4.3,0,0,0,3.326,1.536,3.146,3.146,0,0,0,2.272-.781,2.928,2.928,0,0,0,.813-2.215v-.736A4.244,4.244,0,0,1,143.99.254a4.862,4.862,0,0,1-4.005-1.936,8.048,8.048,0,0,1-1.53-5.135Zm3.669.267a5,5,0,0,0,.749,2.926,2.384,2.384,0,0,0,2.057,1.06,2.549,2.549,0,0,0,2.4-1.257V-9.75a2.543,2.543,0,0,0-2.374-1.257,2.4,2.4,0,0,0-2.076,1.079A5.634,5.634,0,0,0,142.124-6.7ZM162.056-1.4A4.6,4.6,0,0,1,158.3.254a4.339,4.339,0,0,1-3.371-1.27,5.419,5.419,0,0,1-1.187-3.72v-9h3.669v8.874q0,2.146,1.955,2.146a2.65,2.65,0,0,0,2.564-1.295v-9.725h3.682V0h-3.453Zm5.751-5.573a8.278,8.278,0,0,1,1.441-5.116,4.675,4.675,0,0,1,3.942-1.9,4.207,4.207,0,0,1,3.313,1.5V-19.5h3.682V0h-3.313l-.178-1.46A4.318,4.318,0,0,1,173.164.254a4.663,4.663,0,0,1-3.891-1.911A8.545,8.545,0,0,1,167.807-6.97Zm3.669.267a5.408,5.408,0,0,0,.673,2.958A2.193,2.193,0,0,0,174.1-2.717a2.455,2.455,0,0,0,2.4-1.435V-9.572a2.42,2.42,0,0,0-2.374-1.435Q171.476-11.007,171.476-6.7ZM190.988,0a4.074,4.074,0,0,1-.368-1.231A4.439,4.439,0,0,1,187.154.254a4.877,4.877,0,0,1-3.345-1.168,3.756,3.756,0,0,1-1.327-2.945A3.882,3.882,0,0,1,184.1-7.211a7.987,7.987,0,0,1,4.678-1.181h1.688v-.787a2.264,2.264,0,0,0-.489-1.523,1.923,1.923,0,0,0-1.542-.571,2.186,2.186,0,0,0-1.454.444,1.509,1.509,0,0,0-.527,1.219h-3.669a3.685,3.685,0,0,1,.736-2.209,4.867,4.867,0,0,1,2.082-1.593,7.588,7.588,0,0,1,3.021-.578,6,6,0,0,1,4.031,1.276,4.463,4.463,0,0,1,1.492,3.586v5.954A6.567,6.567,0,0,0,194.7-.216V0Zm-3.034-2.552a3.16,3.16,0,0,0,1.5-.362,2.376,2.376,0,0,0,1.016-.971V-6.246H189.1q-2.755,0-2.933,1.9l-.013.216A1.469,1.469,0,0,0,186.634-3,1.874,1.874,0,0,0,187.954-2.552Z" transform="translate(-15334 3423)"/></g></svg>