<svg xmlns="http://www.w3.org/2000/svg" width="820" height="136" viewBox="0 0 820 136"><g transform="translate(15646 -3195)"><text transform="translate(-15358 3251)" fill="#12263f" font-size="20" font-family="Roboto-Bold, Roboto" font-weight="700"><tspan x="-42.935" y="21">Registros</tspan></text><rect width="820" height="136" transform="translate(-15646 3195)" fill="#e3eaf1"/><path d="M12.771-7.554H5.459V0H1.65V-18.484H13.686V-15.4H5.459v4.773h7.313ZM14.815-7a8.146,8.146,0,0,1,.787-3.644,5.762,5.762,0,0,1,2.266-2.476A6.611,6.611,0,0,1,21.3-13.99a6.255,6.255,0,0,1,4.539,1.7A6.827,6.827,0,0,1,27.8-7.668l.025.939a7.18,7.18,0,0,1-1.765,5.072A6.134,6.134,0,0,1,21.328.254a6.164,6.164,0,0,1-4.742-1.9,7.306,7.306,0,0,1-1.771-5.18Zm3.669.267a5.121,5.121,0,0,0,.736,2.99A2.43,2.43,0,0,0,21.328-2.7,2.436,2.436,0,0,0,23.41-3.726,5.6,5.6,0,0,0,24.159-7a5.069,5.069,0,0,0-.749-2.971A2.436,2.436,0,0,0,21.3-11.02a2.4,2.4,0,0,0-2.082,1.047A5.7,5.7,0,0,0,18.484-6.729ZM37.807-10.3a9.967,9.967,0,0,0-1.32-.1,2.687,2.687,0,0,0-2.729,1.409V0H30.088V-13.736h3.466l.1,1.638a3.4,3.4,0,0,1,3.06-1.892,3.844,3.844,0,0,1,1.143.165Zm5.205-3.44.114,1.536a4.827,4.827,0,0,1,3.948-1.79A3.664,3.664,0,0,1,50.718-11.9a4.716,4.716,0,0,1,4.126-2.095,4.1,4.1,0,0,1,3.326,1.3,5.981,5.981,0,0,1,1.092,3.917V0H55.58V-8.76a2.616,2.616,0,0,0-.457-1.708,2.025,2.025,0,0,0-1.612-.54,2.29,2.29,0,0,0-2.285,1.574L51.238,0H47.569V-8.747a2.584,2.584,0,0,0-.47-1.727,2.045,2.045,0,0,0-1.6-.533,2.378,2.378,0,0,0-2.26,1.295V0H39.571V-13.736ZM70.04,0a4.074,4.074,0,0,1-.368-1.231A4.439,4.439,0,0,1,66.206.254,4.877,4.877,0,0,1,62.861-.914a3.756,3.756,0,0,1-1.327-2.945,3.882,3.882,0,0,1,1.619-3.352,7.987,7.987,0,0,1,4.678-1.181H69.52v-.787a2.264,2.264,0,0,0-.489-1.523,1.923,1.923,0,0,0-1.542-.571,2.186,2.186,0,0,0-1.454.444,1.509,1.509,0,0,0-.527,1.219H61.839a3.685,3.685,0,0,1,.736-2.209,4.867,4.867,0,0,1,2.082-1.593,7.588,7.588,0,0,1,3.021-.578,6,6,0,0,1,4.031,1.276A4.463,4.463,0,0,1,73.2-9.128v5.954a6.567,6.567,0,0,0,.546,2.958V0ZM67.006-2.552a3.16,3.16,0,0,0,1.5-.362,2.376,2.376,0,0,0,1.016-.971V-6.246H68.148q-2.755,0-2.933,1.9l-.013.216A1.469,1.469,0,0,0,65.686-3,1.874,1.874,0,0,0,67.006-2.552ZM90.454,0a4.074,4.074,0,0,1-.368-1.231A4.439,4.439,0,0,1,86.62.254,4.877,4.877,0,0,1,83.275-.914a3.756,3.756,0,0,1-1.327-2.945,3.882,3.882,0,0,1,1.619-3.352,7.987,7.987,0,0,1,4.678-1.181h1.688v-.787a2.264,2.264,0,0,0-.489-1.523,1.923,1.923,0,0,0-1.542-.571,2.186,2.186,0,0,0-1.454.444,1.509,1.509,0,0,0-.527,1.219H82.253a3.686,3.686,0,0,1,.736-2.209,4.867,4.867,0,0,1,2.082-1.593,7.588,7.588,0,0,1,3.021-.578,6,6,0,0,1,4.031,1.276,4.463,4.463,0,0,1,1.492,3.586v5.954a6.567,6.567,0,0,0,.546,2.958V0ZM87.42-2.552a3.16,3.16,0,0,0,1.5-.362,2.376,2.376,0,0,0,1.016-.971V-6.246H88.563q-2.755,0-2.933,1.9l-.013.216A1.469,1.469,0,0,0,86.1-3,1.874,1.874,0,0,0,87.42-2.552ZM95.9-6.97a8.05,8.05,0,0,1,1.5-5.091,4.875,4.875,0,0,1,4.056-1.93,4.275,4.275,0,0,1,3.517,1.549l.152-1.295h3.326V-.457a5.871,5.871,0,0,1-.819,3.136,5.259,5.259,0,0,1-2.3,2.031,8.1,8.1,0,0,1-3.479.7,7.532,7.532,0,0,1-2.945-.6A5.227,5.227,0,0,1,96.738,3.25l1.625-2.234a4.3,4.3,0,0,0,3.326,1.536,3.146,3.146,0,0,0,2.272-.781,2.928,2.928,0,0,0,.813-2.215v-.736A4.244,4.244,0,0,1,101.436.254,4.862,4.862,0,0,1,97.43-1.682,8.048,8.048,0,0,1,95.9-6.817Zm3.669.267a5,5,0,0,0,.749,2.926,2.384,2.384,0,0,0,2.057,1.06,2.549,2.549,0,0,0,2.4-1.257V-9.75a2.543,2.543,0,0,0-2.374-1.257,2.4,2.4,0,0,0-2.076,1.079A5.635,5.635,0,0,0,99.569-6.7ZM119.5-1.4a4.6,4.6,0,0,1-3.758,1.65,4.339,4.339,0,0,1-3.371-1.27,5.419,5.419,0,0,1-1.187-3.72v-9h3.669v8.874q0,2.146,1.955,2.146a2.65,2.65,0,0,0,2.564-1.295v-9.725h3.682V0H119.6Zm5.751-5.573a8.278,8.278,0,0,1,1.441-5.116,4.675,4.675,0,0,1,3.942-1.9,4.207,4.207,0,0,1,3.313,1.5V-19.5h3.682V0h-3.313l-.178-1.46A4.318,4.318,0,0,1,130.609.254a4.663,4.663,0,0,1-3.891-1.911A8.545,8.545,0,0,1,125.252-6.97Zm3.669.267a5.408,5.408,0,0,0,.673,2.958,2.193,2.193,0,0,0,1.955,1.028,2.455,2.455,0,0,0,2.4-1.435V-9.572a2.42,2.42,0,0,0-2.374-1.435Q128.921-11.007,128.921-6.7ZM148.434,0a4.074,4.074,0,0,1-.368-1.231A4.439,4.439,0,0,1,144.6.254a4.877,4.877,0,0,1-3.345-1.168,3.756,3.756,0,0,1-1.327-2.945,3.882,3.882,0,0,1,1.619-3.352,7.987,7.987,0,0,1,4.678-1.181h1.688v-.787a2.264,2.264,0,0,0-.489-1.523,1.923,1.923,0,0,0-1.542-.571,2.186,2.186,0,0,0-1.454.444A1.509,1.509,0,0,0,143.9-9.61h-3.669a3.685,3.685,0,0,1,.736-2.209,4.867,4.867,0,0,1,2.082-1.593,7.588,7.588,0,0,1,3.021-.578,6,6,0,0,1,4.031,1.276,4.463,4.463,0,0,1,1.492,3.586v5.954a6.567,6.567,0,0,0,.546,2.958V0ZM145.4-2.552a3.16,3.16,0,0,0,1.5-.362,2.376,2.376,0,0,0,1.016-.971V-6.246h-1.371q-2.755,0-2.933,1.9l-.013.216A1.469,1.469,0,0,0,144.079-3,1.874,1.874,0,0,0,145.4-2.552Z" transform="translate(-15312 3275)"/></g></svg>