<svg xmlns="http://www.w3.org/2000/svg" width="820" height="136" viewBox="0 0 820 136"><g transform="translate(15646 -3495)"><text transform="translate(-15358 3551)" fill="#12263f" font-size="20" font-family="Roboto-Bold, Roboto" font-weight="700"><tspan x="-42.935" y="21">Registros</tspan></text><rect width="820" height="136" transform="translate(-15646 3495)" fill="#eff6e5"/><path d="M12.771-7.554H5.459V0H1.65V-18.484H13.686V-15.4H5.459v4.773h7.313ZM14.815-7a8.146,8.146,0,0,1,.787-3.644,5.762,5.762,0,0,1,2.266-2.476A6.611,6.611,0,0,1,21.3-13.99a6.255,6.255,0,0,1,4.539,1.7A6.827,6.827,0,0,1,27.8-7.668l.025.939a7.18,7.18,0,0,1-1.765,5.072A6.134,6.134,0,0,1,21.328.254a6.164,6.164,0,0,1-4.742-1.9,7.306,7.306,0,0,1-1.771-5.18Zm3.669.267a5.121,5.121,0,0,0,.736,2.99A2.43,2.43,0,0,0,21.328-2.7,2.436,2.436,0,0,0,23.41-3.726,5.6,5.6,0,0,0,24.159-7a5.069,5.069,0,0,0-.749-2.971A2.436,2.436,0,0,0,21.3-11.02a2.4,2.4,0,0,0-2.082,1.047A5.7,5.7,0,0,0,18.484-6.729ZM37.807-10.3a9.967,9.967,0,0,0-1.32-.1,2.687,2.687,0,0,0-2.729,1.409V0H30.088V-13.736h3.466l.1,1.638a3.4,3.4,0,0,1,3.06-1.892,3.844,3.844,0,0,1,1.143.165Zm5.205-3.44.114,1.536a4.827,4.827,0,0,1,3.948-1.79A3.664,3.664,0,0,1,50.718-11.9a4.716,4.716,0,0,1,4.126-2.095,4.1,4.1,0,0,1,3.326,1.3,5.981,5.981,0,0,1,1.092,3.917V0H55.58V-8.76a2.616,2.616,0,0,0-.457-1.708,2.025,2.025,0,0,0-1.612-.54,2.29,2.29,0,0,0-2.285,1.574L51.238,0H47.569V-8.747a2.584,2.584,0,0,0-.47-1.727,2.045,2.045,0,0,0-1.6-.533,2.378,2.378,0,0,0-2.26,1.295V0H39.571V-13.736ZM70.04,0a4.074,4.074,0,0,1-.368-1.231A4.439,4.439,0,0,1,66.206.254,4.877,4.877,0,0,1,62.861-.914a3.756,3.756,0,0,1-1.327-2.945,3.882,3.882,0,0,1,1.619-3.352,7.987,7.987,0,0,1,4.678-1.181H69.52v-.787a2.264,2.264,0,0,0-.489-1.523,1.923,1.923,0,0,0-1.542-.571,2.186,2.186,0,0,0-1.454.444,1.509,1.509,0,0,0-.527,1.219H61.839a3.685,3.685,0,0,1,.736-2.209,4.867,4.867,0,0,1,2.082-1.593,7.588,7.588,0,0,1,3.021-.578,6,6,0,0,1,4.031,1.276A4.463,4.463,0,0,1,73.2-9.128v5.954a6.567,6.567,0,0,0,.546,2.958V0ZM67.006-2.552a3.16,3.16,0,0,0,1.5-.362,2.376,2.376,0,0,0,1.016-.971V-6.246H68.148q-2.755,0-2.933,1.9l-.013.216A1.469,1.469,0,0,0,65.686-3,1.874,1.874,0,0,0,67.006-2.552Zm21.2-.152a2.406,2.406,0,0,0,1.65-.559,1.957,1.957,0,0,0,.66-1.485h3.44A4.706,4.706,0,0,1,93.2-2.19a5.026,5.026,0,0,1-2.05,1.8,6.417,6.417,0,0,1-2.875.641,5.963,5.963,0,0,1-4.646-1.873,7.41,7.41,0,0,1-1.7-5.173v-.241A7.325,7.325,0,0,1,83.611-12.1a5.894,5.894,0,0,1,4.634-1.892,5.778,5.778,0,0,1,4.132,1.466,5.192,5.192,0,0,1,1.581,3.9h-3.44a2.5,2.5,0,0,0-.66-1.733,2.207,2.207,0,0,0-1.676-.667,2.211,2.211,0,0,0-1.936.933,5.4,5.4,0,0,0-.654,3.028v.381a5.469,5.469,0,0,0,.647,3.047A2.239,2.239,0,0,0,88.207-2.7ZM103.771-10.3a9.967,9.967,0,0,0-1.32-.1,2.687,2.687,0,0,0-2.729,1.409V0H96.053V-13.736h3.466l.1,1.638a3.4,3.4,0,0,1,3.06-1.892,3.844,3.844,0,0,1,1.143.165ZM104.965-7a8.146,8.146,0,0,1,.787-3.644,5.762,5.762,0,0,1,2.266-2.476,6.611,6.611,0,0,1,3.434-.876,6.255,6.255,0,0,1,4.539,1.7,6.827,6.827,0,0,1,1.961,4.621l.025.939a7.18,7.18,0,0,1-1.765,5.072A6.134,6.134,0,0,1,111.478.254a6.164,6.164,0,0,1-4.742-1.9,7.306,7.306,0,0,1-1.771-5.18Zm3.669.267a5.121,5.121,0,0,0,.736,2.99A2.43,2.43,0,0,0,111.478-2.7a2.436,2.436,0,0,0,2.082-1.022A5.6,5.6,0,0,0,114.309-7a5.069,5.069,0,0,0-.749-2.971,2.436,2.436,0,0,0-2.107-1.054,2.4,2.4,0,0,0-2.082,1.047A5.7,5.7,0,0,0,108.634-6.729ZM112.176-19.5h4l-3.517,3.936h-2.983Zm11.438,5.764.114,1.587a4.8,4.8,0,0,1,3.948-1.841,3.986,3.986,0,0,1,3.25,1.282,5.982,5.982,0,0,1,1.092,3.834V0H128.35V-8.785a2.38,2.38,0,0,0-.508-1.695,2.273,2.273,0,0,0-1.688-.527,2.524,2.524,0,0,0-2.323,1.32V0h-3.669V-13.736ZM138.671,0h-3.682V-13.736h3.682Zm-3.9-17.291a1.807,1.807,0,0,1,.552-1.358,2.075,2.075,0,0,1,1.5-.533,2.079,2.079,0,0,1,1.5.533,1.8,1.8,0,0,1,.559,1.358,1.8,1.8,0,0,1-.565,1.371,2.084,2.084,0,0,1-1.492.533,2.084,2.084,0,0,1-1.492-.533A1.8,1.8,0,0,1,134.773-17.291ZM147.405-2.7a2.406,2.406,0,0,0,1.65-.559,1.957,1.957,0,0,0,.66-1.485h3.44a4.706,4.706,0,0,1-.762,2.558,5.026,5.026,0,0,1-2.05,1.8,6.417,6.417,0,0,1-2.875.641,5.963,5.963,0,0,1-4.646-1.873,7.41,7.41,0,0,1-1.7-5.173v-.241A7.325,7.325,0,0,1,142.81-12.1a5.894,5.894,0,0,1,4.634-1.892,5.778,5.778,0,0,1,4.132,1.466,5.192,5.192,0,0,1,1.581,3.9h-3.44a2.5,2.5,0,0,0-.66-1.733,2.207,2.207,0,0,0-1.676-.667,2.211,2.211,0,0,0-1.936.933,5.4,5.4,0,0,0-.654,3.028v.381a5.469,5.469,0,0,0,.647,3.047A2.239,2.239,0,0,0,147.405-2.7ZM163.211,0a4.074,4.074,0,0,1-.368-1.231A4.439,4.439,0,0,1,159.377.254a4.877,4.877,0,0,1-3.345-1.168,3.756,3.756,0,0,1-1.327-2.945,3.882,3.882,0,0,1,1.619-3.352A7.987,7.987,0,0,1,161-8.392h1.688v-.787A2.264,2.264,0,0,0,162.2-10.7a1.923,1.923,0,0,0-1.542-.571,2.186,2.186,0,0,0-1.454.444,1.509,1.509,0,0,0-.527,1.219H155.01a3.685,3.685,0,0,1,.736-2.209,4.867,4.867,0,0,1,2.082-1.593,7.588,7.588,0,0,1,3.021-.578,6,6,0,0,1,4.031,1.276,4.463,4.463,0,0,1,1.492,3.586v5.954a6.567,6.567,0,0,0,.546,2.958V0Zm-3.034-2.552a3.16,3.16,0,0,0,1.5-.362,2.376,2.376,0,0,0,1.016-.971V-6.246h-1.371q-2.755,0-2.933,1.9l-.013.216A1.469,1.469,0,0,0,158.856-3,1.874,1.874,0,0,0,160.177-2.552Z" transform="translate(-15320 3573)"/></g></svg>