<svg xmlns="http://www.w3.org/2000/svg" xmlns:xlink="http://www.w3.org/1999/xlink" width="400" height="228.459" viewBox="0 0 400 228.459"><defs><clipPath id="a"><rect width="200.746" height="228.459" fill="none"/></clipPath><clipPath id="c"><rect width="29.654" height="49.845" fill="none"/></clipPath><clipPath id="d"><rect width="18.779" height="17.648" fill="none"/></clipPath><clipPath id="e"><rect width="54.721" height="35.655" fill="none"/></clipPath><clipPath id="f"><rect width="40.095" height="38.581" fill="none"/></clipPath><clipPath id="g"><rect width="13.085" height="12.676" fill="none"/></clipPath><clipPath id="h"><rect width="40.17" height="86.125" fill="none"/></clipPath><clipPath id="i"><rect width="17.013" height="11.132" fill="none"/></clipPath><clipPath id="j"><rect width="30.491" height="54.787" fill="none"/></clipPath><clipPath id="k"><path d="M36.129,160.171a3.219,3.219,0,0,1-.156-.844,3.593,3.593,0,0,1,.087-.972,5.219,5.219,0,0,1,.849-1.812,8.2,8.2,0,0,1,1.655-1.7,11.931,11.931,0,0,1,2.041-1.275c.355-.181.97-.438,1.123-.494a13.4,13.4,0,0,1,1.762-.549,12.059,12.059,0,0,1,2.373-.344,7.866,7.866,0,0,1,4.246.855,3.558,3.558,0,0,1,1.7,1.981,4.071,4.071,0,0,1-1.187,3.9,12.859,12.859,0,0,1-11.059,3.724.859.859,0,0,1,.151-.755,12.009,12.009,0,0,0,10.331-3.477c2.274-2.606,1.333-5.272-2.1-5.957a12.015,12.015,0,0,0-10.331,3.478c-2.273,2.6-1.333,5.271,2.1,5.955a.859.859,0,0,0-.151.755c-1.868-.374-3.046-1.295-3.434-2.475" transform="translate(-35.969 -152.17)" fill="none"/></clipPath><clipPath id="l"><rect width="61.796" height="22.026" fill="none"/></clipPath><clipPath id="m"><rect width="14.912" height="9.755" fill="none"/></clipPath><clipPath id="n"><rect width="2.929" height="7.978" fill="none"/></clipPath><clipPath id="o"><rect width="1.196" height="1.353" fill="none"/></clipPath></defs><g transform="translate(-1020 -6142)"><path d="M122,0H400a0,0,0,0,1,0,0V122a0,0,0,0,1,0,0H0a0,0,0,0,1,0,0v0A122,122,0,0,1,122,0Z" transform="translate(1020 6248)" fill="#e3eaf1"/><g transform="translate(1134.254 6142)"><g clip-path="url(#a)"><g clip-path="url(#a)"><path d="M372.018,563.686l-21.286-38.339s-10.1-15.834,22.285-32.2c20.457-10.339,28.3-.559,28.3-.559l39.145,63.49v7.612Z" transform="translate(-239.714 -335.227)" fill="#bcbec0"/><path d="M357.948,531.034s-3.557-7,4.1-15.444c6.552-7.224,20.174-12.2,24.2-13.193s15.12-5.591,19.235.263c.328.468,9.522,15.766,9.522,15.766L400,533.2l-32.764,15.338Z" transform="translate(-245.122 -343.013)" fill="#d1dbdb"/><path d="M219.272,325.312s-4.9-10.8-9.845-22.389c-5.383-12.607-10.88-26.137-11.607-27.392-1.392-2.409-26.439-18.644-26.439-18.644l-36.8,24.963L145.7,307.427s-20.149-9.79-34.981-7.365c-3.7.6-7.5.006-10.979,4.943a9.232,9.232,0,0,0-1.4,6.623c.336,3.342,1.961,4.378,1.961,4.378s18.954,2.011,25.041,4.673c7.13,3.117,29.771,15.941,38.17,19.815,13.733,6.337,25.162,5.049,25.162,5.049l18.479,29.206,48.459,8.328Z" transform="translate(-67.442 -176.323)" fill="#e5b080"/><path d="M439.149,472.189l22.183,33.94,28.269,4.859-34.487-54.915s-4.335-8.551-6.291-12.83l-4.238,4.333s5.4,12.017,4.48,17.4-9.916,7.213-9.916,7.213" transform="translate(-301.423 -304.233)" fill="#ffd2a2"/><path d="M170.137,368.064c-1.761-3.13-20.18-26.119-20.18-26.119l-11.148,10.868,6.8,13.025-.138-.024s-.122-.059-.334-.156c-3.385-1.282-19.566-9.023-33.913-7.383-3.721.425-8.094.2-11.575,5.141a9.279,9.279,0,0,0-1.409,6.487c.9-4.314,3.421-7.742,10.595-8.721,11.152-1.518,18.125,1.451,25.372,4.684s10.157,5.356,11.12,6.069a33.129,33.129,0,0,1,5.452,5.1c.185.172-.154-1.108-.4-1.929-.46-1.519-.946-5.186,1.185-5.89,1.9-.626,6.441-.2,9.8,1.322A19.584,19.584,0,0,1,171,378.878a62.06,62.06,0,0,1,3.614,8.494c.184.512.961.423.89-.114-.663-5-2.194-13.547-5.369-19.194" transform="translate(-67.369 -234.704)" fill="#ce9772"/><path d="M145.163,230.026s-26.182-1.083-35.17-2.163-35.281,11.484-37.98,12.947-2.888,7.488,2.841,8.585c6.78,1.3,23.944-11.379,28.958-10.053s13.823-.3,18.025,3.209,23.327-12.525,23.327-12.525" transform="translate(-48.179 -156.356)" fill="#efbf8f"/><path d="M286.069,300.3c-6.315-13.739-16.06-38.172-18.415-43.6-3.282-7.553-10.041-8.5-10.224-9.229-1.132-4.495-3.381-6.34-6.629-7.518-1.773-.644-6.365-2.427-6.365-2.427s-8.643-10.837-19.424-6.321a11.169,11.169,0,0,1-2.622,9.021c-6.312,7.284-18.368,14.643-19.57,17.825-1.1,2.911-3.659,21.829-3.007,25.427.174.961,3.539,3.678,9.75,8.346,3.863,2.078,7.527,4.192,10.129,5.634,2.431-.218,3.627-7.348,2.2-10.781-2.134-5.15-6.878-7.473-7.148-7.844.5-2.885,3.73-12.132,4.68-13.5.941,3.657,12.991,23.065,15.25,23.852,4.093,1.427,9.923-1.081,9.923-1.081s5.125,14.511,9.076,21.865c4.566,8.5,16.959,13.519,27.086,10.682,3.43-.962,11.622-6.62,5.306-20.358" transform="translate(-137.075 -157.94)" fill="#ffd2a2"/><g transform="translate(74.159 89.378)" opacity="0.43"><g clip-path="url(#c)"><path d="M266.023,285.848c.431-.341-.691-1.144-1.962-.756-4.067,1.242-8.555,5.092-10.9,6.664-10.9,9.372-10.506,11.134-14.583,9.095a4.642,4.642,0,0,1,2.019,5.227c-1.145,5.462-2.8,12.44-4.136,13.59,2.346-1.307,8.625,4.54,9.173,8.389s-.257,7.045.176,6.758c.056-.037,3.137-3.661,1.311-10.468-1.174-3.111-3.918-5.777-7.151-7.815.218-1.363,3.233-11.213,4.684-13.526-.193-1.09,3.518-3.08,5.209-4.46,2.869-2.34,10.7-8.378,16.158-12.7" transform="translate(-236.463 -284.989)" fill="#e5b080"/></g></g><g transform="translate(95.521 111.658)" opacity="0.43"><g clip-path="url(#d)"><path d="M322.408,372.352s1.834-.4.395-5.344c-1.864-6.408-7.9-10.666-8.516-10.344-.491.07-2.3-.181-4.336-.181a36.1,36.1,0,0,1-5.375-.453s5.144,6.041,5.687,7.146c2.673,5.44,1.6,7.554,1.6,7.554a21.96,21.96,0,0,1,4.2-2.087,3.25,3.25,0,0,1,3.97,1.763c.789,1.6-1.095,3.272-1.095,3.272Z" transform="translate(-304.576 -356.03)" fill="#e5b080"/></g></g><path d="M364.58,540.9c6.087,1.378,15.953-.271,24.237-4.993,14.41-8.218,17.367-12.866,19.579-18.929a8.89,8.89,0,0,0-1.106-7.932l9.553,15.59s-3.136,15.789-19.252,21.214-32.3,1.986-32.3,1.986l-5.539-10.416a7.455,7.455,0,0,0,4.826,3.481" transform="translate(-246.928 -349.4)" fill="#fff"/><path d="M375.278,572.848l-21.286-38.339a14.309,14.309,0,0,0,8.5,7c6.43,2.183,20.877.875,33.106-8.047,21.177-15.452,8.977-31.718,8.977-31.718l39.145,63.49v7.612Z" transform="translate(-242.973 -344.389)" fill="#686d6d"/><g transform="translate(115.194 163.754)" opacity="0.2" style="mix-blend-mode:multiply;isolation:isolate"><g clip-path="url(#e)"><path d="M422.027,533.624l-7.036-11.483c2.234,3.787-.107,14.015-11.107,22.041-12.23,8.923-23.017,10.505-31.056,9.344-3.109-.45-5.094-1.915-5.523-2.577l2.966,5.617s16.387,3.7,32.5-1.727,19.252-21.214,19.252-21.214" transform="translate(-367.306 -522.141)" fill="#686d6d"/></g></g><path d="M334.171,412.245a40.3,40.3,0,0,0,5.513-2.863,2.481,2.481,0,0,0,1.26-1.843,100.914,100.914,0,0,1-9.71,3.551c-.071.022,2.938,1.155,2.938,1.155" transform="translate(-227.351 -279.727)" fill="#e5b080"/><path d="M406,508.3l-.651-1s8.732,15.193-10.687,29.052c-12.323,8.794-26.729,10.377-33.108,8.047a17.074,17.074,0,0,1-7.974-6.318l.112.213a.3.3,0,0,1,.019.03l21.286,38.339h68.441v-7.612Z" transform="translate(-242.687 -348.197)" fill="#fff"/><g transform="translate(110.888 189.878)" opacity="0.22"><g clip-path="url(#f)"><path d="M353.705,605.682l21.286,38.339h18.678l-19.708-31.774c-2.3.279-8.066,1.1-12.413-.489a17.076,17.076,0,0,1-7.974-6.318l.112.212a.244.244,0,0,1,.019.03" transform="translate(-353.574 -605.44)"/></g></g><g transform="translate(99.099 100.902)" opacity="0.43"><g clip-path="url(#g)"><path d="M315.985,332.885s6.926-.572,10.714-6.184a43.68,43.68,0,0,0,2.372-4.966v12.676Z" transform="translate(-315.985 -321.735)" fill="#e5b080"/></g></g><path d="M336.467,370.936s1.259-.411,1.369-1.056a70.878,70.878,0,0,0-.474-11.631c-.29-2.179-1.345-5.453-4.263-3.591a12.4,12.4,0,0,1-8.115.948c1.117,1.943,1.5,2.4,2.022,6.282a24.253,24.253,0,0,1,.065,3.136A5.5,5.5,0,0,1,332,362.416c1.678.008,3.894.914,4.986,6.548.081.423.082,1.55-.514,1.972" transform="translate(-223.063 -243.052)" fill="#ce9772"/><g transform="translate(11.281 47.724)" style="isolation:isolate"><g clip-path="url(#h)"><g transform="translate(13.844 45.409)" opacity="0.66"><g transform="translate(0)"><g clip-path="url(#i)"><path d="M95.71,303.939c2.593-2.972,1.519-6.015-2.4-6.8a13.705,13.705,0,0,0-11.788,3.969c-2.594,2.972-1.519,6.015,2.4,6.8a13.7,13.7,0,0,0,11.787-3.969M81.964,301.2a12.861,12.861,0,0,1,11.059-3.724c3.674.733,4.682,3.588,2.249,6.376a12.86,12.86,0,0,1-11.06,3.722c-3.674-.733-4.681-3.587-2.248-6.375" transform="translate(-80.111 -296.96)" fill="#a5efe6"/></g></g></g><path d="M83.308,309.567c.233.022.548.037.782.034.755-.009.883-.01,1.207-.04a14.539,14.539,0,0,0,8.506-3.382c.1-.078.188-.161.284-.249a.026.026,0,0,0,.007-.005,6.987,6.987,0,0,0,2.569-4.678c.007-.137.007-.275,0-.412,0-.028,0-.055,0-.084s-.006-.047-.007-.069c-.008-.093-.02-.188-.033-.281l-.013-.075a3.946,3.946,0,0,0-.28-.934s0,0,0-.006a4.217,4.217,0,0,0-.244-.47c-.015-.025-.024-.05-.04-.075s-.044-.065-.067-.1-.022-.038-.034-.057l-.03-.039a4.758,4.758,0,0,0-.987-1.031c-.017-.014-.035-.029-.053-.042-.118-.089-.219-.159-.3-.211a.439.439,0,0,0-.037-.024c-.077-.049-.153-.094-.231-.14s-.16-.1-.248-.143c-.07-.037-.143-.07-.217-.106s-.169-.082-.259-.121c-.146-.063-.294-.119-.448-.173l-.071-.027q-.262-.091-.538-.163a10.394,10.394,0,0,0-2.644-.351,13.872,13.872,0,0,0-2.86.265,15.718,15.718,0,0,0-3.461,1.081,15.038,15.038,0,0,0-2.244,1.218l-.212.141a.394.394,0,0,1-.041.029c-.01.008-.02.015-.03.024a10.487,10.487,0,0,0-2.031,1.8,7.108,7.108,0,0,0-1.524,2.687,4.408,4.408,0,0,0,.027,2.615l.022.053c.008.023.018.047.026.07a4.124,4.124,0,0,0,.475.936,4.893,4.893,0,0,0,1.036,1.089A7.19,7.19,0,0,0,82.06,309.4c.373.063.872.133,1.248.172m8.676-11.181c3.917.782,4.99,3.823,2.4,6.8a13.709,13.709,0,0,1-11.788,3.969c-3.918-.78-4.99-3.823-2.4-6.8a13.713,13.713,0,0,1,11.789-3.969" transform="translate(-64.339 -250.97)" fill="#a5efe6"/><path d="M90.365,308.2a11.867,11.867,0,0,0,5.121-3.859,5.179,5.179,0,0,0,.971-4.785,4.64,4.64,0,0,0-2.377-2.6c-5.118-2.635-13.258.408-15.9,4.791a4.559,4.559,0,0,0,.868,6.238,6.052,6.052,0,0,0,1.328.787c2.971,1.287,6.989.732,9.99-.574m-10.74-7.76a13.7,13.7,0,0,1,11.788-3.969c3.916.78,4.99,3.823,2.4,6.8a13.7,13.7,0,0,1-11.787,3.969c-3.917-.781-4.992-3.823-2.4-6.8" transform="translate(-64.367 -250.877)" fill="#8fccc2"/><path d="M116.851,399.154c-3.273-.653-4.168-3.195-2-5.676a11.436,11.436,0,0,1,9.844-3.314c3.273.652,4.168,3.194,2,5.675a11.453,11.453,0,0,1-9.845,3.315m1.55-1.778a6.916,6.916,0,0,0,5.953-2c1.31-1.5.768-3.038-1.212-3.433a6.923,6.923,0,0,0-5.952,2c-1.309,1.5-.768,3.038,1.21,3.431" transform="translate(-89.299 -315.419)" fill="#bcc1c4"/><path d="M119.045,400.713a14.123,14.123,0,0,0,2.611-.774c2.921-1.169,4.739-2.983,5.431-4.8l.023-.055c0-.011.008-.024.013-.037s.013-.039.021-.057a4.224,4.224,0,0,0,.181-.669c.007-.038.014-.076.021-.114s.014-.1.019-.146a3.933,3.933,0,0,0-2.306-4.143c-2.622-1.353-6.682-1-10.1.876,0,0-.006,0-.01.006a.044.044,0,0,0-.013.008c-2.579,1.409-4.971,4.111-4.086,6.9.957,2.992,5.06,3.6,8.2,3m-4.26-2.18c-3.273-.653-4.168-3.195-2-5.676a11.437,11.437,0,0,1,9.844-3.314c3.272.652,4.168,3.194,2,5.675a11.453,11.453,0,0,1-9.845,3.315" transform="translate(-87.234 -314.798)" fill="#d0d4d7"/><path d="M100.485,321.162a.4.4,0,0,1,.053-.009c.005,0,.012,0,.017,0a6.806,6.806,0,0,0,3.572-1.944,2.19,2.19,0,0,0,.638-2.1L92.72,280.445c-.549-1.669-3.379-1.651-5.23-.983-1.669.593-3.728,2.18-3.21,3.757q6.022,18.328,12.045,36.657c.392,1.194,2.17,1.688,4.16,1.287" transform="translate(-69.073 -239.25)" fill="#e3e6e8"/><path d="M80.263,277.405c-2.638-.525-3.36-2.573-1.614-4.575a9.227,9.227,0,0,1,7.935-2.67c2.637.526,3.359,2.573,1.614,4.574a9.221,9.221,0,0,1-7.934,2.672" transform="translate(-64.61 -233.072)" fill="#bcc1c4"/><path d="M76.15,277.963a5.236,5.236,0,0,0,2.222.967,10.293,10.293,0,0,0,6.348-1.021A6.741,6.741,0,0,0,88.6,273.75c0-.015.008-.029.012-.043a3.347,3.347,0,0,0-1.9-3.856,8.3,8.3,0,0,0-5.736-.328,9.566,9.566,0,0,0-5.293,3.362,4.4,4.4,0,0,0-.812,1.912.037.037,0,0,0,0,.008,3.366,3.366,0,0,0,1.277,3.159m2.15-1.151c-2.638-.525-3.36-2.573-1.614-4.575a9.227,9.227,0,0,1,7.935-2.67c2.637.526,3.359,2.573,1.614,4.574a9.221,9.221,0,0,1-7.934,2.672" transform="translate(-62.647 -232.478)" fill="#d0d4d7"/><path d="M116.851,399.154c-3.273-.653-4.168-3.195-2-5.676a11.436,11.436,0,0,1,9.844-3.314c3.273.652,4.168,3.194,2,5.675a11.453,11.453,0,0,1-9.845,3.315m1.55-1.778a6.916,6.916,0,0,0,5.953-2c1.31-1.5.768-3.038-1.212-3.433a6.923,6.923,0,0,0-5.952,2c-1.309,1.5-.768,3.038,1.21,3.431" transform="translate(-89.299 -315.419)" fill="#bcc1c4"/><path d="M119.045,400.713a14.123,14.123,0,0,0,2.611-.774c2.921-1.169,4.739-2.983,5.431-4.8l.023-.055c0-.011.008-.024.013-.037s.013-.039.021-.057a4.224,4.224,0,0,0,.181-.669c.007-.038.014-.076.021-.114s.014-.1.019-.146a3.933,3.933,0,0,0-2.306-4.143c-2.622-1.353-6.682-1-10.1.876,0,0-.006,0-.01.006a.044.044,0,0,0-.013.008c-2.579,1.409-4.971,4.111-4.086,6.9.957,2.992,5.06,3.6,8.2,3m-4.26-2.18c-3.273-.653-4.168-3.195-2-5.676a11.437,11.437,0,0,1,9.844-3.314c3.272.652,4.168,3.194,2,5.675a11.453,11.453,0,0,1-9.845,3.315" transform="translate(-87.234 -314.798)" fill="#d0d4d7"/><path d="M100.485,321.162a.4.4,0,0,1,.053-.009c.005,0,.012,0,.017,0a6.806,6.806,0,0,0,3.572-1.944,2.19,2.19,0,0,0,.638-2.1L92.72,280.445c-.549-1.669-3.379-1.651-5.23-.983-1.669.593-3.728,2.18-3.21,3.757q6.022,18.328,12.045,36.657c.392,1.194,2.17,1.688,4.16,1.287" transform="translate(-69.073 -239.25)" fill="#e3e6e8"/><path d="M80.263,277.405c-2.638-.525-3.36-2.573-1.614-4.575a9.227,9.227,0,0,1,7.935-2.67c2.637.526,3.359,2.573,1.614,4.574a9.221,9.221,0,0,1-7.934,2.672" transform="translate(-64.61 -233.072)" fill="#bcc1c4"/><path d="M76.15,277.963a5.236,5.236,0,0,0,2.222.967,10.293,10.293,0,0,0,6.348-1.021A6.741,6.741,0,0,0,88.6,273.75c0-.015.008-.029.012-.043a3.347,3.347,0,0,0-1.9-3.856,8.3,8.3,0,0,0-5.736-.328,9.566,9.566,0,0,0-5.293,3.362,4.4,4.4,0,0,0-.812,1.912.037.037,0,0,0,0,.008,3.366,3.366,0,0,0,1.277,3.159m2.15-1.151c-2.638-.525-3.36-2.573-1.614-4.575a9.227,9.227,0,0,1,7.935-2.67c2.637.526,3.359,2.573,1.614,4.574a9.221,9.221,0,0,1-7.934,2.672" transform="translate(-62.647 -232.478)" fill="#d0d4d7"/><g transform="translate(0.019 0.198)" opacity="0.66"><g clip-path="url(#j)"><path d="M65.195,203.7a4.073,4.073,0,0,0,1.184-3.9l-7.264-22.174c-2.666-8.146-5.332-16.293-7.264-22.174-.39-1.181-1.568-2.1-3.435-2.474A12.915,12.915,0,0,0,37.356,156.7a4.073,4.073,0,0,0-1.185,3.9l7.205,21.993c2.781,8.5,5.572,17.025,7.323,22.356.388,1.182,1.567,2.1,3.434,2.474A12.92,12.92,0,0,0,65.195,203.7" transform="translate(-36.03 -152.801)" fill="#fff"/></g></g><g transform="translate(0 0)"><g clip-path="url(#k)"><path d="M50.637,158.965a4.071,4.071,0,0,0,1.187-3.9,3.592,3.592,0,0,0-1.7-1.981c-4.7-2.772-15.543,1.656-13.981,7.13.388,1.18,1.566,2.1,3.434,2.475a12.859,12.859,0,0,0,11.059-3.724m-13.008-2.986A12.014,12.014,0,0,1,47.961,152.5c3.433.684,4.374,3.351,2.1,5.956a12.009,12.009,0,0,1-10.331,3.477c-3.434-.684-4.374-3.351-2.1-5.955" transform="translate(-35.985 -152.214)" fill="#a5efe6"/><path d="M39.72,161.9a12.009,12.009,0,0,0,10.331-3.477c2.274-2.606,1.332-5.272-2.1-5.956a12.016,12.016,0,0,0-10.331,3.478c-2.273,2.6-1.333,5.271,2.1,5.955a.858.858,0,0,0-.151.755c-1.868-.374-3.046-1.295-3.434-2.475-.022-.071-.049-.168-.07-.24-.019-.1-.048-.241-.063-.346l-.023-.258c0-.121,0-.284,0-.406l.031-.281c.026-.144.064-.333.1-.474l.1-.314c.072-.183.18-.425.265-.6l.2-.352a7.185,7.185,0,0,1,.669-.9l.345-.373c.136-.129.315-.3.455-.427l.422-.352c.147-.11.343-.26.494-.365l.486-.319c.158-.094.367-.222.527-.311l.534-.28c.167-.078.388-.187.557-.26l.566-.234c.175-.063.406-.149.581-.21l.588-.184c.178-.047.414-.119.594-.156l.594-.13c.182-.031.422-.075.6-.1l.588-.07c.182-.011.425-.034.606-.041l.566-.011c.182.005.425.01.606.022l.525.051c.183.029.426.062.607.1l.462.105c.172.052.4.119.571.179l.366.145c.158.077.368.179.521.265l.278.174c.141.1.324.244.456.356l.2.195a3.253,3.253,0,0,1,.365.448l.135.215a3.4,3.4,0,0,1,.264.592,4.071,4.071,0,0,1-1.187,3.9,10.266,10.266,0,0,1-2.716,2.143l.235-.156a2.683,2.683,0,0,0,.437-.359c-.036-.013-.086-.052-.122-.04-1.044.373-2,.948-3.05,1.311-.8.28-1.649.416-2.445.729.051.039.154.124.993-.009a11.135,11.135,0,0,1-4.39.1.858.858,0,0,1,.151-.755" transform="translate(-35.975 -152.18)" fill="#a5efe6"/></g></g><path d="M50.178,158.1c-1.405-.282-1.789-1.371-.859-2.436a4.91,4.91,0,0,1,4.226-1.423c1.4.278,1.789,1.37.861,2.436a4.916,4.916,0,0,1-4.228,1.423" transform="translate(-44.784 -153.545)" fill="#84afa9"/><path d="M100.445,319.214a13.853,13.853,0,0,1-10.865,4.1l-2.571,1.4c2.971,1.287,6.989.732,9.991-.574a11.87,11.87,0,0,0,5.121-3.858Z" transform="translate(-71.003 -266.826)" fill="#8fccc2"/></g></g><path d="M141.086,233.615c-17.076,1.573-35.5,4.8-35.5,4.8s-8.528,5.367-16.484,10.4a98.89,98.89,0,0,1-10.643,6.744c-1.275.661-1.5,3.943.092,6.562,2.782,4.578,10.785,2.114,12.939.936,4.413-2.412,15.394-10.155,19.062-10.527,3.267.643,17.632,1.047,22.348-2.06l11.131-10.441Z" transform="translate(-53.149 -160.349)" fill="#ffd2a2"/><path d="M60.858,184.335c2.278,7.18,4.542,14.315,5.618,17.73a2.876,2.876,0,0,1-.913,2.766,8.947,8.947,0,0,1-7.752,2.419,2.854,2.854,0,0,1-2.289-1.733l-5.7-17.992c-2.305-7.268-4.8-14.159-5.89-17.616a13.058,13.058,0,0,0,6.21-.511,11.078,11.078,0,0,0,4.818-2.913Z" transform="translate(-30.153 -114.273)" fill="#a5efe6"/><path d="M241.389,429.512c.285-.629.443-1.784-1.214-3.018a54.266,54.266,0,0,0-5.419-3.458,4.189,4.189,0,0,0-2.01-.533,1.814,1.814,0,0,0-1.118.542c-.205.4-.307.66-.307.66s6.4,3.842,10.069,5.807" transform="translate(-158.774 -289.993)" fill="#f4e7d7"/><path d="M338.486,405.924c-.263-.639-.643-1.387-2.678-1.027a39.409,39.409,0,0,0-5.131,1.242,4.19,4.19,0,0,0-1.766,1.1,1.813,1.813,0,0,0-.372,1.186c.147.421.27.676.27.676a40.941,40.941,0,0,0,4.6-1.215c1.667-.545,3.5-1.432,5.078-1.96" transform="translate(-225.503 -277.849)" fill="#f4e7d7"/><g transform="translate(24.945 82.641)" opacity="0.43"><g clip-path="url(#l)"><path d="M137.79,264.883a46.035,46.035,0,0,0-6.395,5.5c-5.275,1.746-17.47.975-17.886-2.16-.261,1.1.164,1.5-2.214,3.2-3.836,2.746-11.526,6.716-12.865,5.358.9,2-13.9,11.29-18.891,4.975.6,2.07,4.026,5.265,10.183,3,3.2-.892,4.338-1.393,8.356-4.3,2.794-1.519,9.663-6.512,13.854-7.4a70.156,70.156,0,0,0,17.847-.387s4.559-3.209,9.52-6.671c3.411-2.38,2.284-3.619-1.509-1.114" transform="translate(-79.539 -263.506)" fill="#e5b080"/></g></g><g transform="translate(11.685 47.851)" opacity="0.66"><g clip-path="url(#m)"><path d="M50.931,158.692c2.274-2.606,1.333-5.272-2.1-5.956A12.014,12.014,0,0,0,38.5,156.214c-2.273,2.6-1.333,5.271,2.1,5.955a12.009,12.009,0,0,0,10.331-3.477m-8.759-1.747a4.913,4.913,0,0,1,4.227-1.422c1.4.28,1.789,1.371.859,2.436a4.914,4.914,0,0,1-4.228,1.422c-1.4-.279-1.788-1.371-.859-2.437" transform="translate(-37.259 -152.575)" fill="#6dc9bc"/></g></g><path d="M53.534,162.673c1.781-2.041,1.044-4.13-1.645-4.665a9.411,9.411,0,0,0-8.092,2.724c-1.78,2.04-1.044,4.128,1.646,4.664a9.406,9.406,0,0,0,8.092-2.723" transform="translate(-29.395 -108.367)" fill="#7bc6bb"/><path d="M52.015,158.246a3.648,3.648,0,0,0,2.289-1.955,1.2,1.2,0,0,0,0-.713c-.261-.794-1.187-3.309-1.447-4.1a1.561,1.561,0,0,1-.452,1.491,4.931,4.931,0,0,1-2.536,1.379,4.484,4.484,0,0,1-1.692.044,1.591,1.591,0,0,1-1.313-.946c.261.795,1.186,3.309,1.447,4.1a1.585,1.585,0,0,0,1.312.945,4.607,4.607,0,0,0,2.392-.246" transform="translate(-32.167 -103.97)" fill="#57aa9c"/><path d="M47.7,144.434c1.5-1.723.882-3.487-1.389-3.939a7.944,7.944,0,0,0-6.833,2.3c-1.5,1.724-.881,3.487,1.39,3.94a7.949,7.949,0,0,0,6.833-2.3m-5.974-1.192a3.6,3.6,0,0,1,3.1-1.042c1.028.2,1.311,1,.629,1.786a3.6,3.6,0,0,1-3.1,1.042c-1.029-.205-1.312-1-.629-1.786" transform="translate(-26.536 -96.36)" fill="#b2b5b7"/><path d="M37.912,146.86a4.22,4.22,0,0,0,1.791.776,8.606,8.606,0,0,0,4.847-.651c1.683-.717,3.538-2.191,3.692-4.015a2.653,2.653,0,0,0-1.549-2.612,7.424,7.424,0,0,0-6.414.367c-.156.074-.313.152-.474.239-1.5.814-3.013,2.316-2.906,4.012a2.554,2.554,0,0,0,1.013,1.884m.355-4.481a7.945,7.945,0,0,1,6.833-2.3c2.271.452,2.893,2.216,1.389,3.939a7.95,7.95,0,0,1-6.833,2.3c-2.27-.454-2.892-2.216-1.39-3.941" transform="translate(-25.323 -95.945)" fill="#d0d4d7"/><path d="M41.032,115.359a1.148,1.148,0,0,0,.333-1.093L36.69,100.044a1.7,1.7,0,0,0-.1-.243,2.1,2.1,0,0,0-2.128-1.086,3.85,3.85,0,0,0-1.192.4,2.353,2.353,0,0,0-.408.318,2.934,2.934,0,0,0-.223.245,1.97,1.97,0,0,0-.338,1.807l1.622,4.941q.354,1.079.713,2.169l1.217,3.7c.393,1.2.771,2.347,1.121,3.411a1.157,1.157,0,0,0,.961.692,3.637,3.637,0,0,0,3.1-1.042" transform="translate(-22.113 -67.734)" fill="#d0d4d7"/><path d="M36.354,100.774c-.3-.061-.386-.295-.185-.526a1.056,1.056,0,0,1,.913-.306c.3.06.384.3.185.526a1.063,1.063,0,0,1-.913.306" transform="translate(-24.751 -68.587)" fill="#707273"/><path d="M84.511,292.354c2.528.268,6.448-2.482,6.448-2.482s3.174-2.332,2.421-4.43a7.374,7.374,0,0,0-2.029-3.36c-.8.569-1.6,1.127-2.423,1.651-3.507,2.237-7.789,4.839-7.789,4.839a2.884,2.884,0,0,0-.431.254c-.111,1.782,2.286,3.367,3.8,3.528" transform="translate(-55.394 -193.616)" fill="#f4e7d7"/><path d="M81.728,271.67a.429.429,0,0,0-.1.018,10.323,10.323,0,0,1-4.924.307.438.438,0,1,0-.184.856,11.193,11.193,0,0,0,5.353-.323.438.438,0,0,0-.144-.857" transform="translate(-52.283 -186.469)" fill="#58595b"/><path d="M63.4,210.728a.419.419,0,0,0-.1.017,10.322,10.322,0,0,1-4.924.307.438.438,0,1,0-.184.856,11.189,11.189,0,0,0,5.353-.323.438.438,0,0,0-.145-.857" transform="translate(-39.704 -144.639)" fill="#58595b"/><path d="M69.509,231.041a.457.457,0,0,0-.1.017,10.314,10.314,0,0,1-4.924.307.438.438,0,1,0-.184.856,11.2,11.2,0,0,0,5.353-.323.438.438,0,0,0-.145-.857" transform="translate(-43.897 -158.582)" fill="#58595b"/><path d="M75.619,251.356a.419.419,0,0,0-.1.017,10.313,10.313,0,0,1-4.924.307.438.438,0,0,0-.184.856,11.2,11.2,0,0,0,5.354-.323.438.438,0,0,0-.144-.857" transform="translate(-48.09 -172.525)" fill="#58595b"/><path d="M89.861,272.379a.434.434,0,0,0-.3.145A11.313,11.313,0,0,1,79.8,275.67a.438.438,0,0,0-.184.856,12.279,12.279,0,0,0,10.592-3.417.437.437,0,0,0-.347-.729" transform="translate(-54.41 -186.955)" fill="#58595b"/><path d="M83.337,252.032a.435.435,0,0,0-.3.144,11.314,11.314,0,0,1-9.758,3.147.437.437,0,0,0-.183.856,12.278,12.278,0,0,0,10.592-3.417.437.437,0,0,0-.347-.729" transform="translate(-49.931 -172.989)" fill="#58595b"/><path d="M76.812,231.684a.435.435,0,0,0-.3.145,11.314,11.314,0,0,1-9.758,3.147.438.438,0,0,0-.184.856,12.285,12.285,0,0,0,10.593-3.417.438.438,0,0,0-.347-.73" transform="translate(-45.453 -159.023)" fill="#58595b"/><path d="M70.287,211.336a.435.435,0,0,0-.3.145,11.312,11.312,0,0,1-9.758,3.147.437.437,0,0,0-.184.855,12.279,12.279,0,0,0,10.593-3.417.437.437,0,0,0-.347-.73" transform="translate(-40.975 -145.056)" fill="#58595b"/><path d="M63.762,190.988a.439.439,0,0,0-.3.145,11.314,11.314,0,0,1-9.758,3.147.438.438,0,0,0-.184.856,12.281,12.281,0,0,0,10.592-3.417.438.438,0,0,0-.347-.73" transform="translate(-36.496 -131.09)" fill="#58595b"/><path d="M14.471,33.611c.205-.051.5-.239.438-.438l0,0h0L4.565,2.548A.248.248,0,0,0,4.358,2.4.638.638,0,0,0,4.2,2.392L4.154,2.4a.58.58,0,0,0-.058.006c-.013,0-.023.011-.036.013a.908.908,0,0,0-.163.06c-.011.007-.027.008-.038.016s-.006.006-.012.009a.559.559,0,0,0-.151.119.248.248,0,0,0-.071.235L13.968,33.481h0c.037.1.2.206.5.128" transform="translate(-2.483 -1.641)" fill="#455560"/><path d="M4.023,1.366l.014,0a.579.579,0,0,0,.086-.023A.514.514,0,0,0,4.2,1.326a1.04,1.04,0,0,0,.1-.047c.02-.01.041-.019.062-.031l.008,0a.585.585,0,0,0,.122-.1c.095-.11.1-.222.032-.3L3.742,0c-.1.846-.1.846-.13,1.14-.011.107.066.195.215.224a.636.636,0,0,0,.2,0" transform="translate(-2.479)" fill="#546674"/><path d="M4.944,1.276A5.265,5.265,0,0,0,4.288.467S4.3.416,4.3.705c0,.348.009.814.22.851.244.041.435-.1.424-.28" transform="translate(-2.943 -0.318)" fill="#191b1c"/><g transform="translate(0 0.149)" opacity="0.66"><g clip-path="url(#n)"><path d="M1.345.476A42.672,42.672,0,0,0,0,6.466C0,7.678.591,8.454,1.47,8.454s1.586-.666,1.439-2.176A31.985,31.985,0,0,0,1.345.476" transform="translate(0 -0.476)" fill="#fff"/></g></g><g transform="translate(0.478 6.216)" opacity="0.34" style="mix-blend-mode:screen;isolation:isolate"><g clip-path="url(#o)"><path d="M2.721,20.5a.641.641,0,0,1-.6.676.681.681,0,0,1,0-1.352.641.641,0,0,1,.6.676" transform="translate(-1.525 -19.82)" fill="#fff"/></g></g></g></g></g></g></svg>