<svg xmlns="http://www.w3.org/2000/svg" width="820" height="136" viewBox="0 0 820 136"><g transform="translate(15646 -3650)"><text transform="translate(-15358 3706)" fill="#12263f" font-size="20" font-family="Roboto-Bold, Roboto" font-weight="700"><tspan x="-42.935" y="21">Registros</tspan></text><rect width="820" height="136" transform="translate(-15646 3650)" fill="#fff8e8"/><path d="M12.771-7.554H5.459V0H1.65V-18.484H13.686V-15.4H5.459v4.773h7.313ZM14.815-7a8.146,8.146,0,0,1,.787-3.644,5.762,5.762,0,0,1,2.266-2.476A6.611,6.611,0,0,1,21.3-13.99a6.255,6.255,0,0,1,4.539,1.7A6.827,6.827,0,0,1,27.8-7.668l.025.939a7.18,7.18,0,0,1-1.765,5.072A6.134,6.134,0,0,1,21.328.254a6.164,6.164,0,0,1-4.742-1.9,7.306,7.306,0,0,1-1.771-5.18Zm3.669.267a5.121,5.121,0,0,0,.736,2.99A2.43,2.43,0,0,0,21.328-2.7,2.436,2.436,0,0,0,23.41-3.726,5.6,5.6,0,0,0,24.159-7a5.069,5.069,0,0,0-.749-2.971A2.436,2.436,0,0,0,21.3-11.02a2.4,2.4,0,0,0-2.082,1.047A5.7,5.7,0,0,0,18.484-6.729ZM37.807-10.3a9.967,9.967,0,0,0-1.32-.1,2.687,2.687,0,0,0-2.729,1.409V0H30.088V-13.736h3.466l.1,1.638a3.4,3.4,0,0,1,3.06-1.892,3.844,3.844,0,0,1,1.143.165Zm5.205-3.44.114,1.536a4.827,4.827,0,0,1,3.948-1.79A3.664,3.664,0,0,1,50.718-11.9a4.716,4.716,0,0,1,4.126-2.095,4.1,4.1,0,0,1,3.326,1.3,5.981,5.981,0,0,1,1.092,3.917V0H55.58V-8.76a2.616,2.616,0,0,0-.457-1.708,2.025,2.025,0,0,0-1.612-.54,2.29,2.29,0,0,0-2.285,1.574L51.238,0H47.569V-8.747a2.584,2.584,0,0,0-.47-1.727,2.045,2.045,0,0,0-1.6-.533,2.378,2.378,0,0,0-2.26,1.295V0H39.571V-13.736ZM70.04,0a4.074,4.074,0,0,1-.368-1.231A4.439,4.439,0,0,1,66.206.254,4.877,4.877,0,0,1,62.861-.914a3.756,3.756,0,0,1-1.327-2.945,3.882,3.882,0,0,1,1.619-3.352,7.987,7.987,0,0,1,4.678-1.181H69.52v-.787a2.264,2.264,0,0,0-.489-1.523,1.923,1.923,0,0,0-1.542-.571,2.186,2.186,0,0,0-1.454.444,1.509,1.509,0,0,0-.527,1.219H61.839a3.685,3.685,0,0,1,.736-2.209,4.867,4.867,0,0,1,2.082-1.593,7.588,7.588,0,0,1,3.021-.578,6,6,0,0,1,4.031,1.276A4.463,4.463,0,0,1,73.2-9.128v5.954a6.567,6.567,0,0,0,.546,2.958V0ZM67.006-2.552a3.16,3.16,0,0,0,1.5-.362,2.376,2.376,0,0,0,1.016-.971V-6.246H68.148q-2.755,0-2.933,1.9l-.013.216A1.469,1.469,0,0,0,65.686-3,1.874,1.874,0,0,0,67.006-2.552ZM86.887-17.113v3.377h2.349v2.691H86.887v6.855A1.637,1.637,0,0,0,87.179-3.1a1.467,1.467,0,0,0,1.117.33,5.851,5.851,0,0,0,1.079-.089v2.78a7.553,7.553,0,0,1-2.222.33q-3.859,0-3.936-3.9v-7.4H81.212v-2.691h2.006v-3.377ZM99-10.3a9.967,9.967,0,0,0-1.32-.1,2.687,2.687,0,0,0-2.729,1.409V0H91.279V-13.736h3.466l.1,1.638a3.4,3.4,0,0,1,3.06-1.892,3.844,3.844,0,0,1,1.143.165ZM108.342,0a4.074,4.074,0,0,1-.368-1.231A4.439,4.439,0,0,1,104.508.254a4.877,4.877,0,0,1-3.345-1.168,3.756,3.756,0,0,1-1.327-2.945,3.882,3.882,0,0,1,1.619-3.352,7.987,7.987,0,0,1,4.678-1.181h1.688v-.787a2.264,2.264,0,0,0-.489-1.523,1.923,1.923,0,0,0-1.542-.571,2.186,2.186,0,0,0-1.454.444,1.509,1.509,0,0,0-.527,1.219h-3.669a3.686,3.686,0,0,1,.736-2.209,4.867,4.867,0,0,1,2.082-1.593,7.588,7.588,0,0,1,3.021-.578,6,6,0,0,1,4.031,1.276A4.463,4.463,0,0,1,111.5-9.128v5.954a6.567,6.567,0,0,0,.546,2.958V0Zm-3.034-2.552a3.16,3.16,0,0,0,1.5-.362,2.376,2.376,0,0,0,1.016-.971V-6.246H106.45q-2.755,0-2.933,1.9l-.013.216A1.469,1.469,0,0,0,103.987-3,1.874,1.874,0,0,0,105.308-2.552ZM117.7-13.736l.114,1.587a4.8,4.8,0,0,1,3.948-1.841,3.986,3.986,0,0,1,3.25,1.282A5.983,5.983,0,0,1,126.1-8.874V0h-3.669V-8.785a2.38,2.38,0,0,0-.508-1.695,2.273,2.273,0,0,0-1.688-.527,2.524,2.524,0,0,0-2.323,1.32V0h-3.669V-13.736ZM136.322-3.8a1.182,1.182,0,0,0-.667-1.06,7.571,7.571,0,0,0-2.139-.692q-4.9-1.028-4.9-4.164a3.774,3.774,0,0,1,1.517-3.053A6.12,6.12,0,0,1,134.1-13.99a6.587,6.587,0,0,1,4.183,1.231,3.881,3.881,0,0,1,1.568,3.2h-3.669a1.775,1.775,0,0,0-.508-1.3,2.149,2.149,0,0,0-1.587-.514,2.2,2.2,0,0,0-1.435.419,1.322,1.322,0,0,0-.508,1.066,1.131,1.131,0,0,0,.578.984,5.942,5.942,0,0,0,1.949.647,15.917,15.917,0,0,1,2.311.616q2.907,1.066,2.907,3.694a3.583,3.583,0,0,1-1.612,3.041A6.955,6.955,0,0,1,134.113.254a7.264,7.264,0,0,1-3.066-.616,5.144,5.144,0,0,1-2.1-1.688,3.923,3.923,0,0,1-.762-2.317h3.479a1.915,1.915,0,0,0,.724,1.5,2.87,2.87,0,0,0,1.8.521,2.657,2.657,0,0,0,1.593-.4A1.244,1.244,0,0,0,136.322-3.8Zm18.294-2.945a8.238,8.238,0,0,1-1.441,5.084A4.62,4.62,0,0,1,149.284.254a4.279,4.279,0,0,1-3.364-1.447V5.281h-3.669V-13.736h3.4l.127,1.346a4.312,4.312,0,0,1,3.479-1.6,4.651,4.651,0,0,1,3.948,1.879,8.461,8.461,0,0,1,1.409,5.18Zm-3.669-.267a5.406,5.406,0,0,0-.679-2.958,2.212,2.212,0,0,0-1.974-1.041,2.4,2.4,0,0,0-2.374,1.32v5.624a2.443,2.443,0,0,0,2.4,1.358Q150.947-2.7,150.947-7.008ZM160.761,0h-3.682V-19.5h3.682Zm10.981,0a4.074,4.074,0,0,1-.368-1.231A4.439,4.439,0,0,1,167.908.254a4.877,4.877,0,0,1-3.345-1.168,3.756,3.756,0,0,1-1.327-2.945,3.882,3.882,0,0,1,1.619-3.352,7.987,7.987,0,0,1,4.678-1.181h1.688v-.787a2.264,2.264,0,0,0-.489-1.523,1.923,1.923,0,0,0-1.542-.571,2.186,2.186,0,0,0-1.454.444,1.509,1.509,0,0,0-.527,1.219h-3.669a3.685,3.685,0,0,1,.736-2.209,4.867,4.867,0,0,1,2.082-1.593,7.588,7.588,0,0,1,3.021-.578,6,6,0,0,1,4.031,1.276A4.463,4.463,0,0,1,174.9-9.128v5.954a6.567,6.567,0,0,0,.546,2.958V0Zm-3.034-2.552a3.16,3.16,0,0,0,1.5-.362,2.376,2.376,0,0,0,1.016-.971V-6.246h-1.371q-2.755,0-2.933,1.9l-.013.216A1.469,1.469,0,0,0,167.388-3,1.874,1.874,0,0,0,168.708-2.552ZM183.435-2.7a2.406,2.406,0,0,0,1.65-.559,1.957,1.957,0,0,0,.66-1.485h3.44a4.706,4.706,0,0,1-.762,2.558,5.026,5.026,0,0,1-2.05,1.8A6.417,6.417,0,0,1,183.5.254a5.963,5.963,0,0,1-4.646-1.873,7.41,7.41,0,0,1-1.7-5.173v-.241a7.325,7.325,0,0,1,1.688-5.065,5.894,5.894,0,0,1,4.634-1.892,5.778,5.778,0,0,1,4.132,1.466,5.192,5.192,0,0,1,1.581,3.9h-3.44a2.5,2.5,0,0,0-.66-1.733,2.207,2.207,0,0,0-1.676-.667,2.211,2.211,0,0,0-1.936.933,5.4,5.4,0,0,0-.654,3.028v.381a5.469,5.469,0,0,0,.647,3.047A2.239,2.239,0,0,0,183.435-2.7ZM197.6.254A6.743,6.743,0,0,1,192.683-1.6a6.588,6.588,0,0,1-1.9-4.938v-.355a8.3,8.3,0,0,1,.8-3.7,5.87,5.87,0,0,1,2.266-2.514,6.36,6.36,0,0,1,3.345-.882,5.7,5.7,0,0,1,4.437,1.777,7.222,7.222,0,0,1,1.619,5.04v1.5H194.5a3.408,3.408,0,0,0,1.073,2.158,3.243,3.243,0,0,0,2.266.813,3.96,3.96,0,0,0,3.313-1.536l1.8,2.019A5.508,5.508,0,0,1,200.726-.4,7.331,7.331,0,0,1,197.6.254Zm-.419-11.273a2.3,2.3,0,0,0-1.771.736,3.8,3.8,0,0,0-.87,2.107h5.1v-.292a2.712,2.712,0,0,0-.66-1.885A2.371,2.371,0,0,0,197.184-11.02Zm11.527-2.717.114,1.587a4.8,4.8,0,0,1,3.948-1.841,3.986,3.986,0,0,1,3.25,1.282,5.982,5.982,0,0,1,1.092,3.834V0h-3.669V-8.785a2.38,2.38,0,0,0-.508-1.695,2.273,2.273,0,0,0-1.688-.527,2.524,2.524,0,0,0-2.323,1.32V0h-3.669V-13.736Zm15.577-3.377v3.377h2.349v2.691h-2.349v6.855A1.637,1.637,0,0,0,224.58-3.1a1.467,1.467,0,0,0,1.117.33,5.851,5.851,0,0,0,1.079-.089v2.78a7.553,7.553,0,0,1-2.222.33q-3.859,0-3.936-3.9v-7.4h-2.006v-2.691h2.006v-3.377ZM236.641,0a4.074,4.074,0,0,1-.368-1.231A4.439,4.439,0,0,1,232.807.254a4.877,4.877,0,0,1-3.345-1.168,3.756,3.756,0,0,1-1.327-2.945,3.882,3.882,0,0,1,1.619-3.352,7.987,7.987,0,0,1,4.678-1.181h1.688v-.787a2.264,2.264,0,0,0-.489-1.523,1.923,1.923,0,0,0-1.542-.571,2.186,2.186,0,0,0-1.454.444,1.509,1.509,0,0,0-.527,1.219h-3.669a3.685,3.685,0,0,1,.736-2.209,4.867,4.867,0,0,1,2.082-1.593,7.588,7.588,0,0,1,3.021-.578,6,6,0,0,1,4.031,1.276A4.463,4.463,0,0,1,239.8-9.128v5.954a6.567,6.567,0,0,0,.546,2.958V0Zm-3.034-2.552a3.16,3.16,0,0,0,1.5-.362,2.376,2.376,0,0,0,1.016-.971V-6.246h-1.371q-2.755,0-2.933,1.9l-.013.216A1.469,1.469,0,0,0,232.286-3,1.874,1.874,0,0,0,233.606-2.552ZM250.339-10.3a9.967,9.967,0,0,0-1.32-.1,2.687,2.687,0,0,0-2.729,1.409V0H242.62V-13.736h3.466l.1,1.638a3.4,3.4,0,0,1,3.06-1.892,3.844,3.844,0,0,1,1.143.165ZM255.976,0h-3.682V-13.736h3.682Zm-3.9-17.291a1.807,1.807,0,0,1,.552-1.358,2.075,2.075,0,0,1,1.5-.533,2.079,2.079,0,0,1,1.5.533,1.8,1.8,0,0,1,.559,1.358,1.8,1.8,0,0,1-.565,1.371,2.084,2.084,0,0,1-1.492.533,2.084,2.084,0,0,1-1.492-.533A1.8,1.8,0,0,1,252.078-17.291ZM266.957,0a4.074,4.074,0,0,1-.368-1.231A4.439,4.439,0,0,1,263.123.254a4.877,4.877,0,0,1-3.345-1.168,3.756,3.756,0,0,1-1.327-2.945,3.882,3.882,0,0,1,1.619-3.352,7.987,7.987,0,0,1,4.678-1.181h1.688v-.787a2.264,2.264,0,0,0-.489-1.523,1.923,1.923,0,0,0-1.542-.571,2.186,2.186,0,0,0-1.454.444,1.509,1.509,0,0,0-.527,1.219h-3.669a3.686,3.686,0,0,1,.736-2.209,4.867,4.867,0,0,1,2.082-1.593,7.588,7.588,0,0,1,3.021-.578,6,6,0,0,1,4.031,1.276,4.463,4.463,0,0,1,1.492,3.586v5.954a6.567,6.567,0,0,0,.546,2.958V0Zm-3.034-2.552a3.16,3.16,0,0,0,1.5-.362,2.376,2.376,0,0,0,1.016-.971V-6.246h-1.371q-2.755,0-2.933,1.9l-.013.216A1.469,1.469,0,0,0,262.6-3,1.874,1.874,0,0,0,263.923-2.552Z" transform="translate(-15372 3723)"/></g></svg>