<svg xmlns="http://www.w3.org/2000/svg" xmlns:xlink="http://www.w3.org/1999/xlink" width="190" height="190.7" viewBox="0 0 190 190.7"><defs><clipPath id="a"><rect width="140.484" height="187.79" fill="none"/></clipPath><clipPath id="c"><rect width="11.48" height="9.946" fill="none"/></clipPath><clipPath id="d"><rect width="6.219" height="5.817" fill="none"/></clipPath><clipPath id="e"><rect width="6.972" height="7.131" fill="none"/></clipPath><clipPath id="f"><rect width="27.415" height="32.372" fill="none"/></clipPath><clipPath id="g"><rect width="5.86" height="7.799" fill="none"/></clipPath><clipPath id="h"><rect width="5.625" height="28.352" fill="none"/></clipPath><clipPath id="i"><rect width="19.881" height="6.956" fill="none"/></clipPath><clipPath id="j"><rect width="11.566" height="12.784" fill="none"/></clipPath><clipPath id="l"><rect width="83.871" height="143.373" fill="none"/></clipPath><clipPath id="m"><rect width="23.216" height="140.378" fill="none"/></clipPath><clipPath id="n"><rect width="16.114" height="3.144" fill="none"/></clipPath><clipPath id="o"><rect width="86.322" height="60.664" fill="none"/></clipPath><clipPath id="p"><rect width="62.379" height="14.932" fill="none"/></clipPath></defs><g transform="translate(-180 -9611.3)"><ellipse cx="95" cy="5.5" rx="95" ry="5.5" transform="translate(180 9791)" fill="#e2e2e2"/><g transform="translate(209 9611.3)"><g clip-path="url(#a)"><g clip-path="url(#a)"><path d="M203.835,76.618c-2-1.255-7.756-.011-6.8,6.311s-6.457,4.678-4.843,12,14.722,18.2,22.792,10.813,1.271-10.642,1.421-19.4c.089-5.21-2.273-14.534-12.571-9.722" transform="translate(-91.293 -35.802)" fill="#263238"/><path d="M225.678,105.105a.135.135,0,0,1-.095-.23c4.974-4.941,3.825-7.95,2.371-11.759a21.659,21.659,0,0,1-1.789-7.589c-.08-3.341-1.3-7.911-4.484-9.793-2.257-1.335-5.149-1.1-8.6.685a.134.134,0,1,1-.124-.239c3.538-1.834,6.52-2.063,8.861-.678,3.277,1.938,4.535,6.608,4.616,10.018a21.428,21.428,0,0,0,1.771,7.5c1.489,3.9,2.665,6.982-2.432,12.046a.136.136,0,0,1-.095.039" transform="translate(-101.243 -35.483)" fill="#263238"/><path d="M236.041,125.873c-.007-.017.082.121.139.2l.213.282c.153.2.313.391.486.584a13.956,13.956,0,0,0,1.122,1.12,18.586,18.586,0,0,0,2.6,2,26.614,26.614,0,0,0,2.951,1.623c.506.256,1.043.458,1.564.693.1.044.011.017-.065.042s-.126.077-.07.045a2.262,2.262,0,0,0,.6-.8,10.544,10.544,0,0,0,.59-1.434,28.905,28.905,0,0,0,.855-3.337c.237-1.156.421-2.338.582-3.527.179-1.184.309-2.4.44-3.576l2.132.012a48.352,48.352,0,0,1-.053,7.531,25.875,25.875,0,0,1-.593,3.855,12.647,12.647,0,0,1-.653,2.015,5.927,5.927,0,0,1-1.5,2.178,3.576,3.576,0,0,1-1.706.824,3.7,3.7,0,0,1-1.866-.162c-.615-.218-1.241-.405-1.849-.655a25.873,25.873,0,0,1-3.574-1.726,22.852,22.852,0,0,1-3.289-2.369,17.672,17.672,0,0,1-1.471-1.475c-.234-.263-.462-.541-.684-.829l-.325-.461c-.115-.175-.2-.292-.356-.574Z" transform="translate(-110.461 -56.965)" fill="#ffc3bd"/><path d="M231.775,127.3c4.9,3.13,4.5,5.06,4.5,5.06l-3.081,4.462s-7.858-3.153-8.355-5.618c-.517-2.567,4.552-5.421,6.931-3.9" transform="translate(-106.914 -60.341)" fill="#263238"/><g transform="translate(117.894 66.538)" opacity="0.1"><g clip-path="url(#c)"><path d="M231.775,127.3c4.9,3.13,4.5,5.06,4.5,5.06l-3.081,4.462s-7.858-3.153-8.355-5.618c-.517-2.567,4.552-5.421,6.931-3.9" transform="translate(-224.807 -126.879)" fill="#fff"/></g></g><path d="M243.734,136.426h0a.421.421,0,0,1,.1.586l-3.156,4.517a.421.421,0,0,1-.69-.482l3.156-4.517a.421.421,0,0,1,.586-.1" transform="translate(-114.099 -64.845)" fill="#407bff"/><path d="M260.869,117.7l-2.432-3.251,4.667-1.2s.95,2.9-.6,5.018Z" transform="translate(-122.907 -53.859)" fill="#ffc3bd"/><path d="M258.565,107.331l3.886-.656.652,3.448-4.666,1.2Z" transform="translate(-122.907 -50.732)" fill="#ffc3bd"/><path d="M183.286,339.969l4.449.429,3.179-10.453-4.449-.429Z" transform="translate(-87.167 -156.711)" fill="#ffc3bd"/><path d="M129.339,312.884l3.3,3.1,7.121-7.826-3.3-3.1Z" transform="translate(-61.511 -145.079)" fill="#ffc3bd"/><path d="M132.014,318.831l-2.479-4.466a.359.359,0,0,0-.447-.166l-3.816,1.452a.73.73,0,0,0-.353,1.029c.891,1.542,1.4,2.242,2.489,4.206.671,1.208,1.977,3.979,2.9,5.648.906,1.631,2.625.842,2.389.064a13.187,13.187,0,0,1-.561-6.967,1.186,1.186,0,0,0-.124-.8" transform="translate(-59.364 -149.414)" fill="#263238"/><path d="M186.408,347.679h-5.394a.447.447,0,0,0-.426.328l-1.173,4.267a.671.671,0,0,0,.658.854c1.9.017,2.8.009,5.173.009h7.25c1.971,0,2.383-1.993,1.567-2.173-3.656-.809-5.764-1.925-6.892-2.99a1.107,1.107,0,0,0-.764-.3" transform="translate(-85.314 -165.349)" fill="#263238"/><g transform="translate(97.526 172.808)" opacity="0.2"><g clip-path="url(#d)"><path d="M192.187,329.95l-1.637,5.388h-4.581l1.768-5.817Z" transform="translate(-185.968 -329.521)"/></g></g><g transform="translate(71.274 159.98)" opacity="0.2"><g clip-path="url(#e)"><path d="M139.583,305.06l3.3,3.1-3.672,4.032-3.3-3.1Z" transform="translate(-135.91 -305.06)"/></g></g><path d="M213.325,121.7s1.782,1.215-9.517,25.767l-17.8-4.926c2.3-7.16,3.549-11.624,4.2-27.446a54.52,54.52,0,0,1,7.832,1.1,58.753,58.753,0,0,1,8.08,2.237,77.739,77.739,0,0,1,7.2,3.271" transform="translate(-88.464 -54.736)" fill="#263238"/><g transform="translate(97.549 60.357)" opacity="0.1"><g clip-path="url(#f)"><path d="M213.325,121.7s1.782,1.215-9.517,25.767l-17.8-4.926c2.3-7.16,3.549-11.624,4.2-27.446a54.52,54.52,0,0,1,7.832,1.1,58.753,58.753,0,0,1,8.08,2.237,77.739,77.739,0,0,1,7.2,3.271" transform="translate(-186.013 -115.093)" fill="#fff"/></g></g><path d="M212.159,100.256c-.21,2.741-1.02,7.646-3.32,8.877,0,0-1.337,4.548,4.467,6.218,4.91,1.413,3.613-3.98,3.613-3.98-2.708-1.495-1.034-4.143-.539-7.108Z" transform="translate(-99.256 -47.68)" fill="#ffc3bd"/><g transform="translate(110.77 52.578)" opacity="0.2"><g clip-path="url(#g)"><path d="M213.354,100.259c-.167,2.2-.721,5.806-2.131,7.77,1.636.161,4.218-.339,4.95-1.555a17.759,17.759,0,0,0,.909-2.679Z" transform="translate(-211.223 -100.259)"/></g></g><path d="M217.43,87.01c-.012,4.512.079,6.422-2.056,8.863-3.212,3.671-8.752,2.669-10.088-1.755-1.2-3.983-.98-10.693,3.315-12.74a6.154,6.154,0,0,1,8.829,5.632" transform="translate(-97.33 -38.405)" fill="#ffc3bd"/><path d="M210.314,83.119c2.533,3.538,11.053,8.459,11.625,3.718s-3.781-9.426-8.089-8.974-5.691,2.245-3.536,5.256" transform="translate(-99.544 -37.015)" fill="#263238"/><path d="M229.5,98.705a3.3,3.3,0,0,1-1.894,1.661c-1.1.363-1.7-.6-1.442-1.669.233-.958,1.086-2.3,2.209-2.2a1.481,1.481,0,0,1,1.126,2.212" transform="translate(-107.53 -45.888)" fill="#ffc3bd"/><path d="M203.182,173.549s6.334,25.66,2.18,45.071c-2.783,13-12.818,39.263-12.818,39.263l-7.846-.2s7.6-27.56,9.167-38.4c2.687-18.54-3.713-49.341-3.713-49.341Z" transform="translate(-87.838 -80.821)" fill="#407bff"/><g transform="translate(104.355 96.416)" opacity="0.2"><g clip-path="url(#h)"><path d="M202.913,183.852l-3.923,6.188a189.446,189.446,0,0,1,2.245,22.164c5.517-9.878,2.905-23.122,1.679-28.352" transform="translate(-198.99 -183.852)"/></g></g><path d="M193.275,334.965l-9.989-.247.669-3.553,10.052.753Z" transform="translate(-87.167 -157.495)" fill="#263238"/><path d="M176.786,171.33s-3.663,28.057-11.577,44c-6.393,12.876-23.452,31.205-23.452,31.205l-4.362-4.493s11.523-19.92,16.274-28.473c11.65-20.972,1.323-39.776,9.222-46.14Z" transform="translate(-65.342 -79.625)" fill="#407bff"/><path d="M141.45,312.139l-5.629-5.486,1.867-2.541,6.134,6.342Z" transform="translate(-64.594 -144.629)" fill="#263238"/><path d="M184.9,165.23l-1.243,1.371c-.1.106.015.273.221.33l18.662,5.166c.16.045.315,0,.353-.1l.6-1.548c.041-.108-.072-.239-.247-.288l-18.021-4.989a.334.334,0,0,0-.327.053" transform="translate(-87.325 -78.546)" fill="#407bff"/><g transform="translate(96.293 86.614)" opacity="0.5"><g clip-path="url(#i)"><path d="M184.9,165.23l-1.243,1.371c-.1.106.015.273.221.33l18.662,5.166c.16.045.315,0,.353-.1l.6-1.548c.041-.108-.072-.239-.247-.288l-18.021-4.989a.334.334,0,0,0-.327.053" transform="translate(-183.618 -165.16)" fill="#fff"/></g></g><path d="M189.046,168.271l-.482-.134c-.1-.026-.156-.1-.132-.155l.8-2.006c.023-.059.121-.085.217-.059l.482.134c.1.027.156.1.132.155l-.8,2.007c-.023.059-.121.085-.217.058" transform="translate(-89.611 -78.902)" fill="#407bff"/><path d="M216.453,175.859l-.482-.134c-.1-.027-.156-.1-.132-.155l.8-2.006c.023-.059.121-.085.217-.059l.482.134c.1.027.156.1.132.155l-.8,2.007c-.023.059-.121.085-.217.058" transform="translate(-102.646 -82.51)" fill="#407bff"/><path d="M202.749,172.065l-.482-.134c-.1-.027-.156-.1-.133-.155l.8-2.007c.023-.058.121-.085.217-.058l.482.134c.1.027.156.1.132.155l-.8,2.007c-.023.059-.121.085-.217.058" transform="translate(-96.128 -80.706)" fill="#407bff"/><path d="M215.364,95.263c.021.366-.155.674-.394.688s-.45-.271-.472-.637.155-.674.394-.689.45.272.472.638" transform="translate(-102.009 -45.002)" fill="#263238"/><path d="M207.474,95.727c.021.366-.155.674-.394.688s-.45-.271-.472-.637.155-.674.394-.688.45.271.472.637" transform="translate(-98.257 -45.222)" fill="#263238"/><path d="M206.754,94.933l-.894-.2s.491.66.894.2" transform="translate(-97.903 -45.052)" fill="#263238"/><path d="M209.358,97.382a9.788,9.788,0,0,1-1.168,2.413,1.578,1.578,0,0,0,1.319.168Z" transform="translate(-99.011 -46.313)" fill="#ed847e"/><path d="M213.9,103.407a3.472,3.472,0,0,1-.668.1.09.09,0,1,1-.01-.179,2.926,2.926,0,0,0,2.313-1.281.089.089,0,1,1,.155.089,2.977,2.977,0,0,1-1.79,1.268" transform="translate(-101.365 -48.511)" fill="#263238"/><path d="M217.053,89.89a.179.179,0,0,1-.17-.045,1.738,1.738,0,0,0-1.505-.516.179.179,0,0,1-.077-.35,2.1,2.1,0,0,1,1.832.609.179.179,0,0,1-.08.3" transform="translate(-102.326 -42.303)" fill="#263238"/><path d="M204.592,90.7a.179.179,0,0,1-.218-.27,2.1,2.1,0,0,1,1.713-.892.179.179,0,0,1-.021.358,1.739,1.739,0,0,0-1.4.747.178.178,0,0,1-.07.057" transform="translate(-97.179 -42.582)" fill="#263238"/><path d="M172.653,125.83c-.458.691-.873,1.245-1.337,1.833s-.924,1.137-1.405,1.687a40.119,40.119,0,0,1-3.085,3.116,33.367,33.367,0,0,1-3.43,2.765c-.59.44-1.227.825-1.848,1.224l-.966.554-.484.275c-.177.093-.408.219-.631.309a5.416,5.416,0,0,1-3.105.407,5.869,5.869,0,0,1-2.7-1.279,9.223,9.223,0,0,1-1.708-1.88,14.821,14.821,0,0,1-1.181-2,30.5,30.5,0,0,1-2.564-8.331l2.077-.481c.434,1.247.922,2.539,1.472,3.754a25.137,25.137,0,0,0,1.82,3.494,9.1,9.1,0,0,0,2.268,2.61,2.16,2.16,0,0,0,1.062.427,1.785,1.785,0,0,0,.957-.234,3.333,3.333,0,0,0,.294-.17l.409-.266.813-.533c.524-.39,1.065-.748,1.572-1.164a38.692,38.692,0,0,0,2.97-2.581c.956-.906,1.856-1.876,2.72-2.874q.654-.743,1.268-1.516c.4-.506.821-1.06,1.147-1.518Z" transform="translate(-70.487 -58.713)" fill="#ffc3bd"/><path d="M149.445,123.79l.46-4.892-4.4,1.8s.525,2.461,2.2,3.339Z" transform="translate(-69.2 -56.545)" fill="#ffc3bd"/><path d="M148.127,113.193l-3.4-.742.411,5.18,4.4-1.8Z" transform="translate(-68.827 -53.48)" fill="#ffc3bd"/><path d="M186.941,115.093c-2.29-.02-7.812,8.749-7.812,8.749l3.9,4.035s7.328-4.951,7.628-7.884c.254-2.49-.8-4.874-3.717-4.9" transform="translate(-85.19 -54.736)" fill="#263238"/><g transform="translate(93.939 60.357)" opacity="0.1"><g clip-path="url(#j)"><path d="M186.941,115.093c-2.29-.02-7.812,8.749-7.812,8.749l3.9,4.035s7.328-4.951,7.628-7.884c.254-2.49-.8-4.874-3.717-4.9" transform="translate(-179.129 -115.093)" fill="#fff"/></g></g><path d="M183.033,135.663h0a.421.421,0,0,1-.595.006l-3.935-3.858a.421.421,0,0,1,.589-.6l3.935,3.858a.421.421,0,0,1,.006.595" transform="translate(-84.832 -62.343)" fill="#407bff"/><path d="M139.071,325.907a.657.657,0,0,0,.395-.148.35.35,0,0,0,.154-.318c-.047-.569-1.488-1.339-1.652-1.425a.09.09,0,0,0-.128.1c.163.579.517,1.577,1.056,1.759a.537.537,0,0,0,.175.03m-1-1.63c.495.281,1.339.829,1.367,1.178a.17.17,0,0,1-.083.16.422.422,0,0,1-.4.092c-.306-.1-.629-.632-.879-1.431" transform="translate(-65.552 -154.089)" fill="#407bff"/><path d="M139.293,324.075a1.035,1.035,0,0,0,.647-.162.358.358,0,0,0,.081-.442.542.542,0,0,0-.336-.319c-.615-.218-1.755.409-1.8.436a.089.089,0,0,0,0,.155,3.248,3.248,0,0,0,1.414.331m.087-.79a.743.743,0,0,1,.246.037.365.365,0,0,1,.23.217c.057.139.013.2-.031.238-.267.227-1.214.1-1.7-.11a3.379,3.379,0,0,1,1.258-.382" transform="translate(-65.552 -153.662)" fill="#407bff"/><path d="M195.936,348.342a1.774,1.774,0,0,0,1.041-.249.651.651,0,0,0,.266-.5.292.292,0,0,0-.127-.277c-.491-.334-2.45.57-2.671.675a.088.088,0,0,0-.051.091.09.09,0,0,0,.069.078,7.205,7.205,0,0,0,1.473.187m.861-.929a.4.4,0,0,1,.219.047.117.117,0,0,1,.049.119.474.474,0,0,1-.2.372,3.355,3.355,0,0,1-2.1.084,6.84,6.84,0,0,1,2.026-.622" transform="translate(-92.45 -165.139)" fill="#407bff"/><path d="M194.483,347.173a.086.086,0,0,0,.034-.007c.589-.241,1.823-1.231,1.756-1.723-.014-.1-.087-.237-.353-.268-1.056-.122-1.506,1.807-1.524,1.888a.089.089,0,0,0,.029.089.092.092,0,0,0,.058.021m1.341-1.825a.716.716,0,0,1,.074,0c.184.022.194.092.2.115.042.314-.839,1.119-1.477,1.453.132-.45.528-1.573,1.205-1.573" transform="translate(-92.449 -164.155)" fill="#407bff"/><path d="M214.644,94.471l-.894-.2s.491.66.894.2" transform="translate(-101.655 -44.832)" fill="#263238"/></g><g clip-path="url(#a)"><path d="M20.322,207.3l59.311-5.183a7.343,7.343,0,0,0,6.656-7.931L73.927,52.7A7.343,7.343,0,0,0,66,46.047L6.685,51.229A7.344,7.344,0,0,0,.028,59.16L12.39,200.643a7.344,7.344,0,0,0,7.931,6.656" transform="translate(0 -21.886)" fill="#407bff"/><path d="M5.011,130.023h0a2.09,2.09,0,0,0,1.895-2.258L5.274,109.082a2.084,2.084,0,1,0-4.152.362l1.632,18.683a2.091,2.091,0,0,0,2.258,1.895" transform="translate(-0.53 -50.972)" fill="#407bff"/><path d="M144.24,109.425l.729-.064a1.551,1.551,0,0,0,1.405-1.675l-1-11.4a1.551,1.551,0,0,0-1.675-1.406l-.729.063a1.551,1.551,0,0,0-1.406,1.676l1,11.4a1.551,1.551,0,0,0,1.675,1.406" transform="translate(-67.324 -45.118)" fill="#263238"/><path d="M147.431,145.943l.729-.064a1.55,1.55,0,0,0,1.405-1.675l-1-11.4a1.551,1.551,0,0,0-1.675-1.406l-.729.064a1.551,1.551,0,0,0-1.406,1.675l1,11.4a1.551,1.551,0,0,0,1.675,1.406" transform="translate(-68.842 -62.486)" fill="#263238"/><path d="M22.7,207.092l59.311-5.183a7.343,7.343,0,0,0,6.656-7.931L76.306,52.5a7.343,7.343,0,0,0-7.931-6.656L9.064,51.021a7.344,7.344,0,0,0-6.657,7.931L14.769,200.435a7.344,7.344,0,0,0,7.931,6.657" transform="translate(-1.131 -21.787)" fill="#263238"/><g transform="translate(2.482 33.119)" opacity="0.4"><g clip-path="url(#l)"><path d="M17.981,206.521l69.371-6.062a1.37,1.37,0,0,0,1.246-1.485L76.839,64.4a1.371,1.371,0,0,0-1.485-1.247L5.984,69.22A1.37,1.37,0,0,0,4.738,70.7L16.5,205.275a1.37,1.37,0,0,0,1.485,1.246" transform="translate(-4.733 -63.153)" fill="#407bff"/></g></g><g transform="translate(40.731 33.924)" opacity="0.3"><g clip-path="url(#m)"><path d="M100.885,64.689,92.168,203.8l-14.5,1.267L86.386,65.956Z" transform="translate(-77.669 -64.689)" fill="#407bff"/></g></g><g transform="translate(29.914 29.454)" opacity="0.2"><g clip-path="url(#n)"><path d="M72.424,56.167,57.611,57.461a.626.626,0,0,0-.567.676l.052.6a.626.626,0,0,0,.677.567l14.812-1.294a.626.626,0,0,0,.567-.676l-.052-.6a.626.626,0,0,0-.676-.567" transform="translate(-57.042 -56.165)" fill="#fff"/></g></g><path d="M53.622,158.969h72.165a7.1,7.1,0,0,1,7.079,7.079v35.394a7.1,7.1,0,0,1-7.079,7.079h-24.97L89.7,219.634,78.591,208.521H53.622a7.1,7.1,0,0,1-7.079-7.079V166.048a7.1,7.1,0,0,1,7.079-7.079" transform="translate(-22.135 -75.602)" fill="#407bff"/><g transform="translate(24.408 83.367)" opacity="0.3"><g clip-path="url(#o)"><path d="M53.622,158.969h72.165a7.1,7.1,0,0,1,7.079,7.079v35.394a7.1,7.1,0,0,1-7.079,7.079h-24.97L89.7,219.634,78.591,208.521H53.622a7.1,7.1,0,0,1-7.079-7.079V166.048a7.1,7.1,0,0,1,7.079-7.079" transform="translate(-46.543 -158.969)" fill="#fff"/></g></g><path d="M68.866,179v25.017a3.671,3.671,0,0,0,3.619,3.7h55.671a3.672,3.672,0,0,0,3.62-3.7V179a3.7,3.7,0,0,0-.265-1.382,3.629,3.629,0,0,0-3.354-2.32H72.485a3.633,3.633,0,0,0-3.354,2.316A3.706,3.706,0,0,0,68.866,179" transform="translate(-32.751 -83.37)" fill="#fff"/><g transform="translate(36.38 91.933)" opacity="0.1"><g clip-path="url(#p)"><path d="M69.372,177.619l26.914,11.722a10.692,10.692,0,0,0,8.553,0l26.912-11.72a3.629,3.629,0,0,0-3.354-2.32H72.726a3.633,3.633,0,0,0-3.354,2.316" transform="translate(-69.372 -175.303)"/></g></g><path d="M36.648,155.2a10.76,10.76,0,1,0,10.76-10.76,10.76,10.76,0,0,0-10.76,10.76" transform="translate(-17.429 -68.694)" fill="#de5753"/><path d="M55.912,165.574H53.407v-9.442a8.641,8.641,0,0,1-3.237,1.9v-2.274a7.25,7.25,0,0,0,2.131-1.217,4.626,4.626,0,0,0,1.577-2.091h2.033Z" transform="translate(-23.86 -72.502)" fill="#fff"/><path d="M150.976,19.807a1.562,1.562,0,0,1-1.542-1.329A18.059,18.059,0,0,0,128.912,3.324a1.561,1.561,0,1,1-.464-3.087,21.183,21.183,0,0,1,24.074,17.776,1.56,1.56,0,0,1-1.312,1.776,1.538,1.538,0,0,1-.234.018" transform="translate(-60.455 0)" fill="#407bff"/><path d="M144.282,28.084a1.561,1.561,0,0,1-1.542-1.329,10.211,10.211,0,0,0-11.6-8.567,1.561,1.561,0,1,1-.465-3.087,13.336,13.336,0,0,1,15.155,11.19,1.56,1.56,0,0,1-1.312,1.776,1.542,1.542,0,0,1-.234.018" transform="translate(-61.513 -7.11)" fill="#407bff"/><path d="M137.587,36.361a1.562,1.562,0,0,1-1.542-1.329,2.359,2.359,0,0,0-2.683-1.982,1.561,1.561,0,0,1-.465-3.087,5.481,5.481,0,0,1,6.235,4.6,1.56,1.56,0,0,1-1.312,1.776,1.543,1.543,0,0,1-.234.018" transform="translate(-62.571 -14.22)" fill="#407bff"/></g></g></g></g></svg>